<svg width="153" height="164" viewBox="0 0 153 164" fill="none" xmlns="http://www.w3.org/2000/svg">
<g clip-path="url(#clip0_367_14994)">
<g clip-path="url(#clip1_367_14994)">
<g clip-path="url(#clip2_367_14994)">
<mask id="mask0_367_14994" style="mask-type:luminance" maskUnits="userSpaceOnUse" x="0" y="0" width="153" height="153">
<path d="M152.672 0H0V152.672H152.672V0Z" fill="white"/>
</mask>
<g mask="url(#mask0_367_14994)">
<path d="M16.5733 68.6355C15.3923 69.498 14.3382 70.5767 13.4515 71.8304C12.7361 72.969 12.1436 74.2058 11.6873 75.5132C11.5237 74.0651 11.2597 72.6349 10.898 71.2366C10.5288 69.4355 9.92869 67.7097 9.11809 66.1174C8.21547 64.2868 7.00774 62.6856 5.56611 61.4081C4.77251 60.7329 3.88826 60.2165 2.94949 59.8796C2.8824 60.294 2.78372 60.9891 2.7048 61.8775C2.65931 62.9526 2.68703 64.0302 2.78768 65.1C3.02448 67.5353 3.46649 70.3526 5.00964 72.8109C7.27106 76.572 9.9903 77.4146 11.3243 77.7183C11.3459 78.4893 11.2983 79.2608 11.1822 80.0202C12.7608 79.8729 15.8905 79.0257 19.1584 76.2774C20.1075 75.4783 20.9795 74.5614 21.7592 73.5429C22.4739 72.7485 23.1264 71.8811 23.7088 70.9512C24.1424 70.2561 24.5277 69.5217 24.8612 68.7552C25.1136 68.3104 25.3441 67.8494 25.5519 67.3741C24.4597 67.0161 23.3317 66.8287 22.1972 66.8172C21.292 66.8095 20.3889 66.9222 19.5057 67.1532C18.4696 67.4717 17.481 67.9714 16.5733 68.6355Z" fill="url(#paint0_linear_367_14994)"/>
<path d="M20.8175 54.0239C19.5335 54.4679 18.339 55.2085 17.305 56.2014C16.372 57.0575 15.526 58.0353 14.7831 59.1155C14.9798 57.7314 15.0643 56.3288 15.0357 54.9262C14.9646 53.1279 14.7345 51.3431 14.349 49.5999C13.24 44.8168 10.6076 42.5796 9.78274 42.0547C9.24441 43.6203 8.8399 45.244 8.57506 46.9023C8.20062 49.523 8.38634 52.2112 9.11576 54.7283C9.61559 56.455 10.4866 58.0035 11.6455 59.2259C12.3699 60.0018 13.1943 60.6404 14.0885 61.118C13.984 61.8638 13.7704 62.5832 13.4571 63.2448C16.2421 63.7098 19.0832 63.2553 21.6582 61.9328C23.6375 61.0728 25.4648 59.7964 27.0493 58.1671C27.9867 57.3439 28.8289 56.3831 29.5554 55.3083C28.2496 54.4143 26.8018 53.8395 25.2997 53.6187C23.7975 53.3979 22.2725 53.5357 20.8175 54.0239Z" fill="url(#paint1_linear_367_14994)"/>
<path d="M28.0396 41.0745C26.7356 41.1864 25.4552 41.5407 24.2469 42.124C23.2004 42.6556 22.2269 43.3646 21.358 44.2279C21.7614 42.943 22.1001 41.6319 22.3723 40.3011C22.7439 38.6201 22.897 36.8836 22.8262 35.1497C22.7691 33.1712 22.3662 31.2272 21.6421 29.4367C21.2343 28.4689 20.6915 27.5868 20.0358 26.8265C19.1597 27.9497 16.3853 33.0182 16.8786 38.5195C17.3284 42.8053 19.2466 44.9644 20.2332 45.8851C19.9466 46.5328 19.597 47.1399 19.1913 47.6944C21.7383 48.8944 24.5148 49.2744 27.2306 48.7946C28.3286 48.5961 29.41 48.2881 30.4629 47.8739C31.3614 47.5722 32.2344 47.1763 33.0716 46.6907C33.8136 46.2718 34.3858 45.8022 34.8911 45.4524C35.3962 45.1025 35.775 44.8171 35.9921 44.6422C35.2202 43.7836 34.3518 43.0512 33.411 42.4646C31.772 41.4098 29.9073 40.9272 28.0396 41.0745Z" fill="url(#paint2_linear_367_14994)"/>
<path d="M37.7201 30.4909C37.0705 30.336 36.4098 30.2527 35.7468 30.2423C35.1429 30.2656 34.5414 30.341 33.9471 30.4679C32.8636 30.7129 31.8052 31.0909 30.7898 31.5958C31.4806 30.5533 32.077 29.4302 32.5697 28.2444C32.8671 27.5079 33.1306 26.7534 33.359 25.984C33.6371 25.1801 33.8563 24.35 34.0142 23.5028C34.8942 18.9222 33.5405 15.7366 33.0434 14.8941C32.0882 15.8655 28.3469 19.622 27.7707 25.0219C27.5723 26.388 27.6157 27.7871 27.898 29.1329C28.1803 30.4788 28.6958 31.743 29.4125 32.848C29.0472 33.4156 28.6013 33.906 28.0943 34.2981C30.2213 36.1388 32.745 37.2544 35.3836 37.5205C37.799 37.9072 39.725 37.4837 41.3036 37.1477C42.3938 36.9245 43.4549 36.5393 44.461 36.0014C43.7158 34.5982 42.7342 33.3863 41.5755 32.4391C40.4167 31.4918 39.105 30.8291 37.7201 30.4909Z" fill="url(#paint3_linear_367_14994)"/>
<path d="M49.3311 22.9595C48.2111 22.3892 47.0198 22.0316 45.8029 21.9007C45.2422 21.8271 44.6773 21.8056 44.1137 21.8363C43.5888 21.9007 43.0836 21.9928 42.61 22.1033C42.9455 21.7626 43.3204 21.3575 43.7071 20.8834C44.0939 20.4092 44.532 19.9627 44.9504 19.4241C45.8969 18.2112 46.6817 16.8394 47.279 15.3545C48.0999 13.223 48.4393 11.5336 48.4629 10.0512C48.4841 9.04027 48.3614 8.03224 48.0999 7.06812C46.9632 7.52846 42.8153 10.3366 41.0984 15.0322C40.2033 17.5489 40.1948 20.3757 41.0748 22.8998C40.5997 23.3137 40.0651 23.6254 39.4961 23.8204C41.1158 26.1654 43.2665 27.9341 45.7042 28.9258C47.7999 29.7267 49.8324 30.2286 51.3636 30.2147C52.895 30.2009 54.0908 30.0996 54.5881 30.0121C54.2737 28.9077 53.8331 27.8578 53.2778 26.891C52.3094 25.1696 50.9403 23.8059 49.3311 22.9595Z" fill="url(#paint4_linear_367_14994)"/>
<path d="M136.053 68.5668C137.236 69.4242 138.292 70.4984 139.183 71.7479C139.902 72.8851 140.497 74.1221 140.955 75.4307C141.111 73.982 141.367 72.5503 141.72 71.1494C142.083 69.3368 142.68 67.5987 143.489 65.9935C144.389 64.1577 145.598 62.5517 147.041 61.2703C147.833 60.5899 148.718 60.0701 149.658 59.7327C149.72 60.147 149.823 60.8376 149.905 61.7305C149.954 62.8053 149.929 63.8829 149.83 64.953C149.601 67.3883 149.167 70.2057 147.632 72.6686C145.379 76.4434 142.663 77.2951 141.318 77.6036C141.299 78.3749 141.349 79.1463 141.467 79.9054C139.889 79.7673 136.759 78.9294 133.48 76.1903C132.529 75.3947 131.655 74.4825 130.871 73.4696C130.156 72.677 129.503 71.8128 128.917 70.887C128.483 70.1941 128.095 69.4631 127.757 68.7003C127.418 68.0972 127.193 67.6184 127.062 67.3193C128.154 66.9573 129.282 66.7653 130.417 66.7485C131.323 66.7375 132.228 66.8472 133.113 67.0753C134.153 67.3934 135.144 67.8965 136.053 68.5668Z" fill="url(#paint5_linear_367_14994)"/>
<path d="M131.773 53.9824C133.059 54.4193 134.256 55.157 135.289 56.1508C136.227 57.0011 137.077 57.9741 137.823 59.051C137.622 57.6689 137.534 56.2679 137.559 54.8664C137.622 53.0654 137.847 51.2772 138.23 49.5309C139.323 44.7156 141.947 42.4829 142.773 41.9581C143.315 43.5199 143.725 45.1405 143.995 46.7964C144.381 49.4243 144.202 52.1225 143.475 54.65C142.982 56.3785 142.115 57.9304 140.961 59.1569C140.239 59.9358 139.417 60.5787 138.526 61.0627C138.63 61.8077 138.845 62.5258 139.161 63.185C136.377 63.6603 133.535 63.217 130.956 61.9053C128.974 61.055 127.143 59.7881 125.553 58.1671C124.613 57.3494 123.768 56.3932 123.039 55.3221C124.341 54.4194 125.786 53.835 127.288 53.6047C128.789 53.3744 130.315 53.5029 131.773 53.9824Z" fill="url(#paint6_linear_367_14994)"/>
<path d="M124.523 41.047C125.827 41.155 127.109 41.5046 128.319 42.0828C129.365 42.6098 130.339 43.3141 131.208 44.1728C130.803 42.8897 130.461 41.5801 130.186 40.2506C129.809 38.5644 129.65 36.8218 129.716 35.0808C129.766 33.1023 130.162 31.1564 130.881 29.3633C131.278 28.3951 131.812 27.5113 132.459 26.7485C133.34 27.8671 136.13 32.9218 135.66 38.4276C135.226 42.7136 133.316 44.8726 132.329 45.7933C132.625 46.4471 132.982 47.0602 133.395 47.6208C130.849 48.8371 128.07 49.2331 125.348 48.7671C124.248 48.5691 123.165 48.2611 122.111 47.8464C121.212 47.549 120.338 47.1577 119.499 46.6772C118.753 46.2582 118.181 45.7886 117.675 45.4434C117.17 45.0982 116.787 44.8128 116.57 44.6378C117.342 43.7779 118.208 43.0424 119.148 42.451C120.786 41.3908 122.653 40.9033 124.523 41.047Z" fill="url(#paint7_linear_367_14994)"/>
<path d="M114.807 30.5048C115.456 30.3443 116.117 30.258 116.781 30.2469C117.384 30.266 117.986 30.3398 118.58 30.4679C119.673 30.704 120.741 31.0776 121.765 31.582C121.063 30.5454 120.455 29.4269 119.95 28.2444C119.652 27.5095 119.389 26.7564 119.16 25.9887C118.878 25.185 118.655 24.3549 118.493 23.5073C117.609 18.9222 118.951 15.7366 119.437 14.8941C120.396 15.8655 124.149 19.6036 124.741 25.0219C124.944 26.3852 124.906 27.7826 124.63 29.1282C124.353 30.4738 123.845 31.7396 123.135 32.848C123.5 33.4139 123.948 33.9015 124.457 34.2888C122.333 36.1268 119.814 37.2421 117.179 37.5113C114.764 37.9072 112.838 37.5113 111.259 37.1614C110.161 36.947 109.092 36.5663 108.078 36.029C108.821 34.6247 109.8 33.4108 110.957 32.4613C112.113 31.5116 113.423 30.846 114.807 30.5048Z" fill="url(#paint8_linear_367_14994)"/>
<path d="M103.163 23.0145C104.28 22.4414 105.468 22.0794 106.683 21.9418C107.245 21.8669 107.811 21.8437 108.376 21.8729C108.901 21.9327 109.406 22.0247 109.88 22.1352C109.541 21.7945 109.17 21.3894 108.779 20.9199C108.388 20.4503 107.95 19.9992 107.532 19.4652C106.587 18.2547 105.802 16.8862 105.203 15.4048C104.378 13.278 104.019 11.5885 104.019 10.1016C103.991 9.09188 104.107 8.08378 104.363 7.11847C105.515 7.57883 109.655 10.3686 111.384 15.0596C112.286 17.5726 112.303 20.3994 111.431 22.927C111.906 23.3409 112.441 23.6528 113.01 23.8477C111.396 26.2008 109.25 27.9792 106.814 28.9807C104.722 29.7909 102.689 30.2972 101.162 30.288C99.6346 30.2789 98.4348 30.1822 97.9375 30.0993C98.2539 28.9936 98.6959 27.9423 99.2518 26.9735C100.206 25.2465 101.563 23.873 103.163 23.0145Z" fill="url(#paint9_linear_367_14994)"/>
<path fill-rule="evenodd" clip-rule="evenodd" d="M35.3354 137.359C33.7286 136.014 32.1752 134.569 30.6823 133.028C20.1058 122.111 13.2713 107.1 11.4399 90.7653C10.4606 82.4123 10.8516 73.9184 12.5924 65.7359C15.206 53.4328 20.7008 42.2197 28.4625 33.349C36.2243 24.4782 45.9475 18.2992 56.546 15.5021C56.6403 15.4725 56.7387 15.4656 56.8352 15.4817C56.9318 15.4977 57.0247 15.5364 57.1081 15.5954C57.1915 15.6545 57.2637 15.7327 57.3205 15.8251C57.3774 15.9176 57.4175 16.0226 57.4386 16.1337C57.4596 16.2448 57.4612 16.3597 57.4431 16.4716C57.4251 16.5834 57.3878 16.6898 57.3335 16.7844C57.2793 16.879 57.2091 16.9597 57.1274 17.0217C57.0456 17.0838 56.954 17.1259 56.8578 17.1456C46.5197 19.8749 37.0354 25.9024 29.4642 34.5551C21.8928 43.2078 16.5324 54.1451 13.9816 66.1456C12.2867 74.1224 11.9077 82.4024 12.8647 90.5444C14.7096 106.97 21.7351 122.004 32.5702 132.713C33.4697 133.605 34.3921 134.463 35.3354 135.286V137.359ZM117.326 137.51C118.966 136.138 120.55 134.662 122.072 133.086C132.657 122.124 139.476 107.057 141.265 90.6775C142.221 82.321 141.807 73.8282 140.041 65.6528C137.391 53.3589 131.863 42.1664 124.075 33.3251C116.287 24.4837 106.545 18.3416 95.9374 15.5846C95.7552 15.5506 95.5688 15.5992 95.4164 15.7204C95.2638 15.8416 95.157 16.0264 95.1177 16.2366C95.0782 16.447 95.1093 16.6668 95.2046 16.8513C95.2998 17.0356 95.4519 17.1705 95.6297 17.2281C105.977 19.9167 115.479 25.9079 123.076 34.5323C130.673 43.1567 136.064 54.0749 138.648 66.0671C140.364 74.039 140.766 82.3189 139.832 90.4658C138.034 106.899 131.051 121.962 120.245 132.712C119.297 133.658 118.323 134.566 117.326 135.434V137.51Z" fill="url(#paint10_linear_367_14994)"/>
<path d="M47.8767 123.332H50.3335L45.4042 134.295H43.4605L38.5156 123.332H41.0347L44.4557 131.278L47.8767 123.332ZM51.7315 134.295V123.332H59.2887V125.213H54.0951V127.779H58.9777V129.661H54.0951V132.413H59.2887V134.295H51.7315ZM71.0312 134.295H68.3877L66.4906 130.796C66.3351 130.526 66.1485 130.335 65.9308 130.221C65.7131 130.096 65.4383 130.034 65.1067 130.034H63.9093V134.295H61.5146V123.332H66.5528C67.8382 123.332 68.8075 123.617 69.4606 124.187C70.1241 124.747 70.4558 125.561 70.4558 126.628C70.4558 127.458 70.2226 128.152 69.7561 128.712C69.2999 129.272 68.652 129.64 67.8123 129.816C68.3825 129.961 68.8645 130.371 69.2585 131.045L71.0312 134.295ZM66.1952 128.199C66.8897 128.199 67.3925 128.08 67.7035 127.841C68.0145 127.593 68.17 127.209 68.17 126.691C68.17 126.162 68.0145 125.778 67.7035 125.54C67.3925 125.302 66.8897 125.182 66.1952 125.182H63.8782V128.199H66.1952ZM72.9831 134.295V123.332H75.4089V134.295H72.9831ZM78.1498 134.295V123.332H85.5515V125.245H80.5445V127.764H85.2405V129.676H80.5445V134.295H78.1498ZM87.6139 134.295V123.332H90.0396V134.295H87.6139ZM92.7805 134.295V123.332H100.338V125.213H95.1441V127.779H100.027V129.661H95.1441V132.413H100.338V134.295H92.7805ZM102.564 123.332H106.824C108.016 123.332 109.043 123.55 109.903 123.985C110.764 124.42 111.422 125.048 111.878 125.867C112.334 126.685 112.562 127.665 112.562 128.805C112.562 129.946 112.334 130.931 111.878 131.76C111.432 132.579 110.779 133.206 109.919 133.641C109.058 134.077 108.027 134.295 106.824 134.295H102.564V123.332ZM106.653 132.335C108.986 132.335 110.152 131.159 110.152 128.805C110.152 126.463 108.986 125.291 106.653 125.291H104.989V132.335H106.653ZM48.9326 151.258H46.2892L44.3921 147.759C44.2366 147.489 44.05 147.299 43.8323 147.184C43.6146 147.06 43.3399 146.997 43.0081 146.997H41.8108V151.258H39.4161V140.295H44.4543C45.7398 140.295 46.709 140.581 47.3621 141.151C48.0257 141.71 48.3573 142.525 48.3573 143.592C48.3573 144.422 48.1241 145.116 47.6576 145.676C47.2015 146.236 46.5535 146.603 45.7138 146.78C46.2841 146.925 46.7661 147.334 47.16 148.008L48.9326 151.258ZM44.0966 145.163C44.7913 145.163 45.294 145.044 45.605 144.805C45.916 144.556 46.0715 144.173 46.0715 143.654C46.0715 143.126 45.916 142.742 45.605 142.504C45.294 142.265 44.7913 142.146 44.0966 142.146H41.7797V145.163H44.0966ZM50.8847 151.258V140.295H58.442V142.177H53.2483V144.743H58.131V146.624H53.2483V149.377H58.442V151.258H50.8847ZM68.7523 140.295H71.2091L66.2798 151.258H64.3361L59.3912 140.295H61.9103L65.3313 148.241L68.7523 140.295ZM72.6071 151.258V140.295H75.0329V151.258H72.6071ZM77.7738 151.258V140.295H85.331V142.177H80.1373V144.743H85.02V146.624H80.1373V149.377H85.331V151.258H77.7738ZM101.286 140.295H103.587L99.6843 151.258H97.7405L95.2059 143.996L92.6402 151.258H90.6964L86.8089 140.295H89.2658L91.7694 147.868L94.4284 140.295H96.1233L98.6891 147.946L101.286 140.295ZM109.138 151.398C108.309 151.398 107.51 151.289 106.743 151.072C105.976 150.844 105.338 150.533 104.83 150.139L105.608 148.412C106.665 149.149 107.852 149.517 109.169 149.517C109.853 149.517 110.377 149.408 110.739 149.19C111.113 148.962 111.299 148.651 111.299 148.257C111.299 147.905 111.128 147.629 110.786 147.433C110.454 147.236 109.858 147.044 108.998 146.857C108.034 146.661 107.261 146.422 106.681 146.142C106.111 145.862 105.691 145.52 105.421 145.116C105.162 144.702 105.033 144.193 105.033 143.592C105.033 142.929 105.214 142.338 105.577 141.819C105.95 141.301 106.468 140.897 107.132 140.606C107.795 140.306 108.562 140.155 109.433 140.155C110.211 140.155 110.957 140.27 111.672 140.498C112.398 140.726 112.973 141.032 113.398 141.415L112.621 143.141C111.615 142.405 110.558 142.037 109.449 142.037C108.816 142.037 108.319 142.161 107.956 142.41C107.593 142.649 107.412 142.98 107.412 143.405C107.412 143.654 107.479 143.862 107.614 144.027C107.759 144.183 107.992 144.323 108.314 144.447C108.645 144.572 109.112 144.702 109.713 144.836C111.123 145.147 112.134 145.546 112.745 146.033C113.367 146.521 113.678 147.194 113.678 148.055C113.678 149.091 113.279 149.911 112.481 150.512C111.683 151.103 110.568 151.398 109.138 151.398Z" fill="url(#paint11_linear_367_14994)"/>
<path d="M118.035 138.535C119.206 138.535 120.155 137.586 120.155 136.415C120.155 135.244 119.206 134.295 118.035 134.295C116.863 134.295 115.914 135.244 115.914 136.415C115.914 137.586 116.863 138.535 118.035 138.535Z" fill="url(#paint12_linear_367_14994)"/>
<path d="M34.6283 138.535C35.7993 138.535 36.7487 137.586 36.7487 136.415C36.7487 135.244 35.7993 134.295 34.6283 134.295C33.4572 134.295 32.5078 135.244 32.5078 136.415C32.5078 137.586 33.4572 138.535 34.6283 138.535Z" fill="url(#paint13_linear_367_14994)"/>
<path d="M66.3129 4.24084C65.6008 4.24084 65.0234 4.81818 65.0234 5.53036V25.5694C65.0234 26.2816 65.6008 26.8589 66.3129 26.8589H86.3518C87.064 26.8589 87.6413 26.2816 87.6413 25.5694V17.0974C87.6413 16.6898 87.1444 16.4901 86.8624 16.7844L82.3955 21.4457C80.4868 23.4375 78.4946 24.4277 76.4187 24.4167C74.3592 24.4221 72.4033 23.4987 70.551 21.6464C68.5841 19.6794 67.5477 17.5451 67.4422 15.2435C67.3592 13.1183 68.1887 11.0693 69.9308 9.09657C70.1515 8.84667 70.5306 8.84336 70.7662 9.0789L74.6883 13.001C74.9218 13.2346 74.9242 13.6144 74.7202 13.875C73.7724 15.0862 73.7365 16.1299 74.6126 17.006C75.4979 17.8911 76.4857 17.7647 77.5763 16.6265L87.5155 6.25473C87.5962 6.1705 87.6413 6.05837 87.6413 5.94174V5.53036C87.6413 4.81818 87.064 4.24084 86.3518 4.24084H66.3129Z" fill="url(#paint14_linear_367_14994)"/>
</g>
<path fill-rule="evenodd" clip-rule="evenodd" d="M77.2899 49.3049C78.2924 48.8531 78.9893 47.8531 78.9893 46.692C78.9893 45.1072 77.6911 43.8224 76.0896 43.8224C74.4881 43.8224 73.1898 45.1072 73.1898 46.692C73.1898 48.0589 74.1556 49.2026 75.4488 49.4912C74.3885 52.1653 72.6041 55.4621 70.1966 55.6825C67.8832 55.8944 65.6557 53.2053 64.2156 50.9594C64.9661 50.4408 65.4571 49.5796 65.4571 48.605C65.4571 47.0202 64.1588 45.7355 62.5573 45.7355C60.9558 45.7355 59.6575 47.0202 59.6575 48.605C59.6575 50.1343 60.8665 51.3841 62.3901 51.4699C62.0611 54.3685 61.1932 58.1886 58.9089 59.0785C56.7212 59.9309 54.0365 57.7831 52.2573 55.9539C53.2066 55.4825 53.8581 54.5103 53.8581 53.3876C53.8581 51.8028 52.5599 50.5181 50.9584 50.5181C49.3569 50.5181 48.0586 51.8028 48.0586 53.3876C48.0586 54.9724 49.3569 56.2571 50.9584 56.2571C51.0004 56.2571 51.0422 56.2563 51.0838 56.2546L55.2281 70.1154C55.2281 70.1154 68.1954 67.4601 76.5765 67.5684C84.9794 67.6768 97.925 70.6814 97.925 70.6814L101.677 56.257C101.686 56.2571 101.695 56.2571 101.704 56.2571C103.305 56.2571 104.604 54.9724 104.604 53.3876C104.604 51.8028 103.305 50.5181 101.704 50.5181C100.102 50.5181 98.8041 51.8028 98.8041 53.3876C98.8041 54.4795 99.4205 55.4289 100.328 55.9139C98.2203 57.9894 94.8956 60.5679 92.5265 59.0785C90.6362 57.8902 90.0319 54.538 89.857 51.9435C91.3485 51.825 92.5216 50.5896 92.5216 49.0833C92.5216 47.4984 91.2233 46.2137 89.6218 46.2137C88.0203 46.2137 86.722 47.4984 86.722 49.0833C86.722 50.0703 87.2257 50.9409 87.9924 51.4573C86.3433 53.6992 83.8272 56.3435 81.4842 55.6825C79.3253 55.0735 78.0085 51.8543 77.2899 49.3049Z" fill="url(#paint15_linear_367_14994)"/>
</g>
</g>
</g>
<path d="M46.1236 105.905C46.1713 104.044 46.5709 102.344 47.3223 100.806C48.0499 99.0761 49.7675 97.2453 52.475 95.313C54.8247 93.6312 56.3455 92.4265 57.0373 91.699C58.0988 90.5659 58.6296 89.3254 58.6296 87.9776C58.6296 86.8803 58.3254 85.9678 57.7171 85.2402C57.1088 84.5127 56.2381 84.1489 55.105 84.1489C53.5544 84.1489 52.4989 84.7274 51.9383 85.8843C51.6162 86.5523 51.4254 87.6138 51.3658 89.069H46.4099C46.4934 86.8624 46.8929 85.0792 47.6086 83.7195C48.9683 81.1312 51.3836 79.8371 54.8545 79.8371C57.5979 79.8371 59.7806 80.6004 61.4027 82.1272C63.0249 83.642 63.8359 85.6517 63.8359 88.1565C63.8359 90.0768 63.2634 91.7825 62.1184 93.2734C61.3669 94.2634 60.1325 95.3667 58.4149 96.5833L56.3753 98.0325C55.0991 98.939 54.2224 99.595 53.7453 100C53.2801 100.406 52.8865 100.877 52.5645 101.414H63.8896V105.905H46.1236ZM67.283 105.905C67.3307 104.044 67.7303 102.344 68.4817 100.806C69.2093 99.0761 70.9268 97.2453 73.6344 95.313C75.9841 93.6312 77.5048 92.4265 78.1966 91.699C79.2582 90.5659 79.7889 89.3254 79.7889 87.9776C79.7889 86.8803 79.4848 85.9678 78.8765 85.2402C78.2682 84.5127 77.3975 84.1489 76.2644 84.1489C74.7138 84.1489 73.6582 84.7274 73.0976 85.8843C72.7756 86.5523 72.5847 87.6138 72.5251 89.069H67.5692C67.6527 86.8624 68.0523 85.0792 68.768 83.7195C70.1277 81.1312 72.543 79.8371 76.0139 79.8371C78.7572 79.8371 80.9399 80.6004 82.5621 82.1272C84.1842 83.642 84.9953 85.6517 84.9953 88.1565C84.9953 90.0768 84.4228 91.7825 83.2777 93.2734C82.5263 94.2634 81.2918 95.3667 79.5742 96.5833L77.5347 98.0325C76.2584 98.939 75.3817 99.595 74.9046 100C74.4395 100.406 74.0459 100.877 73.7238 101.414H85.049V105.905H67.283ZM106.62 84.292C105.856 85.0434 104.795 86.3853 103.435 88.3175C102.075 90.2379 100.936 92.2238 100.018 94.2753C99.2904 95.8855 98.6344 97.8536 98.0499 100.179C97.4655 102.505 97.1732 104.414 97.1732 105.905H91.8774C92.0325 101.253 93.5592 96.4163 96.4576 91.3948C98.3302 88.2817 99.8987 86.1109 101.163 84.8824H88.2276L88.2992 80.3023H106.62V84.292Z" fill="#D2920F"/>
<defs>
<linearGradient id="paint0_linear_367_14994" x1="14.1177" y1="59.8796" x2="14.1177" y2="80.0202" gradientUnits="userSpaceOnUse">
<stop stop-color="#EFBD59"/>
<stop offset="1" stop-color="#D2920F"/>
</linearGradient>
<linearGradient id="paint1_linear_367_14994" x1="18.971" y1="42.0547" x2="18.971" y2="63.4219" gradientUnits="userSpaceOnUse">
<stop stop-color="#EFBD59"/>
<stop offset="1" stop-color="#D2920F"/>
</linearGradient>
<linearGradient id="paint2_linear_367_14994" x1="26.4062" y1="26.8265" x2="26.4062" y2="48.9963" gradientUnits="userSpaceOnUse">
<stop stop-color="#EFBD59"/>
<stop offset="1" stop-color="#D2920F"/>
</linearGradient>
<linearGradient id="paint3_linear_367_14994" x1="36.0547" y1="14.8941" x2="36.0547" y2="37.6746" gradientUnits="userSpaceOnUse">
<stop stop-color="#EFBD59"/>
<stop offset="1" stop-color="#D2920F"/>
</linearGradient>
<linearGradient id="paint4_linear_367_14994" x1="47.042" y1="7.06812" x2="47.042" y2="30.215" gradientUnits="userSpaceOnUse">
<stop stop-color="#EFBD59"/>
<stop offset="1" stop-color="#D2920F"/>
</linearGradient>
<linearGradient id="paint5_linear_367_14994" x1="138.496" y1="59.7327" x2="138.496" y2="79.9054" gradientUnits="userSpaceOnUse">
<stop stop-color="#EFBD59"/>
<stop offset="1" stop-color="#D2920F"/>
</linearGradient>
<linearGradient id="paint6_linear_367_14994" x1="133.616" y1="41.9581" x2="133.616" y2="63.3703" gradientUnits="userSpaceOnUse">
<stop stop-color="#EFBD59"/>
<stop offset="1" stop-color="#D2920F"/>
</linearGradient>
<linearGradient id="paint7_linear_367_14994" x1="126.142" y1="26.7485" x2="126.142" y2="48.9568" gradientUnits="userSpaceOnUse">
<stop stop-color="#EFBD59"/>
<stop offset="1" stop-color="#D2920F"/>
</linearGradient>
<linearGradient id="paint8_linear_367_14994" x1="116.474" y1="14.8941" x2="116.474" y2="37.6765" gradientUnits="userSpaceOnUse">
<stop stop-color="#EFBD59"/>
<stop offset="1" stop-color="#D2920F"/>
</linearGradient>
<linearGradient id="paint9_linear_367_14994" x1="105.474" y1="7.11847" x2="105.474" y2="30.2882" gradientUnits="userSpaceOnUse">
<stop stop-color="#EFBD59"/>
<stop offset="1" stop-color="#D2920F"/>
</linearGradient>
<linearGradient id="paint10_linear_367_14994" x1="76.34" y1="15.4733" x2="76.34" y2="137.51" gradientUnits="userSpaceOnUse">
<stop stop-color="#EFBD59"/>
<stop offset="1" stop-color="#D2920F"/>
</linearGradient>
<linearGradient id="paint11_linear_367_14994" x1="76.3324" y1="120.158" x2="76.3324" y2="152.672" gradientUnits="userSpaceOnUse">
<stop stop-color="#EFBD59"/>
<stop offset="1" stop-color="#D2920F"/>
</linearGradient>
<linearGradient id="paint12_linear_367_14994" x1="118.035" y1="134.295" x2="118.035" y2="138.535" gradientUnits="userSpaceOnUse">
<stop stop-color="#EFBD59"/>
<stop offset="1" stop-color="#D2920F"/>
</linearGradient>
<linearGradient id="paint13_linear_367_14994" x1="34.6283" y1="134.295" x2="34.6283" y2="138.535" gradientUnits="userSpaceOnUse">
<stop stop-color="#EFBD59"/>
<stop offset="1" stop-color="#D2920F"/>
</linearGradient>
<linearGradient id="paint14_linear_367_14994" x1="76.3323" y1="4.24084" x2="76.3323" y2="26.8589" gradientUnits="userSpaceOnUse">
<stop stop-color="#EFBD59"/>
<stop offset="1" stop-color="#D2920F"/>
</linearGradient>
<linearGradient id="paint15_linear_367_14994" x1="76.3311" y1="43.8224" x2="76.3311" y2="70.6814" gradientUnits="userSpaceOnUse">
<stop stop-color="#EFBD59"/>
<stop offset="1" stop-color="#D2920F"/>
</linearGradient>
<clipPath id="clip0_367_14994">
<rect width="152.672" height="152.672" fill="white"/>
</clipPath>
<clipPath id="clip1_367_14994">
<rect width="152.672" height="152.672" fill="white"/>
</clipPath>
<clipPath id="clip2_367_14994">
<rect width="152.672" height="152.672" fill="white"/>
</clipPath>
</defs>
</svg>
