<svg width="153" height="164" viewBox="0 0 153 164" fill="none" xmlns="http://www.w3.org/2000/svg">
<g clip-path="url(#clip0_367_15021)">
<g clip-path="url(#clip1_367_15021)">
<g clip-path="url(#clip2_367_15021)">
<mask id="mask0_367_15021" style="mask-type:luminance" maskUnits="userSpaceOnUse" x="0" y="0" width="153" height="153">
<path d="M152.672 0H0V152.672H152.672V0Z" fill="white"/>
</mask>
<g mask="url(#mask0_367_15021)">
<path d="M50.2639 103.124H52.4975L48.0163 113.09H46.2492L41.7539 103.124H44.044L47.154 110.348L50.2639 103.124ZM53.8198 113.09V103.124H60.69V104.835H55.9685V107.167H60.4073V108.878H55.9685V111.38H60.69V113.09H53.8198ZM71.4162 113.09H69.013L67.2884 109.91C67.147 109.665 66.9774 109.49 66.7795 109.387C66.5816 109.273 66.3319 109.217 66.0303 109.217H64.9418V113.09H62.7648V103.124H67.3449C68.5136 103.124 69.3947 103.383 69.9884 103.902C70.5916 104.411 70.8931 105.15 70.8931 106.121C70.8931 106.875 70.6811 107.506 70.257 108.015C69.8424 108.524 69.2533 108.859 68.49 109.019C69.0084 109.151 69.4466 109.523 69.8046 110.136L71.4162 113.09ZM67.0198 107.549C67.6513 107.549 68.1083 107.44 68.391 107.224C68.6737 106.997 68.8151 106.649 68.8151 106.178C68.8151 105.697 68.6737 105.348 68.391 105.132C68.1083 104.915 67.6513 104.806 67.0198 104.806H64.9135V107.549H67.0198ZM73.2423 113.09V103.124H75.4476V113.09H73.2423ZM77.9907 113.09V103.124H84.7196V104.863H80.1677V107.153H84.4368V108.892H80.1677V113.09H77.9907ZM86.6458 113.09V103.124H88.851V113.09H86.6458ZM91.3941 113.09V103.124H98.2644V104.835H93.5429V107.167H97.9816V108.878H93.5429V111.38H98.2644V113.09H91.3941ZM100.339 103.124H104.212C105.296 103.124 106.229 103.322 107.011 103.718C107.794 104.114 108.392 104.684 108.807 105.428C109.222 106.173 109.429 107.064 109.429 108.1C109.429 109.137 109.222 110.032 108.807 110.786C108.402 111.531 107.808 112.101 107.026 112.497C106.243 112.892 105.306 113.09 104.212 113.09H100.339V103.124ZM104.057 111.309C106.177 111.309 107.238 110.239 107.238 108.1C107.238 105.97 106.177 104.905 104.057 104.905H102.544V111.309H104.057ZM51.2754 128.64H48.8722L47.1476 125.459C47.0062 125.214 46.8366 125.04 46.6387 124.936C46.4408 124.823 46.191 124.767 45.8895 124.767H44.801V128.64H42.624V118.674H47.2041C48.3728 118.674 49.2539 118.933 49.8476 119.452C50.4508 119.96 50.7523 120.7 50.7523 121.671C50.7523 122.425 50.5403 123.056 50.1162 123.565C49.7016 124.074 49.1125 124.409 48.3492 124.569C48.8676 124.701 49.3058 125.073 49.6639 125.686L51.2754 128.64ZM46.879 123.099C47.5105 123.099 47.9675 122.99 48.2502 122.774C48.533 122.547 48.6743 122.199 48.6743 121.727C48.6743 121.247 48.533 120.898 48.2502 120.681C47.9675 120.465 47.5105 120.356 46.879 120.356H44.7727V123.099H46.879ZM53.1014 128.64V118.674H59.9716V120.385H55.2501V122.717H59.6889V124.428H55.2501V126.93H59.9716V128.64H53.1014ZM69.396 118.674H71.6295L67.1483 128.64H65.3813L60.8859 118.674H63.176L66.286 125.898L69.396 118.674ZM72.9518 128.64V118.674H75.1571V128.64H72.9518ZM77.7002 128.64V118.674H84.5704V120.385H79.8489V122.717H84.2877V124.428H79.8489V126.93H84.5704V128.64H77.7002ZM99.1263 118.674H101.218L97.6702 128.64H95.9032L93.599 122.038L91.2665 128.64H89.4995L85.9654 118.674H88.1989L90.4748 125.558L92.8922 118.674H94.433L96.7655 125.629L99.1263 118.674ZM106.316 128.767C105.562 128.767 104.836 128.668 104.139 128.47C103.441 128.263 102.862 127.98 102.4 127.622L103.107 126.053C104.068 126.722 105.147 127.057 106.344 127.057C106.966 127.057 107.442 126.958 107.772 126.76C108.111 126.553 108.281 126.27 108.281 125.912C108.281 125.591 108.125 125.342 107.814 125.163C107.513 124.983 106.971 124.809 106.188 124.64C105.312 124.46 104.61 124.244 104.082 123.989C103.564 123.735 103.182 123.424 102.937 123.056C102.702 122.679 102.584 122.218 102.584 121.671C102.584 121.068 102.749 120.531 103.078 120.059C103.418 119.588 103.889 119.221 104.492 118.957C105.095 118.684 105.793 118.547 106.584 118.547C107.291 118.547 107.97 118.65 108.62 118.858C109.28 119.065 109.803 119.343 110.189 119.692L109.482 121.261C108.568 120.592 107.607 120.257 106.598 120.257C106.024 120.257 105.571 120.37 105.241 120.597C104.912 120.813 104.747 121.115 104.747 121.501C104.747 121.727 104.808 121.916 104.93 122.067C105.062 122.208 105.274 122.335 105.566 122.448C105.868 122.562 106.292 122.679 106.839 122.802C108.12 123.085 109.039 123.447 109.595 123.89C110.161 124.333 110.443 124.946 110.443 125.728C110.443 126.671 110.081 127.415 109.355 127.962C108.629 128.499 107.616 128.767 106.316 128.767Z" fill="url(#paint0_linear_367_15021)"/>
<path d="M49.2621 35.27H50.9726V45.2361H49.0359V39.3271L46.7458 43.5963H45.3322L43.0421 39.3836V45.2361H41.1055V35.27H42.8442L46.0532 41.3627L49.2621 35.27ZM58.1227 45.3633C57.1332 45.3633 56.2709 45.1559 55.5358 44.7413C54.8102 44.3172 54.2494 43.7235 53.8536 42.9601C53.4577 42.1873 53.2598 41.2826 53.2598 40.246C53.2598 39.2093 53.4577 38.3093 53.8536 37.5459C54.2494 36.7731 54.8102 36.1794 55.5358 35.7648C56.2709 35.3501 57.1332 35.1428 58.1227 35.1428C59.1123 35.1428 59.9699 35.3501 60.6955 35.7648C61.4306 36.1794 61.9961 36.7731 62.3919 37.5459C62.7877 38.3093 62.9856 39.2093 62.9856 40.246C62.9856 41.2826 62.7877 42.1873 62.3919 42.9601C61.9961 43.7235 61.4306 44.3172 60.6955 44.7413C59.9699 45.1559 59.1123 45.3633 58.1227 45.3633ZM58.1227 43.6528C58.9521 43.6528 59.6024 43.3606 60.0735 42.7763C60.5542 42.1921 60.7945 41.3486 60.7945 40.246C60.7945 39.1433 60.5588 38.3046 60.0877 37.7297C59.6165 37.1454 58.9614 36.8532 58.1227 36.8532C57.284 36.8532 56.6289 37.1454 56.1578 37.7297C55.6959 38.3046 55.4651 39.1433 55.4651 40.246C55.4651 41.3486 55.7007 42.1921 56.1719 42.7763C56.6431 43.3606 57.2933 43.6528 58.1227 43.6528ZM71.8223 35.27H73.8862V45.2361H72.2464L67.2846 38.8889V45.2361H65.2348V35.27H66.8605L71.8223 41.5889V35.27ZM78.7343 45.2361V37.0653H75.6101V35.27H84.0636V37.0653H80.9395V45.2361H78.7343ZM92.5464 35.27H94.7092V45.2361H92.5464V41.0517H87.9521V45.2361H85.7892V35.27H87.9521V39.2988H92.5464V35.27ZM97.2607 45.2361V35.27H99.466V43.4408H103.919V45.2361H97.2607ZM112.761 35.27L108.633 40.7266V45.2361H106.428V40.7266L102.314 35.27H104.816L107.516 38.9596L110.259 35.27H112.761ZM54.8222 60.786H52.419L50.6944 57.6053C50.553 57.3603 50.3834 57.1859 50.1855 57.0823C49.9876 56.9692 49.7378 56.9126 49.4363 56.9126H48.3478V60.786H46.1708V50.8199H50.7509C51.9194 50.8199 52.8007 51.079 53.3944 51.5974C53.9975 52.1063 54.2991 52.846 54.2991 53.8168C54.2991 54.5707 54.0871 55.2021 53.663 55.711C53.2482 56.2199 52.6593 56.5545 51.896 56.7147C52.4142 56.8466 52.8524 57.219 53.2106 57.8315L54.8222 60.786ZM50.4258 55.2445C51.0571 55.2445 51.5143 55.1361 51.797 54.9194C52.0797 54.6932 52.2211 54.3445 52.2211 53.8733C52.2211 53.3927 52.0797 53.0439 51.797 52.8272C51.5143 52.6105 51.0571 52.5021 50.4258 52.5021H48.3195V55.2445H50.4258ZM56.6482 60.786V50.8199H63.5184V52.5304H58.7969V54.8629H63.2357V56.5734H58.7969V59.0755H63.5184V60.786H56.6482ZM70.2723 60.9132C69.2639 60.9132 68.3827 60.7011 67.6288 60.2771C66.8842 59.853 66.3095 59.2546 65.9042 58.4817C65.5084 57.7089 65.3104 56.8137 65.3104 55.7959C65.3104 54.778 65.5084 53.8828 65.9042 53.11C66.3095 52.3371 66.8842 51.7434 67.6288 51.3288C68.3827 50.9047 69.2639 50.6927 70.2723 50.6927C70.932 50.6927 71.5633 50.7963 72.1665 51.0037C72.7697 51.2016 73.2645 51.4796 73.6508 51.8377L72.944 53.4068C72.5105 53.077 72.0771 52.8367 71.6435 52.6859C71.2194 52.535 70.7765 52.4597 70.3147 52.4597C69.4288 52.4597 68.7456 52.7424 68.2649 53.3079C67.7938 53.8733 67.5581 54.7027 67.5581 55.7959C67.5581 56.889 67.7938 57.7231 68.2649 58.298C68.7456 58.8634 69.4288 59.1462 70.3147 59.1462C70.7765 59.1462 71.2194 59.0708 71.6435 58.92C72.0771 58.7691 72.5105 58.5288 72.944 58.199L73.6508 59.7681C73.2645 60.1262 72.7697 60.4089 72.1665 60.6163C71.5633 60.8142 70.932 60.9132 70.2723 60.9132ZM80.1124 60.9132C79.1229 60.9132 78.2605 60.7058 77.5255 60.2912C76.7997 59.8671 76.2391 59.2734 75.8432 58.51C75.4474 57.7372 75.2495 56.8325 75.2495 55.7959C75.2495 54.7592 75.4474 53.8592 75.8432 53.0958C76.2391 52.323 76.7997 51.7293 77.5255 51.3147C78.2605 50.9 79.1229 50.6927 80.1124 50.6927C81.1019 50.6927 81.9594 50.9 82.6852 51.3147C83.4203 51.7293 83.9857 52.323 84.3815 53.0958C84.7774 53.8592 84.9753 54.7592 84.9753 55.7959C84.9753 56.8325 84.7774 57.7372 84.3815 58.51C83.9857 59.2734 83.4203 59.8671 82.6852 60.2912C81.9594 60.7058 81.1019 60.9132 80.1124 60.9132ZM80.1124 59.2027C80.9416 59.2027 81.5919 58.9105 82.0632 58.3262C82.5438 57.742 82.7842 56.8985 82.7842 55.7959C82.7842 54.6932 82.5485 53.8545 82.0773 53.2796C81.606 52.6953 80.9511 52.4032 80.1124 52.4032C79.2735 52.4032 78.6186 52.6953 78.1475 53.2796C77.6856 53.8545 77.4548 54.6932 77.4548 55.7959C77.4548 56.8985 77.6903 57.742 78.1616 58.3262C78.6328 58.9105 79.283 59.2027 80.1124 59.2027ZM95.8759 60.786H93.4727L91.7481 57.6053C91.6067 57.3603 91.4371 57.1859 91.2392 57.0823C91.0413 56.9692 90.7915 56.9126 90.49 56.9126H89.4015V60.786H87.2245V50.8199H91.8046C92.9732 50.8199 93.8544 51.079 94.4481 51.5974C95.0512 52.1063 95.3529 52.846 95.3529 53.8168C95.3529 54.5707 95.1408 55.2021 94.7167 55.711C94.302 56.2199 93.7131 56.5545 92.9497 56.7147C93.4679 56.8466 93.9061 57.219 94.2644 57.8315L95.8759 60.786ZM91.4795 55.2445C92.1108 55.2445 92.568 55.1361 92.8507 54.9194C93.1335 54.6932 93.2748 54.3445 93.2748 53.8733C93.2748 53.3927 93.1335 53.0439 92.8507 52.8272C92.568 52.6105 92.1108 52.5021 91.4795 52.5021H89.3732V55.2445H91.4795ZM97.7019 50.8199H101.575C102.659 50.8199 103.592 51.0178 104.374 51.4136C105.156 51.8094 105.755 52.3795 106.17 53.1241C106.584 53.8687 106.792 54.7592 106.792 55.7959C106.792 56.8325 106.584 57.7279 106.17 58.4817C105.764 59.2263 105.171 59.7964 104.388 60.1922C103.606 60.5881 102.668 60.786 101.575 60.786H97.7019V50.8199ZM101.42 59.0048C103.54 59.0048 104.6 57.9351 104.6 55.7959C104.6 53.6659 103.54 52.6011 101.42 52.6011H99.9071V59.0048H101.42Z" fill="url(#paint1_linear_367_15021)"/>
<path d="M25.0466 75.9326C25.5602 75.7333 26.0445 76.2176 25.8451 76.7313L24.5944 79.9547C24.5131 80.164 24.5447 80.3957 24.6778 80.5663L26.7263 83.195C27.0527 83.6138 26.7205 84.2453 26.1785 84.2364L22.7769 84.18C22.5559 84.1765 22.3439 84.288 22.2166 84.4747L20.2593 87.3501C19.9473 87.8082 19.2578 87.7142 19.1222 87.195L18.2705 83.9367C18.2152 83.7252 18.0525 83.5625 17.841 83.5073L14.5828 82.6555C14.0636 82.52 13.9696 81.8304 14.4277 81.5184L17.303 79.5611C17.4898 79.4339 17.6013 79.2218 17.5978 79.0009L17.5413 75.5993C17.5324 75.0573 18.1639 74.7251 18.5828 75.0515L21.2114 77.1C21.382 77.233 21.6137 77.2647 21.8231 77.1834L25.0466 75.9326Z" fill="url(#paint2_linear_367_15021)"/>
<path d="M136.726 75.9326C137.24 75.7333 137.724 76.2176 137.525 76.7313L136.274 79.9547C136.193 80.164 136.224 80.3957 136.357 80.5663L138.406 83.195C138.732 83.6138 138.4 84.2453 137.858 84.2364L134.457 84.18C134.236 84.1765 134.024 84.288 133.896 84.4747L131.939 87.3501C131.627 87.8082 130.937 87.7142 130.802 87.195L129.95 83.9367C129.895 83.7252 129.732 83.5625 129.521 83.5073L126.262 82.6555C125.743 82.52 125.649 81.8304 126.107 81.5184L128.983 79.5611C129.169 79.4339 129.281 79.2218 129.277 79.0009L129.221 75.5993C129.212 75.0573 129.844 74.7251 130.262 75.0515L132.891 77.1C133.062 77.233 133.293 77.2647 133.503 77.1834L136.726 75.9326Z" fill="url(#paint3_linear_367_15021)"/>
<path d="M134.071 106.165C135.172 108.465 135.916 110.877 135.296 113.543C134.86 115.275 134.114 116.905 133.099 118.345C132.91 118.588 132.786 118.88 132.742 119.191C132.742 119.644 133.12 119.915 133.559 119.942C134.029 119.935 134.493 119.834 134.927 119.644C136.217 119.25 137.365 118.666 138.612 118.2C139.859 117.734 141.098 117.254 142.38 116.815C144.775 115.783 147.291 114.833 149.841 113.927C148.62 114.38 145.863 117.675 144.707 118.679C142.83 120.098 140.857 121.367 138.801 122.477C136.921 123.364 134.939 123.989 132.905 124.337C130.905 124.613 129.121 123.984 128.729 122.237C128.454 121.06 128.837 119.775 129.297 118.471C129.757 117.168 130.45 116.018 130.94 114.814C131.662 113.203 131.826 111.28 132.127 109.587C132.377 107.896 132.764 106.23 133.284 104.608C133.55 105.111 133.817 105.631 134.071 106.165Z" fill="url(#paint4_linear_367_15021)"/>
<path d="M142.219 94.1675C143.457 95.0147 144.543 96.0309 144.992 97.5994C145.268 98.6297 145.351 99.7022 145.24 100.76C145.213 100.944 145.233 101.133 145.299 101.307C145.431 101.541 145.706 101.564 145.942 101.443C146.184 101.294 146.396 101.098 146.567 100.866C147.124 100.263 147.552 99.6063 148.066 98.9797C148.579 98.3532 149.085 97.7223 149.623 97.099C150.571 95.825 151.604 94.5559 152.668 93.2994C152.164 93.911 151.685 96.4658 151.374 97.3427C150.809 98.6555 150.149 99.9217 149.403 101.131C148.682 102.171 147.832 103.107 146.874 103.915C145.914 104.676 144.804 104.903 144.095 104.122C143.611 103.599 143.437 102.817 143.3 102.001C143.162 101.186 143.189 100.377 143.095 99.6039C143.005 98.5481 142.533 97.5039 142.199 96.5364C141.84 95.5854 141.559 94.6052 141.359 93.6066C141.644 93.7837 141.933 93.9701 142.219 94.1675Z" fill="url(#paint5_linear_367_15021)"/>
<path d="M10.4489 94.1675C9.21069 95.0147 8.12532 96.0309 7.67556 97.5994C7.401 98.6297 7.31702 99.7022 7.42812 100.76C7.45608 100.944 7.43555 101.133 7.36872 101.307C7.23767 101.541 6.96223 101.564 6.72624 101.443C6.484 101.294 6.27195 101.098 6.10148 100.866C5.54451 100.263 5.11638 99.6063 4.60274 98.9797C4.08909 98.3532 3.58386 97.7223 3.04446 97.099C2.09746 95.825 1.06422 94.5559 0 93.2994C0.504153 93.911 0.983842 96.4658 1.29458 97.3427C1.85956 98.6555 2.51852 99.9217 3.26599 101.131C3.98682 102.171 4.83661 103.107 5.79381 103.915C6.75389 104.676 7.86422 104.903 8.57356 104.122C9.05741 103.599 9.2305 102.817 9.36859 102.001C9.50666 101.186 9.47942 100.377 9.573 99.6039C9.66375 98.5481 10.1357 97.5039 10.4692 96.5364C10.8288 95.5854 11.1098 94.6052 11.309 93.6066C11.0249 93.7837 10.7355 93.9701 10.4489 94.1675Z" fill="url(#paint6_linear_367_15021)"/>
<path d="M25.5937 25.6237C24.2229 25.1237 22.804 24.837 21.3032 25.354C20.3293 25.7098 19.4291 26.2381 18.6505 26.911C18.5198 27.035 18.3578 27.1237 18.1815 27.1678C17.9218 27.1948 17.7483 26.9921 17.7121 26.7399C17.6943 26.4678 17.7308 26.1933 17.8197 25.931C17.9854 25.1613 18.2667 24.4624 18.4759 23.7132C18.6853 22.964 18.9027 22.219 19.0947 21.4515C19.5749 20.0046 20.0028 18.4927 20.403 16.9636C20.2004 17.697 18.4385 19.4877 17.916 20.2167C17.1898 21.3864 16.5537 22.6035 16.013 23.8584C15.5916 24.9988 15.3254 26.1825 15.2211 27.3797C15.156 28.5529 15.6003 29.5478 16.6211 29.6702C17.3093 29.7594 18.0289 29.4614 18.7554 29.1176C19.4817 28.7739 20.1091 28.305 20.777 27.9497C21.6678 27.4359 22.7639 27.2268 23.7212 26.9518C24.6799 26.7066 25.6176 26.3834 26.5239 25.9863C26.223 25.8619 25.912 25.7387 25.5937 25.6237Z" fill="url(#paint7_linear_367_15021)"/>
<path d="M126.743 25.6237C128.113 25.1237 129.532 24.837 131.033 25.354C132.007 25.7098 132.907 26.2381 133.686 26.911C133.817 27.035 133.979 27.1237 134.155 27.1678C134.415 27.1948 134.588 26.9921 134.624 26.7399C134.642 26.4678 134.606 26.1933 134.517 25.931C134.351 25.1613 134.07 24.4624 133.86 23.7132C133.651 22.964 133.434 22.219 133.242 21.4515C132.761 20.0046 132.334 18.4927 131.933 16.9636C132.136 17.697 133.898 19.4877 134.42 20.2167C135.147 21.3864 135.783 22.6035 136.323 23.8584C136.745 24.9988 137.011 26.1825 137.115 27.3797C137.18 28.5529 136.736 29.5478 135.715 29.6702C135.027 29.7594 134.307 29.4614 133.581 29.1176C132.854 28.7739 132.227 28.305 131.559 27.9497C130.669 27.4359 129.572 27.2268 128.615 26.9518C127.656 26.7066 126.719 26.3834 125.812 25.9863C126.113 25.8619 126.424 25.7387 126.743 25.6237Z" fill="url(#paint8_linear_367_15021)"/>
<path d="M18.5965 106.165C17.4954 108.465 16.7514 110.877 17.3707 113.543C17.8112 115.276 18.5616 116.906 19.5815 118.345C19.7706 118.588 19.8941 118.88 19.9384 119.191C19.9384 119.644 19.56 119.915 19.1212 119.942C18.6515 119.935 18.1872 119.834 17.7535 119.644C16.4632 119.25 15.3191 118.666 14.0717 118.2C12.8244 117.734 11.5814 117.254 10.3039 116.815C7.88667 115.783 5.3705 114.833 2.82422 113.927C4.04145 114.38 6.80279 117.675 7.95549 118.679C9.83168 120.098 11.8056 121.367 13.861 122.477C15.7428 123.364 17.7265 123.989 19.7622 124.337C21.7579 124.613 23.5429 123.984 23.9343 122.237C24.2138 121.06 23.8268 119.775 23.3665 118.471C22.9064 117.168 22.2138 116.018 21.7234 114.814C21.0009 113.203 20.8375 111.28 20.5364 109.587C20.2883 107.895 19.9011 106.23 19.3794 104.608C19.1127 105.111 18.8331 105.631 18.5965 106.165Z" fill="url(#paint9_linear_367_15021)"/>
<path d="M20.2882 35.1633C17.7935 34.9618 15.3211 35.1326 13.0969 36.661C11.6636 37.6901 10.4348 38.9699 9.47636 40.4319C9.32021 40.6947 9.09579 40.9138 8.82674 41.0662C8.41206 41.2279 8.02986 40.9733 7.85037 40.5752C7.69135 40.1361 7.62064 39.6685 7.64203 39.1975C7.54805 37.8577 7.67979 36.5857 7.66732 35.26C7.65485 33.9343 7.65634 32.6076 7.60837 31.2635C7.70194 28.6484 7.68602 25.9705 7.61801 23.2808C7.63231 24.5737 5.58663 28.3174 5.0723 29.7477C4.43406 31.9982 3.9668 34.2863 3.67438 36.5929C3.52449 38.6588 3.65068 40.7259 4.04977 42.7416C4.50015 44.695 5.7056 46.1288 7.44418 45.8681C8.62086 45.7073 9.66209 44.8881 10.6942 43.9945C11.7262 43.1009 12.5354 42.0465 13.4657 41.1606C14.6872 39.9131 16.3921 39.0737 17.8368 38.1889C19.2992 37.3537 20.6891 36.3985 21.9904 35.3342C21.4362 35.2659 20.8608 35.1921 20.2882 35.1633Z" fill="url(#paint10_linear_367_15021)"/>
<path d="M132.046 35.1633C134.541 34.9618 137.013 35.1326 139.237 36.661C140.671 37.6901 141.899 38.9699 142.858 40.4319C143.015 40.6947 143.238 40.9138 143.508 41.0662C143.922 41.2279 144.304 40.9733 144.483 40.5752C144.643 40.1361 144.714 39.6685 144.693 39.1975C144.786 37.8577 144.654 36.5857 144.667 35.26C144.68 33.9343 144.678 32.6076 144.725 31.2635C144.632 28.6484 144.649 25.9705 144.717 23.2808C144.703 24.5737 146.748 28.3174 147.261 29.7477C147.9 31.9982 148.368 34.2863 148.659 36.5929C148.809 38.6588 148.683 40.7259 148.285 42.7416C147.834 44.695 146.628 46.1288 144.891 45.8681C143.713 45.7073 142.673 44.8881 141.641 43.9945C140.608 43.1009 139.799 42.0465 138.868 41.1606C137.647 39.9131 135.942 39.0737 134.497 38.1889C133.035 37.3537 131.645 36.3985 130.344 35.3342C130.898 35.2659 131.473 35.1921 132.046 35.1633Z" fill="url(#paint11_linear_367_15021)"/>
<path d="M97.5425 9.89543C98.3233 9.89543 98.9562 9.26253 98.9562 8.4818C98.9562 7.70108 98.3233 7.06818 97.5425 7.06818C96.7618 7.06818 96.1289 7.70108 96.1289 8.4818C96.1289 9.26253 96.7618 9.89543 97.5425 9.89543Z" fill="url(#paint12_linear_367_15021)"/>
<path d="M55.1324 9.89543C55.9131 9.89543 56.546 9.26253 56.546 8.4818C56.546 7.70108 55.9131 7.06818 55.1324 7.06818C54.3517 7.06818 53.7188 7.70108 53.7188 8.4818C53.7188 9.26253 54.3517 9.89543 55.1324 9.89543Z" fill="url(#paint13_linear_367_15021)"/>
<path d="M66.3169 4.24091C65.6047 4.24091 65.0273 4.81825 65.0273 5.53042V25.5694C65.0273 26.2816 65.6047 26.8589 66.3169 26.8589H86.3557C87.0679 26.8589 87.6452 26.2816 87.6452 25.5694V17.0974C87.6452 16.6899 87.1483 16.4901 86.8663 16.7844L82.3994 21.4457C80.4907 23.4375 78.4985 24.4278 76.4226 24.4168C74.3631 24.4221 72.4072 23.4988 70.5549 21.6465C68.588 19.6794 67.5517 17.5451 67.4461 15.2436C67.3631 13.1183 68.1926 11.0694 69.9348 9.09663C70.1554 8.84673 70.5346 8.84342 70.7701 9.07896L74.6922 13.0011C74.9257 13.2346 74.9281 13.6144 74.7241 13.8751C73.7763 15.0863 73.7404 16.1299 74.6165 17.0061C75.5018 17.8912 76.4896 17.7648 77.5802 16.6265L87.5194 6.25479C87.6001 6.17056 87.6452 6.05843 87.6452 5.9418V5.53042C87.6452 4.81825 87.0679 4.24091 86.3557 4.24091H66.3169Z" fill="url(#paint14_linear_367_15021)"/>
</g>
<path d="M92.4235 152.665C92.2624 152.663 92.1014 152.649 91.9419 152.625C79.9734 150.802 68.1986 147.829 56.7735 143.746C45.0861 139.504 33.518 133.867 24.0752 125.537C22.8247 124.437 21.6096 123.273 20.4519 122.082C14.4334 115.799 9.45332 108.554 5.7067 100.631C1.45681 90.839 -0.466214 80.1536 0.0954532 69.4523C0.65712 58.751 3.68746 48.3388 8.93779 39.0701C14.1882 29.8014 21.5088 21.9403 30.2988 16.1324C39.0889 10.3244 43.4433 9.56221 53.8497 8.48588C53.9593 8.47063 54.0704 8.49796 54.1611 8.5625C54.2519 8.62703 54.3158 8.72407 54.3403 8.83449C54.3386 8.8888 54.3263 8.94223 54.3042 8.99162C54.282 9.041 54.2505 9.08536 54.2113 9.12205C54.1723 9.15875 54.1264 9.18707 54.0765 9.20533C54.0264 9.22359 53.9734 9.23143 53.9205 9.22839C37.3937 10.9672 27.7973 16.2926 16.9507 29.1867C6.10416 42.0808 0.484237 58.7389 1.24381 75.7437C1.58811 84.1486 3.49268 92.4091 6.85556 100.083C10.2554 107.733 15.009 114.672 20.876 120.547C25.8813 125.718 31.5744 130.138 37.7864 133.677C51.3739 141.46 66.9498 145.802 82.1148 149.07C85.3551 149.768 88.6132 150.393 91.8889 150.944C92.2604 150.978 92.619 151.101 92.9361 151.302C93.0917 151.408 93.2071 151.565 93.2626 151.747C93.3182 151.93 93.3106 152.126 93.241 152.303C93.1483 152.433 93.0237 152.533 92.8801 152.597C92.7365 152.66 92.5789 152.684 92.4235 152.665Z" fill="url(#paint15_linear_367_15021)"/>
<path d="M97.3398 9.22417C113.863 10.9681 124.868 16.2942 135.711 29.1857C146.555 42.0773 152.176 58.7304 151.419 75.7315C151.074 84.1357 149.169 92.3954 145.804 100.068C142.405 107.716 137.653 114.653 131.79 120.53C126.783 125.7 121.089 130.12 114.877 133.658C101.295 141.44 85.7161 145.782 70.5569 149.05C67.3169 149.747 64.0592 150.372 60.7838 150.924C60.4109 150.958 60.0509 151.08 59.7322 151.282C59.5779 151.388 59.4636 151.545 59.4082 151.727C59.3528 151.908 59.3596 152.105 59.4274 152.282C59.5175 152.416 59.6409 152.522 59.7847 152.59C59.9284 152.656 60.0873 152.683 60.2448 152.667C60.406 152.665 60.567 152.652 60.7263 152.626C72.6989 150.796 84.4768 147.816 95.9046 143.726C107.591 139.484 119.153 133.848 128.6 125.519C129.849 124.42 131.056 123.269 132.223 122.065C138.24 115.783 143.219 108.538 146.962 100.616C151.213 90.8254 153.136 80.1416 152.576 69.4415C152.015 58.7413 148.985 48.3301 143.735 39.0622C138.486 29.7943 131.166 21.9341 122.377 16.1266C113.588 10.3194 107.82 9.55766 97.415 8.48175" fill="url(#paint16_linear_367_15021)"/>
</g>
</g>
</g>
<path d="M61.6055 87.5124C61.8083 88.6217 62.1959 89.4805 62.7684 90.0888C63.3409 90.6851 64.1759 90.9833 65.2732 90.9833C66.5375 90.9833 67.4977 90.542 68.1537 89.6594C68.8216 88.7648 69.1556 87.6436 69.1556 86.2958C69.1556 84.9719 68.8455 83.8567 68.2252 82.9502C67.605 82.0318 66.6389 81.5725 65.3269 81.5725C64.7066 81.5725 64.1699 81.6501 63.7167 81.8051C62.9175 82.0914 62.3152 82.6222 61.9096 83.3974L57.3295 83.1828L59.1544 68.8519H73.4495V73.1816H62.84L61.9096 78.8531C62.6969 78.3402 63.3111 78.0003 63.7524 77.8333C64.4919 77.5589 65.3925 77.4218 66.454 77.4218C68.601 77.4218 70.4736 78.1434 72.0719 79.5866C73.6701 81.0298 74.4693 83.1291 74.4693 85.8843C74.4693 88.2818 73.7 90.4227 72.1613 92.3073C70.6227 94.1918 68.3207 95.1341 65.2553 95.1341C62.7863 95.1341 60.7586 94.4721 59.1723 93.1482C57.5859 91.8242 56.7033 89.9456 56.5244 87.5124H61.6055ZM82.9795 86.2422C82.9795 87.6377 83.3553 88.7767 84.1067 89.6594C84.8581 90.542 85.8123 90.9833 86.9693 90.9833C88.1024 90.9833 88.991 90.5599 89.6351 89.713C90.2911 88.8543 90.6191 87.745 90.6191 86.3853C90.6191 84.8705 90.2493 83.7135 89.5098 82.9144C88.7703 82.1033 87.8638 81.6978 86.7904 81.6978C85.9197 81.6978 85.1503 81.9602 84.4824 82.485C83.4805 83.2603 82.9795 84.5127 82.9795 86.2422ZM90.1539 75.0422C90.1539 74.6248 89.9929 74.1656 89.6709 73.6646C89.1222 72.8536 88.2932 72.448 87.184 72.448C85.5261 72.448 84.3452 73.3784 83.6415 75.2391C83.2598 76.2648 82.9974 77.7796 82.8543 79.7834C83.4865 79.032 84.22 78.4833 85.0549 78.1374C85.8899 77.7915 86.844 77.6186 87.9175 77.6186C90.2195 77.6186 92.1041 78.3998 93.5711 79.9623C95.0502 81.5248 95.7897 83.5227 95.7897 85.9559C95.7897 88.3772 95.068 90.5122 93.6248 92.361C92.1816 94.2097 89.9392 95.1341 86.8977 95.1341C83.6296 95.1341 81.2202 93.7684 79.6697 91.037C78.465 88.902 77.8627 86.1467 77.8627 82.7713C77.8627 80.7913 77.9461 79.1811 78.1131 77.9406C78.4113 75.734 78.9898 73.8972 79.8486 72.4301C80.5881 71.1777 81.5542 70.1699 82.747 69.4065C83.9516 68.6432 85.3889 68.2615 87.0587 68.2615C89.4681 68.2615 91.3884 68.8817 92.8197 70.1222C94.251 71.3507 95.0561 72.9907 95.235 75.0422H90.1539Z" fill="#D2920F"/>
<defs>
<linearGradient id="paint0_linear_367_15021" x1="76.3384" y1="100.368" x2="76.3384" y2="132.881" gradientUnits="userSpaceOnUse">
<stop stop-color="#EFBD59"/>
<stop offset="1" stop-color="#D2920F"/>
</linearGradient>
<linearGradient id="paint1_linear_367_15021" x1="76.3376" y1="32.5134" x2="76.3376" y2="65.0268" gradientUnits="userSpaceOnUse">
<stop stop-color="#EFBD59"/>
<stop offset="1" stop-color="#D2920F"/>
</linearGradient>
<linearGradient id="paint2_linear_367_15021" x1="20.4941" y1="74.9223" x2="20.4941" y2="87.6449" gradientUnits="userSpaceOnUse">
<stop stop-color="#EFBD59"/>
<stop offset="1" stop-color="#D2920F"/>
</linearGradient>
<linearGradient id="paint3_linear_367_15021" x1="132.174" y1="74.9223" x2="132.174" y2="87.6449" gradientUnits="userSpaceOnUse">
<stop stop-color="#EFBD59"/>
<stop offset="1" stop-color="#D2920F"/>
</linearGradient>
<linearGradient id="paint4_linear_367_15021" x1="139.239" y1="104.608" x2="139.239" y2="124.399" gradientUnits="userSpaceOnUse">
<stop stop-color="#EFBD59"/>
<stop offset="1" stop-color="#D2920F"/>
</linearGradient>
<linearGradient id="paint5_linear_367_15021" x1="147.014" y1="93.2994" x2="147.014" y2="104.608" gradientUnits="userSpaceOnUse">
<stop stop-color="#EFBD59"/>
<stop offset="1" stop-color="#D2920F"/>
</linearGradient>
<linearGradient id="paint6_linear_367_15021" x1="5.65451" y1="93.2994" x2="5.65451" y2="104.608" gradientUnits="userSpaceOnUse">
<stop stop-color="#EFBD59"/>
<stop offset="1" stop-color="#D2920F"/>
</linearGradient>
<linearGradient id="paint7_linear_367_15021" x1="20.8693" y1="16.9636" x2="20.8693" y2="29.6862" gradientUnits="userSpaceOnUse">
<stop stop-color="#EFBD59"/>
<stop offset="1" stop-color="#D2920F"/>
</linearGradient>
<linearGradient id="paint8_linear_367_15021" x1="131.467" y1="16.9636" x2="131.467" y2="29.6862" gradientUnits="userSpaceOnUse">
<stop stop-color="#EFBD59"/>
<stop offset="1" stop-color="#D2920F"/>
</linearGradient>
<linearGradient id="paint9_linear_367_15021" x1="13.4264" y1="104.608" x2="13.4264" y2="124.399" gradientUnits="userSpaceOnUse">
<stop stop-color="#EFBD59"/>
<stop offset="1" stop-color="#D2920F"/>
</linearGradient>
<linearGradient id="paint10_linear_367_15021" x1="12.8019" y1="23.2808" x2="12.8019" y2="45.8988" gradientUnits="userSpaceOnUse">
<stop stop-color="#EFBD59"/>
<stop offset="1" stop-color="#D2920F"/>
</linearGradient>
<linearGradient id="paint11_linear_367_15021" x1="139.532" y1="23.2808" x2="139.532" y2="45.8988" gradientUnits="userSpaceOnUse">
<stop stop-color="#EFBD59"/>
<stop offset="1" stop-color="#D2920F"/>
</linearGradient>
<linearGradient id="paint12_linear_367_15021" x1="97.5425" y1="7.06818" x2="97.5425" y2="9.89543" gradientUnits="userSpaceOnUse">
<stop stop-color="#EFBD59"/>
<stop offset="1" stop-color="#D2920F"/>
</linearGradient>
<linearGradient id="paint13_linear_367_15021" x1="55.1324" y1="7.06818" x2="55.1324" y2="9.89543" gradientUnits="userSpaceOnUse">
<stop stop-color="#EFBD59"/>
<stop offset="1" stop-color="#D2920F"/>
</linearGradient>
<linearGradient id="paint14_linear_367_15021" x1="76.3362" y1="4.24091" x2="76.3362" y2="26.8589" gradientUnits="userSpaceOnUse">
<stop stop-color="#EFBD59"/>
<stop offset="1" stop-color="#D2920F"/>
</linearGradient>
<linearGradient id="paint15_linear_367_15021" x1="46.6497" y1="8.48175" x2="46.6497" y2="152.672" gradientUnits="userSpaceOnUse">
<stop stop-color="#EFBD59"/>
<stop offset="1" stop-color="#D2920F"/>
</linearGradient>
<linearGradient id="paint16_linear_367_15021" x1="106.021" y1="8.48175" x2="106.021" y2="152.672" gradientUnits="userSpaceOnUse">
<stop stop-color="#EFBD59"/>
<stop offset="1" stop-color="#D2920F"/>
</linearGradient>
<clipPath id="clip0_367_15021">
<rect width="152.672" height="152.672" fill="white"/>
</clipPath>
<clipPath id="clip1_367_15021">
<rect width="152.672" height="152.672" fill="white"/>
</clipPath>
<clipPath id="clip2_367_15021">
<rect width="152.672" height="152.672" fill="white"/>
</clipPath>
</defs>
</svg>
