<svg width="153" height="164" viewBox="0 0 153 164" fill="none" xmlns="http://www.w3.org/2000/svg">
<g clip-path="url(#clip0_367_15049)">
<g clip-path="url(#clip1_367_15049)">
<g clip-path="url(#clip2_367_15049)">
<mask id="mask0_367_15049" style="mask-type:luminance" maskUnits="userSpaceOnUse" x="0" y="0" width="153" height="153">
<path d="M152.672 0H0V152.672H152.672V0Z" fill="white"/>
</mask>
<g mask="url(#mask0_367_15049)">
<path d="M103.895 142.068C103.806 142.068 103.72 142.043 103.646 141.995C103.573 141.947 103.516 141.877 103.482 141.795C103.459 141.742 103.446 141.685 103.445 141.626C103.445 141.568 103.455 141.51 103.477 141.456C103.499 141.401 103.532 141.352 103.573 141.31C103.614 141.269 103.664 141.235 103.718 141.213C110.474 138.341 115.624 135.425 119.92 132.043C121.731 130.753 123.444 129.334 125.046 127.796C125.714 127.194 126.376 126.586 127.054 125.993C127.736 125.313 128.419 124.565 129.081 123.836C129.46 123.423 129.833 123.005 130.216 122.597L131.797 120.877C132.106 120.503 132.41 120.099 132.715 119.691L136.019 115.318L138.881 110.653C139.142 110.235 139.402 109.812 139.642 109.38L140.654 107.3C140.889 106.814 141.145 106.328 141.375 105.842C141.818 104.938 142.259 104.039 142.671 103.121L144.277 98.7477C144.365 98.4902 144.468 98.2277 144.567 97.9703C144.738 97.5134 144.915 97.0519 145.058 96.5854L145.647 94.3306C145.78 93.7913 145.921 93.2567 146.064 92.7174C146.32 91.7455 146.555 90.7737 146.786 89.8261L147.488 85.239C147.492 85.1768 147.509 85.116 147.537 85.0605C147.565 85.0051 147.606 84.9562 147.654 84.917C147.704 84.8778 147.76 84.8493 147.821 84.833C147.882 84.8168 147.946 84.8134 148.008 84.8229C148.07 84.8325 148.129 84.8547 148.183 84.8883C148.235 84.922 148.281 84.9662 148.316 85.0182C148.35 85.0702 148.374 85.1288 148.384 85.1903C148.395 85.2518 148.392 85.3147 148.377 85.375L147.664 89.9864C147.449 90.9923 147.174 91.969 146.933 92.9409C146.791 93.4754 146.648 94.0099 146.516 94.5445L145.927 96.8089C145.79 97.2949 145.603 97.7807 145.436 98.2666C145.338 98.5194 145.244 98.7526 145.151 99.0295L143.531 103.403C143.108 104.375 142.657 105.269 142.211 106.182C141.97 106.668 141.719 107.154 141.494 107.64L140.472 109.744C140.212 110.23 139.942 110.643 139.672 111.076L136.79 115.77L133.466 120.177C133.152 120.595 132.837 121.013 132.484 121.411L130.883 123.219C130.5 123.627 130.127 124.04 129.754 124.448C129.086 125.182 128.394 125.945 127.672 126.659C126.98 127.267 126.322 127.869 125.66 128.472C124.034 130.03 122.294 131.467 120.455 132.772C116.12 136.174 110.906 139.143 104.071 142.048C104.014 142.067 103.954 142.072 103.895 142.068Z" fill="url(#paint0_linear_367_15049)"/>
<path d="M147.686 110.263C148.585 108.588 149.218 106.912 149.091 105.285C149.067 103.806 148.504 102.379 147.496 101.24C146.782 100.505 145.872 99.96 144.86 99.6607C144.519 100.426 144.291 101.231 144.181 102.054C144.091 102.763 144.091 103.48 144.181 104.189C144.231 105.017 144.413 105.833 144.723 106.611C145.313 108.071 146.343 109.339 147.686 110.263Z" fill="url(#paint1_linear_367_15049)"/>
<path d="M141.279 104.15C142.571 103.612 143.608 102.583 144.169 101.281C144.481 100.631 144.7 99.9402 144.82 99.2277C143.861 98.9782 142.865 98.8983 141.879 98.9916C140.082 99.1775 138.386 99.9232 137.021 101.127C136.196 101.724 135.459 102.437 134.832 103.247C134.988 103.314 137.894 105.546 141.279 104.15Z" fill="url(#paint2_linear_367_15049)"/>
<path d="M143.852 115.917C145.92 112.887 146.023 109.251 144.48 107.092C143.916 106.311 143.161 105.697 142.294 105.315C141.915 106.036 141.637 106.809 141.466 107.61C141.16 109.099 141.186 110.64 141.541 112.117C141.939 113.589 142.742 114.909 143.852 115.917Z" fill="url(#paint3_linear_367_15049)"/>
<path d="M138.124 110.023C141.178 109.049 141.886 106.036 141.972 105.802C141.071 105.483 140.119 105.318 139.159 105.315C137.407 105.325 135.702 105.859 134.275 106.844C133.437 107.336 132.667 107.93 131.984 108.611C132.125 108.703 134.732 110.996 138.124 110.023Z" fill="url(#paint4_linear_367_15049)"/>
<path d="M139.784 121.572C142.145 118.978 142.545 115.634 141.21 113.519C140.718 112.746 140.017 112.11 139.18 111.677C138.734 112.306 138.381 112.992 138.133 113.713C137.684 115.052 137.572 116.472 137.807 117.859C138.069 119.253 138.756 120.543 139.784 121.572Z" fill="url(#paint5_linear_367_15049)"/>
<path d="M134.975 115.113C138.009 114.485 139.021 111.87 139.117 111.663C138.271 111.305 137.36 111.08 136.426 110.999C134.718 110.863 133.004 111.2 131.521 111.964C130.665 112.349 129.863 112.82 129.129 113.368C129.255 113.457 131.572 115.7 134.975 115.113Z" fill="url(#paint6_linear_367_15049)"/>
<path d="M135.021 127.226C137.594 124.849 138.282 121.554 137.193 119.338C136.785 118.527 136.16 117.834 135.383 117.331C133.954 119.034 133.258 121.199 133.438 123.38C133.564 124.783 134.115 126.12 135.021 127.226Z" fill="url(#paint7_linear_367_15049)"/>
<path d="M130.728 120.131C133.53 119.728 134.728 117.16 134.833 116.951C134.095 116.516 133.288 116.209 132.446 116.045C130.898 115.759 129.3 115.957 127.869 116.609C127.058 116.945 126.284 117.362 125.559 117.853C125.678 117.957 127.578 120.444 130.728 120.131Z" fill="url(#paint8_linear_367_15049)"/>
<path d="M129.581 132.174C130.837 131.201 131.785 129.882 132.306 128.379C132.784 127.122 132.818 125.739 132.4 124.461C132.082 123.609 131.545 122.857 130.845 122.279C129.301 123.856 128.428 125.972 128.41 128.181C128.403 129.598 128.81 130.986 129.581 132.174Z" fill="url(#paint9_linear_367_15049)"/>
<path d="M126.913 125.106C129.7 124.938 131.144 122.505 131.267 122.298C130.577 121.788 129.805 121.402 128.985 121.158C127.478 120.725 125.875 120.773 124.396 121.296C123.566 121.574 122.761 121.925 121.992 122.347C122.095 122.461 123.745 125.126 126.913 125.106Z" fill="url(#paint10_linear_367_15049)"/>
<path d="M124.211 136.415C124.853 135.976 125.446 135.469 125.978 134.905C126.441 134.352 126.826 133.74 127.122 133.085C127.689 131.949 127.843 130.654 127.561 129.417C127.336 128.588 126.894 127.832 126.28 127.226C124.665 128.565 123.648 130.481 123.452 132.559C123.319 133.89 123.583 135.231 124.211 136.415Z" fill="url(#paint11_linear_367_15049)"/>
<path d="M122.021 129.345C124.594 129.409 126.149 127.524 126.276 127.359C125.686 126.885 125.009 126.508 124.275 126.243C121.098 125.115 118.277 126.548 117.715 126.666C117.799 126.789 119.102 129.117 122.021 129.345Z" fill="url(#paint12_linear_367_15049)"/>
<path d="M118.938 139.949C120.201 139.284 121.241 138.272 121.935 137.034C122.563 136.016 122.817 134.815 122.655 133.633C122.512 132.835 122.16 132.088 121.635 131.467C120.814 132.016 120.115 132.725 119.581 133.551C119.046 134.376 118.688 135.302 118.528 136.27C118.299 137.509 118.442 138.789 118.938 139.949Z" fill="url(#paint13_linear_367_15049)"/>
<path d="M116.778 132.851C119.381 133.127 121.142 131.412 121.284 131.261C120.736 130.748 120.09 130.322 119.376 130.003C116.248 128.603 113.306 129.865 112.723 129.952C112.777 130.033 113.919 132.485 116.778 132.851Z" fill="url(#paint14_linear_367_15049)"/>
<path d="M113.75 142.776C116.288 141.45 117.869 139.184 117.698 137.111C117.63 136.351 117.361 135.623 116.916 135.001C116.104 135.44 115.392 136.04 114.823 136.765C114.254 137.491 113.842 138.325 113.611 139.216C113.329 140.393 113.377 141.624 113.75 142.776Z" fill="url(#paint15_linear_367_15049)"/>
<path d="M112.256 136.333C113.101 136.48 113.969 136.429 114.792 136.182C115.615 135.936 116.371 135.5 117.002 134.91C116.493 134.261 115.878 133.706 115.183 133.268C112.163 131.385 108.962 132.463 108.441 132.656C108.503 132.776 109.405 135.7 112.256 136.333Z" fill="url(#paint16_linear_367_15049)"/>
<path d="M77.1508 147.016C69.0364 147.058 60.9806 145.639 53.3658 142.826C48.1767 141.096 42.9051 138.374 36.7857 134.271L33.0404 131.466C32.2192 130.867 31.4436 130.207 30.7197 129.492C30.3223 129.118 29.9249 128.744 29.5083 128.389C27.6782 126.778 25.9636 125.04 24.3773 123.188C23.9218 122.702 23.4615 122.167 23.0012 121.666C22.9498 121.626 22.9077 121.576 22.8778 121.517C22.8479 121.459 22.831 121.396 22.8285 121.33C22.8258 121.265 22.8376 121.2 22.8626 121.14C22.8877 121.08 22.9256 121.026 22.9738 120.982C23.0219 120.938 23.079 120.905 23.1412 120.885C23.2033 120.866 23.2688 120.861 23.3334 120.869C23.3979 120.878 23.4597 120.901 23.5145 120.936C23.5692 120.971 23.6158 121.018 23.6505 121.073C24.1156 121.585 24.5776 122.097 25.0362 122.609C26.5961 124.43 28.2814 126.139 30.08 127.723C30.5113 128.092 30.9183 128.476 31.3253 128.861C32.022 129.547 32.7687 130.181 33.5588 130.756L37.2994 133.561C43.3267 137.601 48.5353 140.274 53.6614 141.975C64.8053 146.151 77.4027 147.187 90.0825 144.984C90.1398 144.975 90.1984 144.976 90.2553 144.989C90.3121 145 90.3658 145.024 90.4136 145.058C90.4612 145.09 90.5019 145.133 90.5332 145.182C90.5646 145.232 90.5859 145.287 90.5961 145.344C90.6063 145.402 90.6051 145.461 90.5926 145.517C90.5801 145.574 90.5565 145.629 90.5232 145.676C90.4899 145.724 90.4475 145.765 90.3985 145.796C90.3496 145.828 90.2949 145.85 90.2376 145.86C85.9163 146.62 81.538 147.007 77.1508 147.016Z" fill="url(#paint17_linear_367_15049)"/>
<path d="M66.3477 152.455C67.3058 152.615 68.2809 152.686 69.2566 152.669C70.1592 152.595 71.0468 152.42 71.8968 152.146C73.4026 151.715 74.6896 150.847 75.5395 149.689C76.072 148.887 76.3468 147.977 76.3351 147.053C73.7388 146.849 71.1541 147.536 69.1377 148.965C67.8305 149.866 66.86 151.079 66.3477 152.455Z" fill="url(#paint18_linear_367_15049)"/>
<path d="M70.6491 145.078C72.8417 147.47 76.0676 146.997 76.3335 146.947C76.2704 145.939 76.0397 144.949 75.6511 144.022C73.9403 140.018 70.1324 138.915 69.5103 138.535C69.4902 138.705 68.3213 142.209 70.6491 145.078Z" fill="url(#paint19_linear_367_15049)"/>
<path d="M59.9297 150.852C60.753 151.098 61.6089 151.235 62.4727 151.258C63.2656 151.251 64.0545 151.153 64.8231 150.971C66.1885 150.684 67.4052 149.96 68.2639 148.923C68.8037 148.198 69.1283 147.349 69.2041 146.467C68.0819 146.255 66.9256 146.258 65.8049 146.477C64.6841 146.696 63.6225 147.127 62.6843 147.744C61.4632 148.506 60.5057 149.586 59.9297 150.852Z" fill="url(#paint20_linear_367_15049)"/>
<path d="M63.8553 144.003C65.7671 146.452 68.9317 146.323 69.1983 146.303C69.227 145.352 69.0908 144.403 68.7958 143.499C67.5078 139.534 63.8805 138.25 63.3221 137.829C63.2868 137.963 61.8277 141.204 63.8553 144.003Z" fill="url(#paint21_linear_367_15049)"/>
<path d="M52.793 149.143C54.3769 149.804 56.118 150.003 57.8119 149.717C59.2381 149.546 60.5586 148.883 61.5436 147.844C62.1768 147.115 62.6037 146.23 62.7808 145.283C61.6551 144.935 60.4695 144.821 59.2975 144.946C58.1255 145.071 56.9916 145.434 55.966 146.011C54.627 146.73 53.5254 147.817 52.793 149.143Z" fill="url(#paint22_linear_367_15049)"/>
<path d="M57.8329 142.242C59.432 144.723 62.4563 144.897 62.7146 144.897C62.8294 144.006 62.7874 143.104 62.5903 142.226C61.7312 138.372 58.3841 136.82 57.8726 136.415C57.5564 137.023 57.3322 137.672 57.2071 138.343C56.8961 139.672 57.12 141.067 57.8329 142.242Z" fill="url(#paint23_linear_367_15049)"/>
<path d="M46.375 146.066C47.1263 146.463 47.9475 146.732 48.7997 146.858C49.5786 146.996 50.3727 147.046 51.1644 147.002C52.5531 146.972 53.8865 146.484 54.9311 145.625C55.6107 145.016 56.1049 144.245 56.3628 143.397C55.3128 142.979 54.1825 142.768 53.0421 142.776C51.9016 142.785 50.7752 143.014 49.7327 143.448C48.376 144.01 47.2134 144.917 46.375 146.066Z" fill="url(#paint24_linear_367_15049)"/>
<path d="M51.8469 140.51C53.1132 143.018 55.9147 143.455 56.1641 143.483C56.3576 142.646 56.4032 141.784 56.2985 140.932C55.8476 137.22 52.8783 135.366 52.4081 135.001C52.0656 135.552 51.7993 136.145 51.6166 136.765C51.2067 137.997 51.2891 139.337 51.8469 140.51Z" fill="url(#paint25_linear_367_15049)"/>
<path d="M39.9492 142.792C42.9728 144.565 46.3391 144.631 48.3194 143.109C49.0425 142.539 49.6008 141.788 49.9371 140.934C48.9569 140.403 47.8775 140.078 46.7662 139.98C45.6548 139.883 44.535 140.014 43.4768 140.366C42.0984 140.834 40.8771 141.674 39.9492 142.792Z" fill="url(#paint26_linear_367_15049)"/>
<path d="M45.9471 137.818C46.8782 140.568 49.3779 141.306 49.5903 141.363C49.8413 140.508 49.9591 139.611 49.9384 138.71C49.848 134.811 47.3529 132.523 46.9008 132.174C46.842 132.272 44.9571 134.842 45.9471 137.818Z" fill="url(#paint27_linear_367_15049)"/>
<path d="M34.2461 139.074C36.8524 140.776 39.9072 141.138 41.8548 139.998C42.5635 139.572 43.1381 138.981 43.5206 138.283C42.6707 137.757 41.7129 137.399 40.7068 137.231C39.7009 137.063 38.6682 137.089 37.6733 137.307C36.3791 137.598 35.1945 138.209 34.2461 139.074Z" fill="url(#paint28_linear_367_15049)"/>
<path d="M40.1141 134.31C40.8502 136.855 43.3922 137.762 43.613 137.829C43.9476 137.098 44.1502 136.318 44.2118 135.521C44.462 132.025 42.0182 129.717 41.6059 129.347C41.5176 129.447 39.3437 131.532 40.1141 134.31Z" fill="url(#paint29_linear_367_15049)"/>
<path d="M29.25 135.173C31.516 136.992 34.2353 137.641 36.1116 136.678C36.8036 136.305 37.3883 135.764 37.8111 135.106C37.4304 134.914 35.4227 133.212 32.563 133.664C31.3368 133.848 30.1884 134.372 29.25 135.173Z" fill="url(#paint30_linear_367_15049)"/>
<path d="M35.0277 131.276C35.2036 132.094 35.595 132.861 36.1681 133.51C36.7413 134.159 37.4788 134.671 38.3171 135.001C38.7302 134.32 39.0068 133.577 39.1342 132.806C39.7351 129.403 37.4315 126.919 37.0256 126.52C36.936 126.626 34.5006 128.488 35.0277 131.276Z" fill="url(#paint31_linear_367_15049)"/>
<path d="M24.2539 130.814C26.5368 133.119 29.3048 134.255 31.5417 133.178C32.327 132.815 33.0109 132.246 33.5284 131.525C32.9671 131.054 32.3671 130.636 31.7358 130.276C30.5858 129.593 29.2736 129.275 27.9566 129.36C26.6155 129.46 25.3301 129.965 24.2539 130.814Z" fill="url(#paint32_linear_367_15049)"/>
<path d="M30.6872 127.538C30.7865 128.644 31.2253 129.685 31.9367 130.504C32.3143 130.9 32.7527 131.226 33.2332 131.467C33.6372 130.825 33.9302 130.112 34.099 129.362C34.2989 128.26 34.2845 127.126 34.0569 126.03C33.8292 124.934 33.3929 123.898 32.7745 122.986C32.6809 123.089 30.4673 124.735 30.6872 127.538Z" fill="url(#paint33_linear_367_15049)"/>
<path d="M15.0347 110.253C14.9472 110.253 14.8614 110.23 14.7872 110.185C14.7131 110.14 14.6536 110.076 14.6154 110.001L12.5093 105.797C12.3932 105.549 12.2669 105.311 12.1457 105.068C11.9083 104.606 11.6759 104.14 11.4689 103.668L10.6304 101.467C10.4334 100.932 10.2314 100.402 10.0243 99.8726C9.66572 98.9395 9.30711 98.0065 8.98385 97.0636L7.77167 92.5196C7.70096 92.2475 7.63025 91.9852 7.55448 91.7178C7.41812 91.2318 7.28679 90.7458 7.18577 90.2307L6.0847 83.2909L5.71094 76.2587C5.71094 75.7192 5.74629 75.2041 5.7766 74.6938L6.0847 69.2265C6.19077 68.1962 6.35745 67.1805 6.51907 66.1989C6.60999 65.6593 6.69585 65.1151 6.77666 64.5708C7.07845 62.366 7.55804 60.187 8.21109 58.0537C8.44847 57.1838 8.69091 56.314 8.9081 55.4343C10.6456 50.4286 13.1306 44.0088 16.9894 38.3763C17.0219 38.3263 17.0643 38.2829 17.1145 38.2489C17.1645 38.2149 17.2212 38.1908 17.281 38.1783C17.3409 38.1655 17.4028 38.1645 17.4631 38.1753C17.5234 38.186 17.5808 38.2084 17.6321 38.2407C17.6833 38.2731 17.7273 38.3151 17.7613 38.3641C17.7954 38.4132 17.819 38.4682 17.8307 38.5262C17.8423 38.5841 17.8418 38.6436 17.8292 38.7013C17.8166 38.7591 17.792 38.8138 17.7571 38.8623C13.9437 44.4122 11.4891 50.7639 9.77684 55.6773C9.56976 56.5229 9.32731 57.4025 9.08487 58.2822C8.44761 60.3766 7.97653 62.5146 7.6757 64.6777C7.59489 65.2414 7.50398 65.7906 7.41306 66.3397C7.25648 67.3117 7.0898 68.308 6.9888 69.2896L6.70595 74.7424C6.67564 75.2284 6.64534 75.7436 6.64028 76.2392L7.009 83.2034L8.10501 90.08C8.19594 90.5417 8.32725 91.0179 8.45858 91.4942C8.53433 91.7615 8.6101 92.0336 8.67577 92.3059L9.8829 96.8158C10.191 97.7197 10.5446 98.643 10.8931 99.5664C11.0951 100.096 11.3022 100.631 11.4992 101.165L12.3325 103.352C12.5245 103.79 12.7517 104.237 12.979 104.684L13.3528 105.423L15.4539 109.626C15.4868 109.694 15.5016 109.768 15.497 109.843C15.4922 109.918 15.4681 109.99 15.427 110.053C15.3857 110.116 15.3288 110.169 15.2612 110.205C15.1935 110.242 15.1174 110.262 15.0398 110.263L15.0347 110.253Z" fill="url(#paint34_linear_367_15049)"/>
<path d="M0.714844 89.7654C0.877737 91.4524 1.56134 93.0581 2.68177 94.3852C3.55809 95.5349 4.83498 96.3604 6.29107 96.7183C7.28359 96.9149 8.31398 96.8591 9.27587 96.5566C9.02932 95.4186 8.53796 94.3399 7.83192 93.3865C7.12589 92.4333 6.22003 91.6254 5.16992 91.0127C3.84791 90.1941 2.29816 89.7603 0.714844 89.7654Z" fill="url(#paint35_linear_367_15049)"/>
<path d="M9.30196 90.7366C7.72853 93.5985 9.12157 96.5882 9.25185 96.8335C10.1683 96.4617 11.0156 95.9327 11.7573 95.2697C15.0245 92.367 14.7939 88.3603 14.9794 87.6449C14.8491 87.6705 11.151 87.6244 9.30196 90.7366Z" fill="url(#paint36_linear_367_15049)"/>
<path d="M0 82.6972C0.0184125 84.415 0.544996 86.0927 1.51889 87.5366C2.26927 88.7783 3.45187 89.7289 4.86046 90.2224C5.82822 90.5122 6.85919 90.5505 7.84761 90.3338C7.7226 89.1626 7.34764 88.0284 6.74589 87.0013C6.14415 85.9741 5.32841 85.0758 4.34909 84.3619C3.09307 83.4254 1.58514 82.8482 0 82.6972Z" fill="url(#paint37_linear_367_15049)"/>
<path d="M8.22433 84.2884C6.33335 86.7447 7.45314 89.5329 7.54822 89.7653C8.52337 89.5117 9.44326 89.1108 10.2685 88.5799C13.8867 86.2706 14.1085 82.6193 14.267 82.0028C13.5033 81.963 12.737 82.0188 11.9904 82.1688C10.4783 82.4146 9.12964 83.1737 8.22433 84.2884Z" fill="url(#paint38_linear_367_15049)"/>
<path d="M0.00492518 75.6291C-0.0989369 79.0591 1.44955 82.0243 3.73452 83.0004C4.58055 83.3568 5.50896 83.4805 6.42077 83.3582C6.41477 82.2642 6.18178 81.1829 5.73609 80.1807C5.2904 79.1784 4.64141 78.2765 3.82894 77.53C2.75468 76.5642 1.4321 75.9067 0.00492518 75.6291Z" fill="url(#paint39_linear_367_15049)"/>
<path d="M7.79889 78.156C5.78197 80.3692 6.54841 83.1713 6.619 83.404C7.54495 83.2404 8.43486 82.9304 9.25109 82.4874C10.39 81.8274 11.3641 80.9433 12.1065 79.8957C12.8488 78.848 13.342 77.6616 13.5522 76.4177C13.3858 76.413 9.98726 75.7718 7.79889 78.156Z" fill="url(#paint40_linear_367_15049)"/>
<path d="M0.76766 68.5609C0.449773 72.0534 1.58164 75.2069 3.7635 76.4203C4.5816 76.8596 5.49819 77.0731 6.4222 77.0391C6.35959 76.5481 6.72563 73.3993 4.40891 70.8548C3.42837 69.7592 2.16723 68.9648 0.76766 68.5609Z" fill="url(#paint41_linear_367_15049)"/>
<path d="M8.08755 71.3781C6.05455 73.3404 6.38617 76.1179 6.53034 76.3359C7.38307 76.2583 8.21567 76.0353 8.9911 75.6771C10.106 75.1357 11.09 74.3648 11.8769 73.4163C12.6637 72.4679 13.235 71.3639 13.5522 70.1791C13.3984 70.16 10.3368 69.2643 8.08755 71.3781Z" fill="url(#paint42_linear_367_15049)"/>
<path d="M1.63546 61.4928C1.01609 64.744 1.74192 67.7895 3.83716 69.1426C4.59137 69.6291 5.45955 69.9155 6.35821 69.9746C6.30982 69.4965 6.93887 66.5799 4.95009 63.9838C4.10384 62.8625 2.95513 61.9992 1.63546 61.4928Z" fill="url(#paint43_linear_367_15049)"/>
<path d="M8.54826 65.3506C6.2184 67.0522 6.34614 69.7341 6.47898 69.9745C7.35076 69.9755 8.21579 69.8335 9.03364 69.555C10.2267 69.1254 11.3088 68.4697 12.21 67.6302C13.1112 66.7906 13.8115 65.7861 14.2656 64.6812C14.1276 64.6671 11.0774 63.5359 8.54826 65.3506Z" fill="url(#paint44_linear_367_15049)"/>
<path d="M4.01032 54.4246C3.15089 57.7151 3.48719 60.913 5.37888 62.5147C6.03828 63.087 6.81956 63.4651 7.64892 63.6132C7.76457 62.8563 7.82858 62.0911 7.84043 61.3237C7.87632 59.9026 7.53904 58.5 6.86888 57.2838C6.18179 56.0524 5.19044 55.0608 4.01032 54.4246Z" fill="url(#paint45_linear_367_15049)"/>
<path d="M10.2261 58.795C9.23671 59.4857 8.48884 60.5016 8.09735 61.6863C7.90589 62.2939 7.82506 62.9343 7.85917 63.5737C8.69106 63.666 9.53187 63.5964 10.3402 63.3687C11.4927 63.0053 12.5627 62.3956 13.4844 61.5773C14.406 60.7591 15.1597 59.7497 15.6992 58.611C15.5304 58.5532 12.7865 57.0602 10.2261 58.795Z" fill="url(#paint46_linear_367_15049)"/>
<path d="M5.80876 48.7701C4.55598 51.6148 4.69403 54.4594 6.57577 56.0809C7.21778 56.6477 8.0069 57.0512 8.86658 57.2519C9.08477 56.5939 9.2035 55.9109 9.21941 55.2228C9.38637 53.9666 9.15912 52.6925 8.5649 51.5532C7.95153 50.4006 6.99515 49.4348 5.80876 48.7701Z" fill="url(#paint47_linear_367_15049)"/>
<path d="M11.8942 52.8595C10.8799 53.3977 10.0795 54.2878 9.63239 55.3752C9.43024 55.937 9.30929 56.5269 9.27344 57.1254C10.0536 57.2832 10.8548 57.2935 11.6385 57.1559C12.4066 57.0184 13.1444 56.7384 13.8168 56.3294C14.4301 55.9972 15.0016 55.5875 15.5182 55.1099C16.1401 54.5455 16.68 53.8908 17.1211 53.1657C16.9981 53.1045 14.5002 51.4767 11.8942 52.8595Z" fill="url(#paint48_linear_367_15049)"/>
<path d="M8.88263 43.1157C8.24642 44.3187 7.8929 45.6642 7.85156 47.0399C7.8777 48.2266 8.28082 49.37 8.99669 50.2877C9.50223 50.8868 10.1466 51.338 10.8672 51.5974C11.5466 49.8155 11.6 47.8376 11.0178 46.0181C10.5864 44.8548 9.845 43.8471 8.88263 43.1157Z" fill="url(#paint49_linear_367_15049)"/>
<path d="M13.4897 47.6962C12.9393 47.9203 12.4381 48.2435 12.0127 48.6488C11.6855 49.0024 11.4105 49.3984 11.1954 49.825C10.9541 50.3115 10.7882 50.8298 10.7031 51.3632C11.4473 51.5641 12.2222 51.6366 12.9924 51.5775C14.4001 51.4209 15.7297 50.8697 16.8178 49.9917C17.4709 49.5331 18.0543 48.9882 18.5508 48.3725C18.4178 48.3106 16.1384 46.6629 13.4897 47.6962Z" fill="url(#paint50_linear_367_15049)"/>
<path d="M26.1254 28.2724C26.021 28.2725 25.9198 28.2358 25.8389 28.1685C25.7939 28.1303 25.7569 28.0834 25.7299 28.0305C25.7028 27.9777 25.6864 27.9198 25.6813 27.8605C25.6763 27.801 25.683 27.7412 25.7009 27.6845C25.7187 27.6276 25.7476 27.5751 25.7855 27.5297C26.6582 26.5117 27.6013 25.5585 28.6071 24.6774L29.1608 24.1824C29.5833 23.8109 29.9863 23.4247 30.3895 23.0434C31.1143 22.3226 31.8762 21.6415 32.6721 21.0032C33.19 20.6203 33.7016 20.2275 34.2067 19.8247C36.1649 18.2467 38.2291 16.8104 40.3841 15.5267L42.3851 14.3234C43.0515 13.8768 43.7532 13.4875 44.4831 13.1597L48.6694 11.0998C49.5767 10.6362 50.5166 10.2423 51.4814 9.9213C51.967 9.7381 52.5061 9.55487 53.0112 9.35185C53.5162 9.14884 53.9825 9.00028 54.4342 8.81706C55.4288 8.40642 56.4534 8.0753 57.4986 7.82672C70.0235 4.25157 82.8448 3.99902 94.549 7.10872C94.663 7.13893 94.7606 7.21406 94.8202 7.3176C94.8799 7.42115 94.8967 7.54461 94.8672 7.66084C94.8375 7.77706 94.7638 7.87653 94.6622 7.93735C94.5607 7.99817 94.4395 8.01538 94.3256 7.98517C82.7719 4.9151 70.111 5.16268 57.7122 8.70813C56.7015 8.95061 55.7111 9.27346 54.7498 9.67372C54.2641 9.85693 53.7785 10.0401 53.3171 10.2085C52.8557 10.3769 52.2972 10.5997 51.7727 10.7829C50.8368 11.0857 49.9244 11.4598 49.0434 11.902L44.8133 13.9817C44.1195 14.2954 43.452 14.6664 42.8173 15.0909L40.8164 16.3288C38.6965 17.5951 36.6664 19.0116 34.7409 20.5676C34.2552 20.9587 33.7308 21.3499 33.2209 21.7311C32.4441 22.351 31.6999 23.0122 30.9917 23.7119C30.5837 24.1031 30.171 24.4893 29.7484 24.8657L29.2045 25.3608C28.231 26.2156 27.3159 27.1371 26.4654 28.1189C26.4233 28.1684 26.371 28.2078 26.3122 28.2344C26.2535 28.261 26.1898 28.274 26.1254 28.2724Z" fill="url(#paint51_linear_367_15049)"/>
<path d="M40.9738 7.77496C37.5457 9.58863 35.4008 12.6614 35.6995 15.5043C35.822 16.5434 36.2049 17.5329 36.8112 18.3772C37.2128 17.9675 40.2391 16.3786 41.1256 12.5914C41.5094 11.0022 41.4568 9.33578 40.9738 7.77496Z" fill="url(#paint52_linear_367_15049)"/>
<path d="M42.6171 16.3804C39.5334 15.7289 37.2062 17.8499 37.0898 18.1243C37.6871 18.8574 38.4096 19.4761 39.2231 19.9514C40.4075 20.6258 41.7198 21.0392 43.0736 21.1641C44.4274 21.2891 45.7921 21.1229 47.0777 20.6763C46.9953 20.5245 45.9529 17.12 42.6171 16.3804Z" fill="url(#paint53_linear_367_15049)"/>
<path d="M47.5935 4.94769C43.9065 6.44851 41.3309 9.14498 41.3836 11.9515C41.4105 12.9711 41.7134 13.967 42.2632 14.8431C42.7161 14.4829 46.0292 13.1922 47.3039 9.64525C47.8507 8.13401 47.9509 6.50926 47.5935 4.94769Z" fill="url(#paint54_linear_367_15049)"/>
<path d="M48.2073 13.6814C45.3493 12.7797 42.9389 14.5687 42.8008 14.8264C43.3049 15.5671 43.9354 16.213 44.6632 16.7348C45.7322 17.4743 46.9447 17.9799 48.2218 18.2191C49.4987 18.4584 50.8117 18.4256 52.0752 18.1231C52.0181 17.9847 51.3179 14.688 48.2073 13.6814Z" fill="url(#paint55_linear_367_15049)"/>
<path d="M54.1511 2.82727C50.6422 3.9038 48.0104 6.08948 47.8149 8.63868C47.7456 9.55725 47.9321 10.4769 48.3563 11.309C48.8074 11.0294 51.9705 10.116 53.4693 7.04486C54.1174 5.72622 54.3536 4.26475 54.1511 2.82727Z" fill="url(#paint56_linear_367_15049)"/>
<path d="M54.2129 11.067C52.9822 10.5469 51.6179 10.4606 50.3342 10.8218C49.67 10.9865 49.0485 11.2962 48.5117 11.7298C48.9588 12.5692 49.5485 13.3203 50.2526 13.9476C51.2894 14.8334 52.4946 15.4879 53.7916 15.8698C55.0888 16.2517 56.4491 16.3523 57.7862 16.1654C57.7354 15.9985 57.3383 12.4499 54.2129 11.067Z" fill="url(#paint57_linear_367_15049)"/>
<path d="M61.349 1.41364C58.0162 2.1586 55.4214 4.00214 55.0072 6.53408C54.8555 7.42483 54.9392 8.33933 55.25 9.18859C55.9648 8.94257 56.6601 8.64472 57.3306 8.29746C58.5858 7.66009 59.6289 6.67789 60.3349 5.4685C61.0516 4.23835 61.403 2.83285 61.349 1.41364Z" fill="url(#paint58_linear_367_15049)"/>
<path d="M60.4952 9.12985C59.351 8.54848 58.0409 8.35066 56.7689 8.56714C56.1155 8.6727 55.4911 8.90613 54.9336 9.25325C55.2895 10.0588 55.7886 10.7972 56.408 11.435C57.3358 12.332 58.4436 13.0342 59.6627 13.4978C60.8819 13.9614 62.1862 14.1767 63.4947 14.13C63.459 13.9523 63.3828 10.6748 60.4952 9.12985Z" fill="url(#paint59_linear_367_15049)"/>
<path d="M68.4857 0C66.8813 0.147987 65.3326 0.6408 63.956 1.44149C63.3735 1.79477 62.8523 2.23246 62.4108 2.73885C62.0116 3.25013 61.7132 3.82651 61.5301 4.43981C61.292 5.30117 61.292 6.20677 61.5301 7.06814C62.2894 6.90578 63.0297 6.67075 63.7396 6.36661C65.0793 5.86272 66.238 5.00008 67.0765 3.88243C67.922 2.74186 68.4107 1.39546 68.4857 0Z" fill="url(#paint60_linear_367_15049)"/>
<path d="M66.7362 7.95006C65.9607 7.44838 65.0498 7.14834 64.1011 7.08209C63.1525 7.01585 62.202 7.1859 61.3516 7.57401C61.6179 8.33658 62.0305 9.05016 62.5702 9.68174C63.3924 10.5698 64.4037 11.297 65.543 11.8197C66.6822 12.3423 67.9259 12.6494 69.1992 12.7226C69.1736 12.5787 69.403 9.60745 66.7362 7.95006Z" fill="url(#paint61_linear_367_15049)"/>
<path d="M75.6249 0C72.0789 0.0542438 69.0593 1.3561 68.129 3.76255C67.7963 4.59201 67.6975 5.48653 67.8418 6.36132C68.6362 6.28366 69.4156 6.10786 70.1598 5.83861C71.571 5.46904 72.8361 4.72725 73.8014 3.70338C74.7789 2.6563 75.4118 1.37093 75.6249 0Z" fill="url(#paint62_linear_367_15049)"/>
<path d="M73.1391 7.42763C72.2915 6.75058 71.2278 6.37414 70.126 6.36133C69.5674 6.38458 69.0154 6.48747 68.4883 6.66662C68.6494 7.38952 68.9439 8.0788 69.3578 8.70189C69.7693 9.3136 70.2875 9.85244 70.8896 10.2947C72.0368 11.1932 73.4087 11.7866 74.8688 12.0158C74.8688 11.8831 75.3288 9.17531 73.1391 7.42763Z" fill="url(#paint63_linear_367_15049)"/>
<path d="M82.0429 0.052041C80.5195 -0.101318 78.9802 0.0853502 77.5427 0.597769C76.3319 1.11574 75.337 2.01558 74.7198 3.15117C74.3309 3.92942 74.1533 4.79105 74.2037 5.65451C76.3404 5.61583 78.3952 4.85032 80.0096 3.49163C81.0144 2.55885 81.7205 1.36453 82.0429 0.052041Z" fill="url(#paint64_linear_367_15049)"/>
<path d="M79.086 6.99989C77.092 5.01483 74.4197 5.80885 74.1953 5.82338C74.2964 6.60269 74.5433 7.35857 74.9246 8.05536C75.7456 9.59016 77.0053 10.3551 78.1119 11.0475C78.851 11.4738 79.6492 11.7997 80.4834 12.0158C80.4936 11.8754 81.2381 9.06243 79.086 6.99989Z" fill="url(#paint65_linear_367_15049)"/>
<path d="M87.7474 0.899563C84.9363 0.218156 82.3054 1.4192 81.2189 3.30655C80.8315 4.01101 80.6229 4.80988 80.6133 5.62529C82.4694 5.79715 84.3168 5.20566 85.7732 3.97324C86.7021 3.17694 87.3889 2.10776 87.7474 0.899563Z" fill="url(#paint66_linear_367_15049)"/>
<path d="M84.5873 7.12322C83.0581 5.29804 80.806 5.68983 80.6133 5.68983C80.6413 6.44154 80.7896 7.18211 81.0514 7.87812C81.5501 9.14896 82.4022 10.2169 83.4876 10.9312C84.0892 11.3534 84.7241 11.7164 85.3848 12.0158C85.4111 11.8868 86.2173 9.28283 84.5873 7.12322Z" fill="url(#paint67_linear_367_15049)"/>
<path d="M147.947 71.3882C147.834 71.3872 147.726 71.3431 147.644 71.265C147.562 71.187 147.514 71.0808 147.507 70.968L147.377 68.6548L146.335 61.8261L144.616 55.1326L142.24 48.6419L139.885 43.7402C139.672 43.2958 139.46 42.8515 139.233 42.4169L138.04 40.4851C137.76 40.0312 137.485 39.5724 137.205 39.1088C136.689 38.2492 136.172 37.3896 135.622 36.554C128.293 26.0647 118.744 17.8692 107.978 12.8564C107.925 12.8325 107.878 12.7983 107.839 12.7558C107.799 12.7133 107.769 12.6634 107.749 12.609C107.729 12.5545 107.72 12.4967 107.723 12.4388C107.726 12.3809 107.741 12.3243 107.766 12.272C107.815 12.1664 107.904 12.0843 108.013 12.0437C108.123 12.003 108.243 12.007 108.35 12.0547C119.241 17.1353 128.926 25.432 136.351 36.0517C136.916 36.9113 137.442 37.7807 137.963 38.65C138.238 39.1329 138.514 39.5675 138.794 40.0167L139.986 42.0015C140.232 42.4844 140.469 42.9239 140.662 43.378L143.037 48.299L145.452 54.8718L147.193 61.6329L148.251 68.5485L148.386 70.9053C148.391 70.9646 148.383 71.0243 148.365 71.0808C148.347 71.1375 148.317 71.1897 148.277 71.2346C148.238 71.2796 148.191 71.3163 148.138 71.3426C148.084 71.3691 148.026 71.3845 147.966 71.3882H147.947Z" fill="url(#paint68_linear_367_15049)"/>
<path d="M131.264 20.4678C130.068 19.3442 128.611 18.487 127.005 17.9608C125.627 17.5267 124.125 17.5807 122.788 18.1126C121.899 18.487 121.132 19.0702 120.562 19.8042C121.195 20.2864 121.897 20.6849 122.647 20.9882C123.986 21.65 125.493 21.9661 127.009 21.9034C128.546 21.8077 130.021 21.3098 131.264 20.4678Z" fill="url(#paint69_linear_367_15049)"/>
<path d="M124.113 24.6186C124.01 23.2349 123.37 21.9379 122.317 20.9815C121.776 20.4996 121.162 20.0981 120.495 19.7908C119.937 20.6165 119.54 21.5311 119.321 22.4911C118.496 26.4769 120.746 29.8948 121.185 30.393C121.331 30.2385 124.421 28.1659 124.113 24.6186Z" fill="url(#paint70_linear_367_15049)"/>
<path d="M136.26 25.8434C135.173 24.6625 133.8 23.7136 132.244 23.0669C130.902 22.545 129.391 22.4757 127.995 22.8722C127.053 23.1518 126.212 23.6489 125.559 24.3124C126.144 24.8328 126.808 25.2782 127.532 25.6357C128.818 26.3666 130.296 26.787 131.821 26.8554C133.378 26.8988 134.918 26.5478 136.26 25.8434Z" fill="url(#paint71_linear_367_15049)"/>
<path d="M128.412 29.5212C128.486 26.3836 125.919 24.8581 125.705 24.7385C125.163 25.4552 124.746 26.2646 124.475 27.1298C123.426 30.7551 125.093 34.1269 125.404 34.6339C125.543 34.5287 128.375 32.8452 128.412 29.5212Z" fill="url(#paint72_linear_367_15049)"/>
<path d="M140.539 31.7346C139.631 30.3293 138.427 29.1549 137.016 28.2995C135.786 27.6095 134.358 27.3971 132.99 27.7006C132.074 27.9265 131.232 28.3996 130.551 29.0716C131.053 29.7013 131.639 30.2546 132.291 30.715C133.442 31.6361 134.804 32.2345 136.244 32.4523C137.713 32.6406 139.203 32.3915 140.539 31.7346Z" fill="url(#paint73_linear_367_15049)"/>
<path d="M132.654 34.0411C133.013 30.8979 130.611 29.138 130.422 28.9794C129.827 29.6446 129.348 30.4149 129.007 31.2549C127.643 34.7897 129.007 38.3244 129.271 38.8748C129.394 38.7806 132.319 37.3726 132.654 34.0411Z" fill="url(#paint74_linear_367_15049)"/>
<path d="M144.107 37.7061C143.37 36.3108 142.331 35.104 141.065 34.1775C139.95 33.4302 138.611 33.1043 137.282 33.257C136.388 33.3859 135.543 33.7513 134.832 34.3165C135.258 34.9492 135.767 35.5203 136.345 36.0137C137.258 36.752 138.337 37.6534 139.968 37.9938C141.346 38.3004 142.782 38.2006 144.107 37.7061Z" fill="url(#paint75_linear_367_15049)"/>
<path d="M136.154 39.5871C136.773 36.6672 134.602 34.8025 134.442 34.6339C133.81 35.2001 133.282 35.8771 132.88 36.6334C131.267 39.8233 132.285 43.2683 132.486 43.8224C132.637 43.7454 135.559 42.6901 136.154 39.5871Z" fill="url(#paint76_linear_367_15049)"/>
<path d="M147.676 44.2573C147.054 42.7094 146.099 41.3303 144.88 40.2262C143.788 39.3307 142.43 38.8534 141.037 38.8755C140.101 38.9216 139.192 39.2206 138.402 39.7427C139.506 41.7705 141.263 43.3314 143.366 44.1521C144.764 44.6164 146.26 44.6528 147.676 44.2573Z" fill="url(#paint77_linear_367_15049)"/>
<path d="M139.613 45.1076C140.457 42.4088 138.544 40.4717 138.42 40.2884C137.776 40.7649 137.218 41.3538 136.773 42.028C134.965 44.8866 135.654 48.2248 135.782 48.7702C135.915 48.7184 138.76 47.9897 139.613 45.1076Z" fill="url(#paint78_linear_367_15049)"/>
<path d="M149.82 50.7772C149.4 49.3 148.669 47.9463 147.685 46.8206C146.778 45.9093 145.61 45.3529 144.373 45.2409C143.54 45.2023 142.713 45.3958 141.973 45.8025C142.78 47.7731 144.209 49.3722 146.009 50.3158C147.21 50.8647 148.535 51.025 149.82 50.7772Z" fill="url(#paint79_linear_367_15049)"/>
<path d="M142.285 50.6115C142.535 50.0544 142.671 49.4608 142.682 48.8602C142.654 48.3687 142.544 47.8838 142.351 47.4222C142.142 46.8923 141.845 46.3935 141.471 45.9429C140.721 46.3303 140.056 46.8346 139.506 47.4316C138.295 48.7311 138.006 50.1138 137.784 51.3213C137.655 52.1159 137.655 52.9231 137.784 53.7178C137.913 53.6856 141.068 53.2523 142.285 50.6115Z" fill="url(#paint80_linear_367_15049)"/>
<path d="M151.248 56.5213C150.894 55.0178 150.397 53.63 149.486 52.6952C148.701 51.7708 147.635 51.1507 146.464 50.9362C145.67 50.8213 144.858 50.9242 144.113 51.2351C144.315 51.9016 144.607 52.5357 144.977 53.1191C145.291 53.6196 145.661 54.0777 146.084 54.483C146.543 54.9819 147.071 55.4072 147.65 55.7455C148.751 56.361 150.001 56.6306 151.248 56.5213Z" fill="url(#paint81_linear_367_15049)"/>
<path d="M144.334 56.5052C145.573 54.0563 144.072 51.7965 143.987 51.5974C143.248 51.9367 142.577 52.4071 142.005 52.9862C140.974 54.0499 140.304 55.4142 140.092 56.8835C139.89 57.6969 139.803 58.5348 139.834 59.3724C139.993 59.3574 142.947 59.1633 144.334 56.5052Z" fill="url(#paint82_linear_367_15049)"/>
<path d="M152.675 62.9061C152.608 62.2144 152.453 61.5346 152.212 60.8833C151.955 60.2916 151.626 59.7344 151.233 59.224C150.563 58.3086 149.604 57.6509 148.514 57.3597C147.766 57.1904 146.986 57.2209 146.254 57.4482C146.442 58.3645 146.812 59.2331 147.341 60.002C147.87 60.7708 148.547 61.4241 149.333 61.9226C150.325 62.5757 151.489 62.918 152.675 62.9061Z" fill="url(#paint83_linear_367_15049)"/>
<path d="M145.671 61.9297C146.891 59.7354 145.811 57.4429 145.715 57.2519C144.998 57.5202 144.334 57.913 143.75 58.4128C141.225 60.5924 141.389 63.7616 141.254 64.32C141.37 64.2956 144.21 64.325 145.671 61.9297Z" fill="url(#paint84_linear_367_15049)"/>
<path d="M75.0739 19.2245C75.5719 18.0947 77.1068 18.0947 77.6048 19.2245L80.7311 26.3147C80.9341 26.7752 81.3512 27.0921 81.8324 27.1518L89.2444 28.0712C90.4253 28.2177 90.8996 29.7448 90.0265 30.5895L84.5468 35.8908C84.1909 36.2351 84.0316 36.7481 84.1261 37.2454L85.5807 44.9039C85.8124 46.1241 84.5706 47.0678 83.5329 46.4603L77.02 42.6464C76.5972 42.3988 76.0815 42.3988 75.6587 42.6464L69.1458 46.4603C68.1081 47.0678 66.8664 46.1241 67.0981 44.9039L68.5527 37.2454C68.6471 36.7481 68.4878 36.2351 68.132 35.8908L62.6522 30.5895C61.7792 29.7448 62.2534 28.2177 63.4344 28.0712L70.8463 27.1518C71.3275 27.0921 71.7447 26.7752 71.9477 26.3147L75.0739 19.2245Z" fill="url(#paint85_linear_367_15049)"/>
<path d="M21.6632 89.0585V80.8877H18.5391V79.0924H26.9926V80.8877H23.8684V89.0585H21.6632ZM37.3696 89.0585H34.9664L33.2418 85.8778C33.1004 85.6329 32.9308 85.4584 32.7329 85.3548C32.535 85.2417 32.2853 85.1852 31.9836 85.1852H30.8952V89.0585H28.7182V79.0924H33.2983C34.467 79.0924 35.3481 79.3516 35.9418 79.8699C36.545 80.3788 36.8465 81.1186 36.8465 82.0893C36.8465 82.8432 36.6345 83.4747 36.2104 83.9836C35.7958 84.4925 35.2067 84.8271 34.4434 84.9873C34.9617 85.1192 35.4 85.4915 35.758 86.104L37.3696 89.0585ZM32.9732 83.5171C33.6047 83.5171 34.0617 83.4087 34.3444 83.192C34.6271 82.9658 34.7685 82.617 34.7685 82.1459C34.7685 81.6652 34.6271 81.3165 34.3444 81.0998C34.0617 80.8831 33.6047 80.7747 32.9732 80.7747H30.8669V83.5171H32.9732ZM46.6629 89.0585L45.7158 86.8532H41.0791L40.1319 89.0585H37.9125L42.4927 79.0924H44.2597L48.8399 89.0585H46.6629ZM41.8 85.1852H44.9948L43.3974 81.4532L41.8 85.1852ZM56.8266 79.0924H58.8905V89.0585H57.2507L52.2888 82.7113V89.0585H50.2391V79.0924H51.8648L56.8266 85.4113V79.0924ZM64.926 89.1857C64.1721 89.1857 63.4463 89.0868 62.749 88.8889C62.0516 88.6815 61.4721 88.3988 61.0102 88.0407L61.717 86.4716C62.6783 87.1406 63.7573 87.4752 64.9542 87.4752C65.5762 87.4752 66.0522 87.3763 66.382 87.1784C66.7213 86.971 66.8909 86.6883 66.8909 86.3302C66.8909 86.0097 66.7354 85.7601 66.4244 85.581C66.1229 85.4019 65.5809 85.2276 64.7987 85.0579C63.9223 84.8788 63.2201 84.6621 62.6924 84.4077C62.1741 84.1532 61.7924 83.8422 61.5474 83.4747C61.3117 83.0977 61.194 82.636 61.194 82.0893C61.194 81.4861 61.359 80.949 61.6888 80.4778C62.028 80.0066 62.4992 79.6391 63.1024 79.3752C63.7056 79.1019 64.4029 78.9652 65.1946 78.9652C65.9014 78.9652 66.5799 79.0688 67.2302 79.2762C67.8899 79.4836 68.413 79.7615 68.7993 80.1102L68.0925 81.6794C67.1783 81.0103 66.217 80.6757 65.2087 80.6757C64.6338 80.6757 64.1814 80.7888 63.8516 81.015C63.5218 81.2317 63.3568 81.5333 63.3568 81.9197C63.3568 82.1459 63.4181 82.3343 63.5406 82.4851C63.6725 82.6265 63.8845 82.7537 64.1767 82.8668C64.4783 82.9799 64.9024 83.0977 65.449 83.2202C66.7307 83.503 67.6496 83.8658 68.2056 84.3087C68.771 84.7516 69.0538 85.3643 69.0538 86.1464C69.0538 87.0889 68.6909 87.8333 67.9653 88.38C67.2397 88.9171 66.2265 89.1857 64.926 89.1857ZM71.2077 79.0924H75.7879C76.8715 79.0924 77.7151 79.3657 78.3182 79.9123C78.9213 80.459 79.223 81.2223 79.223 82.2024C79.223 83.1825 78.9213 83.9458 78.3182 84.4925C77.7151 85.0391 76.8715 85.3124 75.7879 85.3124H73.413V89.0585H71.2077V79.0924ZM75.5051 83.6443C76.6078 83.6443 77.1591 83.1683 77.1591 82.2166C77.1591 81.7264 77.0224 81.3637 76.7491 81.1281C76.4757 80.8924 76.0611 80.7747 75.5051 80.7747H73.413V83.6443H75.5051ZM87.758 89.0585L86.8109 86.8532H82.1742L81.2271 89.0585H79.0077L83.5878 79.0924H85.3549L89.935 89.0585H87.758ZM82.8951 85.1852H86.09L84.4925 81.4532L82.8951 85.1852ZM99.9856 89.0585H97.5825L95.8578 85.8778C95.7165 85.6329 95.5468 85.4584 95.3489 85.3548C95.151 85.2417 94.9012 85.1852 94.5997 85.1852H93.5112V89.0585H91.3342V79.0924H95.9144C97.0829 79.0924 97.9641 79.3516 98.5579 79.8699C99.1609 80.3788 99.4626 81.1186 99.4626 82.0893C99.4626 82.8432 99.2505 83.4747 98.8264 83.9836C98.4117 84.4925 97.8228 84.8271 97.0594 84.9873C97.5777 85.1192 98.0159 85.4915 98.3741 86.104L99.9856 89.0585ZM95.5892 83.5171C96.2206 83.5171 96.6777 83.4087 96.9605 83.192C97.2432 82.9658 97.3846 82.617 97.3846 82.1459C97.3846 81.6652 97.2432 81.3165 96.9605 81.0998C96.6777 80.8831 96.2206 80.7747 95.5892 80.7747H93.4829V83.5171H95.5892ZM101.812 89.0585V79.0924H108.682V80.8029H103.96V83.1354H108.399V84.8459H103.96V87.348H108.682V89.0585H101.812ZM117.344 79.0924H119.408V89.0585H117.768L112.806 82.7113V89.0585H110.757V79.0924H112.382L117.344 85.4113V79.0924ZM126.631 89.1857C125.623 89.1857 124.741 88.9737 123.988 88.5496C123.243 88.1255 122.668 87.5271 122.263 86.7543C121.867 85.9815 121.669 85.0862 121.669 84.0684C121.669 83.0506 121.867 82.1553 122.263 81.3825C122.668 80.6097 123.243 80.016 123.988 79.6013C124.741 79.1773 125.623 78.9652 126.631 78.9652C127.291 78.9652 127.922 79.0688 128.525 79.2762C129.128 79.4741 129.623 79.7522 130.01 80.1102L129.303 81.6794C128.869 81.3496 128.436 81.1093 128.002 80.9584C127.578 80.8076 127.135 80.7322 126.673 80.7322C125.788 80.7322 125.104 81.015 124.624 81.5804C124.152 82.1459 123.917 82.9752 123.917 84.0684C123.917 85.1616 124.152 85.9956 124.624 86.5705C125.104 87.136 125.788 87.4187 126.673 87.4187C127.135 87.4187 127.578 87.3434 128.002 87.1925C128.436 87.0417 128.869 86.8014 129.303 86.4716L130.01 88.0407C129.623 88.3988 129.128 88.6815 128.525 88.8889C127.922 89.0868 127.291 89.1857 126.631 89.1857ZM140.696 79.0924L136.568 84.549V89.0585H134.363V84.549L130.249 79.0924H132.752L135.452 82.782L138.194 79.0924H140.696Z" fill="url(#paint86_linear_367_15049)"/>
<path d="M102.516 111.98C102.901 111.437 103.755 111.665 103.817 112.329L104.124 115.632C104.143 115.84 104.253 116.03 104.423 116.151L107.13 118.068C107.674 118.453 107.445 119.307 106.782 119.368L103.479 119.675C103.27 119.695 103.081 119.804 102.96 119.975L101.043 122.682C100.658 123.226 99.8038 122.997 99.7422 122.333L99.4355 119.031C99.4161 118.822 99.3065 118.632 99.1356 118.511L96.4288 116.594C95.885 116.209 96.1139 115.355 96.7774 115.294L100.08 114.987C100.289 114.968 100.478 114.858 100.599 114.687L102.516 111.98Z" fill="url(#paint87_linear_367_15049)"/>
<path d="M48.9702 112.176C49.0173 111.668 49.6708 111.493 49.9656 111.909L52.0505 114.853C52.1432 114.984 52.2884 115.068 52.4482 115.083L56.0402 115.416C56.5481 115.463 56.7231 116.117 56.3069 116.412L53.3629 118.497C53.232 118.589 53.1482 118.735 53.1333 118.894L52.7997 122.486C52.7527 122.994 52.0991 123.169 51.8044 122.753L49.7194 119.809C49.6267 119.678 49.4815 119.594 49.3218 119.579L45.7298 119.246C45.2218 119.199 45.0468 118.545 45.463 118.251L48.407 116.166C48.5379 116.073 48.6218 115.928 48.6366 115.768L48.9702 112.176Z" fill="url(#paint88_linear_367_15049)"/>
<path d="M57.4762 70.7959C56.7892 70.7959 56.1446 70.7026 55.5423 70.516C54.9401 70.3294 54.4312 70.0665 54.0156 69.7272L54.5627 68.5313C54.9953 68.862 55.449 69.1038 55.924 69.2564C56.4075 69.4091 56.9291 69.4855 57.4889 69.4855C58.1081 69.4855 58.5831 69.3794 58.9138 69.1674C59.2531 68.9469 59.4228 68.6415 59.4228 68.2514C59.4228 67.9121 59.2658 67.6534 58.952 67.4753C58.6467 67.2972 58.1335 67.1275 57.4126 66.9664C56.6662 66.8052 56.0597 66.6186 55.5932 66.4066C55.1267 66.1945 54.7747 65.9231 54.5373 65.5923C54.2998 65.2615 54.181 64.8417 54.181 64.3328C54.181 63.8069 54.3252 63.3362 54.6136 62.9206C54.902 62.505 55.3091 62.1827 55.835 61.9536C56.3608 61.7162 56.9673 61.5974 57.6543 61.5974C58.282 61.5974 58.8799 61.6949 59.4482 61.89C60.0165 62.0766 60.483 62.3353 60.8477 62.6661L60.3006 63.862C59.5033 63.2259 58.6212 62.9078 57.6543 62.9078C57.0775 62.9078 56.6195 63.0266 56.2803 63.2641C55.9495 63.4931 55.7841 63.8154 55.7841 64.231C55.7841 64.5788 55.9325 64.8459 56.2294 65.0325C56.5262 65.2191 57.0309 65.393 57.7434 65.5542C58.4982 65.7238 59.1089 65.9146 59.5754 66.1267C60.0504 66.3302 60.4109 66.5932 60.6568 66.9155C60.9113 67.2378 61.0385 67.6449 61.0385 68.1369C61.0385 68.6712 60.8943 69.1419 60.606 69.5491C60.3261 69.9477 59.9147 70.2573 59.3719 70.4778C58.8375 70.6899 58.2056 70.7959 57.4762 70.7959ZM63.114 70.6814V61.7119H64.7552V70.6814H63.114ZM67.2578 70.6814V61.7119H68.899V69.3328H73.0848V70.6814H67.2578ZM80.1906 61.7119H81.8573L77.8624 70.6814H76.5265L72.5316 61.7119H74.2237L77.2008 68.6458L80.1906 61.7119ZM83.2607 70.6814V61.7119H89.2658V63.0096H84.8638V65.4778H89.0114V66.7628H84.8638V69.3837H89.2658V70.6814H83.2607ZM98.8372 70.6814H97.0561L95.5166 67.8188C95.3724 67.5474 95.1943 67.3565 94.9823 67.2463C94.7702 67.136 94.503 67.0809 94.1807 67.0809H92.9339V70.6814H91.3181V61.7119H95.2876C96.3054 61.7119 97.0773 61.9409 97.6031 62.3989C98.1375 62.8485 98.4047 63.5016 98.4047 64.3582C98.4047 65.0452 98.2096 65.6135 97.8194 66.0631C97.4377 66.5041 96.8949 66.7925 96.1909 66.9282C96.6659 67.0554 97.0476 67.3905 97.336 67.9333L98.8372 70.6814ZM95.0586 65.8213C95.6778 65.8213 96.1315 65.7068 96.4199 65.4778C96.7083 65.2403 96.8525 64.8799 96.8525 64.3964C96.8525 63.9045 96.7083 63.5482 96.4199 63.3277C96.1315 63.0987 95.6778 62.9842 95.0586 62.9842H92.9212V65.8213H95.0586Z" fill="url(#paint89_linear_367_15049)"/>
<path d="M66.3129 104.608C65.6008 104.608 65.0234 105.186 65.0234 105.898V125.937C65.0234 126.649 65.6008 127.226 66.3129 127.226H86.3518C87.064 127.226 87.6413 126.649 87.6413 125.937V117.465C87.6413 117.057 87.1444 116.858 86.8624 117.152L82.3955 121.813C80.4868 123.805 78.4946 124.795 76.4187 124.784C74.3592 124.79 72.4033 123.866 70.551 122.014C68.5841 120.047 67.5477 117.913 67.4422 115.611C67.3592 113.486 68.1887 111.437 69.9308 109.464C70.1515 109.214 70.5306 109.211 70.7662 109.446L74.6883 113.369C74.9218 113.602 74.9242 113.982 74.7202 114.243C73.7724 115.454 73.7365 116.497 74.6126 117.374C75.4979 118.259 76.4857 118.132 77.5763 116.994L87.5155 106.622C87.5962 106.538 87.6413 106.426 87.6413 106.309V105.898C87.6413 105.186 87.064 104.608 86.3518 104.608H66.3129Z" fill="url(#paint90_linear_367_15049)"/>
</g>
</g>
</g>
</g>
<defs>
<linearGradient id="paint0_linear_367_15049" x1="125.918" y1="84.8176" x2="125.918" y2="142.07" gradientUnits="userSpaceOnUse">
<stop stop-color="#B0B0B0"/>
<stop offset="1" stop-color="#666666"/>
</linearGradient>
<linearGradient id="paint1_linear_367_15049" x1="146.61" y1="99.6607" x2="146.61" y2="110.263" gradientUnits="userSpaceOnUse">
<stop stop-color="#B0B0B0"/>
<stop offset="1" stop-color="#666666"/>
</linearGradient>
<linearGradient id="paint2_linear_367_15049" x1="139.826" y1="98.9539" x2="139.826" y2="104.608" gradientUnits="userSpaceOnUse">
<stop stop-color="#B0B0B0"/>
<stop offset="1" stop-color="#666666"/>
</linearGradient>
<linearGradient id="paint3_linear_367_15049" x1="143.394" y1="105.315" x2="143.394" y2="115.917" gradientUnits="userSpaceOnUse">
<stop stop-color="#B0B0B0"/>
<stop offset="1" stop-color="#666666"/>
</linearGradient>
<linearGradient id="paint4_linear_367_15049" x1="136.978" y1="105.315" x2="136.978" y2="110.263" gradientUnits="userSpaceOnUse">
<stop stop-color="#B0B0B0"/>
<stop offset="1" stop-color="#666666"/>
</linearGradient>
<linearGradient id="paint5_linear_367_15049" x1="139.828" y1="111.677" x2="139.828" y2="121.572" gradientUnits="userSpaceOnUse">
<stop stop-color="#B0B0B0"/>
<stop offset="1" stop-color="#666666"/>
</linearGradient>
<linearGradient id="paint6_linear_367_15049" x1="134.123" y1="110.97" x2="134.123" y2="115.211" gradientUnits="userSpaceOnUse">
<stop stop-color="#B0B0B0"/>
<stop offset="1" stop-color="#666666"/>
</linearGradient>
<linearGradient id="paint7_linear_367_15049" x1="135.55" y1="117.331" x2="135.55" y2="127.226" gradientUnits="userSpaceOnUse">
<stop stop-color="#B0B0B0"/>
<stop offset="1" stop-color="#666666"/>
</linearGradient>
<linearGradient id="paint8_linear_367_15049" x1="130.196" y1="115.917" x2="130.196" y2="120.158" gradientUnits="userSpaceOnUse">
<stop stop-color="#B0B0B0"/>
<stop offset="1" stop-color="#666666"/>
</linearGradient>
<linearGradient id="paint9_linear_367_15049" x1="130.55" y1="122.279" x2="130.55" y2="132.174" gradientUnits="userSpaceOnUse">
<stop stop-color="#B0B0B0"/>
<stop offset="1" stop-color="#666666"/>
</linearGradient>
<linearGradient id="paint10_linear_367_15049" x1="126.629" y1="120.865" x2="126.629" y2="125.106" gradientUnits="userSpaceOnUse">
<stop stop-color="#B0B0B0"/>
<stop offset="1" stop-color="#666666"/>
</linearGradient>
<linearGradient id="paint11_linear_367_15049" x1="125.558" y1="127.226" x2="125.558" y2="136.415" gradientUnits="userSpaceOnUse">
<stop stop-color="#B0B0B0"/>
<stop offset="1" stop-color="#666666"/>
</linearGradient>
<linearGradient id="paint12_linear_367_15049" x1="121.995" y1="125.813" x2="121.995" y2="129.347" gradientUnits="userSpaceOnUse">
<stop stop-color="#B0B0B0"/>
<stop offset="1" stop-color="#666666"/>
</linearGradient>
<linearGradient id="paint13_linear_367_15049" x1="120.562" y1="131.467" x2="120.562" y2="139.949" gradientUnits="userSpaceOnUse">
<stop stop-color="#B0B0B0"/>
<stop offset="1" stop-color="#666666"/>
</linearGradient>
<linearGradient id="paint14_linear_367_15049" x1="117.003" y1="129.347" x2="117.003" y2="132.881" gradientUnits="userSpaceOnUse">
<stop stop-color="#B0B0B0"/>
<stop offset="1" stop-color="#666666"/>
</linearGradient>
<linearGradient id="paint15_linear_367_15049" x1="115.57" y1="135.001" x2="115.57" y2="142.776" gradientUnits="userSpaceOnUse">
<stop stop-color="#B0B0B0"/>
<stop offset="1" stop-color="#666666"/>
</linearGradient>
<linearGradient id="paint16_linear_367_15049" x1="112.722" y1="132.174" x2="112.722" y2="136.415" gradientUnits="userSpaceOnUse">
<stop stop-color="#B0B0B0"/>
<stop offset="1" stop-color="#666666"/>
</linearGradient>
<linearGradient id="paint17_linear_367_15049" x1="56.7156" y1="120.865" x2="56.7156" y2="147.017" gradientUnits="userSpaceOnUse">
<stop stop-color="#B0B0B0"/>
<stop offset="1" stop-color="#666666"/>
</linearGradient>
<linearGradient id="paint18_linear_367_15049" x1="71.3416" y1="147.017" x2="71.3416" y2="152.672" gradientUnits="userSpaceOnUse">
<stop stop-color="#B0B0B0"/>
<stop offset="1" stop-color="#666666"/>
</linearGradient>
<linearGradient id="paint19_linear_367_15049" x1="72.7663" y1="138.535" x2="72.7663" y2="147.017" gradientUnits="userSpaceOnUse">
<stop stop-color="#B0B0B0"/>
<stop offset="1" stop-color="#666666"/>
</linearGradient>
<linearGradient id="paint20_linear_367_15049" x1="64.5668" y1="146.31" x2="64.5668" y2="151.258" gradientUnits="userSpaceOnUse">
<stop stop-color="#B0B0B0"/>
<stop offset="1" stop-color="#666666"/>
</linearGradient>
<linearGradient id="paint21_linear_367_15049" x1="65.9917" y1="137.829" x2="65.9917" y2="146.31" gradientUnits="userSpaceOnUse">
<stop stop-color="#B0B0B0"/>
<stop offset="1" stop-color="#666666"/>
</linearGradient>
<linearGradient id="paint22_linear_367_15049" x1="57.7869" y1="144.897" x2="57.7869" y2="149.845" gradientUnits="userSpaceOnUse">
<stop stop-color="#B0B0B0"/>
<stop offset="1" stop-color="#666666"/>
</linearGradient>
<linearGradient id="paint23_linear_367_15049" x1="59.9241" y1="136.415" x2="59.9241" y2="144.897" gradientUnits="userSpaceOnUse">
<stop stop-color="#B0B0B0"/>
<stop offset="1" stop-color="#666666"/>
</linearGradient>
<linearGradient id="paint24_linear_367_15049" x1="51.3689" y1="142.776" x2="51.3689" y2="147.017" gradientUnits="userSpaceOnUse">
<stop stop-color="#B0B0B0"/>
<stop offset="1" stop-color="#666666"/>
</linearGradient>
<linearGradient id="paint25_linear_367_15049" x1="53.8564" y1="135.001" x2="53.8564" y2="143.483" gradientUnits="userSpaceOnUse">
<stop stop-color="#B0B0B0"/>
<stop offset="1" stop-color="#666666"/>
</linearGradient>
<linearGradient id="paint26_linear_367_15049" x1="44.9431" y1="139.949" x2="44.9431" y2="144.19" gradientUnits="userSpaceOnUse">
<stop stop-color="#B0B0B0"/>
<stop offset="1" stop-color="#666666"/>
</linearGradient>
<linearGradient id="paint27_linear_367_15049" x1="47.8005" y1="132.174" x2="47.8005" y2="141.363" gradientUnits="userSpaceOnUse">
<stop stop-color="#B0B0B0"/>
<stop offset="1" stop-color="#666666"/>
</linearGradient>
<linearGradient id="paint28_linear_367_15049" x1="38.8834" y1="137.122" x2="38.8834" y2="140.656" gradientUnits="userSpaceOnUse">
<stop stop-color="#B0B0B0"/>
<stop offset="1" stop-color="#666666"/>
</linearGradient>
<linearGradient id="paint29_linear_367_15049" x1="42.0894" y1="129.347" x2="42.0894" y2="137.829" gradientUnits="userSpaceOnUse">
<stop stop-color="#B0B0B0"/>
<stop offset="1" stop-color="#666666"/>
</linearGradient>
<linearGradient id="paint30_linear_367_15049" x1="33.5306" y1="133.588" x2="33.5306" y2="137.122" gradientUnits="userSpaceOnUse">
<stop stop-color="#B0B0B0"/>
<stop offset="1" stop-color="#666666"/>
</linearGradient>
<linearGradient id="paint31_linear_367_15049" x1="37.0933" y1="126.52" x2="37.0933" y2="135.001" gradientUnits="userSpaceOnUse">
<stop stop-color="#B0B0B0"/>
<stop offset="1" stop-color="#666666"/>
</linearGradient>
<linearGradient id="paint32_linear_367_15049" x1="28.8912" y1="129.347" x2="28.8912" y2="133.588" gradientUnits="userSpaceOnUse">
<stop stop-color="#B0B0B0"/>
<stop offset="1" stop-color="#666666"/>
</linearGradient>
<linearGradient id="paint33_linear_367_15049" x1="32.4554" y1="122.986" x2="32.4554" y2="131.467" gradientUnits="userSpaceOnUse">
<stop stop-color="#B0B0B0"/>
<stop offset="1" stop-color="#666666"/>
</linearGradient>
<linearGradient id="paint34_linear_367_15049" x1="11.775" y1="38.1679" x2="11.775" y2="110.263" gradientUnits="userSpaceOnUse">
<stop stop-color="#B0B0B0"/>
<stop offset="1" stop-color="#666666"/>
</linearGradient>
<linearGradient id="paint35_linear_367_15049" x1="4.99535" y1="89.7654" x2="4.99535" y2="96.8335" gradientUnits="userSpaceOnUse">
<stop stop-color="#B0B0B0"/>
<stop offset="1" stop-color="#666666"/>
</linearGradient>
<linearGradient id="paint36_linear_367_15049" x1="11.769" y1="87.6449" x2="11.769" y2="96.8335" gradientUnits="userSpaceOnUse">
<stop stop-color="#B0B0B0"/>
<stop offset="1" stop-color="#666666"/>
</linearGradient>
<linearGradient id="paint37_linear_367_15049" x1="3.92381" y1="82.6972" x2="3.92381" y2="90.4722" gradientUnits="userSpaceOnUse">
<stop stop-color="#B0B0B0"/>
<stop offset="1" stop-color="#666666"/>
</linearGradient>
<linearGradient id="paint38_linear_367_15049" x1="10.6999" y1="81.9904" x2="10.6999" y2="89.7653" gradientUnits="userSpaceOnUse">
<stop stop-color="#B0B0B0"/>
<stop offset="1" stop-color="#666666"/>
</linearGradient>
<linearGradient id="paint39_linear_367_15049" x1="3.21039" y1="75.6291" x2="3.21039" y2="83.404" gradientUnits="userSpaceOnUse">
<stop stop-color="#B0B0B0"/>
<stop offset="1" stop-color="#666666"/>
</linearGradient>
<linearGradient id="paint40_linear_367_15049" x1="9.98507" y1="76.3359" x2="9.98507" y2="83.404" gradientUnits="userSpaceOnUse">
<stop stop-color="#B0B0B0"/>
<stop offset="1" stop-color="#666666"/>
</linearGradient>
<linearGradient id="paint41_linear_367_15049" x1="3.56852" y1="68.5609" x2="3.56852" y2="77.0427" gradientUnits="userSpaceOnUse">
<stop stop-color="#B0B0B0"/>
<stop offset="1" stop-color="#666666"/>
</linearGradient>
<linearGradient id="paint42_linear_367_15049" x1="9.98506" y1="69.9745" x2="9.98506" y2="76.3359" gradientUnits="userSpaceOnUse">
<stop stop-color="#B0B0B0"/>
<stop offset="1" stop-color="#666666"/>
</linearGradient>
<linearGradient id="paint43_linear_367_15049" x1="3.91884" y1="61.4928" x2="3.91884" y2="69.9746" gradientUnits="userSpaceOnUse">
<stop stop-color="#B0B0B0"/>
<stop offset="1" stop-color="#666666"/>
</linearGradient>
<linearGradient id="paint44_linear_367_15049" x1="10.3418" y1="64.32" x2="10.3418" y2="69.9745" gradientUnits="userSpaceOnUse">
<stop stop-color="#B0B0B0"/>
<stop offset="1" stop-color="#666666"/>
</linearGradient>
<linearGradient id="paint45_linear_367_15049" x1="5.70275" y1="54.4246" x2="5.70275" y2="63.6132" gradientUnits="userSpaceOnUse">
<stop stop-color="#B0B0B0"/>
<stop offset="1" stop-color="#666666"/>
</linearGradient>
<linearGradient id="paint46_linear_367_15049" x1="11.7754" y1="57.9587" x2="11.7754" y2="63.6133" gradientUnits="userSpaceOnUse">
<stop stop-color="#B0B0B0"/>
<stop offset="1" stop-color="#666666"/>
</linearGradient>
<linearGradient id="paint47_linear_367_15049" x1="7.13244" y1="48.7701" x2="7.13244" y2="57.2519" gradientUnits="userSpaceOnUse">
<stop stop-color="#B0B0B0"/>
<stop offset="1" stop-color="#666666"/>
</linearGradient>
<linearGradient id="paint48_linear_367_15049" x1="13.1972" y1="52.3042" x2="13.1972" y2="57.2519" gradientUnits="userSpaceOnUse">
<stop stop-color="#B0B0B0"/>
<stop offset="1" stop-color="#666666"/>
</linearGradient>
<linearGradient id="paint49_linear_367_15049" x1="9.63511" y1="43.1157" x2="9.63511" y2="51.5974" gradientUnits="userSpaceOnUse">
<stop stop-color="#B0B0B0"/>
<stop offset="1" stop-color="#666666"/>
</linearGradient>
<linearGradient id="paint50_linear_367_15049" x1="14.627" y1="47.3566" x2="14.627" y2="51.5974" gradientUnits="userSpaceOnUse">
<stop stop-color="#B0B0B0"/>
<stop offset="1" stop-color="#666666"/>
</linearGradient>
<linearGradient id="paint51_linear_367_15049" x1="60.2805" y1="4.94769" x2="60.2805" y2="28.2725" gradientUnits="userSpaceOnUse">
<stop stop-color="#B0B0B0"/>
<stop offset="1" stop-color="#666666"/>
</linearGradient>
<linearGradient id="paint52_linear_367_15049" x1="38.5255" y1="7.77496" x2="38.5255" y2="18.3772" gradientUnits="userSpaceOnUse">
<stop stop-color="#B0B0B0"/>
<stop offset="1" stop-color="#666666"/>
</linearGradient>
<linearGradient id="paint53_linear_367_15049" x1="42.0838" y1="16.2567" x2="42.0838" y2="21.2044" gradientUnits="userSpaceOnUse">
<stop stop-color="#B0B0B0"/>
<stop offset="1" stop-color="#666666"/>
</linearGradient>
<linearGradient id="paint54_linear_367_15049" x1="44.5931" y1="4.94769" x2="44.5931" y2="14.8431" gradientUnits="userSpaceOnUse">
<stop stop-color="#B0B0B0"/>
<stop offset="1" stop-color="#666666"/>
</linearGradient>
<linearGradient id="paint55_linear_367_15049" x1="47.438" y1="13.4294" x2="47.438" y2="18.3771" gradientUnits="userSpaceOnUse">
<stop stop-color="#B0B0B0"/>
<stop offset="1" stop-color="#666666"/>
</linearGradient>
<linearGradient id="paint56_linear_367_15049" x1="51.0111" y1="2.82727" x2="51.0111" y2="11.309" gradientUnits="userSpaceOnUse">
<stop stop-color="#B0B0B0"/>
<stop offset="1" stop-color="#666666"/>
</linearGradient>
<linearGradient id="paint57_linear_367_15049" x1="53.149" y1="10.6022" x2="53.149" y2="16.2567" gradientUnits="userSpaceOnUse">
<stop stop-color="#B0B0B0"/>
<stop offset="1" stop-color="#666666"/>
</linearGradient>
<linearGradient id="paint58_linear_367_15049" x1="58.144" y1="1.41364" x2="58.144" y2="9.18859" gradientUnits="userSpaceOnUse">
<stop stop-color="#B0B0B0"/>
<stop offset="1" stop-color="#666666"/>
</linearGradient>
<linearGradient id="paint59_linear_367_15049" x1="59.2142" y1="8.48175" x2="59.2142" y2="14.1363" gradientUnits="userSpaceOnUse">
<stop stop-color="#B0B0B0"/>
<stop offset="1" stop-color="#666666"/>
</linearGradient>
<linearGradient id="paint60_linear_367_15049" x1="64.9186" y1="0" x2="64.9186" y2="7.06814" gradientUnits="userSpaceOnUse">
<stop stop-color="#B0B0B0"/>
<stop offset="1" stop-color="#666666"/>
</linearGradient>
<linearGradient id="paint61_linear_367_15049" x1="65.2754" y1="7.06811" x2="65.2754" y2="12.7226" gradientUnits="userSpaceOnUse">
<stop stop-color="#B0B0B0"/>
<stop offset="1" stop-color="#666666"/>
</linearGradient>
<linearGradient id="paint62_linear_367_15049" x1="71.7011" y1="0" x2="71.7011" y2="6.36132" gradientUnits="userSpaceOnUse">
<stop stop-color="#B0B0B0"/>
<stop offset="1" stop-color="#666666"/>
</linearGradient>
<linearGradient id="paint63_linear_367_15049" x1="71.6986" y1="6.36133" x2="71.6986" y2="12.0158" gradientUnits="userSpaceOnUse">
<stop stop-color="#B0B0B0"/>
<stop offset="1" stop-color="#666666"/>
</linearGradient>
<linearGradient id="paint64_linear_367_15049" x1="78.1191" y1="6.47118e-09" x2="78.1191" y2="5.65451" gradientUnits="userSpaceOnUse">
<stop stop-color="#B0B0B0"/>
<stop offset="1" stop-color="#666666"/>
</linearGradient>
<linearGradient id="paint65_linear_367_15049" x1="77.4057" y1="5.65448" x2="77.4057" y2="12.0158" gradientUnits="userSpaceOnUse">
<stop stop-color="#B0B0B0"/>
<stop offset="1" stop-color="#666666"/>
</linearGradient>
<linearGradient id="paint66_linear_367_15049" x1="84.1803" y1="0.706787" x2="84.1803" y2="5.65448" gradientUnits="userSpaceOnUse">
<stop stop-color="#B0B0B0"/>
<stop offset="1" stop-color="#666666"/>
</linearGradient>
<linearGradient id="paint67_linear_367_15049" x1="83.1102" y1="5.65449" x2="83.1102" y2="12.0158" gradientUnits="userSpaceOnUse">
<stop stop-color="#B0B0B0"/>
<stop offset="1" stop-color="#666666"/>
</linearGradient>
<linearGradient id="paint68_linear_367_15049" x1="128.055" y1="12.0158" x2="128.055" y2="71.3882" gradientUnits="userSpaceOnUse">
<stop stop-color="#B0B0B0"/>
<stop offset="1" stop-color="#666666"/>
</linearGradient>
<linearGradient id="paint69_linear_367_15049" x1="125.913" y1="17.6703" x2="125.913" y2="21.9112" gradientUnits="userSpaceOnUse">
<stop stop-color="#B0B0B0"/>
<stop offset="1" stop-color="#666666"/>
</linearGradient>
<linearGradient id="paint70_linear_367_15049" x1="121.638" y1="19.7908" x2="121.638" y2="30.393" gradientUnits="userSpaceOnUse">
<stop stop-color="#B0B0B0"/>
<stop offset="1" stop-color="#666666"/>
</linearGradient>
<linearGradient id="paint71_linear_367_15049" x1="130.909" y1="22.6181" x2="130.909" y2="26.8589" gradientUnits="userSpaceOnUse">
<stop stop-color="#B0B0B0"/>
<stop offset="1" stop-color="#666666"/>
</linearGradient>
<linearGradient id="paint72_linear_367_15049" x1="126.273" y1="24.7385" x2="126.273" y2="34.6339" gradientUnits="userSpaceOnUse">
<stop stop-color="#B0B0B0"/>
<stop offset="1" stop-color="#666666"/>
</linearGradient>
<linearGradient id="paint73_linear_367_15049" x1="135.545" y1="27.5657" x2="135.545" y2="32.5134" gradientUnits="userSpaceOnUse">
<stop stop-color="#B0B0B0"/>
<stop offset="1" stop-color="#666666"/>
</linearGradient>
<linearGradient id="paint74_linear_367_15049" x1="130.55" y1="28.9794" x2="130.55" y2="38.8748" gradientUnits="userSpaceOnUse">
<stop stop-color="#B0B0B0"/>
<stop offset="1" stop-color="#666666"/>
</linearGradient>
<linearGradient id="paint75_linear_367_15049" x1="139.469" y1="33.2202" x2="139.469" y2="38.1679" gradientUnits="userSpaceOnUse">
<stop stop-color="#B0B0B0"/>
<stop offset="1" stop-color="#666666"/>
</linearGradient>
<linearGradient id="paint76_linear_367_15049" x1="134.125" y1="34.6339" x2="134.125" y2="43.8224" gradientUnits="userSpaceOnUse">
<stop stop-color="#B0B0B0"/>
<stop offset="1" stop-color="#666666"/>
</linearGradient>
<linearGradient id="paint77_linear_367_15049" x1="143.04" y1="38.8748" x2="143.04" y2="44.5293" gradientUnits="userSpaceOnUse">
<stop stop-color="#B0B0B0"/>
<stop offset="1" stop-color="#666666"/>
</linearGradient>
<linearGradient id="paint78_linear_367_15049" x1="137.687" y1="40.2884" x2="137.687" y2="48.7702" gradientUnits="userSpaceOnUse">
<stop stop-color="#B0B0B0"/>
<stop offset="1" stop-color="#666666"/>
</linearGradient>
<linearGradient id="paint79_linear_367_15049" x1="145.897" y1="45.2361" x2="145.897" y2="50.8906" gradientUnits="userSpaceOnUse">
<stop stop-color="#B0B0B0"/>
<stop offset="1" stop-color="#666666"/>
</linearGradient>
<linearGradient id="paint80_linear_367_15049" x1="140.184" y1="45.9429" x2="140.184" y2="53.7178" gradientUnits="userSpaceOnUse">
<stop stop-color="#B0B0B0"/>
<stop offset="1" stop-color="#666666"/>
</linearGradient>
<linearGradient id="paint81_linear_367_15049" x1="147.68" y1="50.8906" x2="147.68" y2="56.5451" gradientUnits="userSpaceOnUse">
<stop stop-color="#B0B0B0"/>
<stop offset="1" stop-color="#666666"/>
</linearGradient>
<linearGradient id="paint82_linear_367_15049" x1="142.325" y1="51.5974" x2="142.325" y2="59.3724" gradientUnits="userSpaceOnUse">
<stop stop-color="#B0B0B0"/>
<stop offset="1" stop-color="#666666"/>
</linearGradient>
<linearGradient id="paint83_linear_367_15049" x1="149.464" y1="57.2519" x2="149.464" y2="62.9064" gradientUnits="userSpaceOnUse">
<stop stop-color="#B0B0B0"/>
<stop offset="1" stop-color="#666666"/>
</linearGradient>
<linearGradient id="paint84_linear_367_15049" x1="143.752" y1="57.2519" x2="143.752" y2="64.32" gradientUnits="userSpaceOnUse">
<stop stop-color="#B0B0B0"/>
<stop offset="1" stop-color="#666666"/>
</linearGradient>
<linearGradient id="paint85_linear_367_15049" x1="76.3394" y1="18.3771" x2="76.3394" y2="46.6497" gradientUnits="userSpaceOnUse">
<stop stop-color="#B0B0B0"/>
<stop offset="1" stop-color="#666666"/>
</linearGradient>
<linearGradient id="paint86_linear_367_15049" x1="79.1634" y1="76.3359" x2="79.1634" y2="93.2994" gradientUnits="userSpaceOnUse">
<stop stop-color="#B0B0B0"/>
<stop offset="1" stop-color="#666666"/>
</linearGradient>
<linearGradient id="paint87_linear_367_15049" x1="101.78" y1="111.677" x2="101.78" y2="122.986" gradientUnits="userSpaceOnUse">
<stop stop-color="#B0B0B0"/>
<stop offset="1" stop-color="#666666"/>
</linearGradient>
<linearGradient id="paint88_linear_367_15049" x1="50.885" y1="111.677" x2="50.885" y2="122.986" gradientUnits="userSpaceOnUse">
<stop stop-color="#B0B0B0"/>
<stop offset="1" stop-color="#666666"/>
</linearGradient>
<linearGradient id="paint89_linear_367_15049" x1="76.333" y1="56.5451" x2="76.333" y2="76.3359" gradientUnits="userSpaceOnUse">
<stop stop-color="#B0B0B0"/>
<stop offset="1" stop-color="#666666"/>
</linearGradient>
<linearGradient id="paint90_linear_367_15049" x1="76.3323" y1="104.608" x2="76.3323" y2="127.226" gradientUnits="userSpaceOnUse">
<stop stop-color="#B0B0B0"/>
<stop offset="1" stop-color="#666666"/>
</linearGradient>
<clipPath id="clip0_367_15049">
<rect width="152.672" height="152.672" fill="white"/>
</clipPath>
<clipPath id="clip1_367_15049">
<rect width="152.672" height="152.672" fill="white"/>
</clipPath>
<clipPath id="clip2_367_15049">
<rect width="152.672" height="152.672" fill="white"/>
</clipPath>
</defs>
</svg>
