<svg width="153" height="164" viewBox="0 0 153 164" fill="none" xmlns="http://www.w3.org/2000/svg">
<g clip-path="url(#clip0_367_15149)">
<g clip-path="url(#clip1_367_15149)">
<g clip-path="url(#clip2_367_15149)">
<path d="M55.8353 142.776C57.0064 142.776 57.9557 141.827 57.9557 140.656C57.9557 139.485 57.0064 138.535 55.8353 138.535C54.6642 138.535 53.7148 139.485 53.7148 140.656C53.7148 141.827 54.6642 142.776 55.8353 142.776Z" fill="url(#paint0_linear_367_15149)"/>
<path d="M96.8314 142.776C98.0025 142.776 98.9518 141.827 98.9518 140.656C98.9518 139.485 98.0025 138.535 96.8314 138.535C95.6603 138.535 94.7109 139.485 94.7109 140.656C94.7109 141.827 95.6603 142.776 96.8314 142.776Z" fill="url(#paint1_linear_367_15149)"/>
<path d="M66.4885 72.1742C67.9587 72.1742 69.2705 72.5021 70.4241 73.158C71.5776 73.7913 72.471 74.6848 73.1043 75.8383C73.7376 76.9918 74.0542 78.3263 74.0542 79.8417C74.0542 81.4475 73.6697 82.8612 72.9007 84.0825C72.1543 85.3039 71.08 86.2539 69.6777 86.9324C68.298 87.5883 66.6808 87.9163 64.8261 87.9163C63.3107 87.9163 61.8066 87.6788 60.3138 87.2038C58.821 86.7062 57.6109 86.0503 56.6836 85.2361L58.346 81.4702C60.54 83.0082 62.7226 83.7772 64.8939 83.7772C66.2736 83.7772 67.3141 83.4606 68.0152 82.8272C68.739 82.1939 69.1009 81.2553 69.1009 80.0113C69.1009 78.8352 68.7277 77.9078 67.9813 77.2293C67.2575 76.5507 66.2623 76.2115 64.9957 76.2115C64.2041 76.2115 63.4125 76.3585 62.6208 76.6525C61.8518 76.9466 61.1507 77.3537 60.5173 77.8739H57.4978V63.7263H72.9007V67.7636H62.6548V73.0902C63.7404 72.4795 65.0183 72.1742 66.4885 72.1742Z" fill="url(#paint2_linear_367_15149)"/>
<path d="M86.9541 81.2836L84.775 80.0197L93.9852 64.3201L96.1418 65.584L86.9541 81.2836ZM84.6852 74.2986C83.3822 74.2986 82.3714 73.87 81.6525 73.0125C80.9337 72.1403 80.5742 70.9725 80.5742 69.5089C80.5742 68.0454 80.9337 66.885 81.6525 66.0275C82.3863 65.1701 83.3972 64.7413 84.6852 64.7413C85.973 64.7413 86.9764 65.1774 87.6954 66.0496C88.4292 66.9071 88.796 68.0602 88.796 69.5089C88.796 70.9725 88.4292 72.1403 87.6954 73.0125C86.9764 73.87 85.973 74.2986 84.6852 74.2986ZM84.6852 72.1698C85.1195 72.1698 85.4565 71.9628 85.6961 71.5489C85.9507 71.1203 86.0779 70.4402 86.0779 69.5089C86.0779 68.5776 85.9507 67.9124 85.6961 67.5132C85.4565 67.0993 85.1195 66.8923 84.6852 66.8923C84.2358 66.8923 83.8914 67.0919 83.6518 67.491C83.4122 67.8902 83.2923 68.5628 83.2923 69.5089C83.2923 70.4698 83.4122 71.1572 83.6518 71.5711C83.8914 71.9703 84.2358 72.1698 84.6852 72.1698ZM96.254 80.8623C94.9512 80.8623 93.9403 80.4336 93.2215 79.5762C92.5025 78.704 92.1432 77.5287 92.1432 76.0504C92.1432 74.5868 92.5025 73.4339 93.2215 72.5912C93.9553 71.7337 94.9662 71.3051 96.254 71.3051C97.542 71.3051 98.5454 71.7337 99.2642 72.5912C99.998 73.4486 100.365 74.6017 100.365 76.0504C100.365 77.5287 100.006 78.704 99.2867 79.5762C98.5679 80.4336 97.557 80.8623 96.254 80.8623ZM96.254 78.7114C96.7034 78.7114 97.0478 78.5044 97.2874 78.0905C97.527 77.6766 97.6469 76.9965 97.6469 76.0504C97.6469 75.1339 97.5195 74.4686 97.2649 74.0547C97.0253 73.6408 96.6884 73.4339 96.254 73.4339C95.8048 73.4339 95.4604 73.6333 95.2208 74.0325C94.9811 74.4316 94.8613 75.1044 94.8613 76.0504C94.8613 77.0113 94.9811 77.6988 95.2208 78.1127C95.4604 78.5118 95.8048 78.7114 96.254 78.7114Z" fill="url(#paint3_linear_367_15149)"/>
<path d="M60.2214 52.3042V40.8651H55.8477V38.3517H67.6825V40.8651H63.3088V52.3042H60.2214ZM75.4921 52.4823C74.1068 52.4823 72.8995 52.1921 71.8704 51.6115C70.8544 51.0178 70.0695 50.1866 69.5153 49.1179C68.9612 48.036 68.6841 46.7694 68.6841 45.3181C68.6841 43.8667 68.9612 42.6067 69.5153 41.538C70.0695 40.4562 70.8544 39.625 71.8704 39.0444C72.8995 38.4638 74.1068 38.1736 75.4921 38.1736C76.8775 38.1736 78.0781 38.4638 79.094 39.0444C80.1232 39.625 80.9148 40.4562 81.4689 41.538C82.0231 42.6067 82.3002 43.8667 82.3002 45.3181C82.3002 46.7694 82.0231 48.036 81.4689 49.1179C80.9148 50.1866 80.1232 51.0178 79.094 51.6115C78.0781 52.1921 76.8775 52.4823 75.4921 52.4823ZM75.4921 50.0876C76.6531 50.0876 77.5635 49.6787 78.2233 48.8606C78.8961 48.0425 79.2326 46.8617 79.2326 45.3181C79.2326 43.7744 78.9026 42.6001 78.243 41.7953C77.5833 40.9772 76.6663 40.5683 75.4921 40.5683C74.3178 40.5683 73.4008 40.9772 72.7412 41.7953C72.0946 42.6001 71.7715 43.7744 71.7715 45.3181C71.7715 46.8617 72.1013 48.0425 72.761 48.8606C73.4206 49.6787 74.331 50.0876 75.4921 50.0876ZM85.2228 38.3517H91.635C93.1523 38.3517 94.3332 38.7344 95.1776 39.4996C96.0219 40.2648 96.4442 41.3335 96.4442 42.7057C96.4442 44.0779 96.0219 45.1466 95.1776 45.9118C94.3332 46.677 93.1523 47.0596 91.635 47.0596H88.3102V52.3042H85.2228V38.3517ZM91.2392 44.7243C92.7829 44.7243 93.5547 44.0581 93.5547 42.7255C93.5547 42.0394 93.3635 41.5314 92.9808 41.2016C92.5981 40.8718 92.0177 40.7068 91.2392 40.7068H88.3102V44.7243H91.2392Z" fill="url(#paint4_linear_367_15149)"/>
<path d="M22.3055 113.77L22.045 113.449L21.5841 112.745L20.9227 111.699C20.95 110.678 21.1049 109.664 21.3837 108.682C22.1149 108.681 22.8278 108.452 23.4238 108.027C24.0199 107.602 24.4695 107.001 24.7105 106.309C24.9999 105.138 25.0679 103.924 24.9108 102.728C24.9108 102.085 24.7906 101.461 24.7306 100.938C24.6703 100.415 24.7306 99.973 24.5902 99.7115C23.6081 100.355 19.9207 102.99 19.2393 104.82C19.0717 105.211 18.9936 105.634 19.011 106.059C19.0284 106.483 19.1407 106.899 19.3396 107.274C19.6445 107.769 20.0638 108.183 20.5621 108.481C20.3817 108.943 20.1612 109.507 19.9207 110.07L19.3796 109.144C19.079 108.602 18.6381 107.877 18.2573 107.133L17.2152 105.122C17.0888 104.894 16.975 104.659 16.8745 104.418L16.7542 104.157L15.7522 101.924C15.9637 100.925 16.2863 99.9538 16.7142 99.0277C17.434 99.1354 18.1695 99.0222 18.8241 98.7027C19.4787 98.3833 20.0216 97.8725 20.3817 97.2376C20.8234 96.1754 21.0875 95.0474 21.1633 93.8988C21.1633 93.195 21.2634 92.5513 21.3035 91.9881C21.3437 91.425 21.3035 90.9624 21.3035 90.7009C20.2212 91.1634 16.2132 93.1346 15.2912 94.8442C15.0797 95.1797 14.943 95.557 14.8904 95.9504C14.8332 96.4603 14.9083 96.9766 15.1084 97.4487C15.3086 97.921 15.6269 98.3332 16.0328 98.6455C15.7922 99.0679 15.4716 99.5908 15.151 100.094L14.9105 99.4903C14.7902 99.1483 14.5697 98.6858 14.4295 98.203L13.7882 96.1917C13.7882 96.1917 13.6479 95.8096 13.5276 95.4275C13.4074 95.0453 13.3072 94.6631 13.3072 94.6631L12.6458 92.2898C13.0148 91.366 13.4782 90.4829 14.0286 89.655C14.7246 89.8649 15.4673 89.8601 16.1606 89.6414C16.8538 89.4226 17.4655 88.9999 17.9166 88.4281C18.5533 87.3987 18.9949 86.2598 19.2193 85.0693C19.5198 83.8222 19.7803 82.6155 19.8405 82.1127C18.6982 82.4143 14.4495 83.762 13.1669 85.2905C12.6843 85.857 12.4309 86.5844 12.4569 87.3292C12.4829 88.074 12.7863 88.7819 13.3072 89.3131L12.2049 90.6004C12.2049 90.6004 12.2049 90.178 11.9644 89.5745C11.7239 88.9712 11.7039 88.1063 11.5436 87.2818C11.3832 86.457 11.243 85.6123 11.1828 84.9889C11.1227 84.3653 11.0626 83.9429 11.0626 83.9429L10.9023 82.716C10.9023 82.4144 10.9023 82.1127 10.9023 81.8712C10.9023 81.6299 10.9023 81.4891 10.9023 81.4891C11.4126 80.6128 12.0102 79.7907 12.6859 79.0354C13.3308 79.3657 14.0614 79.4888 14.7785 79.3882C15.4956 79.2874 16.1644 78.9676 16.6941 78.4722C17.4748 77.624 18.0749 76.6247 18.4577 75.5356C18.908 74.5625 19.2962 73.5615 19.62 72.5389C18.4377 72.6596 14.0286 73.3031 12.5657 74.5502C12.2511 74.8027 11.9918 75.1176 11.8041 75.4754C11.6003 75.9494 11.5139 76.466 11.5523 76.9808C11.5907 77.4958 11.7527 77.9937 12.0246 78.432L10.7419 79.5181C10.7419 79.5181 10.7419 79.2566 10.7419 78.8745C10.7419 78.4924 10.7419 78.0096 10.7419 77.5068C10.7419 76.4811 10.7419 75.4955 10.7419 75.4955V73.8663C10.7419 73.8663 10.7419 73.263 10.7419 72.6394C10.7419 72.016 10.7419 71.4125 10.7419 71.4125C11.3323 70.6079 12.0039 69.8664 12.746 69.2C13.3372 69.6031 14.0355 69.8185 14.7501 69.8185C15.4648 69.8185 16.163 69.6031 16.7542 69.2C17.6815 68.4313 18.4508 67.4886 19.0188 66.4245C19.5676 65.5745 20.0693 64.695 20.5219 63.7897C19.3396 63.7897 14.8704 63.6892 13.207 64.7752C12.8461 64.9845 12.5387 65.2752 12.3091 65.6243C12.0796 65.9733 11.9341 66.3712 11.8843 66.7866C11.829 67.3674 11.9114 67.9534 12.1248 68.4962C11.7239 68.7576 11.2029 69.0995 10.6818 69.4012V68.3352C10.6818 67.7118 10.8622 66.867 10.9824 66.0424C11.1027 65.2177 11.2229 64.3729 11.3432 63.7495C11.4634 63.126 11.5235 62.7036 11.5235 62.7036V62.3215C11.5235 62.1002 11.5235 61.7986 11.7039 61.4969C11.8442 60.8934 11.9644 60.2901 11.9644 60.2901C12.7096 59.5995 13.5377 59.005 14.4295 58.5201C14.948 59.031 15.6087 59.3719 16.3244 59.4976C17.0403 59.6233 17.7771 59.528 18.4377 59.2241C18.9176 58.9948 19.3575 58.6892 19.7403 58.3189C20.1612 57.9168 20.582 57.4541 21.0229 56.9915C21.9449 55.9658 22.7064 54.9802 23.027 54.5177C21.8835 54.2652 20.7256 54.0838 19.5599 53.9746C18.2191 53.7799 16.8524 53.8759 15.5517 54.2562C15.1907 54.4225 14.8591 54.6468 14.5697 54.9199C14.1343 55.3242 13.863 55.8758 13.8082 56.4686C13.7423 56.9086 13.7423 57.3561 13.8082 57.796L12.225 58.4196L12.7861 56.4083C12.9264 55.9255 13.0466 55.4428 13.1669 55.0807L13.3673 54.4774L14.2892 53.1097V52.808C14.2974 52.7345 14.2974 52.6603 14.2892 52.5868C14.2892 52.5868 14.2892 52.5868 14.2892 52.4862L14.4696 51.9633L14.9304 50.8168C15.7669 50.2477 16.6685 49.7817 17.6159 49.4291C18.0591 50.0069 18.6633 50.4398 19.352 50.6726C20.0406 50.9053 20.7826 50.9275 21.4839 50.7364C23.4437 49.6962 25.2181 48.3369 26.7347 46.7138C25.6323 46.2713 21.3636 44.8432 19.4999 45.3663C19.0691 45.4438 18.6628 45.6227 18.3144 45.8885C17.9661 46.1541 17.6855 46.499 17.4958 46.8948C17.271 47.4276 17.1815 48.0082 17.2352 48.5843L15.5718 48.9866C15.5718 48.9866 15.7321 48.6045 16.0127 48.0211C16.2933 47.4378 16.5939 46.6736 16.9747 45.9093L18.0369 43.898L18.5178 42.9527L20.0409 40.7604C20.9686 40.3531 21.9357 40.043 22.9268 39.8352C23.2475 40.4989 23.7635 41.0477 24.4051 41.4074C25.0466 41.767 25.7829 41.9204 26.5141 41.8465C27.6343 41.5987 28.7004 41.1489 29.6606 40.519L31.2839 39.5133C31.6498 39.29 32.0042 39.0484 32.3461 38.7892C31.3439 38.1859 27.396 36.0942 25.4119 36.255C24.7072 36.313 24.0478 36.627 23.5571 37.1378C23.0664 37.6489 22.7782 38.3218 22.7464 39.0307L21.063 39.1715L21.4037 38.6284C21.6241 38.3066 21.8846 37.864 22.1853 37.4618C22.7464 36.6371 23.3476 35.8126 23.3476 35.8126L23.8086 35.1689L24.3096 34.5253L24.9911 33.6605L25.8328 32.5944C26.8144 32.3246 27.8223 32.1627 28.8388 32.1118C29.0769 32.7902 29.511 33.3821 30.0857 33.812C30.6603 34.2419 31.3496 34.4903 32.0654 34.5253C33.2694 34.4422 34.4464 34.1281 35.5325 33.6001C36.7349 33.1175 37.8373 32.5944 38.2782 32.3531C37.3562 31.609 33.769 28.9541 31.8049 28.8333C31.3817 28.7918 30.9548 28.8502 30.558 29.0038C30.1613 29.1575 29.8059 29.4022 29.5202 29.7183C29.1207 30.1383 28.8435 30.6599 28.7187 31.2268L27.0352 31.1062L27.7166 30.3218C28.1374 29.839 28.7386 29.2357 29.3199 28.6322C29.6005 28.3305 29.881 28.0088 30.1616 27.7272L30.9432 26.9829L31.7047 26.2589C31.7047 26.2589 32.1456 25.8164 32.6066 25.4142L33.5284 24.6096C34.5329 24.4788 35.5502 24.4788 36.5547 24.6096C36.6754 25.3314 37.0124 25.999 37.5208 26.5236C38.0293 27.0482 38.6849 27.405 39.4005 27.5461C39.9174 27.6378 40.4466 27.6378 40.9637 27.5461C41.5448 27.5461 42.1661 27.3449 42.7874 27.2444C43.4087 27.1439 44.1101 26.9227 44.6511 26.7617L45.8736 26.4199C45.1322 25.5348 42.0859 22.2966 40.0818 21.9145C39.6915 21.8359 39.2896 21.8359 38.8995 21.9145C38.5888 21.9569 38.2894 22.0594 38.0177 22.2162C37.7802 22.3509 37.564 22.5204 37.3763 22.719C37.0712 23.041 36.8268 23.4158 36.6548 23.8253L35.0114 23.4029L36.5947 22.1558C37.3763 21.5122 38.198 20.9491 38.198 20.9491L39.5206 20.0037L39.8213 19.7825L40.0818 19.5211H40.2422H40.3625L41.4046 18.8574C42.4138 18.8862 43.4162 19.0347 44.3906 19.2998C44.3999 20.0315 44.6313 20.7432 45.0539 21.3396C45.4762 21.9361 46.0698 22.3892 46.7554 22.6386C47.93 22.918 49.1446 22.9862 50.3428 22.8397C51.0041 22.8397 51.6053 22.719 52.1264 22.6586L53.3289 22.5178C52.7077 21.5122 50.0823 17.8114 48.2585 17.1678C47.8774 16.9826 47.4594 16.8865 47.036 16.8865C46.6127 16.8865 46.1947 16.9826 45.8135 17.1678C45.311 17.4686 44.8909 17.8903 44.591 18.3947L43.0278 17.731L44.09 17.0471C44.6511 16.7454 45.3526 16.2829 46.0941 15.9008C46.515 15.6996 49.962 13.8894 52.888 12.3206C53.3165 12.9007 53.9271 13.3192 54.6214 13.5089C55.3157 13.6986 56.0534 13.6485 56.7159 13.3665C58.5595 12.6424 61.225 9.0623 61.9064 8.07676C60.744 7.85552 56.335 7.13145 54.4912 7.89575C53.7765 8.189 53.1857 8.72263 52.82 9.40519C52.4543 10.0877 52.3367 10.8767 52.4871 11.6368C51.0842 12.1999 49.7416 12.743 49.2605 12.9642C48.7796 13.1855 45.2525 14.3721 45.2525 14.3721C45.2525 13.7687 45.4729 13.1653 45.5731 12.6826C46.1883 12.6883 46.7973 12.5578 47.3567 12.3005C47.7677 12.1043 48.1334 11.824 48.4302 11.4776C48.727 11.1312 48.9484 10.7265 49.0801 10.2892C49.396 8.97303 49.4774 7.6112 49.3207 6.2666C49.2894 5.11589 49.1956 3.96776 49.0401 2.82727C48.7595 3.00829 48.2986 3.3301 47.7576 3.73236C47.2164 4.13462 46.5951 4.67767 45.9939 5.22071C44.8801 6.14596 43.9836 7.30663 43.3685 8.61981C43.1319 9.33252 43.153 10.1061 43.4278 10.8048C43.7026 11.5036 44.2137 12.0829 44.8716 12.4413C44.7314 12.8636 44.5109 13.3866 44.3104 13.9095C44.1317 14.4006 43.9173 14.8779 43.6692 15.3376L43.0078 15.7197C42.607 15.9409 42.0659 16.2426 41.5649 16.5846L39.5608 17.9119L39.2 18.1534L38.4184 18.6964L37.2962 19.5009L36.7952 19.863C36.7952 19.5211 36.7952 19.1791 36.7952 18.8372C36.7952 18.4954 36.7952 18.3546 36.7952 18.1534C37.4012 18.0595 37.9813 17.8403 38.4986 17.5098C38.8656 17.2604 39.1788 16.9398 39.4198 16.5666C39.6607 16.1934 39.8246 15.7755 39.9015 15.3376C39.9299 12.8057 39.4952 10.2902 38.6189 7.91585C38.3784 8.13709 37.9574 8.49913 37.4765 9.00195C36.9955 9.50478 36.4744 10.0881 35.9734 10.7317C34.9946 11.7996 34.2745 13.0799 33.8691 14.4727C33.8691 14.6135 33.8691 14.714 33.8691 14.8348C33.8308 15.5106 34.0031 16.1818 34.3623 16.7549C34.7214 17.3281 35.2495 17.7747 35.8732 18.0327C35.6805 19.0577 35.433 20.0714 35.1317 21.0697L34.3902 21.653C33.9293 21.9949 33.3681 22.4978 32.787 22.9805L31.2238 24.3482L30.5424 25.0119L29.3199 26.1784L28.4982 27.0031L28.1374 27.3852C28.0373 26.802 27.957 26.1583 27.917 25.6756C28.5042 25.4935 29.0447 25.1846 29.5003 24.7706C30.1448 24.1475 30.5191 23.2949 30.5424 22.3972C30.1521 19.892 29.31 17.4792 28.0573 15.2772C27.2757 16.3034 26.5594 17.3783 25.9129 18.4954C25.145 19.7143 24.6525 21.0874 24.47 22.5178C24.462 23.2654 24.7169 23.9917 25.1897 24.5691C25.6626 25.1467 26.3232 25.5385 27.0553 25.6756C27.0524 26.7201 26.9652 27.7627 26.7947 28.7931L26.2938 29.3765L25.1914 30.6636C24.8086 31.0735 24.4473 31.5031 24.1093 31.9508L23.6282 32.5543C23.6282 32.5543 23.2074 33.1175 22.7665 33.6605C22.5632 33.9028 22.3757 34.1581 22.2054 34.4248L21.9449 34.7666L21.5841 35.2897C21.5841 34.9477 21.3837 34.6258 21.3035 34.3041C21.2234 33.9823 21.1832 33.8213 21.1231 33.6203C21.663 33.3366 22.1455 32.9548 22.5461 32.4939C22.8217 32.1421 23.0242 31.7382 23.1412 31.3063C23.2583 30.8745 23.2875 30.4233 23.2275 29.9798C22.4723 27.5585 21.2839 25.2957 19.7202 23.3022C19.0759 24.4405 18.5133 25.6236 18.0369 26.8421C17.4703 28.1476 17.1966 29.5621 17.2352 30.9855C17.2352 31.1062 17.2352 31.2067 17.2352 31.3274C17.4043 31.9951 17.785 32.5895 18.3199 33.0212C18.855 33.4529 19.5151 33.6985 20.2013 33.7208C20.3359 34.7545 20.4029 35.7959 20.4016 36.8383L18.7783 39.3927L17.2553 42.0074L16.9948 42.4901C16.8544 42.7717 16.6539 43.1337 16.4737 43.5159L15.7723 45.0645C15.4917 44.5416 15.2512 43.9784 15.0507 43.5159C15.5483 43.1641 15.9596 42.7033 16.2532 42.1682C16.4733 41.7777 16.6118 41.3461 16.66 40.9001C16.7082 40.4539 16.6653 40.0026 16.5338 39.5737C15.4023 37.3256 13.8747 35.3018 12.0246 33.6001C11.9043 33.9018 11.7239 34.4449 11.5035 35.0885C11.283 35.7321 11.1227 36.5366 10.9624 37.3411C10.5922 38.7399 10.5442 40.205 10.8221 41.6253C11.0499 42.3393 11.519 42.951 12.1483 43.355C12.7776 43.7589 13.5277 43.9296 14.2692 43.8376C14.5663 44.8356 14.8072 45.8496 14.9907 46.8748C14.9907 46.8748 14.8503 47.1562 14.6699 47.5786C14.4895 48.001 14.229 48.5642 14.0086 49.1274C13.5477 50.2738 13.1068 51.4404 13.1068 51.4404C13.0429 51.5769 12.9894 51.7181 12.9464 51.8628C12.9464 52.1041 12.746 52.4259 12.6458 52.7678L12.2049 54.0752L12.0045 54.6585L11.4233 53.8338C11.3031 53.6059 11.1828 53.4047 11.0626 53.2304C11.5092 52.8049 11.852 52.2819 12.0646 51.7019C12.2161 51.2779 12.28 50.8274 12.2524 50.3779C12.2249 49.9285 12.1064 49.4893 11.9043 49.0871C10.4384 47.019 8.61204 45.2337 6.5133 43.8175C6.15256 45.1248 5.55134 50.0927 6.5133 51.8628L6.67362 52.1644C7.04579 52.7437 7.59242 53.1887 8.23401 53.4347C8.87561 53.6807 9.57867 53.7149 10.2409 53.5321C10.6884 54.4722 11.0766 55.4395 11.4033 56.4283C11.4033 56.4283 11.3031 56.8105 11.1427 57.3335C10.9824 57.8564 10.8221 58.6207 10.6417 59.3448C10.4614 60.0689 10.3211 60.813 10.1808 61.3561L10.0205 62.422C10.0205 62.422 9.86014 63.2668 9.71985 64.0915C9.60451 64.6497 9.51756 65.2136 9.45932 65.7809C9.03845 65.3585 8.59755 64.896 8.2769 64.5137C8.65281 64.0296 8.91332 63.4654 9.03845 62.8646C9.18417 61.9788 8.98311 61.0707 8.47731 60.3302C6.69071 58.53 4.59222 57.0714 2.28466 56.0262C2.25582 57.3218 2.30267 58.6179 2.42495 59.9078C2.53425 61.3516 2.94388 62.7562 3.62741 64.0311C4.06197 64.6559 4.70581 65.1032 5.44155 65.2915C6.17728 65.4798 6.95594 65.3965 7.63559 65.0568C8.25205 65.9042 8.80151 66.7986 9.27895 67.7319C9.27895 67.7319 9.27895 68.0335 9.27895 68.4962C9.27895 68.9587 9.27895 69.5823 9.15871 70.1856C9.03845 70.7891 9.15871 71.4125 9.01842 71.8752C8.87813 72.3377 9.01842 72.6596 9.01842 72.6596V75.4552V76.0587C8.73784 75.8776 8.45726 75.6564 8.19673 75.4552L7.67567 74.9927C7.91187 74.4333 8.02796 73.8301 8.01637 73.2227C8.03346 72.3285 7.70278 71.4628 7.09449 70.8092C5.03458 69.2815 2.7108 68.1494 0.240491 67.4703C0.40904 68.7303 0.649932 69.9794 0.961965 71.2114C1.26478 72.6643 1.87284 74.0356 2.7456 75.234L3.00613 75.4754C3.53366 75.9196 4.19179 76.1778 4.8796 76.2105C5.56742 76.2432 6.24693 76.0485 6.81391 75.6564C7.53927 76.4111 8.20906 77.2179 8.81801 78.07C8.81801 78.07 8.81801 78.4521 8.81801 79.0153C8.81801 79.5785 8.81801 80.3427 8.9583 81.0266C9.09857 81.7104 8.9583 82.5552 9.15871 83.0379V83.9832L9.35912 85.6726C9.47936 86.5174 9.63968 87.3622 9.63968 87.3622C9.09859 87.0806 8.55748 86.7789 8.13661 86.5174C8.40104 85.8161 8.4368 85.0488 8.2387 84.3259C8.0406 83.6029 7.6189 82.9617 7.03436 82.4948C4.8365 81.3615 2.45406 80.6326 0 80.3427C0.351545 81.5871 0.793634 82.8038 1.3227 83.9832C1.85328 85.3281 2.66674 86.5424 3.70758 87.5431C4.30048 87.9742 5.02388 88.1856 5.75465 88.1417C6.48544 88.0977 7.17844 87.8008 7.71576 87.3018C8.55314 87.9037 9.3376 88.5766 10.0605 89.3131L10.6217 91.7066C10.7272 92.2628 10.861 92.8133 11.0225 93.3558C11.1427 93.7983 11.243 94.1 11.243 94.1L11.6037 95.4275C11.6037 95.7693 11.8041 96.1113 11.8843 96.3527L12.0246 96.7549L12.225 97.3582L11.263 97.0164L10.6017 96.7549C10.7288 96.1514 10.7288 95.528 10.6017 94.9247C10.4771 94.4983 10.2694 94.101 9.99078 93.7557C9.71214 93.4105 9.36801 93.1241 8.97833 92.9134C6.58818 92.0915 4.06809 91.7166 1.54316 91.8071C2.06959 93.0349 2.69283 94.2187 3.40695 95.3471C4.12458 96.607 5.11828 97.6868 6.31289 98.5047C6.41344 98.5703 6.52101 98.6243 6.63355 98.6657C7.27137 98.9158 7.97252 98.9531 8.63311 98.7719C9.29368 98.5908 9.87854 98.2009 10.301 97.66C11.2133 98.1552 12.0905 98.7131 12.9264 99.3294L14.0286 102.085C14.3092 102.789 14.6498 103.453 14.8704 103.996L15.2512 104.84L15.4716 105.323L15.9926 106.369L16.7742 107.877C16.2077 107.801 15.6457 107.693 15.0908 107.556C15.0933 106.943 14.9562 106.337 14.69 105.786C14.5068 105.365 14.2316 104.991 13.8846 104.691C13.5377 104.392 13.128 104.175 12.6859 104.056C11.3777 103.719 10.0184 103.631 8.67772 103.794C7.50171 103.869 6.33082 104.01 5.17055 104.217C5.35093 104.478 5.67159 104.961 6.07241 105.504C6.47321 106.047 7.01432 106.671 7.55543 107.274C8.47313 108.396 9.63069 109.297 10.9423 109.909C11.6498 110.141 12.416 110.117 13.1079 109.842C13.7998 109.566 14.3736 109.056 14.7301 108.4L16.2132 108.964C16.7342 109.185 17.2553 109.406 17.6159 109.607L17.9967 110.271C18.2372 110.673 18.5178 111.216 18.8585 111.739L20.1812 113.75L20.4217 114.112L20.9628 114.897L21.7645 116.043L23.1473 115.038L22.3055 113.77Z" fill="url(#paint5_linear_367_15149)"/>
<path d="M141.946 91.9074L142.507 89.514C143.243 88.7928 144.028 88.1209 144.852 87.5027C145.386 88.0048 146.079 88.3052 146.81 88.3529C147.541 88.4006 148.265 88.1926 148.86 87.7642C149.928 86.7785 150.758 85.5608 151.285 84.2042C151.809 83.0225 152.25 81.8061 152.607 80.5638C150.098 80.841 147.66 81.5772 145.413 82.736C144.821 83.1968 144.394 83.8379 144.195 84.5631C143.995 85.2883 144.036 86.0585 144.311 86.7586L142.788 87.6034C142.788 87.6034 142.948 86.7586 143.068 85.9138C143.188 85.0691 143.289 84.2244 143.289 84.2244C143.289 84.2244 143.289 83.8623 143.409 83.2991C143.505 82.6323 143.566 81.961 143.59 81.2878C143.59 80.5235 143.73 79.7794 143.769 79.2765C143.81 78.7737 143.769 78.3312 143.769 78.3312C144.369 77.4717 145.04 76.6644 145.774 75.9176C146.343 76.3034 147.022 76.4942 147.708 76.4616C148.395 76.4291 149.051 76.1747 149.582 75.7367L149.822 75.5154C150.689 74.3554 151.302 73.0263 151.626 71.6135C151.94 70.3616 152.182 69.0923 152.347 67.8121C149.907 68.4843 147.61 69.6025 145.573 71.1107C144.971 71.7676 144.641 72.6311 144.651 73.5242C144.684 74.1445 144.855 74.7495 145.153 75.2942L144.632 75.7367L143.79 76.3602V75.7367V72.961C143.79 72.961 143.79 72.6393 143.79 72.1767C143.79 71.714 143.79 71.1107 143.67 70.4872C143.549 69.8636 143.67 69.2603 143.529 68.7977C143.389 68.3351 143.529 68.0334 143.529 68.0334C143.99 67.0416 144.525 66.0868 145.132 65.1773C145.808 65.5276 146.588 65.6188 147.326 65.4337C148.064 65.2485 148.708 64.7999 149.141 64.1716C149.832 62.9002 150.244 61.4938 150.343 60.0485C150.48 58.7594 150.533 57.4627 150.504 56.1667C148.187 57.2156 146.082 58.6811 144.291 60.491C143.79 61.2334 143.597 62.1421 143.749 63.0252C143.865 63.6315 144.12 64.2026 144.492 64.6947C144.12 65.1309 143.724 65.5471 143.308 65.9416C143.308 65.9416 143.308 65.0969 143.048 64.2522L142.768 62.5827C142.768 62.5827 142.768 62.2207 142.607 61.6575C142.447 61.0945 142.306 60.3704 142.127 59.6463C141.946 58.9221 141.806 58.178 141.625 57.635C141.445 57.0919 141.384 56.7098 141.384 56.7098C141.711 55.7208 142.1 54.7536 142.548 53.8136C143.208 54.0014 143.911 53.9719 144.552 53.7295C145.194 53.4869 145.741 53.044 146.114 52.466L146.295 52.1441C147.257 50.3138 146.656 45.3259 146.295 44.099C144.186 45.5009 142.351 47.2803 140.884 49.3485C140.694 49.7478 140.585 50.1814 140.565 50.6234C140.544 51.0656 140.612 51.5074 140.764 51.9228C140.97 52.501 141.306 53.0239 141.746 53.4515L141.384 54.0549L140.824 54.8794L140.623 54.2962C140.623 54.2962 140.383 53.6325 140.182 52.9889C140.062 52.6469 139.962 52.3252 139.862 52.0636L139.722 51.6615C139.722 51.6615 139.281 50.515 138.82 49.3686C138.599 48.7853 138.339 48.2422 138.158 47.8198C137.978 47.3974 137.838 47.1159 137.838 47.1159C138.028 46.0837 138.275 45.0631 138.579 44.0587C139.319 44.1558 140.068 43.9896 140.698 43.5889C141.328 43.1885 141.799 42.5789 142.026 41.8664C142.305 40.4395 142.257 38.9678 141.886 37.5622C141.725 36.7778 141.526 35.9934 141.345 35.3297C141.164 34.666 140.964 34.1429 140.844 33.8413C138.961 35.5506 137.411 37.5969 136.274 39.8752C136.14 40.2994 136.094 40.7467 136.139 41.1894C136.184 41.6323 136.319 42.0611 136.535 42.4497C136.835 42.9855 137.245 43.4515 137.738 43.8174C137.557 44.2598 137.297 44.823 137.016 45.366L136.274 43.7167C136.074 43.3547 135.894 42.9726 135.753 42.691L135.493 42.2285L133.99 39.5936C133.108 38.3266 132.266 37.0191 132.266 37.0191C132.245 35.9761 132.312 34.9333 132.467 33.9016C133.151 33.8729 133.808 33.625 134.342 33.1943C134.876 32.7637 135.258 32.1728 135.433 31.5082C135.433 31.5082 135.433 31.287 135.433 31.1663C135.501 29.7309 135.262 28.2974 134.731 26.9627C134.256 25.7532 133.701 24.5773 133.068 23.4429C131.505 25.4324 130.31 27.6873 129.541 30.1002C129.481 30.5498 129.514 31.0068 129.638 31.4429C129.762 31.8789 129.975 32.2846 130.262 32.6345C130.653 33.1056 131.138 33.4893 131.685 33.7608L131.505 34.4447C131.505 34.7665 131.324 35.1084 131.204 35.4302L130.803 35.0078C130.803 35.0078 130.803 34.867 130.563 34.6458L130.002 33.8816L129.14 32.7955L128.659 32.192C128.378 31.8099 127.998 31.3473 127.597 30.8847L126.474 29.5974L125.973 28.974C125.813 27.9422 125.726 26.9005 125.713 25.8564C126.443 25.7061 127.097 25.3038 127.562 24.7196C128.027 24.1353 128.273 23.406 128.258 22.6585C128.054 21.2333 127.563 19.8647 126.815 18.6359C126.169 17.519 125.452 16.444 124.671 15.4177C123.433 17.614 122.61 20.0211 122.246 22.5177C122.243 22.9716 122.333 23.4213 122.509 23.8396C122.684 24.2579 122.943 24.636 123.268 24.9514C123.729 25.3581 124.268 25.666 124.851 25.8564C124.851 26.3391 124.731 26.9828 124.631 27.566L124.25 27.1236C124.05 26.9023 123.749 26.5805 123.448 26.299L122.246 25.1323L121.565 24.4686L120.001 23.101C119.42 22.5981 118.859 22.0953 118.398 21.7533L117.676 21.1701C117.369 20.1654 117.114 19.1449 116.915 18.113C117.564 17.8779 118.12 17.4363 118.496 16.8554C118.872 16.2744 119.049 15.586 118.999 14.8948C119.008 14.7744 119.008 14.6534 118.999 14.5328C118.617 13.1515 117.933 11.8733 116.995 10.7918C116.494 10.1482 115.953 9.54482 115.492 9.04199C115.031 8.53918 114.59 8.17713 114.35 7.9559C113.466 10.3359 113.025 12.8581 113.047 15.3977C113.124 15.8328 113.288 16.2477 113.529 16.6175C113.77 16.9874 114.084 17.3045 114.45 17.5498C114.962 17.8936 115.544 18.1202 116.153 18.2135C116.153 18.4146 116.153 18.6559 116.153 18.8974C116.153 19.1387 116.153 19.5812 116.153 19.9231L115.652 19.5611L114.53 18.7566L113.768 18.1934L113.388 17.9521L111.384 16.6246C110.883 16.2826 110.342 15.9809 109.941 15.7597L109.279 15.3776C109.031 14.9179 108.817 14.4406 108.638 13.9496L108.077 12.4612C108.739 12.1126 109.255 11.5375 109.53 10.8401C109.806 10.1427 109.824 9.36916 109.58 8.65985C108.993 7.33532 108.1 6.17017 106.975 5.26075C106.414 4.73362 105.825 4.23679 105.211 3.7724C104.67 3.37014 104.209 3.04832 103.928 2.86731C103.928 3.45059 103.608 4.8786 103.508 6.36697C103.349 7.71153 103.431 9.07366 103.748 10.3896C103.873 10.8302 104.092 11.2384 104.389 11.5857C104.687 11.933 105.056 12.2111 105.472 12.4009C106.021 12.668 106.624 12.8056 107.235 12.8031C107.372 13.36 107.48 13.924 107.556 14.4927C107.556 14.4927 104.389 13.4266 103.548 13.0847C103.087 12.8635 101.724 12.3003 100.341 11.7371C100.489 10.9745 100.37 10.1842 100.005 9.49913C99.64 8.81409 99.0509 8.27619 98.3371 7.976C95.8795 7.52014 93.3544 7.58177 90.9219 8.15702C92.2799 10.2515 94.0372 12.056 96.0925 13.4669C96.7583 13.7467 97.4982 13.7958 98.1951 13.6064C98.892 13.417 99.5061 12.9999 99.9403 12.421L106.714 16.0212C107.456 16.4033 108.177 16.8458 108.718 17.1677L109.62 17.6906C109.059 17.9319 108.498 18.1733 108.057 18.3342C107.746 17.8383 107.328 17.419 106.834 17.1073C106.453 16.9235 106.035 16.8281 105.612 16.8281C105.189 16.8281 104.771 16.9235 104.389 17.1073C102.566 17.771 99.9403 21.4517 99.299 22.4373L100.501 22.5981C101.023 22.5981 101.644 22.7389 102.285 22.7792C103.482 22.9319 104.697 22.8705 105.872 22.5981C106.572 22.3298 107.172 21.852 107.592 21.2295C108.011 20.607 108.229 19.87 108.217 19.1186C109.192 18.8534 110.194 18.705 111.203 18.6762L112.245 19.3399C112.435 19.4528 112.616 19.5806 112.787 19.722L113.107 19.9432L114.41 20.8684C114.41 20.8684 115.231 21.4517 116.033 22.0953L117.616 23.3423L115.953 23.7647C115.781 23.3553 115.537 22.9805 115.231 22.6585C115.045 22.4534 114.829 22.2771 114.59 22.1356C114.317 21.9853 114.018 21.8896 113.708 21.854C113.318 21.7748 112.916 21.7748 112.526 21.854C110.522 22.2361 107.476 25.4743 106.694 26.3794L108.217 26.9627C108.758 27.1236 109.38 27.3045 110.061 27.4453C110.742 27.5861 111.304 27.6868 111.885 27.7471C112.409 27.8379 112.944 27.8379 113.468 27.7471C114.18 27.5797 114.826 27.2002 115.319 26.6582C115.813 26.1162 116.132 25.4371 116.234 24.7099C117.238 24.5793 118.255 24.5793 119.26 24.7099L120.182 25.5146L121.063 26.3592L121.825 27.0833L122.607 27.8476L123.468 28.7326C124.029 29.3561 124.631 29.9594 125.052 30.4422L125.733 31.2266L124.05 31.3473C123.921 30.7757 123.645 30.2483 123.248 29.8187C122.959 29.5085 122.602 29.2706 122.206 29.1239C121.809 28.9771 121.383 28.9258 120.963 28.974C118.959 28.974 115.392 31.7295 114.47 32.4736C114.911 32.715 116.013 33.2379 117.216 33.7207C118.302 34.2487 119.479 34.5626 120.683 34.6458C121.41 34.6254 122.113 34.3835 122.7 33.9525C123.287 33.5215 123.73 32.9216 123.969 32.2323C124.979 32.2816 125.981 32.4435 126.956 32.715L128.479 34.7263L128.98 35.3698L129.441 36.0337L130.603 37.6829C130.903 38.0851 131.144 38.5276 131.364 38.8495L131.705 39.3724C131.104 39.3724 130.483 39.3724 130.022 39.2516C129.997 38.7336 129.84 38.2304 129.566 37.7902C129.293 37.3502 128.911 36.9877 128.458 36.7375C128.107 36.5585 127.727 36.4429 127.336 36.3957C125.332 36.2146 121.424 38.3064 120.402 38.9098C120.744 39.1688 121.098 39.4105 121.464 39.6339L123.088 40.6596C124.047 41.2774 125.104 41.7262 126.214 41.987C126.948 42.0653 127.689 41.9141 128.335 41.5542C128.98 41.1941 129.499 40.6429 129.821 39.9757C130.817 40.1651 131.786 40.4757 132.707 40.9009L133.93 43.053C133.93 43.053 134.15 43.4151 134.431 43.9783L135.473 45.9896C135.854 46.7337 136.174 47.5181 136.455 48.1014L136.876 49.0669L135.212 48.6646C135.268 48.0819 135.178 47.4945 134.952 46.9549C134.762 46.5593 134.481 46.2143 134.133 45.9486C133.785 45.6828 133.378 45.5038 132.948 45.4264C131.084 44.8834 126.815 46.3113 125.713 46.7539C127.22 48.3784 128.988 49.7382 130.944 50.7764C131.646 50.9797 132.392 50.9655 133.086 50.736C133.78 50.5062 134.388 50.0717 134.832 49.4893C135.779 49.842 136.681 50.3079 137.517 50.877L137.958 52.0235C138.078 52.3051 138.158 52.6067 138.239 52.828C138.319 53.0492 138.359 53.19 138.359 53.19L138.88 54.7186L139.08 55.322C139.201 55.6841 139.321 56.1667 139.461 56.6494L140.022 58.6608L138.439 58.0171C138.505 57.5839 138.505 57.1431 138.439 56.7098C138.384 56.1169 138.113 55.5653 137.677 55.161C137.397 54.8768 137.063 54.651 136.695 54.4973C135.399 54.0959 134.027 53.9996 132.687 54.2157C131.523 54.3184 130.365 54.4862 129.22 54.7186C129.561 55.141 130.322 56.1869 131.224 57.2126C131.665 57.6551 132.086 58.1379 132.507 58.54C132.886 58.9049 133.319 59.2101 133.789 59.4452C134.449 59.7518 135.187 59.8488 135.903 59.7229C136.62 59.5971 137.281 59.2546 137.798 58.7412C138.679 59.2402 139.5 59.841 140.243 60.5313L140.523 61.7381C140.523 62.0397 140.643 62.3414 140.684 62.5626V62.9447C140.684 62.9447 140.684 63.3671 140.864 63.9907C141.044 64.6141 141.144 65.4388 141.225 66.2836C141.305 67.1282 141.445 67.9529 141.505 68.5765C141.565 69.1999 141.505 69.6424 141.505 69.6424L140.082 68.7374C140.296 68.1945 140.378 67.6087 140.323 67.0277C140.271 66.613 140.125 66.2156 139.896 65.8667C139.666 65.5178 139.36 65.2269 139 65.0164C136.669 64.1583 134.179 63.8219 131.705 64.0308C132.154 64.9279 132.649 65.8007 133.188 66.6456C133.744 67.7295 134.514 68.6878 135.453 69.4614C136.046 69.8592 136.743 70.0715 137.457 70.0715C138.17 70.0715 138.868 69.8592 139.461 69.4614C140.238 70.114 140.95 70.8414 141.585 71.6336C141.585 71.6336 141.585 72.2572 141.585 72.8605V74.0874V75.7166C141.585 75.7166 141.585 76.7222 141.585 77.7279C141.585 78.2307 141.585 78.7336 141.585 79.1157C141.585 79.4978 141.585 79.7593 141.585 79.7593L140.283 78.6732C140.558 78.2365 140.723 77.7395 140.765 77.2245C140.807 76.7097 140.724 76.1923 140.523 75.7166C140.324 75.3604 140.067 75.0407 139.762 74.7713C138.299 73.4638 133.89 72.76 132.707 72.76C133.035 73.7813 133.423 74.782 133.87 75.7567C134.243 76.8455 134.837 77.8452 135.613 78.6933C136.146 79.182 136.813 79.4987 137.528 79.6027C138.242 79.7067 138.972 79.593 139.621 79.2765C140.291 80.0322 140.882 80.8544 141.384 81.7303C141.384 81.7303 141.384 81.8912 141.384 82.1124C141.384 82.3338 141.384 82.6555 141.384 82.9572L141.225 84.1841C141.225 84.1841 141.225 84.6065 141.084 85.23C140.944 85.8534 140.884 86.6982 140.724 87.5229C140.563 88.3475 140.443 89.1923 140.303 89.7956C140.162 90.3991 140.062 90.8416 140.062 90.8416C139.661 90.3789 139.261 89.9163 138.96 89.5342C139.456 89.014 139.744 88.3293 139.77 87.61C139.796 86.8906 139.557 86.1869 139.1 85.6322C137.838 84.0836 133.589 82.736 132.447 82.4343C132.447 82.9371 132.767 84.1237 133.068 85.3909C133.291 86.5788 133.725 87.7166 134.351 88.7498C134.799 89.3252 135.41 89.7518 136.103 89.9742C136.797 90.1965 137.541 90.2044 138.239 89.9968C138.798 90.8479 139.262 91.7584 139.621 92.7121L138.94 95.0652C138.94 95.0652 138.94 95.4675 138.719 95.8496C138.499 96.2317 138.459 96.614 138.459 96.614L137.818 98.6253C137.68 99.0692 137.52 99.5055 137.337 99.9326C137.196 100.295 137.096 100.516 137.096 100.516C136.776 100.013 136.455 99.4901 136.214 99.0677C136.618 98.7499 136.933 98.3332 137.13 97.8577C137.327 97.3821 137.398 96.8637 137.337 96.3524C137.272 95.9621 137.136 95.5871 136.936 95.2463C135.914 93.5366 131.926 91.5454 130.924 91.0829C130.924 91.3444 130.924 91.8069 130.924 92.3701C130.924 92.9333 130.924 93.5769 131.064 94.2808C131.293 95.3661 131.699 96.4059 132.266 97.3581C132.626 97.993 133.169 98.5037 133.824 98.8232C134.478 99.1427 135.214 99.2559 135.934 99.1482C136.362 100.074 136.684 101.046 136.896 102.044L135.874 104.297L135.753 104.559C135.753 104.719 135.573 104.961 135.413 105.242L134.371 107.254C133.99 107.998 133.529 108.722 133.228 109.265L132.707 110.19C132.467 109.627 132.226 109.064 132.046 108.601C132.56 108.308 132.988 107.885 133.288 107.374C133.467 106.994 133.56 106.578 133.56 106.158C133.56 105.737 133.467 105.321 133.288 104.941C132.627 103.11 128.94 100.476 127.957 99.8319C127.957 100.073 127.958 100.496 127.817 101.039C127.677 101.582 127.657 102.185 127.617 102.829C127.471 104.031 127.539 105.25 127.817 106.429C128.063 107.119 128.514 107.716 129.109 108.14C129.704 108.565 130.414 108.796 131.144 108.802C131.407 109.788 131.555 110.8 131.585 111.819C131.585 111.819 131.264 112.342 130.924 112.845C130.583 113.348 130.603 113.368 130.463 113.549L130.222 113.871L129.28 115.178L130.663 116.184L131.465 115.058L132.006 114.273L132.246 113.911L133.569 111.9C133.91 111.397 134.19 110.834 134.431 110.452C134.671 110.07 134.811 109.768 134.811 109.768C135.274 109.534 135.749 109.326 136.234 109.144L137.717 108.561C138.065 109.226 138.637 109.745 139.331 110.026C140.025 110.306 140.796 110.328 141.505 110.09C142.842 109.474 144.022 108.559 144.952 107.415C145.494 106.811 146.014 106.208 146.435 105.645C146.857 105.081 147.156 104.639 147.337 104.357C146.756 104.257 145.333 104.056 143.85 103.935C142.51 103.779 141.153 103.861 139.842 104.176C139.406 104.309 139.003 104.531 138.658 104.829C138.312 105.127 138.033 105.494 137.838 105.906C137.582 106.461 137.452 107.065 137.457 107.676C136.976 107.797 136.355 107.917 135.773 108.018C135.773 108.018 136.154 107.254 136.555 106.509L137.076 105.464C137.14 105.299 137.214 105.137 137.297 104.981C137.297 104.981 137.457 104.639 137.677 104.116C137.898 103.593 138.239 102.909 138.519 102.205L139.641 99.3895C140.481 98.7748 141.366 98.2235 142.286 97.7402C142.709 98.2812 143.294 98.6711 143.954 98.8522C144.616 99.0332 145.317 98.9961 145.955 98.7458L146.276 98.605C147.471 97.7832 148.471 96.7046 149.2 95.4474C149.889 94.3564 150.505 93.2208 151.045 92.0482C148.522 91.9411 146.001 92.3025 143.609 93.1143C142.818 93.5395 142.227 94.263 141.965 95.1256C141.859 95.731 141.859 96.3505 141.965 96.9559L141.305 97.2173L140.283 97.5592L140.483 96.9559L140.623 96.5536C140.623 96.3123 140.804 95.9703 140.904 95.6284C141.084 94.9647 141.285 94.301 141.285 94.301L141.485 93.5567C141.667 93.0156 141.821 92.465 141.946 91.9074Z" fill="url(#paint6_linear_367_15149)"/>
<path fill-rule="evenodd" clip-rule="evenodd" d="M56.1184 141.226C56.1153 141.081 56.1137 140.936 56.1137 140.791C56.1137 140.336 56.1288 139.885 56.1584 139.438L55.9134 139.354L54.731 139.093C54.5706 139.093 54.359 138.99 54.1474 138.887C54.0945 138.861 54.0416 138.835 53.9895 138.811L52.8471 138.369C52.3119 137.493 51.8878 136.554 51.5846 135.573C52.1691 135.135 52.6068 134.53 52.8396 133.836C53.0723 133.142 53.089 132.394 52.8872 131.691C52.4121 130.569 51.7325 129.546 50.8831 128.674C50.4623 128.171 50.0415 127.709 49.6807 127.327L48.859 126.421C48.4181 127.528 46.9953 131.832 47.5163 133.702C47.5973 134.13 47.7749 134.534 48.0354 134.883C48.2959 135.232 48.6325 135.516 49.0193 135.714C49.5569 135.941 50.1421 136.031 50.7228 135.975C50.843 136.438 50.9832 137.041 51.1235 137.644L50.1616 137.202L48.0975 136.156L46.0934 135.09C45.5122 134.809 45.1515 134.587 45.1515 134.587L43.0271 133.36C42.599 132.429 42.2828 131.45 42.0852 130.444C42.7465 130.122 43.2932 129.604 43.6517 128.96C44.0102 128.316 44.1629 127.578 44.0893 126.844C43.8316 125.723 43.3841 124.655 42.7665 123.686L41.7645 122.057C41.6786 121.928 41.5984 121.805 41.5241 121.692C41.3208 121.382 41.1604 121.138 41.043 120.991C40.4217 121.997 38.3375 125.959 38.5179 127.95C38.5719 128.668 38.8882 129.34 39.4062 129.837C39.9241 130.335 40.6071 130.622 41.3236 130.645C41.3236 131.108 41.3236 131.731 41.4439 132.335L40.9229 131.993C40.7973 131.906 40.6536 131.816 40.5009 131.722C40.2634 131.573 40.0044 131.412 39.7604 131.228L38.077 130.042L37.4357 129.539L36.7944 129.036L34.7903 127.507C34.5279 126.521 34.3668 125.51 34.3094 124.491C35.0005 124.258 35.6047 123.82 36.0415 123.234C36.4783 122.649 36.7269 121.943 36.7542 121.212C36.6714 120.004 36.3586 118.823 35.8324 117.733C35.3515 116.506 34.8304 115.42 34.6099 114.977C33.8484 115.882 31.2029 119.482 31.0828 121.474C31.0502 121.913 31.1223 122.353 31.2931 122.759C31.4639 123.165 31.7284 123.524 32.0647 123.807C32.4979 124.198 33.0214 124.474 33.5878 124.611C33.5878 125.094 33.5878 125.697 33.4675 126.281L32.6659 125.597C32.3649 125.332 32.0247 125.005 31.6599 124.654C31.4418 124.444 31.2149 124.226 30.9825 124.008L30.0606 123.143L29.3191 122.359L28.5976 121.594C28.5976 121.594 28.1768 121.152 27.776 120.689L26.9743 119.764C26.844 118.756 26.844 117.735 26.9743 116.727C27.6933 116.608 28.3595 116.274 28.8854 115.767C29.4113 115.261 29.7722 114.607 29.9203 113.891C29.9916 113.364 29.9916 112.829 29.9203 112.302C29.9203 111.891 29.8208 111.46 29.72 111.023C29.6777 110.84 29.6352 110.656 29.5997 110.472C29.4794 109.848 29.299 109.144 29.1387 108.621C29.0511 108.336 28.9814 108.062 28.9232 107.833C28.8748 107.643 28.8344 107.484 28.798 107.374C27.8962 108.139 24.6696 111.397 24.2688 113.207C24.2007 113.6 24.2007 114.001 24.2688 114.394C24.3232 114.703 24.4246 115.001 24.5695 115.279C24.704 115.522 24.8805 115.74 25.0905 115.922C25.4096 116.221 25.775 116.466 26.1727 116.647C26.1727 116.969 26.0463 117.359 25.9154 117.763C25.8584 117.94 25.8005 118.119 25.7518 118.296L24.5092 116.707C23.868 115.922 23.3068 115.098 23.3068 115.098L21.924 116.103L22.2848 116.606H21.2826H20.5812C20.5009 115.995 20.2815 115.41 19.94 114.897C19.6867 114.52 19.3614 114.199 18.9828 113.95C18.6044 113.701 18.1803 113.531 17.7354 113.449C15.206 113.418 12.6927 113.855 10.3203 114.736C10.341 114.758 10.3631 114.783 10.3866 114.808C10.6131 115.057 10.9667 115.445 11.4025 115.882C11.8835 116.365 12.5048 116.888 13.126 117.411C14.2036 118.352 15.4773 119.039 16.8536 119.422H17.2144C17.8872 119.472 18.5583 119.303 19.1286 118.941C19.6987 118.579 20.1377 118.043 20.3809 117.411C21.4092 117.611 22.426 117.866 23.4271 118.175L24.0083 118.919C24.2366 119.229 24.537 119.585 24.855 119.961C25.0115 120.146 25.1724 120.336 25.331 120.528L26.6937 122.097L27.3552 122.781L28.5174 124.008C28.7761 124.298 29.0504 124.573 29.3392 124.832L29.7199 125.194C29.1502 125.302 28.5747 125.375 27.9964 125.416C27.8234 124.827 27.5221 124.284 27.1146 123.827C26.8075 123.508 26.4404 123.252 26.0344 123.076C25.6286 122.9 25.1919 122.807 24.7498 122.801C22.25 123.181 19.8393 124.012 17.6352 125.255C18.6517 126.084 19.723 126.843 20.8417 127.528C22.0617 128.291 23.4267 128.791 24.8499 128.996C25.6204 129.005 26.3683 128.736 26.9571 128.238C27.546 127.739 27.9362 127.044 28.0565 126.281C29.0973 126.284 30.136 126.372 31.1629 126.542L31.724 127.065L33.0067 128.171C33.4675 128.573 33.9285 128.976 34.3094 129.257L34.9106 129.74L36.0128 130.585C36.2544 130.795 36.5087 130.99 36.7743 131.168L37.115 131.41L37.636 131.792L36.6541 132.073L35.9726 132.254C35.6845 131.71 35.3048 131.22 34.8504 130.806C34.4984 130.533 34.0952 130.333 33.6649 130.219C33.2346 130.105 32.7859 130.079 32.3453 130.142C29.9241 130.861 27.6553 132.02 25.6516 133.561C26.7746 134.197 27.9397 134.755 29.1387 135.231C30.4613 135.824 31.8993 136.112 33.3474 136.076H33.6881C34.3471 135.901 34.9335 135.52 35.3624 134.989C35.7911 134.457 36.0401 133.802 36.0729 133.119C37.1028 132.984 38.1406 132.917 39.1793 132.918L41.7244 134.567L44.3297 136.076L44.7907 136.337L45.8328 136.88L47.3359 137.644C46.834 137.911 46.3188 138.153 45.7927 138.369C45.4329 137.87 44.9675 137.458 44.4299 137.162C44.0443 136.941 43.6177 136.803 43.1765 136.754C42.7351 136.706 42.2887 136.749 41.8648 136.88C39.6047 138.029 37.5683 139.575 35.8525 141.446L37.3355 141.948C37.9968 142.15 38.7784 142.351 39.5801 142.512C40.9723 142.894 42.4345 142.942 43.8488 142.652C44.5682 142.438 45.1889 141.976 45.5999 141.346C46.0109 140.716 46.1858 139.961 46.0934 139.213C47.0945 138.915 48.1115 138.673 49.1396 138.489L49.841 138.811C49.9306 138.852 50.0282 138.897 50.1322 138.945C50.4937 139.114 50.9329 139.319 51.3841 139.475L53.6688 140.38L54.0696 140.541L54.9715 140.843L56.1184 141.226ZM97.5785 140.943C97.4277 140.995 96.9176 141.141 96.1883 141.34C96.1932 141.157 96.1956 140.974 96.1956 140.791C96.1956 140.35 96.1814 139.911 96.1536 139.477L97.2579 139.113L97.6185 138.992L98.4202 138.71L99.5425 138.248C100.127 137.423 100.599 136.523 100.945 135.573C100.379 135.118 99.9619 134.503 99.7476 133.807C99.5331 133.112 99.5316 132.367 99.7429 131.671C100.228 130.554 100.906 129.533 101.747 128.654C102.168 128.151 102.589 127.689 102.949 127.306L103.771 126.401C104.212 127.528 105.635 131.812 105.114 133.682C105.037 134.114 104.858 134.522 104.593 134.872C104.329 135.222 103.985 135.503 103.591 135.694C103.053 135.921 102.468 136.011 101.887 135.955C101.767 136.418 101.627 137.021 101.486 137.624L102.448 137.202C102.675 137.092 102.932 136.976 103.206 136.853C103.633 136.66 104.1 136.45 104.553 136.216L106.557 135.15C106.872 135.006 107.18 134.845 107.479 134.668L109.603 133.441C110.024 132.509 110.333 131.53 110.525 130.524C109.864 130.203 109.317 129.685 108.958 129.041C108.6 128.397 108.447 127.658 108.521 126.924C108.779 125.803 109.226 124.735 109.844 123.766L110.866 122.137C111.166 121.655 111.427 121.293 111.587 121.071L111.594 121.085C112.109 122.034 114.272 126.029 114.092 128.031C114.063 128.424 113.954 128.807 113.772 129.157C113.522 129.611 113.161 129.994 112.723 130.269C112.284 130.543 111.783 130.701 111.266 130.726C111.146 131.208 111.146 131.812 111.146 132.415L111.667 132.073L111.724 132.038C112.037 131.842 112.433 131.593 112.83 131.309L114.473 130.142L115.114 129.68L115.756 129.177L117.76 127.648C118.03 126.67 118.191 125.665 118.241 124.652C117.522 124.406 116.9 123.94 116.461 123.319C116.022 122.698 115.789 121.953 115.796 121.192C115.88 119.986 116.186 118.807 116.698 117.712C117.199 116.506 117.7 115.399 117.94 114.957C119.567 116.84 120.765 119.057 121.447 121.453C121.491 121.877 121.436 122.304 121.286 122.702C121.137 123.1 120.897 123.458 120.585 123.746C120.152 124.137 119.629 124.414 119.062 124.551C119.07 124.734 119.091 124.942 119.113 125.165C119.146 125.504 119.183 125.876 119.183 126.24L119.964 125.536C120.294 125.261 120.681 124.89 121.091 124.496C121.279 124.316 121.472 124.131 121.668 123.948L122.55 123.103L123.291 122.318L124.012 121.554C124.012 121.554 124.453 121.112 124.874 120.649L125.676 119.724C125.786 118.714 125.786 117.696 125.676 116.687C124.954 116.567 124.286 116.229 123.76 115.719C123.234 115.209 122.874 114.55 122.73 113.831C122.659 113.31 122.659 112.782 122.73 112.262C122.81 111.679 122.91 111.115 123.051 110.432C123.191 109.748 123.331 109.084 123.512 108.561C123.542 108.471 123.573 108.384 123.603 108.298C123.748 107.886 123.872 107.534 123.872 107.334C124.774 108.119 128.001 111.256 128.381 113.167C128.449 113.56 128.449 113.961 128.381 114.354C128.33 114.669 128.229 114.975 128.081 115.259C127.936 115.495 127.76 115.711 127.56 115.902C127.242 116.198 126.876 116.437 126.477 116.606C126.578 117.069 126.718 117.672 126.878 118.276L128.121 116.687C128.762 115.902 129.343 115.058 129.343 115.058L130.726 116.063L130.365 116.566H131.367H132.069C132.152 115.961 132.372 115.384 132.71 114.877C132.958 114.506 133.278 114.189 133.649 113.944C134.021 113.699 134.437 113.53 134.875 113.449C137.429 113.445 139.961 113.909 142.35 114.816C142.299 114.871 142.241 114.937 142.176 115.012C141.957 115.262 141.655 115.606 141.268 115.963C140.767 116.425 140.165 116.968 139.524 117.471C138.452 118.42 137.176 119.108 135.797 119.482H135.456C134.78 119.537 134.104 119.37 133.53 119.008C132.956 118.645 132.513 118.106 132.269 117.471C131.212 117.685 130.168 117.96 129.143 118.296L128.542 119.04C128.281 119.4 127.9 119.84 127.498 120.306C127.405 120.412 127.312 120.52 127.219 120.629L125.856 122.198C125.455 122.6 125.215 122.882 125.215 122.882C125.215 122.882 124.313 123.787 124.033 124.108C123.839 124.33 123.626 124.533 123.441 124.71C123.357 124.79 123.279 124.864 123.211 124.933L122.83 125.295L124.534 125.536C124.718 124.942 125.025 124.394 125.435 123.927C126.058 123.286 126.908 122.918 127.8 122.902C130.299 123.284 132.705 124.13 134.895 125.396C133.874 126.188 132.803 126.914 131.688 127.568C130.469 128.33 129.103 128.824 127.68 129.016C126.933 129.019 126.209 128.759 125.634 128.281C125.059 127.803 124.67 127.138 124.534 126.401C123.493 126.405 122.454 126.492 121.427 126.663L120.846 127.166L119.563 128.272C119.468 128.355 119.374 128.438 119.28 128.52C118.923 128.835 118.583 129.135 118.281 129.358C117.9 129.64 117.68 129.841 117.68 129.841L116.577 130.685C116.336 130.895 116.081 131.09 115.816 131.269L115.475 131.53L114.954 131.872L115.936 132.174L116.617 132.355C116.894 131.803 117.275 131.311 117.74 130.907C118.455 130.363 119.355 130.124 120.245 130.243C122.646 131.008 124.888 132.208 126.858 133.783C125.72 134.397 124.549 134.947 123.351 135.432C122.034 136.018 120.603 136.3 119.163 136.257C119.049 136.268 118.935 136.268 118.822 136.257C118.158 136.082 117.566 135.699 117.134 135.164C116.701 134.628 116.45 133.968 116.417 133.28C115.388 133.134 114.35 133.067 113.311 133.079L110.765 134.708L108.16 136.216L107.699 136.478L106.657 137.021L105.154 137.785C105.695 138.067 106.256 138.328 106.697 138.509C107.062 138.015 107.526 137.604 108.06 137.303C108.446 137.082 108.872 136.943 109.313 136.895C109.755 136.847 110.201 136.889 110.625 137.021C112.891 138.169 114.929 139.723 116.637 141.607C116.546 141.637 116.434 141.678 116.304 141.723C116.006 141.829 115.614 141.969 115.154 142.109C114.422 142.328 113.68 142.509 112.93 142.652C111.531 143.035 110.062 143.083 108.641 142.793C107.929 142.567 107.319 142.096 106.919 141.465C106.52 140.831 106.356 140.076 106.457 139.334C105.455 139.038 104.438 138.796 103.41 138.61L102.709 138.932C102.578 138.988 102.435 139.052 102.283 139.121C101.947 139.272 101.566 139.443 101.166 139.595L98.8812 140.48L98.4603 140.641L97.5785 140.943Z" fill="url(#paint7_linear_367_15149)"/>
<path d="M74.8623 2.4369C75.3672 1.07254 77.2968 1.07254 77.8018 2.43692L80.3146 9.22781C80.4734 9.65676 80.8115 9.99496 81.2406 10.1537L88.0313 12.6665C89.3958 13.1714 89.3958 15.1011 88.0313 15.606L81.2406 18.1189C80.8115 18.2776 80.4734 18.6158 80.3146 19.0448L77.8018 25.8356C77.2968 27.2 75.3672 27.2 74.8623 25.8356L72.3494 19.0448C72.1907 18.6158 71.8525 18.2776 71.4235 18.1189L64.6327 15.606C63.2683 15.1011 63.2683 13.1714 64.6327 12.6665L71.4235 10.1537C71.8525 9.99496 72.1907 9.65676 72.3494 9.22781L74.8623 2.4369Z" fill="url(#paint8_linear_367_15149)"/>
<path d="M39.7843 108.849V100.679H36.6602V98.8833H45.1136V100.679H41.9895V108.849H39.7843ZM55.7734 108.849H53.3702L51.6456 105.669C51.5042 105.424 51.3346 105.249 51.1367 105.146C50.9388 105.033 50.6891 104.976 50.3875 104.976H49.299V108.849H47.122V98.8833H51.7021C52.8708 98.8833 53.7519 99.1424 54.3456 99.6608C54.9488 100.17 55.2503 100.909 55.2503 101.88C55.2503 102.634 55.0383 103.266 54.6142 103.774C54.1996 104.283 53.6105 104.618 52.8472 104.778C53.3656 104.91 53.8038 105.282 54.1619 105.895L55.7734 108.849ZM51.377 103.308C52.0085 103.308 52.4655 103.199 52.7482 102.983C53.031 102.757 53.1723 102.408 53.1723 101.937C53.1723 101.456 53.031 101.107 52.7482 100.891C52.4655 100.674 52.0085 100.565 51.377 100.565H49.2707V103.308H51.377ZM57.8821 108.849V98.8833H64.7523V100.594H60.0308V102.926H64.4696V104.637H60.0308V107.139H64.7523V108.849H57.8821ZM73.6975 98.8833H75.7614V108.849H74.1216L69.1597 102.502V108.849H67.11V98.8833H68.7356L73.6975 105.202V98.8833ZM78.5879 98.8833H82.4613C83.5451 98.8833 84.4781 99.0812 85.2602 99.477C86.0424 99.8728 86.6409 100.443 87.0555 101.187C87.4702 101.932 87.6775 102.823 87.6775 103.859C87.6775 104.896 87.4702 105.791 87.0555 106.545C86.6503 107.29 86.0565 107.86 85.2744 108.256C84.4922 108.651 83.5544 108.849 82.4613 108.849H78.5879V98.8833ZM82.3058 107.068C84.4262 107.068 85.4864 105.998 85.4864 103.859C85.4864 101.729 84.4262 100.664 82.3058 100.664H80.7932V107.068H82.3058ZM90.2178 108.849V98.8833H92.4231V108.849H90.2178ZM101.836 98.8833H103.9V108.849H102.26L97.2985 102.502V108.849H95.2488V98.8833H96.8745L101.836 105.202V98.8833ZM115.293 103.35V108.227C114.813 108.463 114.247 108.647 113.597 108.779C112.947 108.911 112.278 108.977 111.59 108.977C110.534 108.977 109.62 108.774 108.847 108.369C108.074 107.954 107.481 107.365 107.066 106.602C106.651 105.829 106.444 104.915 106.444 103.859C106.444 102.823 106.647 101.923 107.052 101.159C107.467 100.386 108.056 99.7927 108.819 99.378C109.582 98.9634 110.473 98.756 111.491 98.756C112.207 98.756 112.871 98.855 113.484 99.0529C114.106 99.2508 114.62 99.5241 115.025 99.8728L114.332 101.442C113.87 101.112 113.418 100.876 112.975 100.735C112.542 100.584 112.07 100.509 111.561 100.509C109.639 100.509 108.678 101.626 108.678 103.859C108.678 105.009 108.927 105.867 109.427 106.432C109.926 106.997 110.68 107.28 111.689 107.28C112.235 107.28 112.777 107.21 113.314 107.068V104.877H111.364V103.35H115.293Z" fill="url(#paint9_linear_367_15149)"/>
<path d="M66.3129 127.226C65.6008 127.226 65.0234 127.804 65.0234 128.516V148.555C65.0234 149.268 65.6008 149.844 66.3129 149.844H86.3518C87.064 149.844 87.6413 149.268 87.6413 148.555V140.083C87.6413 139.675 87.1444 139.476 86.8624 139.77L82.3955 144.432C80.4868 146.423 78.4946 147.413 76.4187 147.402C74.3592 147.407 72.4033 146.484 70.551 144.632C68.5841 142.665 67.5477 140.531 67.4422 138.229C67.3592 136.104 68.1887 134.055 69.9308 132.082C70.1515 131.832 70.5306 131.829 70.7662 132.064L74.6883 135.987C74.9218 136.22 74.9242 136.6 74.7202 136.861C73.7724 138.072 73.7365 139.115 74.6126 139.992C75.4979 140.877 76.4857 140.75 77.5763 139.612L87.5155 129.24C87.5962 129.156 87.6413 129.044 87.6413 128.927V128.516C87.6413 127.804 87.064 127.226 86.3518 127.226H66.3129Z" fill="url(#paint10_linear_367_15149)"/>
</g>
</g>
</g>
<defs>
<linearGradient id="paint0_linear_367_15149" x1="55.8353" y1="138.535" x2="55.8353" y2="142.776" gradientUnits="userSpaceOnUse">
<stop stop-color="#B0B0B0"/>
<stop offset="1" stop-color="#666666"/>
</linearGradient>
<linearGradient id="paint1_linear_367_15149" x1="96.8314" y1="138.535" x2="96.8314" y2="142.776" gradientUnits="userSpaceOnUse">
<stop stop-color="#B0B0B0"/>
<stop offset="1" stop-color="#666666"/>
</linearGradient>
<linearGradient id="paint2_linear_367_15149" x1="65.023" y1="60.786" x2="65.023" y2="93.2994" gradientUnits="userSpaceOnUse">
<stop stop-color="#B0B0B0"/>
<stop offset="1" stop-color="#666666"/>
</linearGradient>
<linearGradient id="paint3_linear_367_15149" x1="90.4696" y1="64.3201" x2="90.4696" y2="81.2836" gradientUnits="userSpaceOnUse">
<stop stop-color="#B0B0B0"/>
<stop offset="1" stop-color="#666666"/>
</linearGradient>
<linearGradient id="paint4_linear_367_15149" x1="76.3337" y1="29.6862" x2="76.3337" y2="62.1996" gradientUnits="userSpaceOnUse">
<stop stop-color="#B0B0B0"/>
<stop offset="1" stop-color="#666666"/>
</linearGradient>
<linearGradient id="paint5_linear_367_15149" x1="30.9532" y1="2.82727" x2="30.9532" y2="116.043" gradientUnits="userSpaceOnUse">
<stop stop-color="#B0B0B0"/>
<stop offset="1" stop-color="#666666"/>
</linearGradient>
<linearGradient id="paint6_linear_367_15149" x1="121.765" y1="2.86731" x2="121.765" y2="116.184" gradientUnits="userSpaceOnUse">
<stop stop-color="#B0B0B0"/>
<stop offset="1" stop-color="#666666"/>
</linearGradient>
<linearGradient id="paint7_linear_367_15149" x1="76.3351" y1="107.334" x2="76.3351" y2="142.98" gradientUnits="userSpaceOnUse">
<stop stop-color="#B0B0B0"/>
<stop offset="1" stop-color="#666666"/>
</linearGradient>
<linearGradient id="paint8_linear_367_15149" x1="76.332" y1="1.41364" x2="76.332" y2="26.8589" gradientUnits="userSpaceOnUse">
<stop stop-color="#B0B0B0"/>
<stop offset="1" stop-color="#666666"/>
</linearGradient>
<linearGradient id="paint9_linear_367_15149" x1="76.3322" y1="96.1267" x2="76.3322" y2="113.09" gradientUnits="userSpaceOnUse">
<stop stop-color="#B0B0B0"/>
<stop offset="1" stop-color="#666666"/>
</linearGradient>
<linearGradient id="paint10_linear_367_15149" x1="76.3323" y1="127.226" x2="76.3323" y2="149.844" gradientUnits="userSpaceOnUse">
<stop stop-color="#B0B0B0"/>
<stop offset="1" stop-color="#666666"/>
</linearGradient>
<clipPath id="clip0_367_15149">
<rect width="152.672" height="152.672" fill="white"/>
</clipPath>
<clipPath id="clip1_367_15149">
<rect width="152.672" height="152.672" fill="white"/>
</clipPath>
<clipPath id="clip2_367_15149">
<rect width="152.672" height="152.672" fill="white"/>
</clipPath>
</defs>
</svg>
