<svg width="153" height="164" viewBox="0 0 153 164" fill="none" xmlns="http://www.w3.org/2000/svg">
<g clip-path="url(#clip0_367_15165)">
<g clip-path="url(#clip1_367_15165)">
<g clip-path="url(#clip2_367_15165)">
<mask id="mask0_367_15165" style="mask-type:luminance" maskUnits="userSpaceOnUse" x="0" y="0" width="153" height="153">
<path d="M152.672 0H0V152.672H152.672V0Z" fill="white"/>
</mask>
<g mask="url(#mask0_367_15165)">
<path d="M152.468 80.6244C151.913 79.5096 150.731 78.9552 149.177 79.0566C148.288 79.1305 147.417 79.3458 146.596 79.6944C146.108 79.8979 145.633 80.1309 145.174 80.392C144.641 80.675 144.125 80.9874 143.627 81.328C142.675 81.9949 141.846 82.822 141.177 83.7723C140.401 84.8438 139.739 85.9927 139.2 87.2002C139.493 86.2166 139.737 85.2627 139.988 84.3506C140.114 83.8974 140.245 83.4563 140.347 83.0151C140.449 82.5739 140.55 82.1448 140.652 81.7273C141.017 81.2637 141.455 80.8611 141.948 80.5351C142.45 80.1893 143.018 79.8734 143.585 79.5573C144.801 78.9524 145.957 78.2338 147.038 77.4111C149.888 75.0264 150.468 72.6894 149.427 71.1096C148.388 69.5297 146.214 70.567 144.535 72.3913C143.909 73.0687 143.371 73.8218 142.933 74.6329C142.67 75.098 142.431 75.6107 142.168 76.1651C141.906 76.7195 141.655 77.3038 141.416 77.9536C141.602 76.9997 141.787 76.1651 141.906 75.3841L142.211 73.4406C142.385 73.0828 142.563 72.7013 142.761 72.302C142.957 71.9025 143.137 71.4733 143.357 71.038C143.752 70.1557 144.165 69.2137 144.553 68.2539C145.278 66.4979 145.748 64.6466 145.944 62.7572C146.004 61.878 145.974 60.9952 145.855 60.1221C145.756 59.4476 145.565 58.7897 145.287 58.1667C144.785 57.1412 144.044 56.5451 143.142 56.5451C142.241 56.5451 141.476 57.1412 140.932 58.125C140.636 58.7063 140.422 59.3264 140.299 59.9671C140.119 60.7751 140.007 61.5967 139.965 62.4234C139.958 64.2351 140.137 66.0428 140.496 67.8186C140.646 68.7964 140.813 69.7801 140.974 70.7162C141.052 71.1811 141.147 71.6401 141.201 72.0694C141.255 72.4986 141.309 72.9159 141.363 73.2976C141.273 73.8281 141.165 74.4898 141.034 75.2231C140.903 75.9565 140.717 76.8209 140.526 77.7687C140.526 77.0951 140.526 76.4633 140.526 75.867C140.49 75.3083 140.416 74.7526 140.305 74.2037C140.151 73.3254 139.875 72.4727 139.487 71.6699C138.292 69.5119 136.392 68.1764 135.066 69.2853C133.739 70.3941 133.674 72.3318 135.556 75.247C136.305 76.3331 137.123 77.3705 138.005 78.353C138.406 78.8308 138.765 79.3414 139.08 79.8793C139.37 80.3797 139.573 80.9262 139.678 81.4949L139.361 82.7767C139.254 83.2119 139.116 83.647 138.991 84.1001C138.728 84.9944 138.477 85.9423 138.178 86.9081C138.369 85.619 138.396 84.3109 138.256 83.0151C138.122 81.8948 137.756 80.8147 137.181 79.8435C136.89 79.3492 136.567 78.8752 136.213 78.4245C135.884 78.0222 135.526 77.6436 135.143 77.2919C134.507 76.6935 133.779 76.2003 132.987 75.8312C131.577 75.2053 130.274 75.2351 129.402 75.8312C129.184 75.9816 129.011 76.1875 128.9 76.4274C128.79 76.6759 128.727 76.9428 128.715 77.2143C128.709 77.9145 128.854 78.6077 129.139 79.2473C129.302 79.6557 129.49 80.0537 129.701 80.4396C129.916 80.8391 130.155 81.2505 130.418 81.6619C130.976 82.5273 131.605 83.3448 132.3 84.1062C132.622 84.4698 132.945 84.8215 133.238 85.1554C133.53 85.4893 133.835 85.823 134.062 86.145C134.559 86.7566 134.997 87.4132 135.37 88.1065C135.546 88.4432 135.698 88.7918 135.824 89.1497C135.89 89.3345 135.95 89.5194 135.998 89.7101C136.046 89.9009 136.081 90.0916 136.111 90.3063C136.237 91.2041 136.237 92.1151 136.111 93.0129C135.914 93.5673 135.681 94.1099 135.448 94.6583C135.215 95.2068 134.988 95.7731 134.749 96.3396C134.9 95.6838 135.014 95.0518 135.09 94.4438C135.169 93.8512 135.195 93.2525 135.167 92.6552C135.125 91.5732 134.871 90.51 134.421 89.5253C133.627 87.7157 132.313 86.1822 130.645 85.1196C129.306 84.3565 128.01 84.2492 127.06 84.7499C126.827 84.8753 126.63 85.0575 126.487 85.2796C126.344 85.5017 126.26 85.7563 126.242 86.0198C126.206 86.3328 126.206 86.6489 126.242 86.9617C126.28 87.3352 126.352 87.7043 126.457 88.0646C126.721 88.936 127.067 89.7803 127.49 90.5865C127.94 91.4958 128.459 92.3687 129.044 93.1978C129.605 93.9668 130.125 94.6822 130.567 95.3738C130.986 96.0202 131.342 96.705 131.63 97.4186C131.912 98.1199 132.088 98.8595 132.15 99.6125C132.191 100.486 132.101 101.36 131.881 102.206C131.613 102.719 131.362 103.249 131.063 103.75C130.764 104.251 130.465 104.769 130.185 105.282C130.394 104.686 130.567 104.09 130.705 103.535C130.83 102.985 130.908 102.424 130.938 101.86C131.02 100.835 130.898 99.8037 130.579 98.8256C129.99 96.9497 128.857 95.2901 127.323 94.0561C126.08 93.15 124.802 92.8996 123.786 93.2752C123.543 93.3695 123.327 93.524 123.16 93.7243C122.993 93.9245 122.88 94.1639 122.83 94.4199C122.757 94.7262 122.724 95.041 122.735 95.3558C122.731 95.7255 122.761 96.0946 122.824 96.4587C122.981 97.3485 123.229 98.2195 123.565 99.0581C123.929 100.007 124.363 100.927 124.862 101.812C125.722 103.191 126.408 104.671 126.905 106.218C127.33 107.755 127.237 109.389 126.642 110.868L125.656 112.269C125.316 112.734 124.951 113.181 124.605 113.634C124.867 113.121 125.096 112.591 125.292 112.049C125.462 111.536 125.595 111.012 125.692 110.481C125.894 109.515 125.894 108.519 125.692 107.554C125.351 105.618 124.43 103.83 123.051 102.426C122.554 101.95 121.965 101.578 121.319 101.335C120.785 101.144 120.208 101.103 119.652 101.216C119.401 101.274 119.169 101.395 118.979 101.569C118.788 101.742 118.646 101.962 118.565 102.206C118.358 102.85 118.276 103.528 118.326 104.203C118.369 105.093 118.505 105.976 118.732 106.838C118.786 107.077 118.852 107.321 118.923 107.56C118.995 107.798 119.055 108.042 119.132 108.281C119.282 108.764 119.449 109.253 119.64 109.73C119.975 110.582 120.285 111.363 120.536 112.114C120.656 112.49 120.769 112.859 120.865 113.217C120.961 113.575 121.014 113.927 121.062 114.278C121.209 115.379 121.109 116.499 120.769 117.557C120.624 117.966 120.45 118.365 120.25 118.75C119.467 119.56 118.708 120.395 117.86 121.134C118.477 120.266 118.958 119.309 119.288 118.297C119.439 117.842 119.553 117.375 119.628 116.901C119.695 116.444 119.711 115.98 119.676 115.518C119.612 113.556 118.942 111.662 117.758 110.093C116.773 108.901 115.626 108.34 114.574 108.418C114.322 108.435 114.079 108.518 113.87 108.658C113.66 108.798 113.491 108.991 113.379 109.217C113.23 109.481 113.121 109.767 113.057 110.063C113.014 110.232 112.983 110.403 112.961 110.576C112.925 110.759 112.899 110.944 112.883 111.13C112.776 113.016 112.951 114.907 113.403 116.74C113.606 117.611 113.785 118.416 113.923 119.185C113.989 119.566 114.042 119.942 114.078 120.312C114.111 120.662 114.123 121.015 114.114 121.367C114.106 122.07 113.998 122.769 113.791 123.441C113.679 123.801 113.541 124.151 113.379 124.491C113.187 124.857 112.967 125.207 112.722 125.54C111.826 126.196 110.966 126.893 110.04 127.472C110.748 126.74 111.342 125.906 111.802 124.997C112.01 124.589 112.186 124.164 112.328 123.728C112.462 123.304 112.547 122.866 112.579 122.422C112.824 120.48 112.455 118.51 111.521 116.788C110.733 115.453 109.687 114.725 108.648 114.624C108.4 114.6 108.152 114.643 107.927 114.748C107.702 114.853 107.509 115.016 107.369 115.22C107.188 115.457 107.041 115.718 106.933 115.995C106.867 116.153 106.809 116.314 106.76 116.478C106.7 116.645 106.652 116.818 106.598 117.003C106.394 117.852 106.271 118.718 106.234 119.59C106.234 119.829 106.234 120.079 106.204 120.33C106.174 120.58 106.204 120.818 106.204 121.069C106.204 121.563 106.204 122.076 106.246 122.589C106.3 123.459 106.347 124.27 106.347 125.039C106.347 125.421 106.347 125.796 106.318 126.154C106.29 126.5 106.244 126.844 106.18 127.185C106.059 127.862 105.844 128.518 105.541 129.135C105.377 129.466 105.19 129.785 104.979 130.089C104.739 130.406 104.475 130.705 104.191 130.983L102.703 131.663C102.464 131.782 102.225 131.913 101.98 132.02L101.246 132.336C101.455 132.181 101.652 132.02 101.843 131.865C102.034 131.71 102.207 131.526 102.381 131.353C102.709 131.016 103.014 130.657 103.295 130.28C103.833 129.597 104.228 128.812 104.454 127.972C104.741 126.932 104.876 125.856 104.854 124.777C104.845 123.915 104.685 123.062 104.382 122.255C104.156 121.614 103.807 121.023 103.354 120.514C102.977 120.102 102.497 119.798 101.962 119.632C101.731 119.56 101.483 119.553 101.248 119.611C101.012 119.669 100.796 119.789 100.624 119.96C100.178 120.422 99.8229 120.964 99.5787 121.558C99.2348 122.353 98.9668 123.18 98.7782 124.026C98.7243 124.264 98.6706 124.503 98.6228 124.747C98.5751 124.992 98.5153 125.224 98.4734 125.463C98.3779 125.951 98.3002 126.458 98.2404 126.965C98.139 127.817 98.0373 128.61 97.8999 129.35C97.8342 129.719 97.7625 130.083 97.6729 130.423C97.5833 130.763 97.4818 131.084 97.3623 131.4C97.1271 132.037 96.8053 132.639 96.4064 133.189C96.1962 133.48 95.9645 133.755 95.7133 134.012C95.437 134.282 95.137 134.527 94.8172 134.745L93.252 135.186C92.7382 135.329 92.2423 135.484 91.7405 135.58C92.1716 135.366 92.5817 135.113 92.9652 134.822C93.3323 134.562 93.6816 134.277 94.0107 133.97C94.6392 133.413 95.1493 132.736 95.5102 131.979C95.9827 131.011 96.3147 129.981 96.496 128.92C96.5659 128.475 96.6018 128.024 96.6035 127.573C96.596 127.173 96.5581 126.775 96.49 126.381C96.3789 125.702 96.1353 125.052 95.7731 124.467C95.4808 123.993 95.0687 123.605 94.5783 123.34C94.3653 123.227 94.1254 123.173 93.8842 123.186C93.6432 123.199 93.4101 123.277 93.2102 123.412C92.6886 123.783 92.2426 124.251 91.8958 124.789C91.4087 125.505 90.9907 126.265 90.6472 127.06C90.5516 127.281 90.4501 127.507 90.3605 127.74C90.2708 127.972 90.1692 128.193 90.0797 128.426C89.8944 128.885 89.7212 129.361 89.5659 129.85C89.309 130.655 89.064 131.406 88.8012 132.098C88.5659 132.761 88.2677 133.399 87.9109 134.006C87.572 134.573 87.1603 135.094 86.6863 135.556C86.432 135.797 86.1626 136.022 85.8798 136.229L85.4138 136.539L85.1628 136.683L84.906 136.814L82.3729 137.034C83.0834 136.71 83.7151 136.236 84.2249 135.645C84.4562 135.367 84.6658 135.072 84.8521 134.763C85.0235 134.479 85.1751 134.184 85.3062 133.88C85.526 133.369 85.6631 132.825 85.7125 132.271C85.7766 131.876 85.7402 131.471 85.6066 131.094C85.473 130.717 85.2464 130.379 84.9478 130.113C84.3803 129.731 83.711 129.97 82.9762 130.643C82.5666 131.039 82.1927 131.47 81.8591 131.931C81.6679 132.181 81.5007 132.462 81.2976 132.736C81.0944 133.01 80.8972 133.284 80.7002 133.57C79.1826 135.991 78.3762 137.183 77.9818 137.744C77.9119 137.423 77.7488 137.131 77.5127 136.903C77.2768 136.675 76.9785 136.521 76.6555 136.462C77.4082 135.538 79.32 132.968 79.32 130.637C79.32 127.734 77.9938 126.303 76.3329 126.303C74.672 126.303 73.3458 127.734 73.3458 130.637C73.3458 132.968 75.2576 135.538 76.0163 136.462C75.6925 136.521 75.3934 136.674 75.1563 136.902C74.9194 137.13 74.755 137.423 74.6841 137.744C74.2957 137.201 73.4893 136.021 71.9717 133.57C71.7871 133.282 71.5876 133.004 71.3743 132.736C71.1771 132.462 71.004 132.181 70.8127 131.931C70.4809 131.468 70.107 131.037 69.6955 130.643C68.9607 129.97 68.2916 129.731 67.7241 130.113C67.4254 130.379 67.1989 130.717 67.0652 131.094C66.9316 131.471 66.8952 131.876 66.9593 132.271C67.011 132.826 67.1501 133.369 67.3715 133.88C67.5006 134.184 67.6503 134.479 67.8196 134.763C68.01 135.07 68.2195 135.364 68.447 135.645C68.9567 136.236 69.5885 136.71 70.299 137.034L67.7718 136.814L67.5089 136.688L67.2641 136.539C67.1028 136.438 66.9474 136.337 66.798 136.229C66.5138 136.024 66.2443 135.799 65.9915 135.556C65.5158 135.096 65.1039 134.575 64.7667 134.006C64.409 133.4 64.1108 132.761 63.8766 132.098C63.6079 131.406 63.3629 130.655 63.112 129.85C62.9566 129.361 62.7833 128.885 62.5981 128.426C62.5025 128.193 62.4129 127.966 62.3174 127.74C62.2218 127.513 62.1262 127.281 62.0305 127.06C61.6853 126.265 61.2652 125.505 60.7759 124.789C60.4293 124.251 59.9832 123.783 59.4617 123.412C59.2618 123.277 59.0287 123.199 58.7875 123.186C58.5465 123.173 58.3065 123.227 58.0936 123.34C57.604 123.606 57.1921 123.994 56.8988 124.467C56.5365 125.052 56.2929 125.702 56.1818 126.381C56.111 126.774 56.0729 127.173 56.0683 127.573C56.07 128.024 56.106 128.475 56.1758 128.92C56.3543 129.982 56.6863 131.012 57.1616 131.979C57.5226 132.736 58.0325 133.413 58.6611 133.97C59.0018 134.278 59.3632 134.563 59.7424 134.822C60.1275 135.109 60.5375 135.36 60.9672 135.574C60.4654 135.478 59.9695 135.323 59.4557 135.18L57.8904 134.739C57.5693 134.523 57.2691 134.278 56.9943 134.006C56.743 133.747 56.5095 133.473 56.2953 133.183C55.9003 132.632 55.581 132.03 55.3453 131.394C55.2259 131.078 55.1244 130.756 55.0288 130.417C54.9331 130.077 54.8675 129.713 54.8018 129.344C54.6703 128.598 54.5687 127.805 54.4672 126.959C54.4074 126.452 54.3298 125.945 54.2342 125.457C54.1865 125.218 54.1387 124.974 54.0848 124.741C54.0311 124.509 53.9833 124.258 53.9295 124.02C53.7417 123.173 53.4717 122.346 53.123 121.552C52.8807 120.958 52.528 120.416 52.0835 119.954C51.9099 119.783 51.6934 119.663 51.4567 119.605C51.22 119.547 50.9721 119.555 50.7393 119.626C50.2068 119.792 49.7284 120.096 49.3533 120.508C48.889 121.018 48.5297 121.613 48.2959 122.261C48.1503 122.648 48.0384 123.047 47.9613 123.453C47.8781 123.896 47.8302 124.345 47.8179 124.795C47.8012 125.874 47.9379 126.95 48.2241 127.99C48.45 128.83 48.8444 129.615 49.3831 130.297C49.6637 130.675 49.969 131.033 50.2971 131.371C50.4675 131.55 50.647 131.722 50.8349 131.883C51.026 132.044 51.2291 132.199 51.4323 132.354L50.6975 132.044C50.4525 131.931 50.2195 131.806 49.9746 131.686L48.5109 130.953C48.225 130.676 47.9614 130.377 47.7222 130.059C47.5096 129.757 47.3219 129.438 47.1607 129.105C46.8551 128.489 46.638 127.832 46.5155 127.156C46.4558 126.816 46.408 126.476 46.3781 126.124C46.3482 125.773 46.3482 125.391 46.3482 125.009C46.3482 124.24 46.396 123.43 46.4498 122.559C46.4856 122.046 46.4976 121.534 46.4917 121.039C46.4917 120.789 46.4917 120.544 46.4917 120.3C46.4917 120.055 46.4917 119.799 46.4917 119.56C46.4494 118.688 46.3254 117.822 46.1211 116.973C46.0734 116.788 46.0196 116.615 45.9659 116.448C45.9121 116.281 45.8524 116.115 45.7926 115.966C45.6843 115.688 45.5375 115.427 45.3565 115.19C45.2146 114.986 45.0208 114.824 44.7952 114.719C44.5694 114.614 44.3199 114.571 44.072 114.594C43.0325 114.696 41.9929 115.423 41.1985 116.758C40.2701 118.482 39.9026 120.451 40.147 122.392C40.1797 122.838 40.2639 123.278 40.3979 123.704C40.5372 124.139 40.713 124.562 40.9237 124.968C41.3892 125.88 41.9938 126.715 42.7159 127.442C41.7899 126.846 40.9237 126.166 40.0335 125.51C39.7895 125.179 39.5698 124.83 39.3763 124.467C39.215 124.125 39.0773 123.772 38.9641 123.412C38.7588 122.739 38.6483 122.04 38.6354 121.337C38.6298 120.985 38.6416 120.633 38.6713 120.282C38.7152 119.912 38.7689 119.537 38.8326 119.155C38.9641 118.386 39.1493 117.581 39.3524 116.711C39.8011 114.876 39.9762 112.986 39.8721 111.101C39.8721 110.904 39.8243 110.725 39.7945 110.546C39.7646 110.367 39.7347 110.195 39.6989 110.034C39.6315 109.738 39.5228 109.453 39.3763 109.187C39.2648 108.961 39.0957 108.768 38.8859 108.628C38.6763 108.488 38.4333 108.405 38.1814 108.388C37.124 108.311 35.977 108.865 34.9972 110.063C33.8137 111.632 33.1439 113.526 33.0794 115.489C33.0416 115.95 33.0575 116.414 33.1272 116.872C33.1975 117.346 33.3094 117.812 33.4618 118.267C33.7947 119.282 34.2802 120.241 34.9016 121.11C34.0652 120.359 33.3065 119.531 32.5119 118.726C32.3134 118.34 32.1398 117.941 31.9921 117.533C31.8742 117.163 31.7843 116.784 31.7232 116.401C31.6189 115.689 31.6189 114.966 31.7232 114.254C31.7711 113.898 31.8369 113.544 31.9204 113.193C32.01 112.83 32.1236 112.46 32.2489 112.084C32.4999 111.327 32.8046 110.546 33.1391 109.7C33.3304 109.223 33.5035 108.734 33.653 108.251C33.7246 108.013 33.7904 107.774 33.862 107.53C33.9337 107.285 33.9935 107.047 34.0532 106.808C34.2748 105.945 34.4108 105.063 34.4594 104.173C34.5089 103.498 34.4278 102.82 34.2205 102.176C34.1398 101.932 33.9973 101.712 33.8069 101.539C33.6163 101.366 33.3844 101.244 33.1332 101.186C32.5772 101.073 32.0004 101.114 31.4664 101.306C30.7843 101.553 30.1631 101.944 29.6442 102.45C28.2636 103.854 27.341 105.641 26.9976 107.577C26.8005 108.545 26.8005 109.543 26.9976 110.51C27.0994 111.039 27.2351 111.561 27.4039 112.073C27.5965 112.608 27.822 113.132 28.079 113.64C27.7325 113.181 27.3681 112.74 27.0276 112.275L26.0417 110.868C25.4466 109.391 25.3543 107.759 25.7789 106.224C26.2747 104.676 26.9589 103.194 27.8161 101.812C28.3093 100.923 28.7366 99.9982 29.0946 99.0461C29.4375 98.207 29.6978 97.3365 29.8712 96.4469C29.9297 96.0821 29.9577 95.7132 29.9549 95.3439C29.9721 95.0296 29.9439 94.7143 29.8712 94.408C29.8205 94.1517 29.7058 93.9125 29.5376 93.7123C29.3695 93.5123 29.1534 93.3578 28.9094 93.2632C27.8998 92.8878 26.6154 93.1381 25.3786 94.0443C23.8415 95.275 22.7078 96.9357 22.1227 98.8137C21.8011 99.7911 21.6792 100.823 21.7642 101.848C21.7935 102.414 21.8715 102.977 21.9972 103.529C22.1346 104.126 22.3079 104.68 22.517 105.276L21.6327 103.744C21.34 103.237 21.0891 102.713 20.8142 102.2C20.5967 101.354 20.5081 100.479 20.5515 99.6066C20.6141 98.8521 20.7872 98.111 21.0652 97.4067C21.3497 96.6992 21.6976 96.0188 22.1047 95.3738C22.5468 94.6882 23.0666 93.9668 23.6221 93.1978C24.2211 92.37 24.7544 91.4969 25.2173 90.5865C25.639 89.7802 25.983 88.9358 26.2448 88.0646C26.3545 87.7007 26.4304 87.3275 26.4719 86.9498C26.5081 86.6369 26.5081 86.3209 26.4719 86.0079C26.4531 85.7447 26.3682 85.4905 26.2252 85.2686C26.0823 85.0468 25.8856 84.8643 25.6534 84.7381C24.6915 84.2372 23.3951 84.3445 22.0688 85.1077C20.3988 86.1699 19.0826 87.7033 18.2872 89.5134C17.8516 90.4956 17.6083 91.5519 17.5703 92.6254C17.539 93.2227 17.565 93.8216 17.648 94.4139C17.7236 95.03 17.8371 95.6619 17.9885 96.3097L17.2656 94.6285C17.0386 94.0741 16.7995 93.5315 16.6084 92.9771C16.4795 92.0795 16.4795 91.1681 16.6084 90.2706C16.6383 90.0679 16.6742 89.877 16.7219 89.6743C16.7697 89.4716 16.8295 89.2987 16.8892 89.1199C17.0096 88.7642 17.1554 88.4175 17.3253 88.0826C17.6969 87.3882 18.1351 86.7313 18.6337 86.1212C18.8906 85.7993 19.1654 85.4713 19.4522 85.1315L20.3961 84.0823C21.0865 83.3194 21.7139 82.502 22.272 81.638C22.5409 81.2266 22.7798 80.8153 22.989 80.4158C23.2094 80.0294 23.4088 79.6313 23.5864 79.2235C23.8721 78.584 24.0167 77.8906 24.0105 77.1906C23.9936 76.919 23.9289 76.6527 23.8193 76.4036C23.7126 76.1629 23.541 75.9563 23.3234 75.8073C22.4273 75.2112 21.125 75.1695 19.7389 75.8073C18.9459 76.1752 18.2176 76.6684 17.5823 77.268C17.1958 77.618 16.8363 77.9968 16.5069 78.4008C16.1507 78.8486 15.8234 79.3185 15.5271 79.8078C14.9526 80.7819 14.5847 81.8635 14.4457 82.9853C14.3114 84.2793 14.3396 85.5851 14.5294 86.8724C14.2248 85.9066 13.9738 84.9645 13.7109 84.0643C13.5914 83.6172 13.454 83.176 13.3465 82.7409C13.239 82.3056 13.1374 81.8824 13.0358 81.471C13.1435 80.903 13.3454 80.357 13.6333 79.8554C13.9504 79.3175 14.3121 78.8069 14.7146 78.3292C15.5893 77.3538 16.4013 76.3244 17.1462 75.247C19.028 72.3079 18.9384 70.3882 17.636 69.2853C16.3336 68.1824 14.374 69.5119 13.2151 71.6699C12.8268 72.4734 12.5495 73.3259 12.3906 74.2037C12.2788 74.7522 12.2069 75.3082 12.1755 75.867C12.1424 76.5006 12.1424 77.1353 12.1755 77.7687C11.9844 76.8209 11.7872 75.9802 11.6618 75.2231L11.3392 73.2976C11.387 72.9159 11.4407 72.5047 11.5005 72.0694C11.5602 71.6342 11.6498 71.1811 11.7275 70.7162C11.8888 69.7801 12.0561 68.7964 12.2054 67.8186C12.5614 66.0525 12.7375 64.2547 12.7312 62.4532C12.6877 61.627 12.5779 60.8056 12.4026 59.9969C12.2747 59.3567 12.0596 58.7368 11.7633 58.1548C11.1958 57.1412 10.4371 56.5451 9.55883 56.5451C8.68062 56.5451 7.88605 57.1412 7.38421 58.1906C7.10373 58.8045 6.91069 59.4548 6.81067 60.1221C6.69579 60.9876 6.66777 61.8623 6.72704 62.7334C6.7808 64.3251 7.41408 66.3104 8.11306 68.23C8.49542 69.1899 8.91361 70.1319 9.30792 71.0141C9.51104 71.4494 9.69026 71.8786 9.90534 72.2781C10.1204 72.6776 10.2817 73.0591 10.449 73.4167C10.5326 73.9473 10.6402 74.6091 10.7597 75.3602C10.8791 76.1114 11.0643 76.9758 11.2436 77.9298C11.0106 77.2979 10.7597 76.7374 10.4968 76.1412C10.2339 75.5451 9.99495 75.08 9.73209 74.6151C9.29251 73.8052 8.75476 73.0523 8.13099 72.3735C6.42235 70.585 4.18202 69.5356 3.21419 71.1275C2.24635 72.7193 2.78404 75.0264 5.62778 77.4111C6.71684 78.2268 7.88107 78.9374 9.10479 79.5335C9.70222 79.8495 10.2399 80.1296 10.7477 80.5112C11.2382 80.8404 11.6754 81.2424 12.0441 81.7036L12.3428 82.9912C12.4444 83.4265 12.5818 83.8736 12.7013 84.3267C12.9582 85.2388 13.1971 86.1927 13.4959 87.1705C12.9525 85.9614 12.2837 84.8124 11.5005 83.7424C10.8354 82.7895 10.006 81.9618 9.05102 81.2981C8.55442 80.9679 8.03985 80.6653 7.50967 80.392C7.04631 80.1325 6.56747 79.9015 6.07585 79.7005C5.25515 79.3519 4.38384 79.1364 3.49498 79.0625C1.94167 78.9611 0.752799 79.5156 0.203168 80.6305C0.0674935 80.909 -0.00201395 81.215 4.44181e-05 81.5247C0.00340995 81.8684 0.0723465 82.2082 0.203168 82.5263C0.541534 83.3086 1.02152 84.0221 1.61907 84.6308C1.96206 84.9908 2.32718 85.3294 2.71235 85.6442C3.12976 85.976 3.56665 86.2826 4.02071 86.5624C4.96132 87.1462 5.96295 87.626 7.00783 87.9931L8.3819 88.4641L9.66039 88.8994C10.4319 89.1634 11.1828 89.4842 11.9067 89.8592C12.2484 90.0387 12.5795 90.2378 12.8984 90.4553C13.0538 90.5686 13.2091 90.6938 13.3644 90.8189C13.5197 90.9442 13.6811 91.0754 13.8304 91.2184C14.5096 91.8492 15.1022 92.5669 15.5929 93.3527C15.784 93.9131 16.017 94.4675 16.244 95.028L16.931 96.733C16.5786 96.1369 16.2082 95.6182 15.8258 95.1173C15.4435 94.6166 15.0431 94.1575 14.6609 93.7224C13.9177 92.8898 13.0341 92.1937 12.0501 91.6655C9.83962 90.4732 7.86812 89.9128 6.28494 89.9784C4.70177 90.044 3.58459 90.7296 3.16042 91.8981C3.06269 92.2122 3.03031 92.5428 3.06524 92.8698C3.10017 93.1969 3.20168 93.5134 3.36354 93.7998C3.53862 94.16 3.76169 94.4949 4.02669 94.7955C4.32706 95.1408 4.65254 95.4637 5.00048 95.7612C5.79259 96.4271 6.66333 96.9936 7.5933 97.4484C8.58948 97.9297 9.63514 98.3015 10.7119 98.5573L13.3883 99.1535C14.1764 99.324 14.9511 99.551 15.7064 99.8331C16.4302 100.11 17.1132 100.483 17.7376 100.942C18.4654 101.456 19.1275 102.056 19.7091 102.73C19.9779 103.255 20.2289 103.792 20.5216 104.31L21.3998 105.872C20.9876 105.377 20.5694 104.918 20.1392 104.495C19.7091 104.072 19.3087 103.66 18.8787 103.303C18.0533 102.622 17.126 102.075 16.1305 101.681C13.8065 100.727 11.7454 100.405 10.1921 100.638C8.6388 100.87 7.61122 101.663 7.33044 102.88C7.27403 103.207 7.28354 103.542 7.35844 103.865C7.43332 104.189 7.57207 104.494 7.76655 104.763C7.98755 105.098 8.24392 105.408 8.53125 105.687C8.87061 106.004 9.23636 106.291 9.62455 106.546C10.4927 107.121 11.4275 107.59 12.4085 107.941C13.4551 108.315 14.5418 108.565 15.6466 108.686C17.3366 108.814 19.0181 109.037 20.6829 109.354C22.2693 109.749 23.7341 110.527 24.9485 111.619L25.9402 113.062C26.2807 113.539 26.6452 113.998 26.9976 114.463C26.5435 114.058 26.0717 113.688 25.6176 113.336C25.1845 112.991 24.7316 112.67 24.2614 112.377C23.3839 111.836 22.4348 111.42 21.4416 111.143C19.0161 110.487 16.9012 110.421 15.4075 110.832C14.7366 110.998 14.1196 111.333 13.6153 111.804C13.1741 112.234 12.9026 112.807 12.8506 113.42C12.8377 113.755 12.8918 114.09 13.0097 114.404C13.1277 114.718 13.3072 115.006 13.5377 115.25C14.1167 115.911 14.8267 116.445 15.6227 116.818C16.5732 117.283 17.5761 117.634 18.6098 117.861C18.8807 117.921 19.1494 117.975 19.4163 118.022C19.6911 118.07 19.9779 118.1 20.2528 118.13C20.8109 118.179 21.3712 118.199 21.9314 118.189L24.6019 118.118C25.0141 118.118 25.4025 118.118 25.7969 118.118C26.1911 118.118 26.5735 118.118 26.9439 118.171C27.6927 118.235 28.4309 118.389 29.1423 118.63C29.5177 118.762 29.8846 118.915 30.2416 119.089C30.6508 119.265 31.0498 119.465 31.4365 119.686C32.225 120.526 32.9898 121.379 33.8263 122.154C32.8952 121.569 31.9251 121.049 30.9227 120.598C30.0062 120.218 29.0444 119.957 28.0611 119.823C25.5519 119.513 23.437 119.739 22.0211 120.335C20.6052 120.932 19.7807 121.993 19.8405 123.269C19.9225 123.953 20.27 124.578 20.8083 125.009C21.1206 125.283 21.461 125.523 21.824 125.725C22.0151 125.832 22.2183 125.94 22.4214 126.035C22.6245 126.13 22.8694 126.214 23.1084 126.291C25.1962 126.973 27.4197 127.135 29.5845 126.762L32.1773 126.291C32.5776 126.226 32.96 126.166 33.3363 126.118C33.7127 126.071 34.095 126.017 34.4655 125.987C35.201 125.928 35.9409 125.957 36.6699 126.071C37.0534 126.132 37.4326 126.217 37.8051 126.327C38.1993 126.434 38.6056 126.56 38.9999 126.72C39.908 127.406 40.7922 128.127 41.7301 128.736C40.7593 128.337 39.761 128.008 38.743 127.752C38.2673 127.64 37.7841 127.562 37.2973 127.519C36.8305 127.477 36.3617 127.461 35.8933 127.472C33.3661 127.561 31.2991 128.103 29.9907 128.908C29.391 129.256 28.8958 129.759 28.557 130.363C28.2597 130.909 28.1706 131.545 28.306 132.152C28.5003 132.825 28.9533 133.395 29.5666 133.737C30.1223 134.083 30.7263 134.344 31.3588 134.512C31.5919 134.572 31.8367 134.62 32.0876 134.661C33.1497 134.836 34.2294 134.878 35.3018 134.787C35.5766 134.787 35.8514 134.739 36.1323 134.703C36.4131 134.667 36.6938 134.602 36.9686 134.542C37.5216 134.424 38.0664 134.271 38.5997 134.083C39.4958 133.773 40.2963 133.487 41.049 133.207C41.4255 133.07 41.7839 132.95 42.1483 132.837C42.5127 132.724 42.8653 132.605 43.2236 132.515C43.9238 132.327 44.6436 132.221 45.3684 132.199C45.7472 132.188 46.1262 132.2 46.5035 132.235C46.918 132.263 47.3308 132.313 47.7402 132.384L49.2397 133.153C49.4907 133.278 49.7356 133.41 49.9866 133.529L50.7393 133.857L49.9566 133.731C49.6938 133.696 49.4488 133.642 49.1979 133.606C48.713 133.534 48.2243 133.49 47.7342 133.475C46.8103 133.448 45.8863 133.526 44.9801 133.708C43.8523 133.938 42.7512 134.283 41.6942 134.739C41.252 134.934 40.823 135.156 40.4098 135.407C40.0527 135.621 39.7149 135.867 39.4002 136.14C38.8634 136.592 38.4606 137.181 38.2352 137.845C38.0445 138.431 38.0744 139.067 38.3188 139.633C38.6363 140.266 39.1865 140.751 39.8543 140.987C40.7019 141.335 41.6146 141.497 42.5307 141.463C43.612 141.45 44.6873 141.304 45.7328 141.029C46.0017 140.957 46.2706 140.879 46.5394 140.79C46.8082 140.701 47.077 140.593 47.34 140.48C47.8639 140.264 48.3745 140.017 48.8694 139.741C49.6759 139.282 50.3988 138.841 51.0799 138.447C51.4204 138.25 51.7489 138.072 52.0775 137.893C52.4061 137.714 52.7347 137.535 53.0632 137.38C53.7057 137.068 54.381 136.828 55.0766 136.665C55.437 136.582 55.8021 136.523 56.1699 136.486C56.5462 136.486 56.9525 136.396 57.3647 136.39L58.9717 136.861C59.4974 137.016 60.0113 137.183 60.5311 137.285C60.0113 137.285 59.5213 137.285 59.0375 137.326C58.567 137.348 58.0981 137.398 57.6336 137.475C56.7564 137.63 55.8989 137.879 55.0766 138.221C54.0098 138.655 52.9908 139.199 52.0356 139.842C51.6327 140.113 51.2495 140.412 50.8886 140.736C50.576 141.011 50.2901 141.315 50.0343 141.643C49.5905 142.178 49.2995 142.823 49.192 143.509C49.107 144.136 49.2581 144.774 49.6161 145.297C50.0533 145.867 50.6966 146.244 51.4084 146.346C52.3041 146.539 53.231 146.539 54.1267 146.346C55.1887 146.132 56.2201 145.787 57.1975 145.321C57.4484 145.202 57.6993 145.076 57.9442 144.939C58.1891 144.802 58.4341 144.647 58.673 144.493C59.1459 144.182 59.5988 143.841 60.0293 143.473C60.7282 142.877 61.3496 142.323 61.935 141.815C62.5205 141.309 63.076 140.868 63.6556 140.432C64.2143 140.011 64.8149 139.647 65.4478 139.347C65.7772 139.2 66.1142 139.071 66.4574 138.96C66.6367 138.906 66.8159 138.853 67.0072 138.811L67.2939 138.745L67.5926 138.668L70.2392 138.924C69.4481 139.121 68.7019 139.467 68.0407 139.943C67.712 140.182 67.4433 140.432 67.1385 140.677C66.8827 140.9 66.6394 141.137 66.4097 141.387C66.0246 141.802 65.7079 142.277 65.4717 142.793C65.2679 143.157 65.1826 143.575 65.2276 143.989C65.2725 144.405 65.4456 144.795 65.7226 145.106C66.2604 145.703 67.4015 145.595 68.5664 145.106C69.1843 144.837 69.7663 144.494 70.299 144.081C70.5807 143.875 70.8445 143.646 71.0875 143.396C71.3086 143.14 71.5236 142.871 71.7208 142.597C73.4413 140.212 74.3196 139.049 74.7079 138.543C74.7899 138.844 74.9557 139.116 75.1863 139.327C75.4167 139.538 75.7024 139.679 76.0103 139.735C75.1142 140.814 72.5512 144.176 72.5512 147.217C72.5512 150.895 74.2359 152.714 76.3149 152.714C78.394 152.714 80.0787 150.895 80.0787 147.217C80.0787 144.176 77.5158 140.814 76.6197 139.735C76.9286 139.68 77.2156 139.539 77.4473 139.328C77.679 139.117 77.8456 138.845 77.928 138.543C78.3284 139.037 79.1946 140.164 80.9152 142.603C81.1124 142.877 81.3274 143.145 81.5485 143.401C81.7894 143.651 82.0512 143.88 82.3311 144.087C82.8665 144.498 83.4504 144.843 84.0695 145.112C85.2645 145.606 86.3756 145.708 86.9074 145.112C87.1845 144.801 87.3575 144.411 87.4025 143.996C87.4474 143.581 87.362 143.164 87.1583 142.799C86.9246 142.282 86.6077 141.807 86.2202 141.392C85.9942 141.141 85.7529 140.904 85.4975 140.683C85.2226 140.438 84.9001 140.188 84.5893 139.949C83.9488 139.46 83.2209 139.096 82.4446 138.876L85.0912 138.62L85.3899 138.697L85.6706 138.763C85.8619 138.805 86.0411 138.859 86.2202 138.912C86.5659 139.022 86.9049 139.152 87.2359 139.3C87.8681 139.601 88.4686 139.964 89.0281 140.385C89.6257 140.82 90.1573 141.261 90.7429 141.768C91.3282 142.275 91.9376 142.834 92.6486 143.425C93.0811 143.793 93.536 144.133 94.0107 144.444C94.2457 144.606 94.489 144.755 94.7396 144.891C94.9844 145.028 95.2294 145.154 95.4863 145.273C96.4621 145.739 97.4914 146.083 98.5512 146.299C99.4488 146.493 100.378 146.493 101.275 146.299C101.988 146.199 102.633 145.821 103.068 145.249C103.431 144.729 103.583 144.09 103.492 143.461C103.389 142.775 103.1 142.129 102.655 141.595C102.398 141.267 102.11 140.963 101.795 140.689C101.435 140.366 101.054 140.067 100.654 139.794C99.699 139.151 98.6799 138.608 97.6132 138.173C96.7858 137.839 95.9244 137.598 95.0442 137.452C94.5797 137.374 94.1108 137.324 93.6404 137.303C93.1563 137.303 92.6665 137.303 92.1467 137.261C92.6665 137.159 93.1802 136.993 93.706 136.837L95.3131 136.366C95.7372 136.366 96.1435 136.432 96.5079 136.462C96.8762 136.495 97.2416 136.555 97.6012 136.641C98.2969 136.804 98.9721 137.044 99.6145 137.356C99.9432 137.511 100.272 137.684 100.6 137.869C100.929 138.054 101.257 138.226 101.598 138.423C102.279 138.817 103.002 139.258 103.814 139.717C104.307 139.993 104.816 140.24 105.338 140.456C105.601 140.569 105.87 140.671 106.144 140.766C106.419 140.862 106.676 140.933 106.945 141.005C107.993 141.28 109.07 141.426 110.153 141.44C111.069 141.473 111.982 141.311 112.83 140.963C113.496 140.725 114.046 140.24 114.365 139.61C114.609 139.043 114.639 138.408 114.449 137.821C114.217 137.167 113.815 136.587 113.284 136.14C112.968 135.868 112.63 135.623 112.274 135.407C111.858 135.158 111.427 134.935 110.984 134.739C109.927 134.282 108.826 133.936 107.698 133.708C106.791 133.526 105.868 133.448 104.944 133.475C104.453 133.49 103.965 133.534 103.48 133.606C103.229 133.642 102.984 133.696 102.721 133.731L101.938 133.857L102.691 133.529C102.942 133.41 103.187 133.278 103.438 133.153L104.938 132.384C105.347 132.313 105.76 132.263 106.174 132.235C106.551 132.2 106.931 132.188 107.309 132.199C108.036 132.221 108.758 132.327 109.46 132.515C109.815 132.607 110.173 132.714 110.535 132.837C110.894 132.95 111.258 133.07 111.635 133.207C112.387 133.469 113.188 133.803 114.078 134.083C114.612 134.27 115.156 134.424 115.709 134.542C115.99 134.602 116.271 134.661 116.551 134.703C116.832 134.745 117.107 134.769 117.382 134.787C118.454 134.878 119.534 134.836 120.596 134.661C120.847 134.62 121.086 134.572 121.325 134.512C121.548 134.455 121.768 134.384 121.982 134.298C122.381 134.155 122.761 133.967 123.117 133.737C123.728 133.394 124.178 132.824 124.372 132.152C124.512 131.546 124.425 130.909 124.127 130.363C123.787 129.757 123.29 129.255 122.687 128.908C121.385 128.103 119.312 127.561 116.785 127.472C116.318 127.461 115.851 127.477 115.386 127.519C114.898 127.562 114.412 127.64 113.935 127.752C112.918 128.011 111.92 128.339 110.948 128.736C111.898 128.139 112.77 127.406 113.678 126.72C114.069 126.57 114.468 126.441 114.873 126.333C115.245 126.219 115.624 126.132 116.008 126.071C116.737 125.957 117.477 125.928 118.212 125.987C118.583 125.987 118.959 126.059 119.342 126.118C119.724 126.178 120.106 126.226 120.501 126.291L123.099 126.762C125.266 127.138 127.491 126.978 129.581 126.297C129.82 126.22 130.047 126.13 130.268 126.041C130.489 125.951 130.687 125.838 130.866 125.731C131.228 125.527 131.568 125.288 131.881 125.015C132.421 124.585 132.766 123.959 132.843 123.275C132.909 121.999 132.09 120.943 130.663 120.341C129.235 119.739 127.132 119.519 124.629 119.829C124.149 119.894 123.674 119.989 123.207 120.115C122.715 120.246 122.232 120.409 121.761 120.604C120.767 121.062 119.807 121.59 118.887 122.184C119.736 121.409 120.501 120.55 121.277 119.715C121.664 119.494 122.063 119.295 122.472 119.119C122.829 118.946 123.196 118.792 123.571 118.66C124.283 118.42 125.021 118.265 125.77 118.201C126.146 118.165 126.529 118.153 126.917 118.147C127.305 118.142 127.699 118.147 128.112 118.147L130.788 118.219C131.346 118.229 131.905 118.209 132.461 118.159C132.742 118.159 133.022 118.1 133.297 118.052C133.572 118.004 133.841 117.951 134.11 117.891C135.143 117.661 136.146 117.311 137.097 116.848C137.891 116.475 138.599 115.941 139.176 115.28C139.398 115.027 139.568 114.732 139.674 114.412C139.781 114.093 139.823 113.756 139.797 113.42C139.743 112.806 139.47 112.233 139.027 111.804C138.524 111.33 137.906 110.995 137.234 110.832C135.747 110.421 133.65 110.487 131.2 111.143C130.207 111.422 129.258 111.839 128.381 112.383C127.909 112.674 127.456 112.994 127.024 113.342C126.57 113.688 126.098 114.058 125.644 114.469C125.997 113.998 126.361 113.539 126.702 113.062L127.694 111.625C128.908 110.529 130.375 109.749 131.965 109.354C133.63 109.036 135.311 108.813 137.001 108.686C138.106 108.563 139.193 108.313 140.239 107.941C141.22 107.59 142.156 107.121 143.024 106.546C143.411 106.29 143.776 106.003 144.116 105.687C144.403 105.408 144.661 105.098 144.881 104.763C145.076 104.494 145.215 104.189 145.288 103.865C145.363 103.542 145.37 103.206 145.311 102.88C145.031 101.687 144.003 100.87 142.45 100.638C140.897 100.405 138.835 100.727 136.517 101.681C135.538 102.092 134.628 102.653 133.823 103.345C133.387 103.696 132.987 104.108 132.557 104.537C132.126 104.966 131.708 105.425 131.296 105.92C131.595 105.395 131.893 104.871 132.174 104.352C132.455 103.833 132.718 103.297 132.993 102.778C133.569 102.093 134.23 101.482 134.958 100.96C135.585 100.501 136.27 100.128 136.995 99.851C137.75 99.5674 138.525 99.3403 139.313 99.1713L141.99 98.5752C143.066 98.3185 144.112 97.9467 145.109 97.4664C146.036 97.01 146.904 96.4436 147.696 95.7792C148.046 95.4846 148.371 95.1616 148.668 94.8133C148.936 94.5129 149.16 94.178 149.338 93.8178C149.498 93.5308 149.6 93.2143 149.634 92.8875C149.669 92.5608 149.638 92.2303 149.542 91.9159C149.116 90.7236 148 90.0738 146.435 90.0141C144.87 89.9545 142.88 90.497 140.669 91.7013C139.688 92.2311 138.807 92.9271 138.065 93.7581C137.676 94.1933 137.276 94.6583 136.87 95.1592C136.464 95.6599 136.123 96.1965 135.765 96.7687C135.998 96.1726 136.231 95.6301 136.458 95.0638C136.685 94.4973 136.918 93.9488 137.109 93.3885C137.599 92.6042 138.19 91.8868 138.865 91.2542C139.021 91.1171 139.176 90.9799 139.337 90.8548C139.499 90.7296 139.642 90.6103 139.803 90.4911C140.12 90.271 140.452 90.0718 140.795 89.895C141.518 89.519 142.269 89.1981 143.041 88.9351L144.32 88.4999L145.694 88.0288C146.729 87.6613 147.721 87.1815 148.651 86.5981C149.107 86.3184 149.546 86.0117 149.966 85.68C150.349 85.3652 150.712 85.0266 151.053 84.6665C151.654 84.0609 152.135 83.3468 152.468 82.5621C152.604 82.2453 152.675 81.9049 152.677 81.5605C152.684 81.2362 152.612 80.9151 152.468 80.6244Z" fill="url(#paint0_linear_367_15165)"/>
<path d="M50.8376 107.563C50.0836 107.563 49.358 107.464 48.6606 107.266C47.9632 107.059 47.3836 106.776 46.9219 106.418L47.6287 104.849C48.59 105.518 49.669 105.852 50.8659 105.852C51.4879 105.852 51.9637 105.753 52.2937 105.556C52.6329 105.348 52.8026 105.065 52.8026 104.707C52.8026 104.387 52.6471 104.137 52.3361 103.958C52.0344 103.779 51.4926 103.605 50.7104 103.435C49.8339 103.256 49.1318 103.039 48.6041 102.785C48.0857 102.53 47.704 102.219 47.4591 101.852C47.2234 101.475 47.1056 101.013 47.1056 100.467C47.1056 99.8633 47.2705 99.3261 47.6004 98.855C47.9397 98.3838 48.4108 98.0163 49.014 97.7524C49.6171 97.4791 50.3146 97.3424 51.1062 97.3424C51.813 97.3424 52.4916 97.446 53.1418 97.6534C53.8014 97.8608 54.3245 98.1387 54.711 98.4874L54.0041 100.057C53.09 99.3875 52.1287 99.0529 51.1203 99.0529C50.5454 99.0529 50.0931 99.166 49.7633 99.3922C49.4333 99.6089 49.2685 99.9105 49.2685 100.297C49.2685 100.523 49.3297 100.712 49.4523 100.862C49.5842 101.004 49.7962 101.131 50.0884 101.244C50.3899 101.357 50.814 101.475 51.3607 101.597C52.6423 101.88 53.5611 102.243 54.1172 102.686C54.6827 103.129 54.9654 103.741 54.9654 104.524C54.9654 105.466 54.6025 106.211 53.8769 106.757C53.1512 107.294 52.1382 107.563 50.8376 107.563ZM59.4992 107.436V99.2649H56.3751V97.4696H64.8286V99.2649H61.7045V107.436H59.4992ZM70.851 107.563C69.8615 107.563 68.9992 107.356 68.2641 106.941C67.5384 106.517 66.9777 105.923 66.5819 105.16C66.1861 104.387 65.9882 103.482 65.9882 102.446C65.9882 101.409 66.1861 100.509 66.5819 99.7456C66.9777 98.9727 67.5384 98.379 68.2641 97.9644C68.9992 97.5498 69.8615 97.3424 70.851 97.3424C71.8406 97.3424 72.6981 97.5498 73.4239 97.9644C74.1589 98.379 74.7244 98.9727 75.1202 99.7456C75.516 100.509 75.7139 101.409 75.7139 102.446C75.7139 103.482 75.516 104.387 75.1202 105.16C74.7244 105.923 74.1589 106.517 73.4239 106.941C72.6981 107.356 71.8406 107.563 70.851 107.563ZM70.851 105.852C71.6803 105.852 72.3306 105.56 72.8019 104.976C73.2825 104.392 73.5228 103.548 73.5228 102.446C73.5228 101.343 73.2872 100.504 72.816 99.9293C72.3447 99.3451 71.6898 99.0529 70.851 99.0529C70.0122 99.0529 69.3573 99.3451 68.8861 99.9293C68.4243 100.504 68.1934 101.343 68.1934 102.446C68.1934 103.548 68.4289 104.392 68.9002 104.976C69.3714 105.56 70.0217 105.852 70.851 105.852ZM86.8973 107.436H84.4941L82.7695 104.255C82.6281 104.01 82.4585 103.836 82.2606 103.732C82.0627 103.619 81.8129 103.562 81.5114 103.562H80.4229V107.436H78.2459V97.4696H82.826C83.9945 97.4696 84.8758 97.7288 85.4695 98.2471C86.0726 98.756 86.3742 99.4958 86.3742 100.467C86.3742 101.22 86.1622 101.852 85.7381 102.361C85.3233 102.87 84.7344 103.204 83.9711 103.364C84.4893 103.496 84.9275 103.869 85.2857 104.481L86.8973 107.436ZM82.5009 101.894C83.1322 101.894 83.5894 101.786 83.8721 101.569C84.1548 101.343 84.2962 100.994 84.2962 100.523C84.2962 100.042 84.1548 99.6937 83.8721 99.477C83.5894 99.2603 83.1322 99.1518 82.5009 99.1518H80.3946V101.894H82.5009ZM89.006 107.436V97.4696H95.8762V99.1801H91.1547V101.513H95.5935V103.223H91.1547V105.725H95.8762V107.436H89.006ZM101.587 107.563C100.833 107.563 100.108 107.464 99.4104 107.266C98.7129 107.059 98.1334 106.776 97.6717 106.418L98.3785 104.849C99.3397 105.518 100.419 105.852 101.616 105.852C102.238 105.852 102.714 105.753 103.043 105.556C103.383 105.348 103.552 105.065 103.552 104.707C103.552 104.387 103.397 104.137 103.086 103.958C102.784 103.779 102.242 103.605 101.46 103.435C100.584 103.256 99.8816 103.039 99.3539 102.785C98.8355 102.53 98.4538 102.219 98.2088 101.852C97.9732 101.475 97.8554 101.013 97.8554 100.467C97.8554 99.8633 98.0203 99.3261 98.3502 98.855C98.6895 98.3838 99.1606 98.0163 99.7638 97.7524C100.367 97.4791 101.064 97.3424 101.856 97.3424C102.563 97.3424 103.241 97.446 103.892 97.6534C104.551 97.8608 105.074 98.1387 105.461 98.4874L104.754 100.057C103.84 99.3875 102.878 99.0529 101.87 99.0529C101.295 99.0529 100.843 99.166 100.513 99.3922C100.183 99.6089 100.018 99.9105 100.018 100.297C100.018 100.523 100.079 100.712 100.202 100.862C100.334 101.004 100.546 101.131 100.838 101.244C101.14 101.357 101.564 101.475 102.11 101.597C103.392 101.88 104.311 102.243 104.867 102.686C105.432 103.129 105.715 103.741 105.715 104.524C105.715 105.466 105.352 106.211 104.627 106.757C103.901 107.294 102.888 107.563 101.587 107.563Z" fill="url(#paint1_linear_367_15165)"/>
<path d="M120.16 32.5134C120.94 32.5134 121.573 31.8805 121.573 31.0998C121.573 30.3191 120.94 29.6862 120.16 29.6862C119.379 29.6862 118.746 30.3191 118.746 31.0998C118.746 31.8805 119.379 32.5134 120.16 32.5134Z" fill="url(#paint2_linear_367_15165)"/>
<path d="M125.812 39.5816C126.593 39.5816 127.226 38.9487 127.226 38.168C127.226 37.3872 126.593 36.7543 125.812 36.7543C125.031 36.7543 124.398 37.3872 124.398 38.168C124.398 38.9487 125.031 39.5816 125.812 39.5816Z" fill="url(#paint3_linear_367_15165)"/>
<path d="M32.5152 32.5134C33.2959 32.5134 33.9288 31.8805 33.9288 31.0998C33.9288 30.3191 33.2959 29.6862 32.5152 29.6862C31.7345 29.6862 31.1016 30.3191 31.1016 31.0998C31.1016 31.8805 31.7345 32.5134 32.5152 32.5134Z" fill="url(#paint4_linear_367_15165)"/>
<path d="M26.8589 39.5816C27.6397 39.5816 28.2726 38.9487 28.2726 38.168C28.2726 37.3872 27.6397 36.7543 26.8589 36.7543C26.0782 36.7543 25.4453 37.3872 25.4453 38.168C25.4453 38.9487 26.0782 39.5816 26.8589 39.5816Z" fill="url(#paint5_linear_367_15165)"/>
<path d="M113.836 26.8144C114.231 26.9961 114.639 26.5882 114.458 26.1933L113.554 24.2273C113.497 24.1032 113.497 23.9602 113.554 23.836L114.458 21.8701C114.639 21.4751 114.231 21.0673 113.836 21.249L111.871 22.153C111.746 22.2099 111.603 22.2099 111.479 22.153L109.513 21.249C109.118 21.0673 108.711 21.4751 108.892 21.8701L109.796 23.836C109.853 23.9602 109.853 24.1032 109.796 24.2273L108.892 26.1933C108.711 26.5884 109.118 26.9961 109.513 26.8144L111.479 25.9104C111.603 25.8534 111.746 25.8534 111.871 25.9104L113.836 26.8144Z" fill="url(#paint6_linear_367_15165)"/>
<path d="M43.1607 26.8144C43.5557 26.9961 43.9635 26.5882 43.7818 26.1933L42.8778 24.2273C42.8208 24.1032 42.8208 23.9602 42.8778 23.836L43.7818 21.8701C43.9635 21.4751 43.5557 21.0673 43.1607 21.249L41.1948 22.153C41.0706 22.2099 40.9276 22.2099 40.8035 22.153L38.8375 21.249C38.4424 21.0673 38.0347 21.4751 38.2164 21.8701L39.1204 23.836C39.1774 23.9602 39.1774 24.1032 39.1204 24.2273L38.2164 26.1933C38.0347 26.5884 38.4426 26.9961 38.8375 26.8144L40.8035 25.9104C40.9276 25.8534 41.0706 25.8534 41.1948 25.9104L43.1607 26.8144Z" fill="url(#paint7_linear_367_15165)"/>
<path fill-rule="evenodd" clip-rule="evenodd" d="M141.639 62.1996C138.231 27.8589 110.261 1.1309 76.335 1.1309C42.4095 1.1309 14.4392 27.8589 11.0308 62.1996H9.89453C13.3083 27.2642 41.7519 0 76.335 0C110.918 0 139.362 27.2642 142.775 62.1996H141.639Z" fill="url(#paint8_linear_367_15165)"/>
<path d="M60.2253 55.1315V43.6924H55.8516V41.179H67.6864V43.6924H63.3127V55.1315H60.2253ZM75.496 55.3096C74.1107 55.3096 72.9034 55.0194 71.8743 54.4388C70.8583 53.8451 70.0734 53.0139 69.5192 51.9452C68.9651 50.8633 68.688 49.5967 68.688 48.1453C68.688 46.694 68.9651 45.434 69.5192 44.3653C70.0734 43.2834 70.8583 42.4522 71.8743 41.8717C72.9034 41.2911 74.1107 41.0009 75.496 41.0009C76.8814 41.0009 78.082 41.2911 79.098 41.8717C80.1271 42.4522 80.9187 43.2834 81.4728 44.3653C82.027 45.434 82.3041 46.694 82.3041 48.1453C82.3041 49.5967 82.027 50.8633 81.4728 51.9452C80.9187 53.0139 80.1271 53.8451 79.098 54.4388C78.082 55.0194 76.8814 55.3096 75.496 55.3096ZM75.496 52.9149C76.657 52.9149 77.5674 52.5059 78.2272 51.6879C78.9 50.8698 79.2365 49.689 79.2365 48.1453C79.2365 46.6016 78.9065 45.4273 78.2469 44.6226C77.5872 43.8045 76.6702 43.3955 75.496 43.3955C74.3217 43.3955 73.4047 43.8045 72.7451 44.6226C72.0985 45.4273 71.7754 46.6016 71.7754 48.1453C71.7754 49.689 72.1052 50.8698 72.7649 51.6879C73.4245 52.5059 74.3349 52.9149 75.496 52.9149ZM85.2267 41.179H91.639C93.1562 41.179 94.3371 41.5616 95.1815 42.3268C96.0259 43.092 96.4481 44.1607 96.4481 45.5329C96.4481 46.9052 96.0259 47.9739 95.1815 48.7391C94.3371 49.5042 93.1562 49.8869 91.639 49.8869H88.3141V55.1315H85.2267V41.179ZM91.2431 47.5516C92.7868 47.5516 93.5586 46.8854 93.5586 45.5527C93.5586 44.8667 93.3674 44.3586 92.9847 44.0288C92.602 43.699 92.0216 43.5341 91.2431 43.5341H88.3141V47.5516H91.2431Z" fill="url(#paint9_linear_367_15165)"/>
<path d="M20.552 56.9999C20.7764 56.3936 21.6341 56.3936 21.8585 56.9999L22.9753 60.0181C23.0458 60.2087 23.1962 60.3591 23.3868 60.4296L26.405 61.5464C27.0113 61.7707 27.0113 62.6285 26.405 62.8529L23.3868 63.9696C23.1962 64.0402 23.0458 64.1906 22.9753 64.3812L21.8585 67.3994C21.6341 68.0057 20.7764 68.0057 20.552 67.3994L19.4353 64.3812C19.3647 64.1906 19.2143 64.0402 19.0237 63.9696L16.0055 62.8529C15.3992 62.6285 15.3992 61.7707 16.0055 61.5464L19.0237 60.4296C19.2143 60.3591 19.3647 60.2087 19.4353 60.0181L20.552 56.9999Z" fill="url(#paint10_linear_367_15165)"/>
<path d="M130.814 56.9999C131.038 56.3936 131.896 56.3936 132.12 56.9999L133.237 60.0181C133.308 60.2087 133.458 60.3591 133.648 60.4296L136.667 61.5464C137.273 61.7707 137.273 62.6285 136.667 62.8529L133.648 63.9696C133.458 64.0402 133.308 64.1906 133.237 64.3812L132.12 67.3994C131.896 68.0057 131.038 68.0057 130.814 67.3994L129.697 64.3812C129.626 64.1906 129.476 64.0402 129.285 63.9696L126.267 62.8529C125.661 62.6285 125.661 61.7707 126.267 61.5464L129.285 60.4296C129.476 60.3591 129.626 60.2087 129.697 60.0181L130.814 56.9999Z" fill="url(#paint11_linear_367_15165)"/>
<path d="M98.2666 81.2836L96.0875 80.0197L105.298 64.3201L107.454 65.584L98.2666 81.2836ZM95.9977 74.2986C94.6947 74.2986 93.6839 73.87 92.965 73.0125C92.2462 72.1403 91.8867 70.9725 91.8867 69.5089C91.8867 68.0454 92.2462 66.885 92.965 66.0275C93.6989 65.1701 94.7097 64.7413 95.9977 64.7413C97.2855 64.7413 98.2889 65.1774 99.0079 66.0496C99.7417 66.9071 100.109 68.0602 100.109 69.5089C100.109 70.9725 99.7417 72.1403 99.0079 73.0125C98.2889 73.87 97.2855 74.2986 95.9977 74.2986ZM95.9977 72.1698C96.4319 72.1698 96.769 71.9628 97.0086 71.5489C97.2632 71.1203 97.3904 70.4402 97.3904 69.5089C97.3904 68.5776 97.2632 67.9124 97.0086 67.5132C96.769 67.0993 96.4319 66.8923 95.9977 66.8923C95.5483 66.8923 95.2039 67.0919 94.9643 67.491C94.7247 67.8902 94.6048 68.5628 94.6048 69.5089C94.6048 70.4698 94.7247 71.1572 94.9643 71.5711C95.2039 71.9703 95.5483 72.1698 95.9977 72.1698ZM107.567 80.8623C106.264 80.8623 105.253 80.4336 104.534 79.5762C103.815 78.704 103.456 77.5287 103.456 76.0504C103.456 74.5868 103.815 73.4339 104.534 72.5912C105.268 71.7337 106.279 71.3051 107.567 71.3051C108.854 71.3051 109.858 71.7337 110.577 72.5912C111.311 73.4486 111.677 74.6017 111.677 76.0504C111.677 77.5287 111.318 78.704 110.599 79.5762C109.88 80.4336 108.869 80.8623 107.567 80.8623ZM107.567 78.7114C108.016 78.7114 108.36 78.5044 108.6 78.0905C108.84 77.6766 108.959 76.9965 108.959 76.0504C108.959 75.1339 108.832 74.4686 108.577 74.0547C108.338 73.6408 108.001 73.4339 107.567 73.4339C107.117 73.4339 106.773 73.6333 106.533 74.0325C106.294 74.4316 106.174 75.1044 106.174 76.0504C106.174 77.0113 106.294 77.6988 106.533 78.1127C106.773 78.5118 107.117 78.7114 107.567 78.7114Z" fill="url(#paint12_linear_367_15165)"/>
<path d="M59.8304 83.404H64.9873V87.6449H49.3809V83.404H54.5378V69.5957L50.4665 71.9706L48.4648 68.1708L56.0645 63.7263H59.8304V83.404ZM76.905 87.9502C74.0099 87.9502 71.7934 86.8985 70.2553 84.795C68.7399 82.6915 67.9822 79.6494 67.9822 75.6686C67.9822 71.7331 68.7512 68.7249 70.2893 66.6441C71.8273 64.5406 74.0326 63.4888 76.905 63.4888C79.7775 63.4888 81.9828 64.5406 83.5208 66.6441C85.0589 68.7249 85.8279 71.7331 85.8279 75.6686C85.8279 79.6494 85.0589 82.6915 83.5208 84.795C82.0054 86.8985 79.8002 87.9502 76.905 87.9502ZM76.905 83.9129C78.2169 83.9129 79.1669 83.257 79.7549 81.9451C80.3656 80.6333 80.6709 78.5411 80.6709 75.6686C80.6709 72.8188 80.3656 70.7492 79.7549 69.46C79.1669 68.1708 78.2169 67.5262 76.905 67.5262C75.5932 67.5262 74.6319 68.1708 74.0212 69.46C73.4332 70.7492 73.1391 72.8188 73.1391 75.6686C73.1391 78.5411 73.4332 80.6333 74.0212 81.9451C74.6319 83.257 75.5932 83.9129 76.905 83.9129Z" fill="url(#paint13_linear_367_15165)"/>
<path d="M66.3169 8.48175C65.6047 8.48175 65.0273 9.05909 65.0273 9.77126V29.8103C65.0273 30.5225 65.6047 31.0998 66.3169 31.0998H86.3557C87.0679 31.0998 87.6452 30.5225 87.6452 29.8103V21.3383C87.6452 20.9307 87.1483 20.731 86.8663 21.0253L82.3994 25.6866C80.4907 27.6784 78.4985 28.6686 76.4226 28.6576C74.3631 28.663 72.4072 27.7396 70.5549 25.8873C68.588 23.9203 67.5517 21.786 67.4461 19.4844C67.3631 17.3592 68.1926 15.3101 69.9348 13.3375C70.1554 13.0876 70.5346 13.0843 70.7701 13.3198L74.6922 17.2419C74.9257 17.4755 74.9281 17.8552 74.7241 18.1159C73.7763 19.3271 73.7404 20.3708 74.6165 21.2469C75.5018 22.132 76.4896 22.0056 77.5802 20.8674L87.5194 10.4956C87.6001 10.4114 87.6452 10.2993 87.6452 10.1826V9.77126C87.6452 9.05909 87.0679 8.48175 86.3557 8.48175H66.3169Z" fill="url(#paint14_linear_367_15165)"/>
</g>
</g>
</g>
</g>
<defs>
<linearGradient id="paint0_linear_367_15165" x1="76.3391" y1="56.5451" x2="76.3391" y2="152.714" gradientUnits="userSpaceOnUse">
<stop stop-color="#CF9034"/>
<stop offset="1" stop-color="#A36710"/>
</linearGradient>
<linearGradient id="paint1_linear_367_15165" x1="76.3352" y1="86.2313" x2="76.3352" y2="118.745" gradientUnits="userSpaceOnUse">
<stop stop-color="#CF9034"/>
<stop offset="1" stop-color="#A36710"/>
</linearGradient>
<linearGradient id="paint2_linear_367_15165" x1="120.16" y1="29.6862" x2="120.16" y2="32.5134" gradientUnits="userSpaceOnUse">
<stop stop-color="#CF9034"/>
<stop offset="1" stop-color="#A36710"/>
</linearGradient>
<linearGradient id="paint3_linear_367_15165" x1="125.812" y1="36.7543" x2="125.812" y2="39.5816" gradientUnits="userSpaceOnUse">
<stop stop-color="#CF9034"/>
<stop offset="1" stop-color="#A36710"/>
</linearGradient>
<linearGradient id="paint4_linear_367_15165" x1="32.5152" y1="29.6862" x2="32.5152" y2="32.5134" gradientUnits="userSpaceOnUse">
<stop stop-color="#CF9034"/>
<stop offset="1" stop-color="#A36710"/>
</linearGradient>
<linearGradient id="paint5_linear_367_15165" x1="26.8589" y1="36.7543" x2="26.8589" y2="39.5816" gradientUnits="userSpaceOnUse">
<stop stop-color="#CF9034"/>
<stop offset="1" stop-color="#A36710"/>
</linearGradient>
<linearGradient id="paint6_linear_367_15165" x1="111.675" y1="21.2044" x2="111.675" y2="26.8589" gradientUnits="userSpaceOnUse">
<stop stop-color="#CF9034"/>
<stop offset="1" stop-color="#A36710"/>
</linearGradient>
<linearGradient id="paint7_linear_367_15165" x1="40.9991" y1="21.2044" x2="40.9991" y2="26.8589" gradientUnits="userSpaceOnUse">
<stop stop-color="#CF9034"/>
<stop offset="1" stop-color="#A36710"/>
</linearGradient>
<linearGradient id="paint8_linear_367_15165" x1="76.335" y1="0" x2="76.335" y2="62.1996" gradientUnits="userSpaceOnUse">
<stop stop-color="#CF9034"/>
<stop offset="1" stop-color="#CD8E32"/>
</linearGradient>
<linearGradient id="paint9_linear_367_15165" x1="76.3376" y1="32.5134" x2="76.3376" y2="65.0269" gradientUnits="userSpaceOnUse">
<stop stop-color="#CF9034"/>
<stop offset="1" stop-color="#A36710"/>
</linearGradient>
<linearGradient id="paint10_linear_367_15165" x1="21.2053" y1="56.5451" x2="21.2053" y2="67.8541" gradientUnits="userSpaceOnUse">
<stop stop-color="#CF9034"/>
<stop offset="1" stop-color="#A36710"/>
</linearGradient>
<linearGradient id="paint11_linear_367_15165" x1="131.467" y1="56.5451" x2="131.467" y2="67.8541" gradientUnits="userSpaceOnUse">
<stop stop-color="#CF9034"/>
<stop offset="1" stop-color="#A36710"/>
</linearGradient>
<linearGradient id="paint12_linear_367_15165" x1="101.782" y1="64.3201" x2="101.782" y2="81.2836" gradientUnits="userSpaceOnUse">
<stop stop-color="#CF9034"/>
<stop offset="1" stop-color="#A36710"/>
</linearGradient>
<linearGradient id="paint13_linear_367_15165" x1="66.4442" y1="60.786" x2="66.4442" y2="93.2994" gradientUnits="userSpaceOnUse">
<stop stop-color="#CF9034"/>
<stop offset="1" stop-color="#A36710"/>
</linearGradient>
<linearGradient id="paint14_linear_367_15165" x1="76.3362" y1="8.48175" x2="76.3362" y2="31.0998" gradientUnits="userSpaceOnUse">
<stop stop-color="#CF9034"/>
<stop offset="1" stop-color="#A36710"/>
</linearGradient>
<clipPath id="clip0_367_15165">
<rect width="152.672" height="152.672" fill="white"/>
</clipPath>
<clipPath id="clip1_367_15165">
<rect width="152.672" height="152.672" fill="white"/>
</clipPath>
<clipPath id="clip2_367_15165">
<rect width="152.672" height="152.672" fill="white"/>
</clipPath>
</defs>
</svg>
