<svg width="154" height="49" viewBox="0 0 154 49" fill="none" xmlns="http://www.w3.org/2000/svg">
<path d="M47.5773 9.85076C48.6541 8.5048 49.3842 6.69716 49.1917 4.8504C47.6164 4.92863 45.6945 5.88959 44.5809 7.23707C43.5816 8.39053 42.6974 10.2733 42.9274 12.0426C44.696 12.196 46.463 11.1591 47.5773 9.85076Z" fill="black"/>
<path d="M49.1948 12.3863C46.6244 12.2328 44.4406 13.8441 43.2138 13.8441C41.9861 13.8441 40.107 12.463 38.0744 12.5006C35.4296 12.539 32.9758 14.0352 31.633 16.4138C28.8723 21.171 30.9041 28.23 33.5896 32.1049C34.8933 34.0231 36.4647 36.1331 38.5348 36.0572C40.4914 35.9804 41.2579 34.7911 43.635 34.7911C46.0113 34.7911 46.7018 36.0572 48.7728 36.0188C50.9196 35.9804 52.2624 34.1006 53.566 32.1824C55.0622 29.9956 55.6738 27.8855 55.7121 27.7704C55.6738 27.7321 51.5718 26.1584 51.5335 21.4395C51.4951 17.488 54.7546 15.6081 54.908 15.4923C53.0673 12.7699 50.1915 12.463 49.194 12.3863" fill="black"/>
<path d="M74.817 7.05783C80.4013 7.05783 84.2907 10.9073 84.2907 16.5116C84.2907 22.1358 80.3215 26.0053 74.6773 26.0053H68.4945V35.8389H64.0273V7.05783H74.817ZM68.4945 22.2555H73.62C77.5102 22.2555 79.723 20.1616 79.723 16.5316C79.723 12.9023 77.5094 10.8275 73.6399 10.8275H68.4945V22.2555Z" fill="black"/>
<path d="M85.3633 29.8663C85.3633 26.1764 88.1754 24.0625 93.3607 23.7434L98.9251 23.4042V21.8082C98.9251 19.4757 97.3898 18.1989 94.6575 18.1989C92.4032 18.1989 90.7673 19.3552 90.4297 21.13H86.3999C86.5204 17.4009 90.0299 14.6886 94.7772 14.6886C99.8827 14.6886 103.214 17.361 103.214 21.5098V35.8297H99.0855V32.3792H98.9857C97.8087 34.6327 95.2153 36.0484 92.4032 36.0484C88.2552 36.0484 85.3633 33.5762 85.3633 29.8663ZM98.9251 28.0118V26.3959L93.9592 26.7151C91.1663 26.8946 89.7115 27.9312 89.7115 29.7459C89.7115 31.5014 91.2269 32.6385 93.6001 32.6385C96.6309 32.6385 98.9251 30.7034 98.9251 28.0118Z" fill="black"/>
<path d="M107.055 43.5331V40.0834C107.335 40.1225 108.012 40.1624 108.371 40.1624C110.345 40.1624 111.463 39.326 112.141 37.1707L112.54 35.8947L104.98 14.9531H109.647L114.913 31.9455H115.013L120.278 14.9531H124.826L116.987 36.9513C115.192 41.9977 113.138 43.6536 108.79 43.6536C108.451 43.6536 107.354 43.6137 107.055 43.5331Z" fill="black"/>
</svg>
