<svg width="24" height="24" viewBox="0 0 24 24" fill="none" xmlns="http://www.w3.org/2000/svg">
<path d="M12.75 6.00007L18 11.2501M9 20.2501H4.5C4.30109 20.2501 4.11032 20.1711 3.96967 20.0304C3.82902 19.8897 3.75 19.699 3.75 19.5001V15.3107C3.75 15.2122 3.7694 15.1147 3.80709 15.0237C3.84478 14.9327 3.90003 14.85 3.96967 14.7804L15.2197 3.5304C15.3603 3.38975 15.5511 3.31073 15.75 3.31073C15.9489 3.31073 16.1397 3.38975 16.2803 3.5304L20.4697 7.71974C20.6103 7.86039 20.6893 8.05116 20.6893 8.25007C20.6893 8.44898 20.6103 8.63975 20.4697 8.7804L9 20.2501Z" stroke="#15161A" stroke-width="1.5" stroke-linecap="round" stroke-linejoin="round"/>
</svg>
