<svg width="24" height="24" viewBox="0 0 24 24" fill="none" xmlns="http://www.w3.org/2000/svg">
<path d="M23.4121 11.709C23.4121 17.5519 19.1313 22.3949 13.5349 23.273V15.0935H16.2627L16.7812 11.709H13.5349V9.51295C13.5349 8.58779 13.9876 7.68404 15.4429 7.68404H16.9195V4.80321C16.9195 4.80321 15.5795 4.57439 14.2988 4.57439C11.6254 4.57439 9.87712 6.19424 9.87712 9.12939V11.709H6.90411V15.0935H9.87712V23.273C4.28077 22.3949 0 17.5519 0 11.709C0 5.2439 5.24097 0.00292969 11.706 0.00292969C18.1711 0.00292969 23.4121 5.2439 23.4121 11.709ZM9.87712 23.2734C10.473 23.3673 11.0838 23.415 11.706 23.415C11.0839 23.415 10.473 23.3665 9.87712 23.273V23.2734ZM13.5349 23.2734V23.273C13.4431 23.2874 13.351 23.3007 13.2589 23.3129C13.351 23.3008 13.4431 23.2876 13.5349 23.2734ZM13.2589 23.3129C12.7508 23.3802 12.2325 23.415 11.706 23.415C12.2326 23.415 12.7508 23.3796 13.2589 23.3129Z" fill="white"/>
</svg>
