<svg width="524" height="558" viewBox="0 0 524 558" fill="none" xmlns="http://www.w3.org/2000/svg">
<g opacity="0.9">
<path d="M18.1211 -18.6748H326.046C427.43 -18.6746 513.914 64.6506 515.33 166.909L515.343 168.113C515.752 221.146 495.443 265.946 467.523 297.488C439.596 329.039 404.085 347.293 374.118 347.293H373.283L373.897 347.858L516.885 479.465L516.886 479.466L519.689 482.023L519.69 482.024C522.149 484.241 523.547 487.468 523.48 490.9V543.922C523.48 551.004 517.741 556.868 510.677 556.868H453.988C451.066 556.868 448.27 555.727 446.07 553.705L293.238 412.63L222.668 347.448L222.574 347.362H109.753C105.533 347.362 102.179 350.831 102.179 355.015V546.688C102.179 552.248 97.6712 556.799 92.1787 556.799H0.325195V270.41C0.325195 258.905 9.55141 249.585 20.9248 249.585H117.695L117.086 249.021L8.0166 147.965C3.16034 143.465 0.325195 136.985 0.325195 130.232V-0.682617C0.325195 -10.5977 8.32051 -18.6747 18.1211 -18.6748ZM102.247 95.4688L102.352 95.5654L268.521 249.498L268.613 249.585H331.721C376.912 249.585 413.49 209.885 413.49 164.31C413.49 118.665 376.912 79.0342 331.721 79.0342H102.247V95.4688Z" stroke="url(#paint0_linear_111_4200)" stroke-width="0.65124"/>
<path d="M18.1211 -18.6748H326.046C427.43 -18.6746 513.914 64.6506 515.33 166.909L515.343 168.113C515.752 221.146 495.443 265.946 467.523 297.488C439.596 329.039 404.085 347.293 374.118 347.293H373.283L373.897 347.858L516.885 479.465L516.886 479.466L519.689 482.023L519.69 482.024C522.149 484.241 523.547 487.468 523.48 490.9V543.922C523.48 551.004 517.741 556.868 510.677 556.868H453.988C451.066 556.868 448.27 555.727 446.07 553.705L293.238 412.63L222.668 347.448L222.574 347.362H109.753C105.533 347.362 102.179 350.831 102.179 355.015V546.688C102.179 552.248 97.6712 556.799 92.1787 556.799H0.325195V270.41C0.325195 258.905 9.55141 249.585 20.9248 249.585H117.695L117.086 249.021L8.0166 147.965C3.16034 143.465 0.325195 136.985 0.325195 130.232V-0.682617C0.325195 -10.5977 8.32051 -18.6747 18.1211 -18.6748ZM102.247 95.4688L102.352 95.5654L268.521 249.498L268.613 249.585H331.721C376.912 249.585 413.49 209.885 413.49 164.31C413.49 118.665 376.912 79.0342 331.721 79.0342H102.247V95.4688Z" stroke="url(#paint1_linear_111_4200)" stroke-width="0.65124"/>
</g>
<defs>
<linearGradient id="paint0_linear_111_4200" x1="73.1818" y1="59.7267" x2="566.976" y2="295.272" gradientUnits="userSpaceOnUse">
<stop stop-color="white"/>
<stop offset="1" stop-color="white" stop-opacity="0.2"/>
</linearGradient>
<linearGradient id="paint1_linear_111_4200" x1="261.961" y1="-45.5" x2="261.961" y2="675" gradientUnits="userSpaceOnUse">
<stop offset="0.0192516"/>
<stop offset="0.514451" stop-opacity="0"/>
<stop offset="1"/>
</linearGradient>
</defs>
</svg>
