<svg width="24" height="24" viewBox="0 0 24 24" fill="none" xmlns="http://www.w3.org/2000/svg">
<g opacity="0.5">
<path d="M3 15.75L7.71966 11.0303C7.7893 10.9607 7.87198 10.9054 7.96297 10.8677C8.05397 10.8301 8.15149 10.8107 8.24999 10.8107C8.34848 10.8107 8.44601 10.8301 8.537 10.8677C8.62799 10.9054 8.71067 10.9607 8.78032 11.0303L12.9697 15.2197C13.0393 15.2893 13.122 15.3446 13.213 15.3822C13.304 15.4199 13.4015 15.4393 13.5 15.4393C13.5985 15.4393 13.696 15.4199 13.787 15.3822C13.878 15.3446 13.9607 15.2893 14.0303 15.2197L15.9697 13.2803C16.0393 13.2107 16.122 13.1554 16.213 13.1177C16.304 13.0801 16.4015 13.0607 16.5 13.0607C16.5985 13.0607 16.696 13.0801 16.787 13.1177C16.878 13.1554 16.9607 13.2107 17.0303 13.2803L21 17.25M3.75 4.5H20.25C20.6642 4.5 21 4.83579 21 5.25V18.75C21 19.1642 20.6642 19.5 20.25 19.5H3.75C3.33579 19.5 3 19.1642 3 18.75V5.25C3 4.83579 3.33579 4.5 3.75 4.5Z" stroke="#15161A" stroke-linecap="round" stroke-linejoin="round"/>
<path d="M14.625 8.29688C15.2204 8.29688 15.7031 8.77957 15.7031 9.375C15.7031 9.97043 15.2204 10.4531 14.625 10.4531C14.0296 10.4531 13.5469 9.97043 13.5469 9.375C13.5469 8.77957 14.0296 8.29688 14.625 8.29688Z" fill="#15161A" stroke="#15161A" stroke-width="0.09375"/>
</g>
</svg>
