<svg width="24" height="24" viewBox="0 0 24 24" fill="none" xmlns="http://www.w3.org/2000/svg">
<path d="M11.7031 2.26483C14.7803 2.26483 15.1417 2.27873 16.3584 2.33361C17.4837 2.38409 18.0916 2.57139 18.4984 2.73161C19.0384 2.94159 19.4217 3.18888 19.8249 3.59127C20.228 3.99367 20.4789 4.37777 20.6845 4.91771C20.8396 5.3245 21.032 5.93248 21.0825 7.05772C21.1374 8.27369 21.1513 8.63511 21.1513 11.7131C21.1513 14.791 21.1374 15.1517 21.0825 16.3684C21.032 17.4937 20.8447 18.1016 20.6845 18.5084C20.4738 19.0484 20.2273 19.4317 19.8249 19.8349C19.4225 20.238 19.0384 20.4889 18.4984 20.6945C18.0916 20.8496 17.4837 21.042 16.3584 21.0925C15.1417 21.1474 14.781 21.1613 11.7031 21.1613C8.62511 21.1613 8.26441 21.1474 7.04772 21.0925C5.92321 21.042 5.31449 20.8547 4.90771 20.6945C4.3685 20.4838 3.98366 20.2373 3.58127 19.8349C3.17888 19.4325 2.9272 19.0484 2.72161 18.5084C2.5665 18.1016 2.37409 17.4937 2.3236 16.3684C2.26873 15.1517 2.25483 14.791 2.25483 11.7131C2.25483 8.63511 2.26873 8.27442 2.3236 7.05772C2.37409 5.93321 2.56138 5.3245 2.72161 4.91771C2.93159 4.3785 3.17888 3.99367 3.58127 3.59127C3.98366 3.18888 4.36777 2.9372 4.90771 2.73161C5.31449 2.57651 5.92321 2.38409 7.04772 2.33361C8.26368 2.27435 8.62511 2.26483 11.7031 2.26483ZM11.7031 0.188477C8.57536 0.188477 8.18174 0.202377 6.95188 0.257249C5.7264 0.312122 4.88942 0.508929 4.15779 0.792069C3.39909 1.08472 2.75819 1.48272 2.11802 2.1229C1.47784 2.76307 1.08423 3.40764 0.787186 4.16267C0.504046 4.8943 0.307239 5.73128 0.252367 6.96115C0.197495 8.18662 0.183594 8.58024 0.183594 11.7079C0.183594 14.8357 0.197495 15.2293 0.252367 16.4591C0.307239 17.6846 0.504046 18.5216 0.787186 19.2576C1.07984 20.017 1.47784 20.6572 2.11802 21.2974C2.75819 21.9376 3.40275 22.3312 4.15779 22.6282C4.88942 22.9113 5.7264 23.1082 6.95627 23.163C8.18613 23.2179 8.57536 23.2318 11.7075 23.2318C14.8395 23.2318 15.2288 23.2179 16.4586 23.163C17.6841 23.1082 18.5211 22.9113 19.2571 22.6282C20.0165 22.3356 20.6567 21.9376 21.2969 21.2974C21.9371 20.6572 22.3307 20.0126 22.6277 19.2576C22.9109 18.526 23.1077 17.689 23.1625 16.4591C23.2174 15.2293 23.2313 14.8408 23.2313 11.7079C23.2313 8.57512 23.2174 8.18662 23.1625 6.95676C23.1077 5.73128 22.9109 4.8943 22.6277 4.15828C22.3351 3.39886 21.9371 2.75868 21.2969 2.11851C20.6567 1.47834 20.0122 1.08472 19.2571 0.787679C18.5255 0.504539 17.6885 0.307732 16.4586 0.25286C15.2237 0.202377 14.8308 0.188477 11.7031 0.188477Z" fill="white"/>
<path d="M11.711 5.79354C10.1531 5.81086 8.66487 6.44189 7.56934 7.54966C6.47382 8.65744 5.85938 10.1526 5.85938 11.7106C5.85938 13.2686 6.47382 14.7637 7.56934 15.8715C8.66487 16.9793 10.1531 17.6103 11.711 17.6276C14.9762 17.6276 17.6276 14.9755 17.6276 11.7102C17.6276 8.44495 14.9755 5.7928 11.7102 5.7928L11.711 5.79354ZM11.711 15.552C10.6923 15.552 9.71529 15.1473 8.99495 14.427C8.27462 13.7066 7.86994 12.7296 7.86994 11.7109C7.86994 10.6922 8.27462 9.71524 8.99495 8.99491C9.71529 8.27457 10.6923 7.86989 11.711 7.86989C12.7297 7.86989 13.7067 8.27457 14.427 8.99491C15.1473 9.71524 15.552 10.6922 15.552 11.7109C15.552 12.7296 15.1473 13.7066 14.427 14.427C13.7067 15.1473 12.7297 15.552 11.711 15.552ZM19.2423 5.56088C19.2424 5.74218 19.2068 5.92172 19.1375 6.08926C19.0682 6.2568 18.9666 6.40904 18.8385 6.53731C18.7104 6.66558 18.5582 6.76735 18.3908 6.83682C18.2233 6.90629 18.0438 6.9421 17.8625 6.94219C17.6812 6.94229 17.5017 6.90667 17.3341 6.83738C17.1666 6.76809 17.0143 6.66648 16.8861 6.53835C16.7578 6.41021 16.656 6.25807 16.5866 6.09061C16.5171 5.92315 16.4813 5.74364 16.4812 5.56234C16.4809 5.19619 16.6261 4.84492 16.8848 4.5858C17.1435 4.32669 17.4945 4.18096 17.8607 4.18066C18.2268 4.18037 18.5781 4.32555 18.8372 4.58425C19.0963 4.84295 19.2421 5.19473 19.2423 5.56088Z" fill="white"/>
</svg>
