<svg width="180" height="29" viewBox="0 0 180 29" fill="none" xmlns="http://www.w3.org/2000/svg">
<g clip-path="url(#clip0_279_13372)">
<g clip-path="url(#clip1_279_13372)">
<g clip-path="url(#clip2_279_13372)">
<path d="M98.2694 14.4176C98.2454 14.3832 98.2247 14.3488 98.2109 14.3075L98.2694 14.4176Z" fill="white"/>
<path d="M120.988 0.629696L118.662 4.88273L118.603 4.99284C118.521 5.10295 118.39 5.17177 118.245 5.17177H111.019C110.83 5.17177 110.675 5.32661 110.675 5.51587V28.271C110.675 28.5187 110.476 28.7183 110.228 28.7183H105.259V5.51587C105.259 5.32661 105.104 5.17177 104.915 5.17177H97.689C97.5445 5.17177 97.4138 5.10295 97.3312 4.99284L97.2727 4.88273L94.9431 0.626255C94.7883 0.344096 94.9948 0 95.3148 0H120.623C120.94 0.00688193 121.143 0.347537 120.988 0.629696Z" fill="white"/>
<path d="M119.473 14.3075C119.459 14.3454 119.438 14.3832 119.414 14.4176L119.473 14.3075Z" fill="white"/>
<path fill-rule="evenodd" clip-rule="evenodd" d="M26.1812 24.954L26.0401 24.8266L18.845 18.275C21.8731 18.275 26.0091 14.6276 25.9678 9.33886C25.93 4.21182 21.5565 0.0241699 16.426 0.0241699H0.931387C0.429006 0.0241699 0.0195312 0.433645 0.0195312 0.936025V7.45321C0.0195312 7.79387 0.164052 8.12076 0.411801 8.34786L5.90014 13.3785H1.07247C0.490943 13.3785 0.0195312 13.85 0.0195312 14.4315V28.7046H4.65795C4.94355 28.7046 5.17754 28.4706 5.17754 28.185V18.6432C5.17754 18.4436 5.33926 18.2785 5.54228 18.2785H11.213L14.7641 21.5233L22.4546 28.5463C22.5682 28.6495 22.7127 28.708 22.8641 28.708H25.7167C26.0814 28.708 26.3773 28.4087 26.3773 28.0474V25.4082C26.3808 25.2327 26.3085 25.0675 26.1812 24.954ZM5.18098 5.71552V4.92066H16.7116C18.9758 4.92066 20.8098 6.88545 20.8098 9.1496C20.8098 11.4103 18.9758 13.3785 16.7116 13.3785H13.5425L5.18098 5.71552Z" fill="white"/>
<path d="M74.1265 17.8483C74.1265 17.4629 74.013 17.0878 73.7996 16.7678L63.0707 0.667547C62.909 0.371624 63.1223 0.00688171 63.463 0.00688171H68.3595C68.5212 0.00688171 68.6657 0.0929058 68.7483 0.230544L76.3391 11.5135C76.3391 11.5135 76.5662 11.947 76.7279 11.947H76.9481C77.1098 11.947 77.337 11.5135 77.337 11.5135L84.9277 0.230544C85.0069 0.0929058 85.1548 0.00688171 85.3165 0.00688171H90.213C90.5503 0.00688171 90.767 0.371624 90.6053 0.667547L79.8764 16.7678C79.663 17.0878 79.5495 17.4629 79.5495 17.8483V28.2744C79.5495 28.5222 79.3499 28.7217 79.1022 28.7217H74.1334V17.8483H74.1265Z" fill="white"/>
<path d="M178.007 28.0129C178.228 28.3054 178.018 28.7217 177.653 28.7217H158.201C157.953 28.7217 157.754 28.5187 157.754 28.2744V0.454207C157.754 0.206458 157.953 0.00688171 158.201 0.00688171H162.719C162.967 0.00688171 163.167 0.206458 163.167 0.454207V23.1061C163.167 23.3538 163.366 23.5534 163.614 23.5534H175.069C175.317 23.5534 175.551 23.6704 175.702 23.87L178.007 28.0129Z" fill="white"/>
<path d="M42.3552 12.0743V12.3703C42.3552 12.4941 42.4068 12.6111 42.4997 12.6937L46.9936 16.7816C47.0521 16.8607 47.2276 16.9123 47.3721 16.9123H55.1074C55.338 16.9123 55.5204 16.7265 55.5204 16.4994V12.1535C55.5204 11.9229 55.3311 11.7371 55.104 11.7371H42.6924C42.5066 11.7371 42.3552 11.8885 42.3552 12.0743Z" fill="white"/>
<path d="M57.8346 23.9732V28.2744C57.8346 28.5187 57.635 28.7183 57.3873 28.7183H35.6404V0.423238C35.6404 0.192694 35.8262 0.00344086 36.0567 0.00344086H56.9262C57.1567 0.00344086 57.3425 0.189253 57.3425 0.423238V4.75885C57.3425 4.9894 57.1567 5.17521 56.9262 5.17521H41.4694C41.2388 5.17521 41.053 5.36102 41.053 5.59501V23.137C41.053 23.3676 41.2388 23.5534 41.4694 23.5534H57.4182C57.6453 23.5534 57.8346 23.7392 57.8346 23.9732Z" fill="white"/>
<path d="M133.258 12.0743V12.3702C133.258 12.4941 133.309 12.6111 133.402 12.6937L137.896 16.7816C137.955 16.8607 138.13 16.9123 138.275 16.9123H146.01C146.241 16.9123 146.423 16.7265 146.423 16.4994V12.1535C146.423 11.9229 146.234 11.7371 146.007 11.7371H133.595C133.409 11.7371 133.258 11.8885 133.258 12.0743Z" fill="white"/>
<path d="M148.737 23.9732V28.2744C148.737 28.5187 148.538 28.7183 148.29 28.7183H126.543V0.423231C126.543 0.192686 126.729 0.00343323 126.959 0.00343323H147.829C148.059 0.00343323 148.245 0.189245 148.245 0.423231V4.75885C148.245 4.98939 148.059 5.1752 147.829 5.1752H132.372C132.141 5.1752 131.956 5.36101 131.956 5.595V23.137C131.956 23.3676 132.141 23.5534 132.372 23.5534H148.321C148.548 23.5534 148.737 23.7392 148.737 23.9732Z" fill="white"/>
<path d="M179.766 6.51718L175.496 8.9121C175.196 9.0807 174.828 8.86392 174.828 8.52327V0.454207C174.828 0.206458 175.028 0.00688171 175.275 0.00688171H179.546C179.793 0.00688171 179.993 0.206458 179.993 0.454207V6.12836C179.993 6.28664 179.907 6.43804 179.766 6.51718Z" fill="white"/>
</g>
</g>
</g>
<defs>
<clipPath id="clip0_279_13372">
<rect width="180" height="28.56" fill="white"/>
</clipPath>
<clipPath id="clip1_279_13372">
<rect width="180" height="28.56" fill="white"/>
</clipPath>
<clipPath id="clip2_279_13372">
<rect width="179.962" height="28.56" fill="white" transform="translate(0.0195312)"/>
</clipPath>
</defs>
</svg>
