<svg width="307" height="24" viewBox="0 0 307 24" fill="none" xmlns="http://www.w3.org/2000/svg">
<path opacity="0.07" d="M34.1426 0.326172H2.92651C1.26815 0.326172 0 1.59433 0 3.25268V20.8117C0 22.4701 1.3657 23.7382 2.92651 23.7382H34.1426C35.801 23.7382 37.0691 22.4701 37.0691 20.8117V3.25268C37.0691 1.59433 35.7034 0.326172 34.1426 0.326172Z" fill="black"/>
<path d="M34.1476 1.30273C35.2206 1.30273 36.0986 2.18069 36.0986 3.25374V20.8128C36.0986 21.8858 35.2206 22.7638 34.1476 22.7638H2.93147C1.85842 22.7638 0.980469 21.8858 0.980469 20.8128V3.25374C0.980469 2.18069 1.85842 1.30273 2.93147 1.30273H34.1476Z" fill="#006FCF"/>
<path d="M12.7539 19.7753V11.5605L27.3747 11.5732V13.8422L25.6852 15.6489L27.3747 17.4701V19.787H24.6765L23.2425 18.2047L21.8183 19.7928L12.7539 19.7733V19.7753Z" fill="white"/>
<path d="M13.7305 18.8719V12.4629H19.166V13.9388H15.4903V14.9416H19.0782V16.3932H15.4903V17.3784H19.166V18.8719H13.7305Z" fill="#006FCF"/>
<path d="M19.1328 18.8729L22.1403 15.6645L19.1328 12.4629H21.4604L23.2982 14.4949L25.1419 12.4639H27.369V12.5136L24.4259 15.6645L27.369 18.7832V18.8739H25.1185L23.2485 16.8224L21.397 18.8749H19.1328V18.8729Z" fill="#006FCF"/>
<path d="M13.4316 4.2666H16.9571L18.195 7.07703V4.2666H22.5457L23.2969 6.37271L24.049 4.2666H27.3716V12.4813H9.8125L13.4316 4.2666Z" fill="white"/>
<path d="M14.1024 5.15918L11.2578 11.5643H13.2088L13.7453 10.2815H16.6523L17.1889 11.5643H19.1886L16.3558 5.15918H14.1024ZM14.3463 8.84365L15.1998 6.80485L16.0514 8.84365H14.3463Z" fill="#006FCF"/>
<path d="M19.1641 11.5653V5.15918L21.9062 5.16893L23.3187 9.10704L24.7391 5.16016H27.3768V11.5643L25.6794 11.5799V7.18042L24.0757 11.5643H22.5247L20.8897 7.16579V11.5653H19.165H19.1641Z" fill="#006FCF"/>
<path d="M78.4204 0.326172H48.4C48.275 0.326172 48.1497 0.326172 48.0249 0.326835C47.9195 0.327718 47.8143 0.328823 47.7089 0.331695C47.4794 0.337882 47.2478 0.35158 47.0211 0.392233C46.7938 0.431183 46.5735 0.503786 46.3676 0.607651C45.9536 0.818226 45.6171 1.15474 45.4065 1.56875C45.3024 1.77477 45.2298 1.99521 45.1911 2.22273C45.15 2.44964 45.1365 2.68097 45.1303 2.9103C45.1276 3.0156 45.126 3.12092 45.1254 3.22625C45.125 3.35086 45.125 3.47591 45.125 3.60119V20.463C45.125 20.5883 45.125 20.7131 45.1254 20.8384C45.1261 20.9435 45.1274 21.0489 45.1303 21.1543C45.1365 21.3832 45.1502 21.6148 45.1911 21.8415C45.2297 22.069 45.3023 22.2894 45.4063 22.4954C45.5108 22.7012 45.6473 22.8891 45.8106 23.0522C45.9736 23.2156 46.1615 23.3521 46.3674 23.4565C46.5766 23.5633 46.7909 23.6311 47.0213 23.6724C47.2478 23.7128 47.4794 23.7265 47.7089 23.7327C47.8143 23.7351 47.9195 23.7365 48.0249 23.7371C48.1497 23.738 48.275 23.738 48.4 23.738H78.4204C78.5453 23.738 78.6706 23.738 78.7954 23.7371C78.9006 23.7367 79.0057 23.7351 79.1116 23.7327C79.3407 23.7265 79.5722 23.7128 79.7993 23.6724C80.0267 23.6334 80.247 23.5607 80.4529 23.4565C80.8667 23.2457 81.2031 22.9092 81.414 22.4954C81.5207 22.2862 81.5883 22.0719 81.6292 21.8415C81.6703 21.6148 81.6835 21.3832 81.6897 21.1543C81.6926 21.0489 81.6941 20.9435 81.6946 20.8384C81.6955 20.7131 81.6955 20.5883 81.6955 20.463V3.60141C81.6955 3.47613 81.6955 3.35108 81.6946 3.22603C81.6942 3.12077 81.6925 3.01552 81.6897 2.9103C81.6835 2.68097 81.6703 2.44964 81.6292 2.22273C81.5907 1.99517 81.5182 1.7747 81.414 1.56875C81.2033 1.15481 80.8668 0.818326 80.4529 0.607651C80.2469 0.503893 80.0267 0.431366 79.7993 0.392454C79.5722 0.35158 79.3407 0.338103 79.1116 0.331916C79.0062 0.32924 78.9008 0.32762 78.7954 0.327056C78.6706 0.326172 78.5453 0.326172 78.4204 0.326172Z" fill="black"/>
<path d="M78.4135 1.10938L78.7829 1.11004C78.8828 1.1107 78.9829 1.11181 79.0834 1.11446C79.2586 1.11932 79.4632 1.12882 79.6541 1.16306C79.8198 1.19289 79.959 1.23818 80.0924 1.30623C80.3595 1.44202 80.5765 1.65921 80.712 1.92642C80.7796 2.05898 80.8246 2.19729 80.8545 2.36454C80.8885 2.55323 80.898 2.75848 80.9026 2.93457C80.9055 3.034 80.9068 3.13342 80.9071 3.23505C80.9082 3.35812 80.9082 3.48096 80.9082 3.60425V20.4661C80.9082 20.5893 80.9082 20.7122 80.9073 20.8377C80.9068 20.9371 80.9055 21.0365 80.9029 21.136C80.898 21.3118 80.8885 21.5171 80.854 21.708C80.829 21.8598 80.7809 22.007 80.7115 22.1443C80.5757 22.4116 80.3585 22.6288 80.0911 22.7645C79.9586 22.8321 79.8198 22.8774 79.6557 22.907C79.461 22.9417 79.2476 22.9512 79.0869 22.9556C78.986 22.9578 78.8854 22.9594 78.7823 22.9598C78.6596 22.9607 78.5364 22.9607 78.4135 22.9607H48.3882C48.2667 22.9607 48.1452 22.9607 48.0215 22.9598C47.922 22.9594 47.8226 22.9581 47.7232 22.9559C47.5588 22.9514 47.3454 22.9417 47.1523 22.9072C46.9996 22.8818 46.8517 22.8334 46.7135 22.7636C46.581 22.6963 46.46 22.6083 46.3551 22.5029C46.2499 22.3979 46.1621 22.2769 46.0949 22.1443C46.0254 22.0062 45.9773 21.8583 45.9521 21.7058C45.9177 21.5151 45.9079 21.3107 45.9035 21.1362C45.901 21.0364 45.8996 20.9366 45.8991 20.8368L45.8984 20.5436V3.52692L45.8989 3.23417C45.8993 3.13422 45.9008 3.03427 45.9033 2.93435C45.9082 2.75937 45.9177 2.555 45.9523 2.36278C45.9776 2.21052 46.0257 2.06295 46.0951 1.92509C46.1622 1.79297 46.2497 1.67233 46.3558 1.5665C46.4609 1.46123 46.582 1.37324 46.7146 1.30579C46.8524 1.23654 46.9999 1.18843 47.1521 1.16306C47.3432 1.12882 47.548 1.11932 47.7234 1.11446C47.8233 1.11181 47.9234 1.1107 48.0226 1.11004L48.3931 1.10938H78.4135Z" fill="white"/>
<path d="M54.7245 8.22989C55.0346 7.84233 55.2448 7.32181 55.1894 6.79004C54.7358 6.81256 54.1824 7.08927 53.8617 7.47728C53.574 7.80942 53.3193 8.35157 53.3856 8.86105C53.8948 8.90521 54.4037 8.60664 54.7245 8.22989Z" fill="black"/>
<path d="M55.1899 8.96C54.4498 8.91581 53.821 9.37979 53.4677 9.37979C53.1142 9.37979 52.5731 8.98209 51.9878 8.99292C51.2263 9.00397 50.5197 9.4348 50.133 10.1197C49.3381 11.4896 49.9231 13.5222 50.6964 14.638C51.0718 15.1903 51.5243 15.7979 52.1204 15.776C52.6838 15.754 52.9045 15.4115 53.589 15.4115C54.2733 15.4115 54.4721 15.776 55.0684 15.765C55.6866 15.7539 56.0733 15.2126 56.4486 14.6603C56.8795 14.0306 57.0556 13.423 57.0666 13.3899C57.0556 13.3788 55.8744 12.9257 55.8634 11.5669C55.8523 10.429 56.7909 9.88773 56.8351 9.85437C56.305 9.07047 55.4769 8.98209 55.1897 8.96" fill="black"/>
<path d="M62.5678 7.42578C64.1758 7.42578 65.2958 8.53424 65.2958 10.148C65.2958 11.7675 64.1529 12.8817 62.5276 12.8817H60.7473V15.7133H59.4609V7.42578H62.5678ZM60.7473 11.802H62.2231C63.3433 11.802 63.9805 11.199 63.9805 10.1537C63.9805 9.10869 63.3431 8.51127 62.2289 8.51127H60.7473V11.802Z" fill="black"/>
<path d="M65.6055 13.9935C65.6055 12.931 66.4152 12.3223 67.9083 12.2304L69.5106 12.1327V11.6732C69.5106 11.0015 69.0685 10.6339 68.2817 10.6339C67.6326 10.6339 67.1616 10.9668 67.0643 11.4779H65.904C65.9386 10.4041 66.9492 9.62305 68.3162 9.62305C69.7863 9.62305 70.7455 10.3926 70.7455 11.5872V15.7106H69.5568V14.7171H69.5281C69.1891 15.366 68.4424 15.7736 67.6326 15.7736C66.4382 15.7736 65.6055 15.0617 65.6055 13.9935ZM69.5106 13.4595V12.9942L68.0807 13.0861C67.2764 13.1378 66.8575 13.4363 66.8575 13.9588C66.8575 14.4643 67.2939 14.7918 67.9773 14.7918C68.85 14.7918 69.5106 14.2345 69.5106 13.4595Z" fill="black"/>
<path d="M71.8513 17.9288V16.9355C71.9318 16.9468 72.1268 16.9583 72.2302 16.9583C72.7987 16.9583 73.1204 16.7174 73.3157 16.0968L73.4306 15.7294L71.2539 9.69922H72.5977L74.114 14.5922H74.1427L75.6588 9.69922H76.9683L74.7112 16.0336C74.1942 17.4867 73.6027 17.9635 72.3509 17.9635C72.2532 17.9635 71.9373 17.952 71.8513 17.9288Z" fill="black"/>
<path opacity="0.07" d="M123.893 0.326172H92.6765C91.0182 0.326172 89.75 1.59433 89.75 3.25268V20.8117C89.75 22.4701 91.1157 23.7382 92.6765 23.7382H123.893C125.551 23.7382 126.819 22.4701 126.819 20.8117V3.25268C126.819 1.59433 125.453 0.326172 123.893 0.326172Z" fill="black"/>
<path d="M123.894 1.30273C124.967 1.30273 125.845 2.18069 125.845 3.25374V20.8128C125.845 21.8858 124.967 22.7638 123.894 22.7638H92.6776C91.6045 22.7638 90.7266 21.8858 90.7266 20.8128V3.25374C90.7266 2.18069 91.6045 1.30273 92.6776 1.30273H123.894Z" fill="white"/>
<path d="M107.399 12.011V15.1326H106.406V7.42612H109.031C109.346 7.4208 109.658 7.4777 109.951 7.59354C110.243 7.70939 110.51 7.88191 110.736 8.10117C110.949 8.30056 111.121 8.5401 111.243 8.80611C111.364 9.07211 111.431 9.35936 111.441 9.65144C111.451 9.94352 111.403 10.2347 111.301 10.5083C111.198 10.782 111.042 11.0327 110.843 11.2462L110.736 11.3593C110.277 11.7954 109.664 12.0324 109.031 12.0168L107.399 12.011ZM107.399 8.37041V11.0901H109.056C109.423 11.1018 109.779 10.9584 110.036 10.696C110.22 10.504 110.344 10.2621 110.392 10.0003C110.44 9.73856 110.409 9.46852 110.305 9.22381C110.2 8.97909 110.026 8.7705 109.804 8.62396C109.582 8.47743 109.322 8.39944 109.056 8.39968L107.399 8.37041ZM113.724 9.68539C114.359 9.65612 114.979 9.86878 115.459 10.2834C115.893 10.7028 116.124 11.2881 116.093 11.892V15.1443H115.148V14.3971H115.1C114.93 14.6773 114.691 14.9085 114.404 15.0678C114.118 15.2271 113.795 15.3089 113.468 15.3053C112.933 15.3226 112.412 15.1368 112.009 14.7853C111.817 14.6295 111.664 14.4322 111.561 14.2084C111.457 13.9847 111.406 13.7403 111.411 13.4938C111.399 13.2446 111.448 12.9964 111.552 12.7697C111.656 12.543 111.812 12.3444 112.009 12.1905C112.49 11.8443 113.072 11.6676 113.665 11.6881C114.169 11.6686 114.67 11.7788 115.118 12.011V11.8081C115.122 11.6403 115.087 11.474 115.016 11.3217C114.946 11.1695 114.842 11.0352 114.712 10.9292C114.451 10.6918 114.109 10.5633 113.756 10.5702C113.499 10.5678 113.247 10.6307 113.022 10.7531C112.797 10.8755 112.606 11.0532 112.469 11.2696L111.596 10.7194C111.833 10.3798 112.153 10.1064 112.526 9.92541C112.898 9.74441 113.311 9.66178 113.724 9.68539ZM112.469 13.5172C112.467 13.6435 112.495 13.7685 112.553 13.8811C112.61 13.9937 112.694 14.0905 112.798 14.1629C113.015 14.3346 113.285 14.4254 113.564 14.4195C113.982 14.4185 114.383 14.2537 114.681 13.9591C114.979 13.6801 115.148 13.2908 115.148 12.8831C114.772 12.6161 114.316 12.4872 113.856 12.5182C113.499 12.5042 113.147 12.6047 112.851 12.805C112.734 12.8834 112.638 12.9893 112.571 13.1135C112.505 13.2376 112.47 13.3762 112.469 13.5172ZM121.528 9.85903L118.221 17.4582H117.198L118.448 14.797L116.278 9.85903H117.354L118.927 13.6489L120.457 9.85903H121.528Z" fill="#5F6368"/>
<path d="M103.389 11.333C103.389 11.0326 103.366 10.7321 103.318 10.4355H99.1328V12.1398H101.524C101.475 12.4106 101.372 12.6688 101.221 12.899C101.071 13.1291 100.875 13.3264 100.646 13.4791V14.5853H102.074C102.508 14.1652 102.85 13.6587 103.076 13.0985C103.303 12.5383 103.409 11.9369 103.389 11.333Z" fill="#4285F4"/>
<path d="M99.1363 15.6631C100.216 15.6927 101.266 15.3101 102.073 14.593L100.643 13.4809C100.299 13.7012 99.9096 13.8403 99.5041 13.8875C99.0987 13.9347 98.6878 13.8889 98.3027 13.7534C97.9177 13.618 97.5686 13.3965 97.282 13.1059C96.9954 12.8153 96.7788 12.4631 96.6488 12.0762H95.1836V13.2175C95.5502 13.9521 96.1143 14.57 96.8124 15.002C97.5106 15.434 98.3153 15.6629 99.1363 15.6631Z" fill="#34A853"/>
<path d="M96.6552 12.0809C96.4697 11.532 96.4697 10.9373 96.6552 10.3884V9.24707H95.19C94.8776 9.86306 94.7148 10.544 94.7148 11.2347C94.7148 11.9253 94.8776 12.6063 95.19 13.2222L96.6552 12.0809Z" fill="#FBBC04"/>
<path d="M99.1363 8.56121C99.7675 8.54969 100.378 8.78813 100.834 9.22456L102.102 7.96323C101.293 7.2043 100.221 6.79034 99.1119 6.80921C98.2958 6.8133 97.4967 7.04334 96.8034 7.4738C96.11 7.90427 95.5493 8.51835 95.1836 9.24797L96.6488 10.3903C96.8201 9.86359 97.1522 9.40386 97.5985 9.07576C98.0447 8.74767 98.5825 8.56771 99.1363 8.56121Z" fill="#EA4335"/>
<path opacity="0.07" d="M168.764 0.326172H137.548C135.889 0.326172 134.621 1.59433 134.621 3.25268V20.8117C134.621 22.4701 135.987 23.7382 137.548 23.7382H168.764C170.422 23.7382 171.69 22.4701 171.69 20.8117V3.25268C171.69 1.59433 170.324 0.326172 168.764 0.326172Z" fill="black"/>
<path d="M168.757 1.30273C169.83 1.30273 170.708 2.18069 170.708 3.25374V20.8128C170.708 21.8858 169.83 22.7638 168.757 22.7638H137.541C136.468 22.7638 135.59 21.8858 135.59 20.8128V3.25374C135.59 2.18069 136.468 1.30273 137.541 1.30273H168.757Z" fill="white"/>
<path d="M149.246 18.8621C153.018 18.8621 156.075 15.8049 156.075 12.0336C156.075 8.26231 153.018 5.20508 149.246 5.20508C145.475 5.20508 142.418 8.26231 142.418 12.0336C142.418 15.8049 145.475 18.8621 149.246 18.8621Z" fill="#EB001B"/>
<path d="M157.051 18.8621C160.822 18.8621 163.88 15.8049 163.88 12.0336C163.88 8.26231 160.822 5.20508 157.051 5.20508C153.28 5.20508 150.223 8.26231 150.223 12.0336C150.223 15.8049 153.28 18.8621 157.051 18.8621Z" fill="#F79E1B"/>
<path d="M156.076 12.035C156.076 9.69377 154.905 7.64521 153.149 6.47461C151.393 7.74276 150.223 9.79132 150.223 12.035C150.223 14.2786 151.393 16.4247 153.149 17.5953C154.905 16.4247 156.076 14.3762 156.076 12.035Z" fill="#FF5F00"/>
<path opacity="0.07" d="M213.631 0.326172H182.415C180.756 0.326172 179.488 1.59433 179.488 3.25268V20.8117C179.488 22.4701 180.854 23.7382 182.415 23.7382H213.631C215.289 23.7382 216.557 22.4701 216.557 20.8117V3.25268C216.557 1.59433 215.192 0.326172 213.631 0.326172Z" fill="black"/>
<path d="M213.632 1.30273C214.705 1.30273 215.583 2.18069 215.583 3.25374V20.8128C215.583 21.8858 214.705 22.7638 213.632 22.7638H182.416C181.343 22.7638 180.465 21.8858 180.465 20.8128V3.25374C180.465 2.18069 181.343 1.30273 182.416 1.30273H213.632Z" fill="white"/>
<path d="M202.81 8.42424C203.005 7.44873 202.81 6.76588 202.225 6.18058C201.639 5.49773 200.566 5.20508 199.2 5.20508H195.201C194.908 5.20508 194.713 5.40018 194.616 5.69283L193.152 15.5454C193.152 15.7405 193.25 15.9356 193.445 15.9356H196.079L196.469 12.6189L198.225 10.4728L202.81 8.42424Z" fill="#003087"/>
<path d="M202.809 8.42578L202.614 8.62088C202.126 11.3523 200.467 12.3278 198.126 12.3278H197.053C196.761 12.3278 196.565 12.5229 196.468 12.8155L195.883 16.62L195.688 17.5955C195.688 17.7906 195.785 17.9857 195.98 17.9857H198.029C198.321 17.9857 198.516 17.7906 198.516 17.5955V17.498L198.907 15.1567V15.0592C198.907 14.8641 199.199 14.669 199.394 14.669H199.687C201.736 14.669 203.296 13.8886 203.687 11.5474C203.882 10.5719 203.784 9.79149 203.296 9.20618C203.199 8.71843 203.004 8.52333 202.809 8.42578Z" fill="#3086C8"/>
<path d="M202.216 8.23015C202.119 8.1326 202.021 8.1326 201.924 8.1326C201.826 8.1326 201.729 8.1326 201.631 8.03505C201.338 7.9375 200.948 7.9375 200.558 7.9375H197.632C197.534 7.9375 197.436 7.9375 197.436 8.03505C197.241 8.1326 197.144 8.23015 197.144 8.42525L196.461 12.7175V12.815C196.461 12.5224 196.754 12.3273 197.046 12.3273H198.314C200.753 12.3273 202.314 11.3518 202.802 8.62035V8.42525C202.704 8.3277 202.509 8.23015 202.314 8.23015H202.216Z" fill="#012169"/>
<path opacity="0.07" d="M258.502 0.326172H227.286C225.628 0.326172 224.359 1.59433 224.359 3.25268V20.8117C224.359 22.4701 225.725 23.7382 227.286 23.7382H258.502C260.16 23.7382 261.428 22.4701 261.428 20.8117V3.25268C261.428 1.59433 260.063 0.326172 258.502 0.326172Z" fill="black"/>
<path d="M259.374 1.29785C260.505 1.29785 261.43 2.17592 261.43 3.24892V20.8068C261.43 21.8798 260.505 22.7579 259.374 22.7579H226.484C225.355 22.7579 224.43 21.8798 224.43 20.8068V3.24892C224.43 2.17592 225.355 1.29785 226.485 1.29785H259.374Z" fill="#5A31F4"/>
<path d="M233.49 11.417C232.498 11.1994 232.056 11.1146 232.056 10.7293C232.056 10.3664 232.354 10.1849 232.953 10.1849C233.48 10.1849 233.865 10.4171 234.148 10.8717C234.158 10.8886 234.175 10.901 234.193 10.9064C234.212 10.9119 234.232 10.9099 234.25 10.9009L235.368 10.3312C235.377 10.3262 235.386 10.3192 235.392 10.3108C235.399 10.3024 235.404 10.2927 235.407 10.2823C235.41 10.2719 235.411 10.261 235.409 10.2503C235.408 10.2396 235.405 10.2293 235.399 10.22C234.936 9.4094 234.079 8.96554 232.951 8.96554C231.468 8.96554 230.547 9.70205 230.547 10.8736C230.547 12.1174 231.669 12.4315 232.664 12.649C233.659 12.8656 234.102 12.9514 234.102 13.3368C234.102 13.7231 233.778 13.9045 233.133 13.9045C232.536 13.9045 232.094 13.6294 231.826 13.0948C231.816 13.0766 231.8 13.0627 231.781 13.0563C231.761 13.0499 231.74 13.0515 231.721 13.0607L230.606 13.6167C230.587 13.6265 230.573 13.6434 230.567 13.6637C230.56 13.6839 230.562 13.706 230.571 13.725C231.014 14.6225 231.921 15.1268 233.134 15.1268C234.678 15.1268 235.611 14.403 235.611 13.1953C235.611 11.9877 234.484 11.6365 233.491 11.4199L233.49 11.417ZM239.48 8.96554C238.845 8.96554 238.286 9.19186 237.884 9.59572C237.878 9.60155 237.871 9.60554 237.863 9.60715C237.855 9.60876 237.847 9.60791 237.84 9.60471C237.832 9.60151 237.826 9.59612 237.822 9.58927C237.818 9.58243 237.816 9.57446 237.816 9.56645V6.99112C237.816 6.98079 237.815 6.97054 237.811 6.96096C237.807 6.95138 237.801 6.94266 237.794 6.93531C237.787 6.92796 237.778 6.92212 237.768 6.91814C237.759 6.91416 237.749 6.91211 237.738 6.91211H236.338C236.328 6.91211 236.318 6.91419 236.308 6.91823C236.299 6.92227 236.29 6.9282 236.283 6.93565C236.275 6.94311 236.27 6.95194 236.266 6.96164C236.262 6.97133 236.26 6.98169 236.26 6.9921V14.9854C236.26 14.9958 236.262 15.0061 236.266 15.0158C236.27 15.0255 236.275 15.0344 236.283 15.0418C236.29 15.0493 236.299 15.0552 236.308 15.0592C236.318 15.0633 236.328 15.0654 236.338 15.0654H237.736C237.747 15.0655 237.757 15.0635 237.767 15.0595C237.777 15.0555 237.785 15.0496 237.793 15.0422C237.8 15.0347 237.806 15.0258 237.81 15.0161C237.814 15.0063 237.816 14.9959 237.815 14.9854V11.4794C237.815 10.8014 238.33 10.2825 239.024 10.2825C239.717 10.2825 240.22 10.7907 240.22 11.4794V14.9854C240.22 14.9959 240.222 15.0063 240.225 15.0161C240.229 15.0258 240.235 15.0347 240.242 15.0422C240.25 15.0496 240.259 15.0555 240.268 15.0595C240.278 15.0635 240.288 15.0655 240.299 15.0654H241.697C241.707 15.0655 241.718 15.0635 241.727 15.0595C241.737 15.0555 241.746 15.0496 241.753 15.0422C241.761 15.0347 241.767 15.0258 241.77 15.0161C241.774 15.0063 241.776 14.9959 241.776 14.9854V11.4794C241.776 10.0064 240.82 8.96554 239.48 8.96554ZM244.614 8.7363C243.855 8.7363 243.144 8.97042 242.633 9.3099C242.616 9.32094 242.604 9.33809 242.599 9.35784C242.594 9.3776 242.597 9.39848 242.607 9.41623L243.224 10.4776C243.229 10.4866 243.235 10.4945 243.244 10.5009C243.252 10.5073 243.261 10.512 243.271 10.5147C243.281 10.5174 243.291 10.5181 243.302 10.5168C243.312 10.5154 243.322 10.512 243.331 10.5068C243.718 10.2706 244.163 10.147 244.617 10.1498C245.836 10.1498 246.733 11.019 246.733 12.1671C246.733 13.1456 246.015 13.8694 245.105 13.8694C244.364 13.8694 243.849 13.4343 243.849 12.8188C243.849 12.4666 243.997 12.1779 244.383 11.974C244.393 11.9691 244.401 11.9623 244.408 11.954C244.415 11.9457 244.42 11.9361 244.423 11.9257C244.426 11.9153 244.427 11.9045 244.425 11.8938C244.424 11.8832 244.42 11.8729 244.415 11.8638L243.833 10.8707C243.824 10.8545 243.809 10.8422 243.792 10.836C243.774 10.8297 243.755 10.8299 243.738 10.8366C242.958 11.1282 242.412 11.8296 242.412 12.772C242.412 14.1962 243.536 15.2595 245.104 15.2595C246.935 15.2595 248.252 13.9787 248.252 12.1428C248.252 10.1742 246.721 8.7363 244.614 8.7363ZM252.342 8.95384C251.635 8.95384 251.002 9.21722 250.542 9.68156C250.516 9.7079 250.474 9.68839 250.474 9.65327V9.09528C250.475 9.08487 250.473 9.07452 250.469 9.06482C250.465 9.05513 250.46 9.04629 250.452 9.03884C250.445 9.03138 250.436 9.02546 250.427 9.02142C250.417 9.01737 250.407 9.01529 250.396 9.01529H249.034C249.023 9.01529 249.013 9.01737 249.003 9.02142C248.994 9.02546 248.985 9.03138 248.978 9.03884C248.97 9.04629 248.965 9.05513 248.961 9.06482C248.957 9.07452 248.955 9.08487 248.956 9.09528V17.0768C248.955 17.0872 248.957 17.0974 248.961 17.107C248.965 17.1166 248.971 17.1253 248.978 17.1327C248.985 17.14 248.994 17.1459 249.004 17.1498C249.013 17.1538 249.023 17.1559 249.034 17.1559H250.432C250.442 17.156 250.452 17.154 250.462 17.1501C250.472 17.1462 250.48 17.1404 250.488 17.133C250.495 17.1257 250.501 17.1169 250.505 17.1072C250.509 17.0976 250.511 17.0873 250.511 17.0768V14.4596C250.511 14.4245 250.552 14.4069 250.578 14.4303C251.056 14.8768 251.688 15.1215 252.342 15.1132C253.982 15.1132 255.261 13.7738 255.261 12.0335C255.261 10.2932 253.98 8.95384 252.342 8.95384ZM252.077 13.7621C251.145 13.7621 250.437 13.0129 250.437 12.0228C250.437 11.0326 251.143 10.2834 252.077 10.2834C253.012 10.2834 253.716 11.02 253.716 12.0228C253.716 13.0246 253.021 13.7621 252.077 13.7621Z" fill="white"/>
<path opacity="0.07" d="M303.377 0.325195H272.161C270.503 0.325195 269.234 1.59335 269.234 3.2517V20.8108C269.234 22.4691 270.6 23.7373 272.161 23.7373H303.377C305.035 23.7373 306.303 22.4691 306.303 20.8108V3.2517C306.303 1.59335 304.938 0.325195 303.377 0.325195Z" fill="black"/>
<path d="M303.378 1.30273C304.451 1.30273 305.329 2.18069 305.329 3.25374V20.8128C305.329 21.8858 304.451 22.7638 303.378 22.7638H272.162C271.089 22.7638 270.211 21.8858 270.211 20.8128V3.25374C270.211 2.18069 271.089 1.30273 272.162 1.30273H303.378Z" fill="white"/>
<path d="M296.839 10.1794H296.546C296.156 11.1549 295.863 11.6427 295.57 13.1059H297.424C297.131 11.6427 297.131 10.9598 296.839 10.1794ZM299.668 15.9349H298.009C297.912 15.9349 297.912 15.9349 297.814 15.8373L297.619 14.9594L297.521 14.7643H295.18C295.083 14.7643 294.985 14.7643 294.985 14.9594L294.692 15.8373C294.692 15.9349 294.595 15.9349 294.595 15.9349H292.546L292.741 15.4471L295.57 8.81371C295.57 8.32596 295.863 8.13086 296.351 8.13086H297.814C297.912 8.13086 298.009 8.13086 298.009 8.32596L299.375 14.6667C299.472 15.0569 299.57 15.3496 299.57 15.7398C299.668 15.8373 299.668 15.8373 299.668 15.9349ZM286.596 15.6422L286.986 13.8863C287.084 13.8863 287.181 13.9839 287.181 13.9839C287.864 14.2765 288.547 14.4716 289.23 14.3741C289.425 14.3741 289.717 14.2765 289.913 14.179C290.4 13.9839 290.4 13.4961 290.01 13.1059C289.815 12.9108 289.522 12.8133 289.23 12.6182C288.839 12.4231 288.449 12.228 288.157 11.9353C286.986 10.9598 287.376 9.59411 288.059 8.91126C288.644 8.52106 288.937 8.13086 289.717 8.13086C290.888 8.13086 292.156 8.13086 292.741 8.32596H292.839C292.741 8.91126 292.644 9.39901 292.449 9.98431C291.961 9.78921 291.473 9.59411 290.986 9.59411C290.693 9.59411 290.4 9.59411 290.108 9.69166C289.913 9.69166 289.815 9.78921 289.717 9.88676C289.522 10.0819 289.522 10.3745 289.717 10.5696L290.205 10.9598C290.595 11.1549 290.986 11.35 291.278 11.5451C291.766 11.8378 292.254 12.3255 292.351 12.9108C292.546 13.7888 292.254 14.5692 291.473 15.1545C290.986 15.5447 290.79 15.7398 290.108 15.7398C288.742 15.7398 287.669 15.8373 286.791 15.5447C286.693 15.7398 286.693 15.7398 286.596 15.6422ZM283.182 15.9349C283.279 15.252 283.279 15.252 283.377 14.9594C283.864 12.8133 284.352 10.5696 284.742 8.42351C284.84 8.22841 284.84 8.13086 285.035 8.13086H286.791C286.596 9.30146 286.401 10.1794 286.108 11.2525C285.815 12.7157 285.523 14.179 285.133 15.6422C285.133 15.8373 285.035 15.8373 284.84 15.8373M274.109 8.32596C274.109 8.22841 274.304 8.13086 274.402 8.13086H277.719C278.206 8.13086 278.597 8.42351 278.694 8.91126L279.572 13.2035C279.572 13.301 279.572 13.301 279.67 13.3986C279.67 13.301 279.767 13.301 279.767 13.301L281.816 8.32596C281.718 8.22841 281.816 8.13086 281.913 8.13086H283.962C283.962 8.22841 283.962 8.22841 283.864 8.32596L280.84 15.4471C280.743 15.6422 280.743 15.7398 280.645 15.8373C280.548 15.9349 280.353 15.8373 280.157 15.8373H278.694C278.597 15.8373 278.499 15.8373 278.499 15.6422L276.938 9.59411C276.743 9.39901 276.451 9.10636 276.06 9.00881C275.475 8.71616 274.402 8.52106 274.207 8.52106L274.109 8.32596Z" fill="#142688"/>
</svg>
