<svg width="154" height="49" viewBox="0 0 154 49" fill="none" xmlns="http://www.w3.org/2000/svg">
<path d="M60.7863 15.7724H53.405C52.8999 15.7724 52.4703 16.1394 52.3915 16.638L49.4062 35.5656C49.3468 35.9391 49.6361 36.2758 50.0149 36.2758H53.5388C54.0439 36.2758 54.4735 35.9088 54.5523 35.4091L55.3574 30.304C55.4351 29.8043 55.8658 29.4374 56.3698 29.4374H58.7065C63.5687 29.4374 66.3749 27.0845 67.1077 22.4219C67.438 20.3821 67.1218 18.7793 66.1666 17.6569C65.1175 16.4243 63.2568 15.7724 60.7863 15.7724ZM61.6379 22.6853C61.2342 25.3339 59.2105 25.3339 57.2538 25.3339H56.1399L56.9213 20.3875C56.9677 20.0885 57.2268 19.8683 57.529 19.8683H58.0395C59.3724 19.8683 60.6298 19.8683 61.2795 20.6282C61.667 21.0815 61.7857 21.7549 61.6379 22.6853Z" fill="#253B80"/>
<path d="M82.8511 22.6H79.3164C79.0153 22.6 78.7552 22.8202 78.7087 23.1192L78.5522 24.1078L78.3051 23.7495C77.5399 22.6389 75.8335 22.2676 74.1304 22.2676C70.2244 22.2676 66.8883 25.226 66.2386 29.3759C65.9007 31.4459 66.381 33.4254 67.5553 34.8058C68.6324 36.0751 70.1737 36.6039 72.0074 36.6039C75.1546 36.6039 76.8998 34.5802 76.8998 34.5802L76.7423 35.5624C76.6829 35.938 76.9722 36.2747 77.3488 36.2747H80.5328C81.0389 36.2747 81.4663 35.9078 81.5462 35.408L83.4566 23.3102C83.517 22.9379 83.2288 22.6 82.8511 22.6ZM77.9241 29.4795C77.583 31.4988 75.9803 32.8544 73.9361 32.8544C72.9097 32.8544 72.0894 32.5252 71.5627 31.9014C71.0403 31.2819 70.8418 30.4001 71.008 29.4179C71.3264 27.4159 72.9561 26.016 74.969 26.016C75.9727 26.016 76.7887 26.3495 77.3262 26.9787C77.8647 27.6144 78.0784 28.5016 77.9241 29.4795Z" fill="#253B80"/>
<path d="M101.676 22.5999H98.1236C97.7847 22.5999 97.4664 22.7683 97.2742 23.05L92.3753 30.2662L90.2987 23.3317C90.1682 22.8978 89.7677 22.5999 89.3144 22.5999H85.824C85.3998 22.5999 85.1052 23.0144 85.2401 23.4137L89.1525 34.8953L85.4743 40.0878C85.185 40.4968 85.4765 41.0592 85.9762 41.0592H89.5238C89.8606 41.0592 90.1757 40.8951 90.3667 40.6188L102.181 23.5659C102.464 23.1579 102.173 22.5999 101.676 22.5999Z" fill="#253B80"/>
<path d="M113.439 15.7724H106.056C105.552 15.7724 105.123 16.1394 105.044 16.638L102.059 35.5656C101.999 35.9391 102.288 36.2758 102.665 36.2758H106.453C106.805 36.2758 107.106 36.0189 107.161 35.6692L108.009 30.304C108.086 29.8043 108.517 29.4374 109.021 29.4374H111.357C116.22 29.4374 119.025 27.0845 119.759 22.4219C120.09 20.3821 119.772 18.7793 118.817 17.6569C117.769 16.4243 115.909 15.7724 113.439 15.7724ZM114.29 22.6853C113.888 25.3339 111.864 25.3339 109.906 25.3339H108.793L109.576 20.3875C109.622 20.0885 109.879 19.8683 110.182 19.8683H110.693C112.025 19.8683 113.283 19.8683 113.933 20.6282C114.32 21.0815 114.438 21.7549 114.29 22.6853Z" fill="#179BD7"/>
<path d="M135.507 22.6H131.974C131.671 22.6 131.413 22.8202 131.368 23.1192L131.211 24.1078L130.963 23.7495C130.198 22.6389 128.492 22.2676 126.789 22.2676C122.883 22.2676 119.548 25.226 118.898 29.3759C118.562 31.4459 119.04 33.4254 120.214 34.8058C121.293 36.0751 122.832 36.6039 124.666 36.6039C127.813 36.6039 129.559 34.5802 129.559 34.5802L129.401 35.5624C129.342 35.938 129.631 36.2747 130.01 36.2747H133.193C133.697 36.2747 134.126 35.9078 134.205 35.408L136.116 23.3102C136.175 22.9379 135.885 22.6 135.507 22.6ZM130.58 29.4795C130.241 31.4988 128.636 32.8544 126.592 32.8544C125.567 32.8544 124.745 32.5252 124.218 31.9014C123.696 31.2819 123.499 30.4001 123.664 29.4179C123.984 27.4159 125.612 26.016 127.625 26.016C128.628 26.016 129.444 26.3495 129.982 26.9787C130.522 27.6144 130.736 28.5016 130.58 29.4795Z" fill="#179BD7"/>
<path d="M139.666 16.2915L136.637 35.5656C136.577 35.939 136.867 36.2757 137.243 36.2757H140.289C140.795 36.2757 141.225 35.9088 141.302 35.4091L144.29 16.4825C144.349 16.1091 144.06 15.7713 143.683 15.7713H140.273C139.972 15.7724 139.713 15.9925 139.666 16.2915Z" fill="#179BD7"/>
<path d="M18.7517 39.954L19.3162 36.3685L18.0588 36.3394H12.0547L16.2272 9.8826C16.2402 9.80274 16.2823 9.72827 16.3438 9.67538C16.4053 9.62249 16.4841 9.59335 16.5661 9.59335H26.6899C30.0509 9.59335 32.3703 10.2927 33.5813 11.6732C34.149 12.3207 34.5105 12.9975 34.6854 13.7422C34.8689 14.5236 34.8721 15.4572 34.6929 16.5958L34.68 16.6789V17.4085L35.2477 17.7302C35.7258 17.9838 36.1057 18.2741 36.3971 18.6066C36.8828 19.1602 37.1969 19.8639 37.3297 20.6982C37.4667 21.5563 37.4214 22.5773 37.1969 23.7332C36.9379 25.0629 36.5191 26.221 35.9536 27.1686C35.4333 28.0418 34.7706 28.766 33.9838 29.3272C33.2326 29.8604 32.3401 30.2651 31.3309 30.5242C30.3531 30.7789 29.2382 30.9073 28.0153 30.9073H27.2274C26.664 30.9073 26.1168 31.1102 25.6873 31.4739C25.2566 31.8452 24.9717 32.3525 24.8843 32.9072L24.8249 33.2299L23.8277 39.5492L23.7823 39.7813C23.7705 39.8547 23.7499 39.8914 23.7197 39.9162C23.6927 39.9389 23.6539 39.954 23.6161 39.954H18.7517Z" fill="#253B80"/>
<path d="M35.7903 16.7631C35.7601 16.9563 35.7256 17.1538 35.6867 17.3567C34.3516 24.2113 29.784 26.5793 23.9504 26.5793H20.9802C20.2668 26.5793 19.6656 27.0974 19.5545 27.8011L18.0337 37.4457L17.6031 40.1795C17.5308 40.6415 17.887 41.0581 18.3532 41.0581H23.6213C24.2451 41.0581 24.775 40.6048 24.8732 39.9896L24.9251 39.7219L25.9169 33.4275L25.9806 33.0821C26.0777 32.4647 26.6088 32.0114 27.2326 32.0114H28.0205C33.1245 32.0114 37.12 29.9392 38.2878 23.9426C38.7757 21.4376 38.5231 19.3459 37.2323 17.8748C36.8416 17.4312 36.357 17.0632 35.7903 16.7631Z" fill="#179BD7"/>
<path d="M34.3939 16.2061C34.1899 16.1468 33.9795 16.0928 33.7636 16.0442C33.5467 15.9968 33.3244 15.9547 33.0955 15.918C32.2947 15.7884 31.4172 15.7269 30.4772 15.7269H22.5422C22.3468 15.7269 22.1612 15.7712 21.995 15.851C21.6291 16.027 21.3571 16.3734 21.2913 16.7976L19.6033 27.4891L19.5547 27.801C19.6659 27.0973 20.267 26.5793 20.9804 26.5793H23.9507C29.7843 26.5793 34.3518 24.2102 35.6869 17.3567C35.7269 17.1538 35.7603 16.9562 35.7905 16.7631C35.4527 16.5839 35.0868 16.4306 34.6929 16.3C34.5958 16.2677 34.4954 16.2364 34.3939 16.2061Z" fill="#222D65"/>
<path d="M21.2904 16.7977C21.3562 16.3735 21.6282 16.027 21.9941 15.8522C22.1614 15.7723 22.346 15.7281 22.5413 15.7281H30.4763C31.4164 15.7281 32.2938 15.7896 33.0947 15.9191C33.3235 15.9558 33.5458 15.9979 33.7628 16.0454C33.9786 16.094 34.1891 16.1479 34.3931 16.2073C34.4945 16.2375 34.5949 16.2688 34.6931 16.3001C35.0871 16.4307 35.4529 16.585 35.7908 16.7631C36.1879 14.23 35.7875 12.5053 34.4179 10.9436C32.908 9.22424 30.1827 8.48816 26.6955 8.48816H16.5717C15.8594 8.48816 15.2517 9.00622 15.1417 9.711L10.9248 36.4398C10.8417 36.9686 11.2497 37.4457 11.7829 37.4457H18.0331L19.6024 27.4892L21.2904 16.7977Z" fill="#253B80"/>
</svg>
