<svg width="28" height="28" viewBox="0 0 28 28" fill="none" xmlns="http://www.w3.org/2000/svg">
<path d="M23.625 23.625L18.3488 18.375M20.6325 12.5037C20.6325 14.1115 20.1558 15.6831 19.2626 17.0198C18.3694 18.3566 17.0998 19.3985 15.6145 20.0137C14.1292 20.629 12.4947 20.79 10.9179 20.4763C9.34109 20.1627 7.89269 19.3885 6.75586 18.2516C5.61903 17.1148 4.84484 15.6664 4.5312 14.0896C4.21755 12.5128 4.37852 10.8783 4.99377 9.39301C5.60901 7.90768 6.6509 6.63814 7.98766 5.74494C9.32443 4.85174 10.896 4.375 12.5038 4.375C13.5712 4.375 14.6283 4.58526 15.6145 4.99376C16.6007 5.40227 17.4968 6.00103 18.2516 6.75586C19.0065 7.51068 19.6052 8.40679 20.0137 9.39301C20.4222 10.3792 20.6325 11.4363 20.6325 12.5037Z" stroke="white" stroke-width="0.875"/>
</svg>
