<svg width="34" height="33" viewBox="0 0 34 33" fill="none" xmlns="http://www.w3.org/2000/svg">
<path d="M16.5414 0.960617C16.6327 0.679758 17.0303 0.679758 17.1215 0.960617L20.3715 10.9635C20.6131 11.7072 21.3064 12.2106 22.0883 12.2106H32.6059C32.9011 12.2106 33.0242 12.5887 32.7856 12.7624L24.2758 18.945C23.6435 19.4046 23.379 20.2191 23.6205 20.9626L26.8705 30.9655C26.9618 31.2464 26.6407 31.4799 26.4018 31.3063L17.892 25.1247C17.2595 24.6651 16.4035 24.6651 15.7709 25.1247L7.26117 31.3063C7.02225 31.4799 6.70116 31.2464 6.79242 30.9655L10.0424 20.9626C10.284 20.2191 10.0195 19.4046 9.38715 18.945L0.87738 12.7624C0.638752 12.5887 0.761837 12.2106 1.05707 12.2106H11.5746C12.3566 12.2106 13.0498 11.7072 13.2914 10.9635L16.5414 0.960617Z" stroke="#D9D9D9" stroke-width="1.5"/>
</svg>
