<svg width="13" height="13" viewBox="0 0 13 13" fill="none" xmlns="http://www.w3.org/2000/svg">
<path d="M6.00215 0.276396C6.12189 -0.0921281 6.64325 -0.0921285 6.76299 0.276396L7.99547 4.06959C8.04902 4.2344 8.20261 4.34598 8.3759 4.34598H12.3643C12.7518 4.34598 12.9129 4.84183 12.5994 5.06959L9.37273 7.41391C9.23253 7.51577 9.17387 7.69631 9.22742 7.86112L10.4599 11.6543C10.5796 12.0228 10.1578 12.3293 9.84436 12.1015L6.61768 9.7572C6.47749 9.65535 6.28765 9.65535 6.14745 9.7572L2.92077 12.1015C2.60729 12.3293 2.1855 12.0228 2.30524 11.6543L3.53772 7.86112C3.59127 7.69631 3.53261 7.51577 3.39241 7.41391L0.16573 5.06959C-0.147756 4.84183 0.0133547 4.34598 0.400844 4.34598H4.38924C4.56253 4.34598 4.71611 4.2344 4.76966 4.06959L6.00215 0.276396Z" fill="#15161A"/>
</svg>
