<svg width="154" height="49" viewBox="0 0 154 49" fill="none" xmlns="http://www.w3.org/2000/svg">
<path opacity="0.749" fill-rule="evenodd" clip-rule="evenodd" d="M143.027 40.2807H12.1883C8.13597 40.2807 4.85156 36.9962 4.85156 32.9439V15.8249C4.85156 11.7726 8.13597 8.48816 12.1883 8.48816H143.027C147.079 8.48816 150.363 11.7726 150.363 15.8249V32.9439C150.363 36.9962 147.079 40.2807 143.027 40.2807ZM149.141 15.8249C149.141 12.4488 146.403 9.71095 143.027 9.71095H12.1883C8.81217 9.71095 6.07435 12.4488 6.07435 15.8249V32.9439C6.07435 36.32 8.81217 39.0579 12.1883 39.0579H143.027C146.403 39.0579 149.141 36.32 149.141 32.9439V15.8249Z" fill="black"/>
<path fill-rule="evenodd" clip-rule="evenodd" d="M79.0709 31.0327H77.4751L78.7101 27.9831L76.2523 21.7811H77.9385L79.4829 26.0022L81.0395 21.7811H82.7258L79.0709 31.0327ZM72.9447 28.3695C72.392 28.3695 71.8246 28.1641 71.311 27.7642V28.2154H69.6639V18.9626H71.311V22.2189C71.8246 21.8325 72.392 21.627 72.9447 21.627C74.6688 21.627 75.8525 23.0161 75.8525 24.9983C75.8525 26.9792 74.6688 28.3695 72.9447 28.3695ZM72.5974 23.0418C72.1474 23.0418 71.6962 23.235 71.311 23.6214V26.3751C71.6962 26.7603 72.1474 26.9535 72.5974 26.9535C73.5243 26.9535 74.1675 26.1563 74.1675 24.9983C74.1675 23.8403 73.5243 23.0418 72.5974 23.0418ZM62.9961 27.7642C62.4947 28.1641 61.9286 28.3695 61.3624 28.3695C59.6505 28.3695 58.4546 26.9792 58.4546 24.9983C58.4546 23.0161 59.6505 21.627 61.3624 21.627C61.9286 21.627 62.4947 21.8325 62.9961 22.2189V18.9626H64.6566V28.2154H62.9961V27.7642ZM62.9961 23.6214C62.6231 23.235 62.1731 23.0418 61.7232 23.0418C60.7828 23.0418 60.1396 23.8403 60.1396 24.9983C60.1396 26.1563 60.7828 26.9535 61.7232 26.9535C62.1731 26.9535 62.6231 26.7603 62.9961 26.3751V23.6214ZM53.1905 25.4483C53.2933 26.4265 54.0661 27.0954 55.1458 27.0954C55.7388 27.0954 56.3942 26.8765 57.0631 26.4901V27.8682C56.3307 28.202 55.597 28.3695 54.8755 28.3695C52.9325 28.3695 51.5691 26.9535 51.5691 24.9469C51.5691 23.0039 52.9069 21.627 54.7471 21.627C56.4334 21.627 57.5779 22.9526 57.5779 24.843C57.5779 25.024 57.5779 25.2294 57.5522 25.4483H53.1905ZM54.6836 22.9C53.8851 22.9 53.2676 23.493 53.1905 24.3808H55.9956C55.9443 23.5053 55.4172 22.9 54.6836 22.9ZM48.8533 23.9173V28.2154H47.2062V21.7811H48.8533V22.4243C49.3167 21.9095 49.8829 21.627 50.4356 21.627C50.6166 21.627 50.7963 21.6393 50.9761 21.6906V23.158C50.7963 23.1066 50.5909 23.0809 50.3977 23.0809C49.8572 23.0809 49.2776 23.3769 48.8533 23.9173ZM41.5056 25.4483C41.6083 26.4265 42.3799 27.0954 43.4608 27.0954C44.0526 27.0954 44.7093 26.8765 45.3781 26.4901V27.8682C44.6445 28.202 43.9108 28.3695 43.1906 28.3695C41.2476 28.3695 39.8842 26.9535 39.8842 24.9469C39.8842 23.0039 41.2219 21.627 43.0622 21.627C44.7472 21.627 45.8929 22.9526 45.8929 24.843C45.8929 25.024 45.8929 25.2294 45.8673 25.4483H41.5056ZM42.9974 22.9C42.2001 22.9 41.5826 23.493 41.5056 24.3808H44.3107C44.2593 23.5053 43.731 22.9 42.9974 22.9ZM35.7524 28.2154L34.4391 23.8403L33.1393 28.2154H31.6597L29.4464 21.7811H31.0935L32.3934 26.1563L33.6932 21.7811H35.185L36.4848 26.1563L37.7846 21.7811H39.4317L37.2319 28.2154H35.7524ZM25.6876 28.3695C23.7446 28.3695 22.3677 26.967 22.3677 24.9983C22.3677 23.0161 23.7446 21.627 25.6876 21.627C27.6306 21.627 28.9952 23.0161 28.9952 24.9983C28.9952 26.967 27.6306 28.3695 25.6876 28.3695ZM25.6876 23.0039C24.7228 23.0039 24.0539 23.8146 24.0539 24.9983C24.0539 26.1819 24.7228 26.9926 25.6876 26.9926C26.6401 26.9926 27.309 26.1819 27.309 24.9983C27.309 23.8146 26.6401 23.0039 25.6876 23.0039ZM18.4548 25.0362H16.9752V28.2154H15.3281V19.3612H18.4548C20.2572 19.3612 21.5436 20.5327 21.5436 22.2054C21.5436 23.8782 20.2572 25.0362 18.4548 25.0362ZM18.2237 20.7002H16.9752V23.6985H18.2237C19.1762 23.6985 19.8451 23.0932 19.8451 22.2054C19.8451 21.3055 19.1762 20.7002 18.2237 20.7002ZM140.719 25.6696H133.921C134.077 27.2971 135.269 27.7765 136.623 27.7765C138.001 27.7765 139.087 27.4854 140.033 27.0085V29.8051C139.09 30.3284 137.844 30.705 136.185 30.705C132.803 30.705 130.433 28.5872 130.433 24.4003C130.433 20.864 132.443 18.0565 135.746 18.0565C139.044 18.0565 140.765 20.8628 140.765 24.4187C140.765 24.7549 140.735 25.4825 140.719 25.6696ZM135.724 20.8873C134.856 20.8873 133.891 21.5427 133.891 23.1066H137.481C137.481 21.5439 136.576 20.8873 135.724 20.8873ZM124.813 30.705C123.597 30.705 122.855 30.1927 122.356 29.8271L122.349 33.7559L118.877 34.4945L118.876 18.2876H121.933L122.114 19.1448C122.594 18.6972 123.473 18.0565 124.834 18.0565C127.272 18.0565 129.568 20.2526 129.568 24.2952C129.568 28.707 127.296 30.705 124.813 30.705ZM124.003 21.1318C123.207 21.1318 122.707 21.4228 122.345 21.8202L122.366 26.9792C122.704 27.3448 123.189 27.6383 124.003 27.6383C125.287 27.6383 126.148 26.2406 126.148 24.371C126.148 22.5551 125.274 21.1318 124.003 21.1318ZM113.858 18.2876H117.343V30.4568H113.858V18.2876ZM113.858 14.4016L117.343 13.6606V16.4889L113.858 17.2299V14.4016ZM110.142 22.2067V30.4568H106.672V18.2876H109.674L109.891 19.3135C110.704 17.8193 112.327 18.1225 112.789 18.2888V21.4803C112.348 21.3372 110.962 21.1294 110.142 22.2067ZM102.7 26.1881C102.7 28.2338 104.891 27.5967 105.335 27.4194V30.2453C104.873 30.4996 104.034 30.705 102.899 30.705C100.839 30.705 99.2921 29.1875 99.2921 27.132L99.308 15.9937L102.698 15.2722L102.7 18.2876H105.336V21.248H102.7V26.1881ZM98.3726 26.7799C98.3726 29.2793 96.3831 30.705 93.4961 30.705C92.299 30.705 90.9906 30.4727 89.6993 29.9176V26.6026C90.8646 27.236 92.3491 27.7116 93.4998 27.7116C94.2738 27.7116 94.8314 27.5038 94.8314 26.8618C94.8314 25.2049 89.5538 25.8286 89.5538 21.9853C89.5538 19.5275 91.4308 18.0565 94.2469 18.0565C95.3975 18.0565 96.5469 18.2326 97.6976 18.6911V21.9621C96.6411 21.3911 95.2997 21.0682 94.2444 21.0682C93.5169 21.0682 93.0644 21.2786 93.0644 21.8202C93.0644 23.383 98.3726 22.6395 98.3726 26.7799Z" fill="black"/>
</svg>
