<svg width="32" height="32" viewBox="0 0 32 32" fill="none" xmlns="http://www.w3.org/2000/svg">
<path d="M3.22559 26.6236C3.01838 26.9823 3.14115 27.441 3.49981 27.6482C3.85847 27.8554 4.3172 27.7327 4.52441 27.374L3.875 26.9988L3.22559 26.6236ZM27.4785 27.3743C27.6857 27.7329 28.1444 27.8557 28.5031 27.6485C28.8617 27.4413 28.9845 26.9826 28.7773 26.6239L28.1279 26.9991L27.4785 27.3743ZM24.0014 12H23.2514C23.2514 16.0041 20.0054 19.25 16.0014 19.25V20V20.75C20.8339 20.75 24.7514 16.8325 24.7514 12H24.0014ZM16.0014 20V19.25C11.9973 19.25 8.75138 16.0041 8.75138 12H8.00138H7.25138C7.25138 16.8325 11.1689 20.75 16.0014 20.75V20ZM8.00138 12H8.75138C8.75138 7.99594 11.9973 4.75 16.0014 4.75V4V3.25C11.1689 3.25 7.25138 7.16751 7.25138 12H8.00138ZM16.0014 4V4.75C20.0054 4.75 23.2514 7.99594 23.2514 12H24.0014H24.7514C24.7514 7.16751 20.8339 3.25 16.0014 3.25V4ZM3.875 26.9988L4.52441 27.374C5.68802 25.3599 7.36116 23.6875 9.37576 22.5248L9.00085 21.8752L8.62595 21.2256C6.38337 22.52 4.52088 24.3816 3.22559 26.6236L3.875 26.9988ZM9.00085 21.8752L9.37576 22.5248C11.3904 21.3621 13.6753 20.75 16.0014 20.75L16.0014 20L16.0014 19.25C13.4121 19.25 10.8685 19.9313 8.62595 21.2256L9.00085 21.8752ZM16.0014 20L16.0014 20.75C18.3274 20.75 20.6127 21.3622 22.6272 22.5249L23.0021 21.8754L23.3771 21.2258C21.1345 19.9314 18.5907 19.25 16.0014 19.25L16.0014 20ZM23.0021 21.8754L22.6272 22.5249C24.6418 23.6877 26.3149 25.3601 27.4785 27.3743L28.1279 26.9991L28.7773 26.6239C27.4821 24.3819 25.6196 22.5202 23.3771 21.2258L23.0021 21.8754Z" fill="white"/>
</svg>
