<svg width="24" height="24" viewBox="0 0 24 24" fill="none" xmlns="http://www.w3.org/2000/svg">
<path d="M2.25684 19.8739C2.04963 20.2326 2.1724 20.6913 2.53106 20.8985C2.88972 21.1057 3.34845 20.983 3.55566 20.6243L2.90625 20.2491L2.25684 19.8739ZM20.4465 20.6245C20.6537 20.9831 21.1124 21.1059 21.4711 20.8987C21.8298 20.6915 21.9525 20.2328 21.7453 19.8741L21.0959 20.2493L20.4465 20.6245ZM18.001 9H17.251C17.251 11.8995 14.9005 14.25 12.001 14.25V15V15.75C15.729 15.75 18.751 12.7279 18.751 9H18.001ZM12.001 15V14.25C9.10154 14.25 6.75103 11.8995 6.75103 9H6.00103H5.25103C5.25103 12.7279 8.27311 15.75 12.001 15.75V15ZM6.00103 9H6.75103C6.75103 6.1005 9.10154 3.75 12.001 3.75V3V2.25C8.27311 2.25 5.25103 5.27208 5.25103 9H6.00103ZM12.001 3V3.75C14.9005 3.75 17.251 6.1005 17.251 9H18.001H18.751C18.751 5.27208 15.729 2.25 12.001 2.25V3ZM2.90625 20.2491L3.55566 20.6243C4.41191 19.1422 5.6431 17.9116 7.12554 17.056L6.75064 16.4064L6.37574 15.7568C4.6653 16.744 3.24477 18.1639 2.25684 19.8739L2.90625 20.2491ZM6.75064 16.4064L7.12554 17.056C8.608 16.2004 10.2894 15.75 12.001 15.75L12.001 15L12.001 14.25C10.0262 14.25 8.08617 14.7697 6.37574 15.7568L6.75064 16.4064ZM12.001 15L12.001 15.75C13.7127 15.75 15.3943 16.2005 16.8767 17.0561L17.2516 16.4065L17.6265 15.757C15.9161 14.7697 13.9759 14.25 12.001 14.25L12.001 15ZM17.2516 16.4065L16.8767 17.0561C18.3591 17.9117 19.5903 19.1424 20.4465 20.6245L21.0959 20.2493L21.7453 19.8741C20.7574 18.1641 19.3369 16.7442 17.6265 15.757L17.2516 16.4065Z" fill="#fff"/>
</svg>
