<svg width="154" height="49" viewBox="0 0 154 49" fill="none" xmlns="http://www.w3.org/2000/svg">
<path d="M113.484 18.1999H112.429C111.022 21.6697 109.967 23.4046 108.911 28.6093H115.595C114.539 23.4046 114.539 20.9757 113.484 18.1999ZM123.685 38.6716H117.705C117.353 38.6716 117.353 38.6716 117.002 38.3247L116.298 35.2019L115.946 34.5079H107.505C107.153 34.5079 106.801 34.5079 106.801 35.2019L105.746 38.3247C105.746 38.6716 105.394 38.6716 105.394 38.6716H98.0074L98.7108 36.9367L108.911 13.3422C108.911 11.6073 109.967 10.9134 111.725 10.9134H117.002C117.353 10.9134 117.705 10.9134 117.705 11.6073L122.63 34.1609C122.981 35.5488 123.333 36.5898 123.333 37.9777C123.685 38.3247 123.685 38.3247 123.685 38.6716ZM76.5508 37.6307L77.9578 31.3851C78.3096 31.3851 78.6613 31.7321 78.6613 31.7321C81.1235 32.773 83.5858 33.467 86.048 33.12C86.7515 33.12 87.8067 32.773 88.5102 32.426C90.2689 31.7321 90.2689 29.9972 88.862 28.6093C88.1585 27.9153 87.1032 27.5683 86.048 26.8744C84.641 26.1804 83.234 25.4865 82.1788 24.4455C77.9578 20.9757 79.3648 16.118 81.827 13.6892C83.9375 12.3013 84.9927 10.9134 87.8067 10.9134C92.0277 10.9134 96.6004 10.9134 98.7108 11.6073H99.0626C98.7108 13.6892 98.3591 15.4241 97.6556 17.5059C95.8969 16.812 94.1381 16.118 92.3794 16.118C91.3242 16.118 90.2689 16.118 89.2137 16.465C88.5102 16.465 88.1585 16.812 87.8067 17.159C87.1032 17.8529 87.1032 18.8939 87.8067 19.5878L89.5654 20.9757C90.9724 21.6697 92.3794 22.3636 93.4347 23.0576C95.1934 24.0985 96.9521 25.8334 97.3039 27.9153C98.0074 31.0381 96.9521 33.8139 94.1381 35.8958C92.3794 37.2837 91.6759 37.9777 89.2137 37.9777C84.2893 37.9777 80.42 38.3247 77.2543 37.2837C76.9026 37.9777 76.9026 37.9777 76.5508 37.6307ZM64.2397 38.6716C64.5915 36.2428 64.5915 36.2428 64.9432 35.2019C66.702 27.5683 68.4607 19.5878 69.8677 11.9543C70.2194 11.2603 70.2194 10.9134 70.9229 10.9134H77.2543C76.5508 15.0771 75.8473 18.1999 74.7921 22.0167C73.7369 27.2213 72.6816 32.426 71.2746 37.6307C71.2746 38.3247 70.9229 38.3247 70.2194 38.3247M31.5273 11.6073C31.5273 11.2603 32.2308 10.9134 32.5826 10.9134H44.5419C46.3007 10.9134 47.7077 11.9543 48.0594 13.6892L51.2251 28.9562C51.2251 29.3032 51.2251 29.3032 51.5769 29.6502C51.5769 29.3032 51.9286 29.3032 51.9286 29.3032L59.3153 11.6073C58.9635 11.2603 59.3153 10.9134 59.667 10.9134H67.0537C67.0537 11.2603 67.0537 11.2603 66.702 11.6073L55.7978 36.9367C55.4461 37.6307 55.4461 37.9777 55.0943 38.3247C54.7426 38.6716 54.0391 38.3247 53.3356 38.3247H48.0594C47.7077 38.3247 47.3559 38.3247 47.3559 37.6307L41.728 16.118C41.0245 15.4241 39.9692 14.3831 38.5623 14.0362C36.4518 12.9952 32.5826 12.3013 31.8791 12.3013L31.5273 11.6073Z" fill="#142688"/>
</svg>
