<svg width="38" height="24" viewBox="0 0 38 24" fill="none" xmlns="http://www.w3.org/2000/svg">
<path opacity="0.07" d="M34.1426 0H2.92651C1.26815 0 0 1.26815 0 2.92651V20.4856C0 22.1439 1.3657 23.4121 2.92651 23.4121H34.1426C35.801 23.4121 37.0691 22.1439 37.0691 20.4856V2.92651C37.0691 1.26815 35.7034 0 34.1426 0Z" fill="black"/>
<path d="M34.1476 0.976562C35.2206 0.976562 36.0986 1.85452 36.0986 2.92757V20.4866C36.0986 21.5597 35.2206 22.4376 34.1476 22.4376H2.93147C1.85842 22.4376 0.980469 21.5597 0.980469 20.4866V2.92757C0.980469 1.85452 1.85842 0.976562 2.93147 0.976562H34.1476Z" fill="#006FCF"/>
<path d="M12.7539 19.4491V11.2344L27.3747 11.2471V13.5161L25.6852 15.3227L27.3747 17.144V19.4608H24.6765L23.2425 17.8785L21.8183 19.4666L12.7539 19.4471V19.4491Z" fill="white"/>
<path d="M13.7305 18.5458V12.1367H19.166V13.6127H15.4903V14.6155H19.0782V16.067H15.4903V17.0523H19.166V18.5458H13.7305Z" fill="#006FCF"/>
<path d="M19.1328 18.5467L22.1403 15.3383L19.1328 12.1367H21.4604L23.2982 14.1687L25.1419 12.1377H27.369V12.1874L24.4259 15.3383L27.369 18.457V18.5477H25.1185L23.2485 16.4962L21.397 18.5487H19.1328V18.5467Z" fill="#006FCF"/>
<path d="M13.4316 3.94043H16.9571L18.195 6.75085V3.94043H22.5457L23.2969 6.04654L24.049 3.94043H27.3716V12.1551H9.8125L13.4316 3.94043Z" fill="white"/>
<path d="M14.1024 4.83301L11.2578 11.2382H13.2088L13.7453 9.95537H16.6523L17.1889 11.2382H19.1886L16.3558 4.83301H14.1024ZM14.3463 8.51748L15.1998 6.47868L16.0514 8.51748H14.3463Z" fill="#006FCF"/>
<path d="M19.1641 11.2391V4.83301L21.9062 4.84276L23.3187 8.78087L24.7391 4.83398H27.3768V11.2382L25.6794 11.2538V6.85425L24.0757 11.2382H22.5247L20.8897 6.83962V11.2391H19.165H19.1641Z" fill="#006FCF"/>
</svg>
