<svg width="38" height="24" viewBox="0 0 38 24" fill="none" xmlns="http://www.w3.org/2000/svg">
<path d="M33.5494 0H3.52892C3.40387 0 3.2786 0 3.15376 0.000662824C3.04837 0.00154659 2.94321 0.0026513 2.83782 0.00552354C2.60826 0.0117099 2.37671 0.0254083 2.15003 0.0660615C1.92269 0.105011 1.70242 0.177614 1.49648 0.281479C1.08247 0.492054 0.74596 0.828567 0.535386 1.24257C0.431335 1.44859 0.358724 1.66903 0.319968 1.89656C0.278873 2.12347 0.265395 2.35479 0.259209 2.58413C0.256516 2.68943 0.254896 2.79475 0.254348 2.90008C0.253906 3.02469 0.253906 3.14974 0.253906 3.27502V20.1368C0.253906 20.2621 0.253906 20.3869 0.254348 20.5122C0.255011 20.6174 0.256337 20.7228 0.259209 20.8282C0.265395 21.057 0.279094 21.2886 0.319968 21.5153C0.358644 21.7428 0.431181 21.9632 0.535165 22.1693C0.639711 22.375 0.776174 22.563 0.939488 22.726C1.10252 22.8894 1.29045 23.0259 1.49626 23.1304C1.70549 23.2371 1.91981 23.3049 2.15025 23.3462C2.37671 23.3867 2.60826 23.4004 2.83782 23.4065C2.94321 23.409 3.04837 23.4103 3.15376 23.411C3.2786 23.4118 3.40387 23.4118 3.52892 23.4118H33.5494C33.6742 23.4118 33.7995 23.4118 33.9243 23.411C34.0295 23.4105 34.1346 23.409 34.2405 23.4065C34.4696 23.4004 34.7011 23.3867 34.9282 23.3462C35.1556 23.3072 35.3759 23.2345 35.5818 23.1304C35.9956 22.9195 36.332 22.5831 36.5429 22.1693C36.6496 21.96 36.7172 21.7457 36.7581 21.5153C36.7992 21.2886 36.8124 21.057 36.8186 20.8282C36.8215 20.7228 36.823 20.6174 36.8235 20.5122C36.8244 20.3869 36.8244 20.2621 36.8244 20.1368V3.27524C36.8244 3.14996 36.8244 3.02491 36.8235 2.89986C36.8231 2.7946 36.8214 2.68935 36.8186 2.58413C36.8124 2.35479 36.7992 2.12347 36.7581 1.89656C36.7196 1.669 36.6471 1.44853 36.5429 1.24257C36.3322 0.828639 35.9957 0.492154 35.5818 0.281479C35.3758 0.177721 35.1556 0.105194 34.9282 0.0662825C34.7011 0.0254083 34.4696 0.0119308 34.2405 0.00574448C34.1351 0.00306828 34.0297 0.00144796 33.9243 0.000883766C33.7995 0 33.6742 0 33.5494 0Z" fill="black"/>
<path d="M33.5424 0.783203L33.9118 0.783866C34.0117 0.784529 34.1118 0.785633 34.2123 0.788285C34.3875 0.793145 34.5921 0.802646 34.783 0.836892C34.9487 0.866719 35.0879 0.912012 35.2214 0.980062C35.4884 1.11584 35.7054 1.33304 35.8409 1.60024C35.9085 1.73281 35.9536 1.87112 35.9834 2.03837C36.0174 2.22706 36.0269 2.43231 36.0315 2.6084C36.0344 2.70782 36.0357 2.80725 36.036 2.90888C36.0371 3.03195 36.0371 3.15479 36.0371 3.27807V20.1399C36.0371 20.2632 36.0371 20.386 36.0362 20.5115C36.0357 20.6109 36.0344 20.7104 36.0318 20.8098C36.0269 20.9857 36.0174 21.1909 35.9829 21.3818C35.9579 21.5337 35.9098 21.6808 35.8404 21.8182C35.7046 22.0855 35.4874 22.3027 35.22 22.4383C35.0875 22.506 34.9487 22.5512 34.7846 22.5809C34.5899 22.6155 34.3765 22.625 34.2159 22.6295C34.1149 22.6317 34.0144 22.6332 33.9112 22.6337C33.7886 22.6345 33.6653 22.6345 33.5424 22.6345H3.51713C3.39562 22.6345 3.2741 22.6345 3.15037 22.6337C3.05094 22.6332 2.95151 22.6319 2.8521 22.6297C2.68772 22.6253 2.47429 22.6155 2.28119 22.5811C2.12851 22.5556 1.98057 22.5072 1.8424 22.4375C1.70986 22.3701 1.58889 22.2821 1.48403 22.1768C1.37884 22.0717 1.29099 21.9507 1.22376 21.8182C1.15433 21.68 1.10621 21.5321 1.08103 21.3796C1.04657 21.1889 1.03684 20.9846 1.03243 20.81C1.02993 20.7102 1.02846 20.6104 1.02801 20.5106L1.02734 20.2174V3.20075L1.02779 2.908C1.02824 2.80805 1.02971 2.7081 1.0322 2.60818C1.03707 2.43319 1.04657 2.22882 1.08125 2.0366C1.10648 1.88434 1.1546 1.73678 1.22398 1.59892C1.29115 1.4668 1.37864 1.34616 1.48469 1.24033C1.5898 1.13505 1.7109 1.04706 1.8435 0.97962C1.98134 0.910372 2.12881 0.862257 2.28097 0.836892C2.47208 0.802646 2.67689 0.793145 2.85232 0.788285C2.95219 0.785633 3.05227 0.784529 3.15148 0.783866L3.52199 0.783203H33.5424Z" fill="white"/>
<path d="M9.85344 7.90372C10.1635 7.51615 10.3737 6.99564 10.3183 6.46387C9.8647 6.48639 9.31129 6.7631 8.99063 7.15111C8.70288 7.48325 8.44826 8.0254 8.51451 8.53487C9.02376 8.57904 9.53256 8.28047 9.85344 7.90372Z" fill="black"/>
<path d="M10.3189 8.63383C9.5787 8.58964 8.9499 9.05362 8.59661 9.05362C8.2431 9.05362 7.70202 8.65592 7.11674 8.66675C6.35516 8.67779 5.64859 9.10863 5.26194 9.79355C4.46699 11.1634 5.05205 13.196 5.82534 14.3118C6.20072 14.8642 6.65321 15.4717 7.24931 15.4499C7.81271 15.4278 8.03343 15.0853 8.71791 15.0853C9.40216 15.0853 9.60101 15.4499 10.1973 15.4388C10.8155 15.4278 11.2022 14.8865 11.5776 14.3341C12.0084 13.7044 12.1845 13.0968 12.1955 13.0637C12.1845 13.0527 11.0033 12.5995 10.9923 11.2407C10.9812 10.1029 11.9198 9.56156 11.964 9.5282C11.4339 8.7443 10.6059 8.65592 10.3186 8.63383" fill="black"/>
<path d="M17.6967 7.09961C19.3047 7.09961 20.4247 8.20807 20.4247 9.82183C20.4247 11.4413 19.2818 12.5555 17.6565 12.5555H15.8762V15.3871H14.5898V7.09961H17.6967ZM15.8762 11.4758H17.3521C18.4722 11.4758 19.1094 10.8728 19.1094 9.82757C19.1094 8.78252 18.472 8.18509 17.3578 8.18509H15.8762V11.4758Z" fill="black"/>
<path d="M20.7344 13.6673C20.7344 12.6048 21.5441 11.9961 23.0372 11.9042L24.6395 11.8065V11.347C24.6395 10.6753 24.1974 10.3077 23.4106 10.3077C22.7615 10.3077 22.2905 10.6406 22.1933 11.1517H21.0329C21.0676 10.0779 22.0781 9.29688 23.4451 9.29688C24.9153 9.29688 25.8744 10.0664 25.8744 11.261V15.3845H24.6857V14.3909H24.657C24.318 15.0398 23.5713 15.4474 22.7615 15.4474C21.5671 15.4474 20.7344 14.7356 20.7344 13.6673ZM24.6395 13.1333V12.668L23.2096 12.7599C22.4054 12.8116 21.9865 13.1101 21.9865 13.6326C21.9865 14.1381 22.4228 14.4656 23.1062 14.4656C23.9789 14.4656 24.6395 13.9084 24.6395 13.1333Z" fill="black"/>
<path d="M26.9802 17.6027V16.6093C27.0607 16.6206 27.2558 16.6321 27.3592 16.6321C27.9276 16.6321 28.2493 16.3913 28.4446 15.7706L28.5595 15.4032L26.3828 9.37305H27.7266L29.2429 14.266H29.2716L30.7877 9.37305H32.0972L29.8401 15.7074C29.3231 17.1606 28.7316 17.6374 27.4798 17.6374C27.3821 17.6374 27.0662 17.6259 26.9802 17.6027Z" fill="black"/>
</svg>
