<svg width="38" height="24" viewBox="0 0 38 24" fill="none" xmlns="http://www.w3.org/2000/svg">
<path opacity="0.07" d="M34.1426 0H2.92651C1.26815 0 0 1.26815 0 2.92651V20.4856C0 22.1439 1.3657 23.4121 2.92651 23.4121H34.1426C35.801 23.4121 37.0691 22.1439 37.0691 20.4856V2.92651C37.0691 1.26815 35.7034 0 34.1426 0Z" fill="black"/>
<path d="M34.1437 0.976562C35.2167 0.976562 36.0947 1.85452 36.0947 2.92757V20.4866C36.0947 21.5597 35.2167 22.4376 34.1437 22.4376H2.92757C1.85452 22.4376 0.976562 21.5597 0.976562 20.4866V2.92757C0.976562 1.85452 1.85452 0.976562 2.92757 0.976562H34.1437Z" fill="white"/>
<path d="M17.6493 11.6848V14.8064H16.6562V7.09995H19.2813C19.5959 7.09463 19.9083 7.15152 20.2008 7.26737C20.4933 7.38322 20.76 7.55574 20.9855 7.775C21.1992 7.97439 21.3715 8.21393 21.4925 8.47993C21.6136 8.74594 21.681 9.03319 21.691 9.32527C21.7009 9.61735 21.6532 9.90853 21.5506 10.1822C21.448 10.4558 21.2924 10.7065 21.0928 10.92L20.9855 11.0332C20.527 11.4692 19.9144 11.7063 19.2813 11.6907L17.6493 11.6848ZM17.6493 8.04424V10.7639H19.3057C19.6735 10.7756 20.0286 10.6322 20.2861 10.3698C20.4703 10.1778 20.594 9.9359 20.6418 9.67414C20.6896 9.41238 20.6594 9.14235 20.5549 8.89764C20.4504 8.65292 20.2763 8.44432 20.0542 8.29779C19.8321 8.15126 19.5718 8.07326 19.3057 8.0735L17.6493 8.04424ZM23.9745 9.35922C24.6085 9.32995 25.229 9.54261 25.7089 9.9572C26.143 10.3767 26.3742 10.962 26.343 11.5658V14.8181H25.3977V14.0709H25.3499C25.1804 14.3512 24.9407 14.5824 24.6545 14.7416C24.3683 14.9009 24.0454 14.9828 23.7179 14.9791C23.1832 14.9964 22.6618 14.8106 22.2586 14.4591C22.0675 14.3033 21.9144 14.106 21.8108 13.8823C21.7072 13.6585 21.6558 13.4141 21.6606 13.1676C21.6493 12.9184 21.6977 12.6702 21.8017 12.4435C21.9057 12.2168 22.0623 12.0183 22.2586 11.8643C22.7399 11.5182 23.3225 11.3415 23.915 11.3619C24.4193 11.3424 24.9197 11.4526 25.3685 11.6848V11.4819C25.3718 11.3141 25.3368 11.1478 25.2664 10.9956C25.1959 10.8433 25.0917 10.709 24.9617 10.603C24.7006 10.3656 24.3585 10.2371 24.0057 10.244C23.7494 10.2416 23.4968 10.3045 23.2717 10.4269C23.0465 10.5493 22.8563 10.7271 22.719 10.9434L21.8459 10.3932C22.083 10.0536 22.4031 9.78024 22.7756 9.59924C23.1482 9.41824 23.5609 9.33561 23.9745 9.35922ZM22.719 13.191C22.7167 13.3173 22.7454 13.4423 22.8027 13.5549C22.8601 13.6675 22.9442 13.7643 23.0477 13.8368C23.2653 14.0085 23.5355 14.0992 23.8135 14.0933C24.232 14.0924 24.6329 13.9275 24.9314 13.6329C25.229 13.3539 25.3977 12.9647 25.3977 12.5569C25.0222 12.2899 24.5659 12.161 24.1062 12.1921C23.7492 12.178 23.3971 12.2785 23.1014 12.4789C22.9843 12.5572 22.8882 12.6631 22.8215 12.7873C22.7548 12.9114 22.7196 13.0501 22.719 13.191ZM31.7775 9.53286L28.4706 17.132H27.4482L28.6979 14.4708L26.5283 9.53286H27.6043L29.1768 13.3227L30.7074 9.53286H31.7775Z" fill="#5F6368"/>
<path d="M13.6389 11.0068C13.6389 10.7064 13.6155 10.4059 13.5677 10.1094H9.38281V11.8136H11.7738C11.7251 12.0844 11.6222 12.3426 11.4714 12.5728C11.3205 12.8029 11.1248 13.0003 10.8958 13.1529V14.2592H12.324C12.7582 13.839 13.0996 13.3325 13.3261 12.7723C13.5525 12.2122 13.6591 11.6107 13.6389 11.0068Z" fill="#4285F4"/>
<path d="M9.38633 15.3369C10.4655 15.3665 11.5155 14.9839 12.3226 14.2668L10.8925 13.1547C10.5489 13.375 10.1596 13.5141 9.75412 13.5613C9.34868 13.6085 8.9378 13.5627 8.55275 13.4273C8.16769 13.2918 7.81859 13.0704 7.53199 12.7797C7.24539 12.4891 7.02883 12.1369 6.8988 11.75H5.43359V12.8913C5.80024 13.6259 6.36427 14.2438 7.06244 14.6758C7.76062 15.1078 8.56533 15.3367 9.38633 15.3369Z" fill="#34A853"/>
<path d="M6.9052 11.7547C6.71966 11.2058 6.71966 10.6111 6.9052 10.0622V8.9209H5.44C5.12763 9.53688 4.96484 10.2178 4.96484 10.9085C4.96484 11.5991 5.12763 12.2801 5.44 12.8961L6.9052 11.7547Z" fill="#FBBC04"/>
<path d="M9.38633 8.23504C10.0175 8.22351 10.6276 8.46195 11.0837 8.89838L12.3519 7.63706C11.5433 6.87813 10.4707 6.46417 9.36194 6.48304C8.54581 6.48713 7.74675 6.71716 7.05335 7.14763C6.35996 7.5781 5.79932 8.19218 5.43359 8.9218L6.8988 10.0641C7.07012 9.53742 7.40225 9.07769 7.84846 8.74959C8.29467 8.42149 8.83252 8.24154 9.38633 8.23504Z" fill="#EA4335"/>
</svg>
