<svg width="38" height="24" viewBox="0 0 38 24" fill="none" xmlns="http://www.w3.org/2000/svg">
<path opacity="0.07" d="M34.1426 0H2.92651C1.26815 0 0 1.26815 0 2.92651V20.4856C0 22.1439 1.3657 23.4121 2.92651 23.4121H34.1426C35.801 23.4121 37.0691 22.1439 37.0691 20.4856V2.92651C37.0691 1.26815 35.7034 0 34.1426 0Z" fill="black"/>
<path d="M34.1358 0.976562C35.2089 0.976562 36.0869 1.85452 36.0869 2.92757V20.4866C36.0869 21.5597 35.2089 22.4376 34.1358 22.4376H2.91976C1.8467 22.4376 0.96875 21.5597 0.96875 20.4866V2.92757C0.96875 1.85452 1.8467 0.976562 2.91976 0.976562H34.1358Z" fill="white"/>
<path d="M14.6254 18.5359C18.3967 18.5359 21.4539 15.4787 21.4539 11.7074C21.4539 7.93614 18.3967 4.87891 14.6254 4.87891C10.8541 4.87891 7.79688 7.93614 7.79688 11.7074C7.79688 15.4787 10.8541 18.5359 14.6254 18.5359Z" fill="#EB001B"/>
<path d="M22.4301 18.5359C26.2014 18.5359 29.2586 15.4787 29.2586 11.7074C29.2586 7.93614 26.2014 4.87891 22.4301 4.87891C18.6588 4.87891 15.6016 7.93614 15.6016 11.7074C15.6016 15.4787 18.6588 18.5359 22.4301 18.5359Z" fill="#F79E1B"/>
<path d="M21.4546 11.7088C21.4546 9.3676 20.284 7.31904 18.5281 6.14844C16.7722 7.41659 15.6016 9.46515 15.6016 11.7088C15.6016 13.9525 16.7722 16.0986 18.5281 17.2692C20.284 16.0986 21.4546 14.05 21.4546 11.7088Z" fill="#FF5F00"/>
</svg>
