<svg width="38" height="24" viewBox="0 0 38 24" fill="none" xmlns="http://www.w3.org/2000/svg">
<path opacity="0.07" d="M34.1426 0H2.92651C1.26815 0 0 1.26815 0 2.92651V20.4856C0 22.1439 1.3657 23.4121 2.92651 23.4121H34.1426C35.801 23.4121 37.0691 22.1439 37.0691 20.4856V2.92651C37.0691 1.26815 35.7034 0 34.1426 0Z" fill="black"/>
<path d="M34.1437 0.976562C35.2167 0.976562 36.0947 1.85452 36.0947 2.92757V20.4866C36.0947 21.5597 35.2167 22.4376 34.1437 22.4376H2.92757C1.85452 22.4376 0.976562 21.5597 0.976562 20.4866V2.92757C0.976562 1.85452 1.85452 0.976562 2.92757 0.976562H34.1437Z" fill="white"/>
<path d="M23.3215 8.09807C23.5166 7.12256 23.3215 6.43971 22.7362 5.85441C22.1509 5.17156 21.0779 4.87891 19.7122 4.87891H15.7126C15.42 4.87891 15.2249 5.07401 15.1273 5.36666L13.6641 15.2192C13.6641 15.4143 13.7616 15.6094 13.9567 15.6094H16.5906L16.9808 12.2927L18.7367 10.1466L23.3215 8.09807Z" fill="#003087"/>
<path d="M23.3204 8.09961L23.1253 8.29471C22.6375 11.0261 20.9792 12.0016 18.638 12.0016H17.5649C17.2723 12.0016 17.0772 12.1967 16.9796 12.4894L16.3943 16.2938L16.1992 17.2693C16.1992 17.4644 16.2968 17.6595 16.4919 17.6595H18.5404C18.8331 17.6595 19.0282 17.4644 19.0282 17.2693V17.1718L19.4184 14.8306V14.733C19.4184 14.5379 19.711 14.3428 19.9061 14.3428H20.1988C22.2473 14.3428 23.8081 13.5624 24.1983 11.2212C24.3934 10.2457 24.2959 9.46531 23.8081 8.88001C23.7106 8.39226 23.5155 8.19716 23.3204 8.09961Z" fill="#3086C8"/>
<path d="M22.7281 7.90398C22.6306 7.80643 22.533 7.80643 22.4355 7.80643C22.3379 7.80643 22.2404 7.80643 22.1428 7.70888C21.8502 7.61133 21.46 7.61133 21.0698 7.61133H18.1433C18.0457 7.61133 17.9482 7.61133 17.9482 7.70888C17.7531 7.80643 17.6555 7.90398 17.6555 8.09908L16.9727 12.3913V12.4888C16.9727 12.1962 17.2653 12.0011 17.558 12.0011H18.8261C21.2649 12.0011 22.8257 11.0256 23.3134 8.29418V8.09908C23.2159 8.00153 23.0208 7.90398 22.8257 7.90398H22.7281Z" fill="#012169"/>
</svg>
