<svg width="38" height="24" viewBox="0 0 38 24" fill="none" xmlns="http://www.w3.org/2000/svg">
<path opacity="0.07" d="M34.1426 0H2.92651C1.26815 0 0 1.26815 0 2.92651V20.4856C0 22.1439 1.3657 23.4121 2.92651 23.4121H34.1426C35.801 23.4121 37.0691 22.1439 37.0691 20.4856V2.92651C37.0691 1.26815 35.7034 0 34.1426 0Z" fill="black"/>
<path d="M35.0149 0.97168C36.1453 0.97168 37.0703 1.84975 37.0703 2.92275V20.4806C37.0703 21.5536 36.1453 22.4317 35.0149 22.4317H2.12479C0.995312 22.4317 0.0703125 21.5536 0.0703125 20.4806V2.92275C0.0703125 1.84975 0.995313 0.97168 2.12576 0.97168H35.0149Z" fill="#5A31F4"/>
<path d="M9.13059 11.0908C8.13851 10.8733 7.6966 10.7884 7.6966 10.4031C7.6966 10.0402 7.99511 9.85875 8.59407 9.85875C9.12084 9.85875 9.50518 10.0909 9.78906 10.5455C9.79906 10.5624 9.81513 10.5748 9.83398 10.5802C9.85283 10.5857 9.87305 10.5837 9.89051 10.5748L11.0084 10.0051C11.018 9.99999 11.0263 9.99304 11.0331 9.98462C11.0399 9.97621 11.0449 9.96652 11.0478 9.95613C11.0507 9.94574 11.0515 9.93487 11.0501 9.92417C11.0487 9.91347 11.0451 9.90316 11.0397 9.89387C10.5763 9.08322 9.7198 8.63937 8.59114 8.63937C7.10837 8.63937 6.1875 9.37588 6.1875 10.5475C6.1875 11.7912 7.30933 12.1053 8.30434 12.3229C9.29935 12.5394 9.74223 12.6253 9.74223 13.0106C9.74223 13.3969 9.41837 13.5783 8.77356 13.5783C8.17655 13.5783 7.73465 13.3033 7.46638 12.7687C7.45699 12.7504 7.44076 12.7365 7.42122 12.7301C7.40167 12.7237 7.38039 12.7253 7.36201 12.7345L6.24701 13.2906C6.22808 13.3004 6.21378 13.3172 6.20721 13.3375C6.20063 13.3578 6.20231 13.3798 6.21189 13.3988C6.65477 14.2963 7.56198 14.8006 8.77453 14.8006C10.3188 14.8006 11.2513 14.0768 11.2513 12.8692C11.2513 11.6615 10.1246 11.3103 9.13157 11.0937L9.13059 11.0908ZM15.1202 8.63937C14.4861 8.63937 13.9262 8.86569 13.5243 9.26955C13.5187 9.27538 13.5116 9.27937 13.5037 9.28098C13.4959 9.28259 13.4877 9.28174 13.4803 9.27854C13.473 9.27534 13.4668 9.26995 13.4626 9.2631C13.4584 9.25626 13.4564 9.24829 13.4569 9.24028V6.66495C13.4571 6.65462 13.4552 6.64437 13.4513 6.63479C13.4474 6.62521 13.4417 6.61649 13.4344 6.60914C13.4272 6.60179 13.4185 6.59595 13.409 6.59197C13.3995 6.58799 13.3892 6.58594 13.3789 6.58594H11.9791C11.9686 6.58593 11.9583 6.58802 11.9487 6.59206C11.9391 6.5961 11.9304 6.60203 11.9232 6.60948C11.9159 6.61694 11.9102 6.62577 11.9064 6.63546C11.9026 6.64516 11.9008 6.65552 11.901 6.66593V14.6592C11.9008 14.6696 11.9026 14.68 11.9064 14.6897C11.9102 14.6994 11.9159 14.7082 11.9232 14.7156C11.9304 14.7231 11.9391 14.729 11.9487 14.7331C11.9583 14.7371 11.9686 14.7392 11.9791 14.7392H13.377C13.3875 14.7393 13.3979 14.7373 13.4076 14.7334C13.4173 14.7294 13.4261 14.7235 13.4335 14.716C13.4409 14.7085 13.4466 14.6997 13.4505 14.6899C13.4544 14.6801 13.4562 14.6697 13.456 14.6592V11.1532C13.456 10.4753 13.971 9.9563 14.6646 9.9563C15.3572 9.9563 15.8606 10.4645 15.8606 11.1532V14.6592C15.8603 14.6697 15.8622 14.6801 15.866 14.6899C15.8699 14.6997 15.8757 14.7085 15.8831 14.716C15.8905 14.7235 15.8993 14.7294 15.909 14.7334C15.9187 14.7373 15.9291 14.7393 15.9396 14.7392H17.3375C17.348 14.7393 17.3584 14.7373 17.3681 14.7334C17.3778 14.7294 17.3866 14.7235 17.394 14.716C17.4014 14.7085 17.4072 14.6997 17.4111 14.6899C17.4149 14.6801 17.4168 14.6697 17.4165 14.6592V11.1532C17.4165 9.68023 16.4605 8.63937 15.1202 8.63937ZM20.2543 8.41013C19.4953 8.41013 18.7842 8.64425 18.274 8.98372C18.2569 8.99477 18.2446 9.01192 18.2398 9.03167C18.2349 9.05143 18.2377 9.07231 18.2476 9.09005L18.8642 10.1514C18.8692 10.1604 18.876 10.1684 18.8842 10.1747C18.8924 10.1811 18.9017 10.1858 18.9117 10.1885C18.9217 10.1912 18.9321 10.1919 18.9424 10.1906C18.9526 10.1892 18.9625 10.1859 18.9715 10.1807C19.3585 9.94444 19.8037 9.8208 20.2572 9.82363C21.4766 9.82363 22.374 10.6928 22.374 11.841C22.374 12.8194 21.656 13.5432 20.7459 13.5432C20.0045 13.5432 19.4895 13.1082 19.4895 12.4926C19.4895 12.1405 19.6377 11.8517 20.024 11.6478C20.0336 11.6429 20.0421 11.6361 20.0489 11.6278C20.0558 11.6195 20.0608 11.6099 20.0637 11.5995C20.0667 11.5892 20.0674 11.5783 20.066 11.5677C20.0645 11.557 20.0609 11.5468 20.0552 11.5376L19.4738 10.5445C19.4646 10.5284 19.4499 10.5161 19.4324 10.5098C19.4148 10.5035 19.3956 10.5037 19.3782 10.5104C18.5988 10.8021 18.0525 11.5034 18.0525 12.4458C18.0525 13.87 19.1763 14.9333 20.7449 14.9333C22.5759 14.9333 23.8929 13.6525 23.8929 11.8166C23.8929 9.84802 22.3613 8.41013 20.2543 8.41013ZM27.9822 8.62767C27.2759 8.62767 26.6428 8.89105 26.1824 9.35539C26.157 9.38173 26.1151 9.36222 26.1151 9.3271V8.76911C26.1153 8.7587 26.1135 8.74834 26.1097 8.73865C26.1059 8.72895 26.1002 8.72012 26.0929 8.71266C26.0856 8.70521 26.077 8.69929 26.0674 8.69524C26.0578 8.6912 26.0474 8.68912 26.037 8.68912H24.6743C24.6638 8.68912 24.6535 8.6912 24.6439 8.69524C24.6343 8.69929 24.6256 8.70521 24.6184 8.71266C24.6111 8.72012 24.6054 8.72895 24.6016 8.73865C24.5978 8.74834 24.596 8.7587 24.5962 8.76911V16.7507C24.5961 16.761 24.598 16.7713 24.6019 16.7808C24.6057 16.7904 24.6115 16.7991 24.6187 16.8065C24.626 16.8138 24.6346 16.8197 24.6442 16.8237C24.6537 16.8276 24.6639 16.8297 24.6743 16.8297H26.0721C26.0826 16.8298 26.0929 16.8279 26.1025 16.8239C26.1122 16.82 26.121 16.8142 26.1283 16.8068C26.1357 16.7995 26.1415 16.7907 26.1454 16.7811C26.1493 16.7714 26.1513 16.7611 26.1512 16.7507V14.1334C26.1512 14.0983 26.1931 14.0807 26.2185 14.1041C26.6964 14.5506 27.3282 14.7953 27.9822 14.787C29.623 14.787 30.9019 13.4476 30.9019 11.7073C30.9019 9.96703 29.621 8.62767 27.9822 8.62767ZM27.7178 13.4359C26.7852 13.4359 26.078 12.6867 26.078 11.6966C26.078 10.7065 26.7833 9.95728 27.7178 9.95728C28.6524 9.95728 29.3567 10.6938 29.3567 11.6966C29.3567 12.6984 28.6621 13.4359 27.7178 13.4359Z" fill="white"/>
</svg>
