<svg width="38" height="24" viewBox="0 0 38 24" fill="none" xmlns="http://www.w3.org/2000/svg">
<path opacity="0.07" d="M34.1426 0H2.92651C1.26815 0 0 1.26815 0 2.92651V20.4856C0 22.1439 1.3657 23.4121 2.92651 23.4121H34.1426C35.801 23.4121 37.0691 22.1439 37.0691 20.4856V2.92651C37.0691 1.26815 35.7034 0 34.1426 0Z" fill="black"/>
<path d="M34.1437 0.977539C35.2167 0.977539 36.0947 1.85549 36.0947 2.92854V20.4876C36.0947 21.5606 35.2167 22.4386 34.1437 22.4386H2.92757C1.85452 22.4386 0.976562 21.5606 0.976562 20.4876V2.92854C0.976562 1.85549 1.85452 0.977539 2.92757 0.977539H34.1437Z" fill="white"/>
<path d="M27.6042 9.85422H27.3116C26.9214 10.8297 26.6287 11.3175 26.3361 12.7807H28.1895C27.8969 11.3175 27.8969 10.6346 27.6042 9.85422ZM30.4332 15.6097H28.7748C28.6773 15.6097 28.6773 15.6097 28.5797 15.5121L28.3846 14.6342L28.2871 14.4391H25.9459C25.8483 14.4391 25.7508 14.4391 25.7508 14.6342L25.4581 15.5121C25.4581 15.6097 25.3606 15.6097 25.3606 15.6097H23.312L23.5071 15.1219L26.3361 8.48852C26.3361 8.00076 26.6287 7.80566 27.1165 7.80566H28.5797C28.6773 7.80566 28.7748 7.80566 28.7748 8.00076L30.1405 14.3415C30.2381 14.7317 30.3356 15.0244 30.3356 15.4146C30.4332 15.5121 30.4332 15.5121 30.4332 15.6097ZM17.3614 15.317L17.7516 13.5611C17.8492 13.5611 17.9467 13.6587 17.9467 13.6587C18.6296 13.9513 19.3124 14.1464 19.9953 14.0489C20.1904 14.0489 20.483 13.9513 20.6781 13.8538C21.1659 13.6587 21.1659 13.1709 20.7757 12.7807C20.5806 12.5856 20.2879 12.4881 19.9953 12.293C19.6051 12.0979 19.2149 11.9028 18.9222 11.6101C17.7516 10.6346 18.1418 9.26892 18.8247 8.58607C19.41 8.19587 19.7026 7.80566 20.483 7.80566C21.6536 7.80566 22.9218 7.80566 23.5071 8.00076H23.6047C23.5071 8.58607 23.4096 9.07382 23.2145 9.65912C22.7267 9.46402 22.239 9.26892 21.7512 9.26892C21.4585 9.26892 21.1659 9.26892 20.8732 9.36647C20.6781 9.36647 20.5806 9.46402 20.483 9.56157C20.2879 9.75667 20.2879 10.0493 20.483 10.2444L20.9708 10.6346C21.361 10.8297 21.7512 11.0248 22.0438 11.2199C22.5316 11.5126 23.0194 12.0003 23.1169 12.5856C23.312 13.4636 23.0194 14.244 22.239 14.8293C21.7512 15.2195 21.5561 15.4146 20.8732 15.4146C19.5075 15.4146 18.4345 15.5121 17.5565 15.2195C17.459 15.4146 17.459 15.4146 17.3614 15.317ZM13.9472 15.6097C14.0447 14.9268 14.0447 14.9268 14.1423 14.6342C14.63 12.4881 15.1178 10.2444 15.508 8.09832C15.6055 7.90321 15.6055 7.80566 15.8006 7.80566H17.5565C17.3614 8.97627 17.1663 9.85422 16.8737 10.9273C16.581 12.3905 16.2884 13.8538 15.8982 15.317C15.8982 15.5121 15.8006 15.5121 15.6055 15.5121M4.875 8.00076C4.875 7.90321 5.0701 7.80566 5.16765 7.80566H8.48436C8.97211 7.80566 9.36231 8.09832 9.45986 8.58607L10.3378 12.8783C10.3378 12.9758 10.3378 12.9758 10.4354 13.0734C10.4354 12.9758 10.5329 12.9758 10.5329 12.9758L12.5815 8.00076C12.4839 7.90321 12.5815 7.80566 12.679 7.80566H14.7276C14.7276 7.90321 14.7276 7.90321 14.63 8.00076L11.606 15.1219C11.5084 15.317 11.5084 15.4146 11.4109 15.5121C11.3133 15.6097 11.1182 15.5121 10.9231 15.5121H9.45986C9.36231 15.5121 9.26476 15.5121 9.26476 15.317L7.70396 9.26892C7.50886 9.07382 7.21621 8.78117 6.82601 8.68362C6.2407 8.39097 5.16765 8.19586 4.97255 8.19586L4.875 8.00076Z" fill="#142688"/>
</svg>
